<?xml version="1.0" standalone="no"?>
<!DOCTYPE svg PUBLIC "-//W3C//DTD SVG 1.1//EN" "http://www.w3.org/Graphics/SVG/1.1/DTD/svg11.dtd" >
<svg xmlns="http://www.w3.org/2000/svg">
<metadata>
Copyright   : Copyright 2013 Luc(as) de Groot. All rights reserved. Published by LucasFonts.com
Designer    : Luc(as) de Groot
Foundry     : LucasFonts
Foundry URL : http://lucasfonts.com
</metadata>
<defs>
<font id="TheSans_B2_5_" horiz-adv-x="1126" >
<font-face units-per-em="2048" ascent="1516" descent="-532" />
<missing-glyph horiz-adv-x="446" />
<glyph unicode=" "  horiz-adv-x="446" />
<glyph unicode="&#x09;" horiz-adv-x="446" />
<glyph unicode="&#xa0;" horiz-adv-x="446" />
<glyph unicode="!" horiz-adv-x="655" d="M469 102q0 -51 -36 -85.5t-87 -34.5q-53 0 -89 34.5t-36 85.5t36 86t89 35q51 0 87 -35t36 -86zM424 344h-154l-32 1096h217z" />
<glyph unicode="&#x22;" horiz-adv-x="749" d="M270 961h-135l-29 471h195zM614 961h-137l-28 471h194z" />
<glyph unicode="#" horiz-adv-x="1181" d="M918 879l-39 -363h186v-127h-201l-41 -389h-147l39 389h-314l-41 -389h-147l41 389h-188v127h200l41 363h-190v127h200l41 376h150l-41 -376h313l41 376h150l-41 -376h184v-127h-196zM455 879l-39 -363h313l39 363h-313z" />
<glyph unicode="$" horiz-adv-x="1001" d="M891 426q0 -70 -23.5 -131.5t-67.5 -110.5t-108.5 -83.5t-144.5 -49.5v-266h-137v258q-74 2 -135.5 9t-118.5 22l12 172q27 -10 60.5 -19.5t69.5 -15.5t70.5 -9t65.5 -3q57 0 105.5 12t84 36.5t55 62.5t19.5 91q0 63 -38.5 105.5t-80.5 63t-151 65.5t-169 85t-100 105.5 t-40 161.5q0 66 23.5 124t66.5 103.5t103.5 75t133.5 41.5v215h138v-207q59 -2 114.5 -8t102.5 -16l-13 -164q-57 16 -117.5 26.5t-113.5 10.5q-68 0 -117 -14.5t-78.5 -40t-43 -57.5t-13.5 -66q0 -61 39 -103.5t80 -62t152.5 -66.5t173 -87t101.5 -105.5t40 -159.5z" />
<glyph unicode="%" horiz-adv-x="1536" d="M535 1081q0 102 -36 150.5t-112 48.5q-66 0 -105.5 -52t-39.5 -141q0 -203 151 -202q61 0 101.5 54t40.5 142zM1294 299q0 102 -35.5 150.5t-111.5 48.5q-66 0 -106 -52.5t-40 -140.5q0 -201 152 -201q61 0 101 53.5t40 141.5zM686 1094q0 -72 -21.5 -133.5t-62.5 -105.5 t-98.5 -68.5t-124.5 -24.5q-145 0 -217 81t-72 232q0 70 21.5 130.5t62.5 104.5t97.5 68.5t125.5 24.5q143 0 216 -78.5t73 -230.5zM315 -43l-118 86l1017 1378l119 -84zM1446 313q0 -72 -21.5 -133t-62.5 -106t-98.5 -69.5t-124.5 -24.5q-145 0 -217 81.5t-72 231.5 q0 70 21.5 130t62.5 104t97 69t126 25q143 0 216 -79t73 -229z" />
<glyph unicode="&#x26;" horiz-adv-x="1628" d="M975 281q-63 51 -131 107t-131.5 111.5t-118.5 107.5t-98 100q-102 -86 -147.5 -157t-45.5 -151q0 -53 19.5 -101t57.5 -85t95 -56.5t125 -19.5q123 0 216 42.5t159 101.5zM717 1212q0 63 -40 108.5t-120 45.5q-72 0 -119 -46t-47 -114q0 -51 27.5 -118.5t111.5 -163.5 q88 68 137.5 139t49.5 149zM1397 -41q-74 55 -152 114.5t-137 106.5q-100 -88 -237.5 -144t-301.5 -56q-111 0 -199.5 30.5t-145 85t-83 126t-26.5 155.5q0 131 74.5 237.5t201.5 200.5q-53 66 -88 117t-55.5 97t-29.5 86t-9 81q0 63 23.5 118.5t69.5 98.5t114.5 68.5 t156.5 25.5q156 0 242 -77.5t86 -200.5q0 -111 -63.5 -206t-202.5 -204q45 -47 100.5 -97t115.5 -102.5t124.5 -105.5t126.5 -100v0q68 94 104.5 222t30.5 282h184q4 -174 -44 -330t-142 -277q78 -59 149.5 -112.5t126.5 -94.5z" />
<glyph unicode="'" horiz-adv-x="407" d="M270 961h-135l-29 471h195z" />
<glyph unicode="(" horiz-adv-x="620" d="M442 -428q-88 139 -146 272t-92 258t-47.5 242t-13.5 238q0 119 15.5 239.5t50.5 248.5t93 262t142 267l134 -63q-125 -213 -189.5 -453.5t-64.5 -490.5q0 -522 256 -952z" />
<glyph unicode=")" horiz-adv-x="620" d="M487 592q0 -119 -15 -240t-49 -250t-93.5 -263t-143.5 -267l-133 66q125 213 189.5 452.5t64.5 489.5q0 262 -63.5 499.5t-192.5 454.5l139 65q86 -139 145.5 -271t92.5 -257t46 -241.5t13 -237.5z" />
<glyph unicode="*" horiz-adv-x="765" d="M606 977l-184 135l22 -229h-137l23 229l-185 -135l-67 119l211 92l-211 94l69 119l185 -135l-23 229h137l-24 -229l186 135l68 -119l-211 -92l211 -94z" />
<glyph unicode="+" d="M649 532v-411h-174v411h-389v154h389v410h174v-410h391v-154h-391z" />
<glyph unicode="," horiz-adv-x="466" d="M229 231q57 0 92 -43t35 -112q0 -51 -19.5 -106.5t-51 -105.5t-72.5 -96.5t-82 -82.5l-78 69q45 47 80 104.5t35 110.5q0 31 -8 48.5t-19.5 33t-17.5 31.5t-6 37q0 45 31.5 78.5t80.5 33.5z" />
<glyph unicode="-" horiz-adv-x="675" d="M96 512v152h484v-152h-484z" />
<glyph unicode="&#xad;" horiz-adv-x="675" d="M96 512v152h484v-152h-484z" />
<glyph unicode="." horiz-adv-x="466" d="M360 109q0 -51 -36.5 -89t-90.5 -38q-53 0 -90 37.5t-37 89.5q2 57 40 92t87 35q53 0 90 -38t37 -89z" />
<glyph unicode="/" horiz-adv-x="897" d="M182 -330h-176l717 1880h176z" />
<glyph unicode="0" horiz-adv-x="1257" d="M1153 547q0 -129 -41 -234.5t-115.5 -180.5t-172 -113.5t-208.5 -38.5q-117 0 -212 36.5t-162.5 106.5t-102.5 170t-35 225q0 129 41 234.5t116 180.5t172 113.5t208 38.5q117 0 212 -36.5t162.5 -106.5t102.5 -170t35 -225zM963 532q0 84 -21.5 157t-63.5 126t-104.5 83 t-144.5 30q-72 0 -133.5 -28t-107.5 -79t-70.5 -124.5t-24.5 -164.5q0 -84 21.5 -156.5t64.5 -125.5t105.5 -83t144.5 -30q72 0 133 28t106 79t70 124.5t25 163.5z" />
<glyph unicode="1" horiz-adv-x="692" d="M313 0v893l-231 -98l-31 157l303 117h150v-1069h-191z" />
<glyph unicode="2" horiz-adv-x="987" d="M109 0v147l270 232q63 49 111.5 93t81 86t49 83t16.5 86q0 88 -55.5 145.5t-163.5 57.5q-72 0 -142.5 -25.5t-115.5 -52.5l-27 160q68 33 148.5 53t175.5 20q94 0 164.5 -24.5t118.5 -68.5t73 -103.5t25 -128.5q0 -113 -63.5 -213.5t-199.5 -204.5l-215 -176l-4 -8 q39 4 95.5 5t126 2t147.5 1h160v-166h-776z" />
<glyph unicode="3" horiz-adv-x="944" d="M836 74q0 -96 -38 -182.5t-110 -150t-176 -99t-240 -35.5q-45 0 -97 5t-93 15l18 166q37 -10 87.5 -18t101.5 -8q86 0 150.5 21.5t108.5 60t66.5 89t22.5 111.5q0 76 -35 130t-96.5 86t-148.5 42t-193 0v148q102 0 184 16t139.5 50t88 85t30.5 119q0 96 -61.5 151.5 t-167.5 55.5q-66 0 -128.5 -17.5t-113.5 -46.5l-18 158q70 29 142.5 44t150.5 15q102 0 175.5 -27.5t121 -71.5t71 -104.5t23.5 -125.5q0 -119 -68.5 -207t-179.5 -133v-2q63 -12 116.5 -42t89.5 -75t56.5 -101t20.5 -122z" />
<glyph unicode="4" horiz-adv-x="1114" d="M840 0v-383h-183v383h-596l-28 152l567 913h59h181v-899h245v-166h-245zM659 885h-2l-446 -721q45 0 109.5 1t131 1h124h83.5v719z" />
<glyph unicode="5" horiz-adv-x="956" d="M858 106q0 -106 -43 -198t-124 -159.5t-190.5 -104.5t-238.5 -37q-45 0 -86 3t-74 9l17 164q37 -6 80 -11t82 -5q92 0 163.5 24.5t119.5 67.5t73 99t25 120q0 141 -102.5 217t-299.5 76h-51.5t-48.5 -2v696h649v-180h-473v-357q123 0 221 -30.5t164.5 -86t101.5 -133.5 t35 -172z" />
<glyph unicode="6" horiz-adv-x="1191" d="M895 444q0 139 -71.5 218t-196.5 79q-70 0 -123 -23.5t-88 -63.5t-52.5 -90t-17.5 -103q0 -63 16.5 -121.5t50 -104t86 -72t122.5 -26.5q63 0 114 23.5t86 64.5t54.5 97t19.5 122zM1092 471q0 -106 -36 -197.5t-101.5 -156t-156.5 -101t-202 -36.5q-217 0 -339 155.5 t-122 433.5q0 219 54.5 383t151.5 272.5t230.5 164t292.5 55.5q16 0 45 -1t49 -3v-164q-29 4 -56.5 7t-55.5 3q-109 0 -194 -33.5t-146.5 -95t-101 -148.5t-60.5 -192q-4 -16 -8 -33.5t-8 -46.5l2 -2q47 78 134 123t204 45q98 0 177 -30.5t134 -88t84 -136.5t29 -177z" />
<glyph unicode="7" horiz-adv-x="940" d="M881 909q-123 -281 -233.5 -605t-192.5 -687h-209q90 362 203.5 681.5t226.5 590.5q-51 -2 -148.5 -3t-181.5 -1h-295v180h830v-156v0z" />
<glyph unicode="8" horiz-adv-x="1128" d="M815 342q0 102 -73.5 171t-194.5 134h-2q-104 -61 -169 -131t-65 -162q0 -98 67.5 -158.5t186.5 -60.5q104 0 177 54.5t73 152.5zM793 1102q0 82 -58.5 140t-171.5 58t-173 -58t-60 -144t62.5 -146.5t176.5 -124.5h2q117 74 169.5 135.5t52.5 139.5zM1012 367 q0 -94 -38 -166t-101.5 -121t-148.5 -74.5t-181 -25.5q-104 0 -184 26.5t-134.5 73.5t-82 112.5t-27.5 141.5q0 72 25.5 129t65.5 104t91 86t102 72h-2q-125 72 -193.5 158t-68.5 204q0 80 32 148t89 116t138 74.5t179 26.5q96 0 172 -24.5t129.5 -68.5t81 -104.5 t27.5 -134.5q0 -111 -65.5 -196.5t-202.5 -171.5q55 -33 108.5 -70t95.5 -83t67.5 -102t25.5 -130z" />
<glyph unicode="9" horiz-adv-x="1191" d="M846 590q0 147 -70.5 242.5t-206.5 95.5q-61 0 -111 -23.5t-87 -65.5t-56.5 -97.5t-19.5 -118.5q0 -143 70.5 -221t199.5 -78q63 0 115.5 22.5t89.5 59t56.5 85t19.5 99.5zM1057 489q0 -215 -52.5 -382.5t-151.5 -278.5t-233.5 -166t-306.5 -55q-23 0 -53.5 2t-69.5 8 v172q29 -8 67 -14t67 -6q219 0 341.5 112.5t168.5 323.5q4 16 9 48t9 60h-2q-51 -72 -137 -113.5t-193 -41.5q-98 0 -176 30.5t-132 87t-83 137.5t-29 179q0 104 35 194.5t99.5 157t153.5 104t200 37.5q102 0 188 -35.5t148.5 -108.5t97.5 -184.5t35 -267.5z" />
<glyph unicode=":" horiz-adv-x="585" d="M451 109q0 -53 -37 -90t-90 -37t-90 36.5t-37 90.5q0 53 36.5 90t90.5 37q53 0 90 -37t37 -90zM451 709q0 -53 -37 -90t-90 -37t-90 36.5t-37 90.5q0 53 36.5 90t90.5 37q53 0 90 -37t37 -90z" />
<glyph unicode=";" horiz-adv-x="585" d="M322 231q57 0 92 -43t35 -112q-2 -102 -67 -204.5t-159 -186.5l-78 69q45 47 80 104.5t35 110.5q0 31 -8 48.5t-19.5 33t-17.5 31.5t-6 37q0 45 32 78.5t81 33.5zM451 709q0 -53 -37 -90t-90 -37t-90 36.5t-37 90.5q0 53 36.5 90t90.5 37q53 0 90 -37t37 -90z" />
<glyph unicode="&#x3c;" d="M795 39l-648 579l648 582l118 -119l-530 -460l530 -455z" />
<glyph unicode="=" d="M115 358v152h897v-152h-897zM115 709v151h897v-151h-897z" />
<glyph unicode="&#x3e;" d="M332 39l-119 119l530 460l-530 455l119 127l647 -579z" />
<glyph unicode="?" horiz-adv-x="911" d="M516 102q0 -51 -36 -85.5t-89 -34.5q-51 0 -87 34.5t-36 85.5t36 86t87 35q53 0 89 -35t36 -86zM788 1057q0 -78 -27.5 -137.5t-58 -93t-97 -99t-99.5 -114t-42 -115t17 -154.5h-180q-31 96 -24.5 170t37 129t81.5 107.5t94 96.5t70 90t27 101q0 102 -113 171t-301 77 l23 168q139 -4 250.5 -38t187.5 -88t115.5 -124.5t39.5 -146.5z" />
<glyph unicode="@" horiz-adv-x="2097" d="M1221 872q-53 14 -127 15q-72 0 -127.5 -38t-92 -100.5t-54 -135t-17.5 -140.5q0 -190 110 -190q41 0 83 30.5t81 91t71 149.5t52 202zM1925 750q0 -141 -37 -257t-104.5 -198t-156.5 -124t-191 -42q-66 0 -115 20.5t-79 55.5t-42 80t-8 94h-4q-20 -47 -50 -91t-71 -80 t-92 -57.5t-109 -21.5q-113 0 -178 82t-65 231q0 121 32.5 227.5t97 189.5t161 129t219.5 46q115 -2 186.5 -13t105.5 -20l-86 -454q-27 -129 6 -196.5t117 -67.5q61 0 115.5 30.5t94.5 90t62.5 144.5t22.5 189q0 113 -35.5 217.5t-112.5 187.5t-199 131t-286 48 q-162 0 -306 -61.5t-252.5 -174t-169 -266t-60.5 -332.5q0 -156 44 -280.5t131 -212.5t217 -135t300 -47q92 0 188.5 14t192.5 41l23 -141q-96 -29 -210 -45.5t-214 -16.5q-199 0 -355.5 56.5t-264 162t-164 254t-56.5 330.5q0 215 74.5 399.5t209 319.5t310.5 207.5 t371 72.5q193 0 343 -56t249.5 -156.5t149.5 -229.5t50 -274z" />
<glyph unicode="A" horiz-adv-x="1259" d="M682 1010q-14 43 -29.5 94t-29.5 100h-2q-10 -41 -23.5 -84t-34.5 -108l-188 -533h495zM1028 0l-113 330h-587l-115 -330h-193l496 1382h229l494 -1382h-211z" />
<glyph unicode="B" horiz-adv-x="1169" d="M868 397q0 59 -20.5 104.5t-64.5 76t-114.5 47t-166.5 16.5h-50.5t-49 -1t-40.5 -1v-483q61 -10 179 -11q164 0 245.5 69.5t81.5 182.5zM823 1020q0 49 -14 88t-48 69.5t-90.5 47t-138.5 16.5q-31 0 -74.5 -2t-95.5 -4v-451q18 0 38 -1t41.5 -1h62.5q158 0 238.5 61.5 t80.5 176.5zM1067 410q0 -74 -28.5 -147t-92 -134t-169 -98t-251.5 -37q-55 0 -182 3t-170 3v1382q49 2 155.5 5.5t221.5 3.5q236 0 352.5 -90.5t116.5 -251.5q0 -109 -60.5 -194t-168.5 -124v-2q63 -12 114 -38.5t87 -67.5t55.5 -95.5t19.5 -117.5z" />
<glyph unicode="C" horiz-adv-x="1193" d="M1102 57q-82 -35 -180.5 -54t-198.5 -19q-162 0 -281.5 50t-196.5 140t-114 213t-37 270q0 162 41 296t124 233.5t212 154t299 54.5q80 0 164 -11.5t153 -31.5l-30 -172q-74 25 -152 39t-153 14q-117 0 -203 -41t-142.5 -116t-83 -173t-26.5 -215q0 -260 115.5 -398 t349.5 -138q76 0 160 18t149 49z" />
<glyph unicode="D" horiz-adv-x="1388" d="M1096 694q0 266 -130 403.5t-397 137.5q-45 0 -112.5 -2t-94.5 -4v-1065q37 -6 87.5 -9t95.5 -3q123 0 224 32.5t174 99t113 170t40 240.5zM1294 707q0 -174 -55 -308.5t-158.5 -225.5t-245 -136t-311.5 -45q-74 0 -188.5 4t-161.5 4v1380q113 2 217.5 5.5t196.5 3.5 q168 0 299 -40t222 -124t138 -213t47 -305z" />
<glyph unicode="E" horiz-adv-x="1050" d="M174 0v1382h737v-155h-549v-439h504v-151h-504v-479h549v-158h-737z" />
<glyph unicode="F" horiz-adv-x="964" d="M362 1227v-451h494v-151h-494v-625h-188v1382h719v-155h-531z" />
<glyph unicode="G" horiz-adv-x="1396" d="M1231 61q-102 -39 -222 -59t-235 -20q-162 0 -289 46t-216 134t-135 213t-46 282q0 164 48 300.5t142.5 235.5t233.5 153.5t319 54.5q98 0 194.5 -15.5t188.5 -44.5l-40 -170q-86 33 -177.5 50.5t-183.5 17.5q-135 0 -235.5 -44t-164 -121t-94 -176t-30.5 -212 q0 -129 34.5 -229.5t100 -170t161 -105.5t216.5 -36q66 0 125 9.5t118 27.5v523h187v-644z" />
<glyph unicode="H" horiz-adv-x="1429" d="M1067 0v637h-705v-637h-188v1382h188v-585h705v585h188v-1382h-188z" />
<glyph unicode="I" horiz-adv-x="536" d="M174 0v1382h188v-1382h-188z" />
<glyph unicode="J" horiz-adv-x="708" d="M535 365q0 -180 -90.5 -279.5t-274.5 -99.5q-98 0 -168 16v164q29 -8 75 -15.5t83 -7.5q45 0 78.5 11.5t57 37t37 69.5t13.5 112v1009h189v-1017z" />
<glyph unicode="K" horiz-adv-x="1196" d="M909 0l-547 684v-684h-188v1382h188v-651l549 651h230l-584 -665l608 -717h-256z" />
<glyph unicode="L" horiz-adv-x="872" d="M174 0v1382h188v-1222h496v-160h-684z" />
<glyph unicode="M" horiz-adv-x="1830" d="M1540 0l-108 807q-16 129 -26.5 229.5t-12.5 171.5h-4q-14 -59 -35 -131.5t-49 -163.5l-320 -913h-172l-303 866q-31 90 -58.5 182.5t-43.5 159.5h-2q-2 -84 -11.5 -186t-21.5 -223l-90 -799h-187l178 1382h258l308 -872q23 -68 40 -129.5t27 -118.5h2q14 66 30.5 129.5 t35.5 118.5l307 872h266l187 -1382h-195z" />
<glyph unicode="N" horiz-adv-x="1419" d="M1061 0h-10l-512 809q-39 59 -67 106.5t-51.5 88t-42 75.5t-34.5 70h-4q4 -59 7 -150.5t6 -197t4 -215t1 -199.5v-387h-184v1382v0h141h91l481 -761q41 -61 69.5 -109.5t50 -87.5t36 -67.5t32.5 -65.5h4q-4 68 -7 156t-5 187t-4 202.5t-2 197.5v348h184v-1382h-184z" />
<glyph unicode="O" horiz-adv-x="1452" d="M1167 682q0 256 -112.5 405.5t-327.5 149.5q-94 0 -174 -35t-140.5 -103.5t-93 -170t-32.5 -228.5q0 -125 27.5 -227t83 -176t138 -113t191.5 -39q94 0 174 35t140.5 103.5t93 170t32.5 228.5zM1366 711q0 -172 -51 -309.5t-142.5 -231.5t-210 -142t-253.5 -48 q-150 0 -265.5 48t-194.5 138t-120 218t-41 288q0 172 51 309t142.5 231.5t210 142.5t253.5 48q150 0 265.5 -48t194.5 -138.5t120 -218t41 -287.5z" />
<glyph unicode="P" d="M1061 961q0 -104 -38 -193.5t-110.5 -156t-175 -102.5t-229.5 -36q-45 0 -86 2t-60 4v-479h-188v1382q49 2 153.5 5.5t209.5 3.5q258 0 391 -121t133 -309zM866 934q0 139 -88 221t-264 82q-45 0 -88 -1t-64 -3v-594q20 -2 65.5 -7t94.5 -5q166 0 255 85t89 222z" />
<glyph unicode="Q" horiz-adv-x="1452" d="M1167 682q0 256 -112.5 405.5t-327.5 149.5q-94 0 -174 -35t-140.5 -103.5t-93 -170t-32.5 -228.5q0 -125 27.5 -227t83 -176t138 -113t191.5 -39q94 0 174 35t140.5 103.5t93 170t32.5 228.5zM1448 -137q-82 -10 -146.5 -6t-113.5 16t-92 27.5t-101.5 37t-113 32 t-121.5 10.5h-51q-150 0 -265.5 48t-194.5 138t-120 218t-41 288q0 172 51 309t142.5 231.5t210 142.5t253.5 48q150 0 265.5 -48t194.5 -138.5t120 -218.5t41 -287q0 -90 -14.5 -172t-43 -154t-69.5 -130t-93 -102t-114 -69q41 0 90 -14.5t94.5 -27.5t101.5 -19.5t130 2.5 v-162z" />
<glyph unicode="R" horiz-adv-x="1161" d="M823 991q0 119 -78.5 182.5t-226.5 63.5q-47 0 -91 -1t-65 -3v-492q20 0 62.5 -1t85.5 -1q150 0 231.5 66.5t81.5 185.5zM881 0l-418 598h-101v-598h-188v1380q45 2 147.5 6.5t213.5 4.5t199.5 -22.5t152 -69t98.5 -118t35 -167.5q0 -88 -27.5 -157t-78 -117t-116 -77.5 t-141.5 -39.5q14 -18 47 -59.5t66 -88.5l344 -475h-233z" />
<glyph unicode="S" horiz-adv-x="1030" d="M932 391q0 -90 -33 -164.5t-98.5 -130t-160.5 -85t-216 -29.5q-84 0 -164 10t-147 28l24 179q70 -27 146.5 -41.5t152.5 -14.5q66 0 120 13.5t94 41t61.5 70.5t21.5 103q0 72 -42 120t-92 73.5t-163.5 74.5t-179.5 92t-109 113.5t-43 175.5q0 84 33 154.5t94.5 121 t152.5 78t204 27.5q63 0 128.5 -7.5t121.5 -19.5l-23 -166q-57 16 -118.5 26.5t-121.5 10.5q-137 0 -207.5 -54t-70.5 -153q0 -70 43 -117t90 -70.5t165 -74.5t184.5 -95t109.5 -115t43 -175z" />
<glyph unicode="T" horiz-adv-x="1056" d="M623 1225v-1225h-189v1225h-397v157h985v-157h-399z" />
<glyph unicode="U" horiz-adv-x="1419" d="M1243 528q0 -272 -139 -410t-412 -138q-162 0 -263 40.5t-157.5 109.5t-77 155t-20.5 180v917h188v-903q0 -72 14.5 -134t52.5 -109.5t104.5 -74t171.5 -26.5q180 -2 267 84t87 295v868h184v-854v0z" />
<glyph unicode="V" horiz-adv-x="1265" d="M745 0h-229l-493 1382h210l310 -899q23 -61 47 -142t45 -159h2q23 76 47.5 157t48.5 153l311 890h197z" />
<glyph unicode="W" horiz-adv-x="1955" d="M1520 0h-236l-262 909q-12 45 -23.5 97.5t-21.5 115.5h-4q-14 -106 -41 -213l-256 -909h-238l-368 1382h200l238 -897q20 -82 34.5 -153.5t24.5 -143.5h4q33 180 62 289l256 905h188l266 -917q20 -70 37 -141.5t27 -135.5h2q14 82 24.5 140.5t24.5 115.5l244 938h184z " />
<glyph unicode="X" horiz-adv-x="1226" d="M956 0l-352 571l-350 -571h-219l454 713l-426 669h218l327 -528l322 528h213l-420 -663l469 -719h-236z" />
<glyph unicode="Y" horiz-adv-x="1099" d="M641 530v-530h-186v530l-451 852h207l238 -450q55 -111 102 -227h4q27 66 59.5 133t51.5 102l229 442h201z" />
<glyph unicode="Z" horiz-adv-x="1103" d="M94 0v139l580 914q47 70 66.5 99.5t45.5 66.5q-59 -2 -131.5 -3.5t-171.5 -1.5h-368v168h891v-143l-611 -950q-25 -35 -46 -67t-36 -54q29 2 105 3t239 1h357v-172h-920z" />
<glyph unicode="[" horiz-adv-x="659" d="M176 -408v1987h406v-141h-234v-1700h234v-146h-406z" />
<glyph unicode="\" horiz-adv-x="905" d="M739 -330l-716 1880h178l717 -1880h-179z" />
<glyph unicode="]" horiz-adv-x="659" d="M78 -408v146h233v1700h-233v141h405v-1987h-405z" />
<glyph unicode="^" d="M836 702l-295 543l-283 -543l-127 68l338 612h149l353 -610z" />
<glyph unicode="_" d="M0 -510v145h1126v-145h-1126z" />
<glyph unicode="`" horiz-adv-x="716" d="M457 1165l-287 262l113 111l264 -285z" />
<glyph unicode="a" horiz-adv-x="1067" d="M707 477q-121 0 -205 -15.5t-133.5 -42t-71 -61t-21.5 -75.5q0 -68 43 -112t113 -44q59 0 110.5 26.5t88.5 73.5t56.5 103.5t19.5 115.5v31zM717 0q0 72 2 118t8 85h-4q-39 -96 -131 -158.5t-215 -62.5q-127 0 -205 75.5t-78 198.5q0 166 161 258t452 92v56 q0 119 -49.5 175t-165.5 56q-70 0 -153 -19.5t-157 -52.5l-32 144q84 33 178 52t184 19q106 0 179 -23.5t117 -69.5t63.5 -110.5t19.5 -150.5v-389q0 -74 2 -152t4 -141h-180z" />
<glyph unicode="b" horiz-adv-x="1142" d="M862 541q0 168 -56 256t-169 88q-66 0 -119 -35t-88 -92.5t-53.5 -127t-18.5 -136.5v-336q20 -6 68.5 -16.5t112.5 -10.5q74 0 133 23.5t102 72.5t65.5 128.5t22.5 185.5zM1055 557q0 -133 -37 -238.5t-105.5 -180.5t-167 -113.5t-221.5 -38.5q-117 0 -213 15t-137 26 v1468h184v-494q0 -47 -5 -100t-13 -90l4 -2q41 106 130 166.5t206 60.5q180 0 277.5 -123t97.5 -356z" />
<glyph unicode="c" horiz-adv-x="890" d="M834 39q-63 -27 -144.5 -41t-159.5 -14q-96 0 -176 25.5t-141 81.5t-95 152.5t-34 231.5q0 123 31.5 226.5t94 177t156 114.5t214.5 41q68 0 132 -11t117 -32l-34 -157q-51 20 -111.5 32.5t-120.5 12.5q-68 0 -121 -28t-90 -78t-55 -119.5t-18 -153.5q0 -80 14 -143.5 t47 -111.5t89 -75t138 -27q133 0 238 50z" />
<glyph unicode="d" horiz-adv-x="1142" d="M786 864q-49 10 -94 16.5t-88 6.5q-74 0 -133 -23.5t-101 -73t-64.5 -127t-22.5 -186.5q0 -168 55 -256t168 -88q68 0 120 35t88 93t54 127t18 138v338zM791 0q0 51 4 108.5t12 98.5l-4 2q-43 -104 -132 -165.5t-208 -61.5q-186 0 -280.5 125.5t-94.5 353.5 q0 133 37 238.5t105.5 180t166 113.5t217.5 39q39 0 79 -2t93 -8v473h183v-1495h-178z" />
<glyph unicode="e" horiz-adv-x="1040" d="M758 625q2 131 -58.5 201.5t-169.5 70.5q-102 0 -170.5 -71.5t-83.5 -200.5h482zM946 616q0 -63 -6 -120h-666q-2 -186 75 -276.5t239 -90.5q76 0 150.5 14.5t150.5 40.5l24 -141q-84 -31 -172 -46t-176 -15q-238 0 -359.5 128t-121.5 394q0 113 30.5 211t91 169.5 t145.5 111.5t192 40q104 0 181 -32.5t126 -90t72.5 -133.5t23.5 -164z" />
<glyph unicode="f" horiz-adv-x="716" d="M766 1335q-18 6 -61 14.5t-91 8.5q-106 0 -156 -63.5t-50 -200.5v-76h282v-144h-282v-874h-185v874h-209v144h209v63q0 215 102.5 320.5t292.5 105.5q82 0 164 -16z" />
<glyph unicode="g" horiz-adv-x="1093" d="M535 1036q76 0 147 -18h342v-146h-150q14 -23 34 -65.5t20 -114.5q0 -82 -25.5 -150.5t-79 -118.5t-131.5 -80t-180 -30q-59 0 -109 9q-55 -39 -55 -82q0 -33 34 -53.5t124 -22.5l164 -6q186 -6 276 -84t90 -215q0 -82 -36.5 -153t-105.5 -121t-167 -79.5t-219 -29.5 q-201 0 -317.5 77.5t-116.5 223.5q0 45 14 84t38 74.5t54.5 64.5t67.5 53q-35 18 -62.5 52t-29.5 96q0 51 29.5 95t84.5 79q-35 20 -70.5 58t-58 97.5t-22.5 126.5q0 80 26.5 150t78.5 120t130.5 79.5t180.5 29.5zM297 -82q-35 -51 -35 -108q0 -94 74 -142.5t201 -48.5 q158 0 235.5 60.5t77.5 154.5q0 74 -51 120t-181 50l-169 6q-29 0 -54 2q-65 -43 -98 -94zM750 674q0 98 -59.5 161.5t-166.5 63.5q-109 0 -168 -63.5t-59 -161.5t59.5 -161.5t167.5 -63.5q106 0 166 63.5t60 161.5z" />
<glyph unicode="h" horiz-adv-x="1177" d="M821 0v655q0 115 -39 172.5t-135 57.5q-61 0 -114.5 -30t-92.5 -84t-60.5 -127t-21.5 -157v-487h-184v1495h184v-483q0 -57 -4 -110.5t-14 -92.5l4 -2q45 106 137 167.5t217 61.5q84 0 144.5 -24.5t96.5 -68.5t51.5 -102.5t15.5 -129.5v-711h-185z" />
<glyph unicode="i" horiz-adv-x="532" d="M174 0v1018h184v-1018h-184zM389 1339q0 -49 -36 -83.5t-87 -34.5t-87 33.5t-36 84.5t36 86t87 35t87 -35t36 -86z" />
<glyph unicode="j" horiz-adv-x="544" d="M371 -113q0 -104 -18.5 -180t-59.5 -126t-105.5 -75.5t-154.5 -25.5q-51 0 -93 6t-61 10l17 162q16 -6 55 -14.5t88 -8.5q43 0 70.5 11.5t45 38t25.5 71.5t8 115v1147h183v-1131zM401 1339q0 -49 -35.5 -83.5t-84.5 -34.5q-51 0 -87 33.5t-36 84.5t35.5 86t87.5 35 q49 0 84.5 -35t35.5 -86z" />
<glyph unicode="k" horiz-adv-x="1009" d="M735 0l-377 524v-524h-184v1495h184v-924l359 447h215l-385 -457l424 -561h-236z" />
<glyph unicode="l" horiz-adv-x="532" d="M174 0v1495h184v-1495h-184z" />
<glyph unicode="m" horiz-adv-x="1800" d="M1442 0v653q0 115 -36 173.5t-130 58.5q-55 0 -106.5 -28t-91.5 -81t-63.5 -128t-23.5 -165v-483h-182v653q0 53 -7 94t-24.5 72t-50.5 48.5t-84 17.5q-57 0 -109.5 -30t-91.5 -84t-61.5 -128t-22.5 -160v-483h-184v1018h178q0 -51 -4 -111.5t-10 -103.5l2 -2 q45 109 139 172t215 63q76 0 130.5 -22.5t86 -58t46 -74.5t18.5 -76q18 41 47 80t72 73.5t101 56t128 21.5q147 0 225 -82t78 -252v-702h-184z" />
<glyph unicode="n" horiz-adv-x="1177" d="M821 0v655q0 115 -39 172.5t-135 57.5q-61 0 -114.5 -30t-92.5 -84t-60.5 -127t-21.5 -157v-487h-184v1018h178q0 -53 -4 -112.5t-12 -102.5h4q45 109 138 171t220 62q84 0 144.5 -24.5t96.5 -68.5t51.5 -102.5t15.5 -129.5v-711h-185z" />
<glyph unicode="o" horiz-adv-x="1116" d="M844 510q0 178 -75 275.5t-208 97.5q-66 0 -119 -23.5t-91 -71t-58.5 -118t-20.5 -162.5q0 -178 75 -274.5t210 -96.5q61 0 113.5 22.5t91.5 68.5t60.5 117t21.5 165zM1034 524q0 -115 -31.5 -214t-95 -173t-157 -114.5t-209.5 -40.5q-104 0 -189.5 31.5t-146 95t-92 160 t-31.5 225.5q0 115 31.5 214t95 172.5t157 114.5t212.5 41q104 0 188 -31.5t144.5 -95t92 -160t31.5 -225.5z" />
<glyph unicode="p" horiz-adv-x="1142" d="M862 541q0 168 -56 256t-169 88q-66 0 -119 -35t-88 -93.5t-53.5 -127t-18.5 -137.5v-336q80 -25 181 -25q74 0 133 23.5t102 72.5t65.5 128.5t22.5 185.5zM1055 557q0 -270 -138.5 -419.5t-386.5 -149.5q-51 0 -91 2t-81 10v-506h-184v1524h178q0 -51 -4 -109.5 t-12 -97.5l4 -2q43 106 132 166.5t210 60.5q178 0 275.5 -124t97.5 -355z" />
<glyph unicode="q" horiz-adv-x="1142" d="M786 866q-88 20 -182 21q-152 0 -236.5 -99.5t-84.5 -310.5q0 -168 55 -256t168 -88q66 0 119 35t89 93t54 128t18 139v338zM786 -506v529q0 45 3.5 93t11.5 89l-4 2q-41 -104 -130 -164.5t-202 -60.5q-182 0 -279.5 120.5t-97.5 356.5q0 268 142.5 421.5t394.5 153.5 q86 0 172 -7t172 -21v-1512h-183z" />
<glyph unicode="r" horiz-adv-x="727" d="M676 854q-160 29 -239 -84t-79 -360v-410h-184v1018h178q0 -53 -5 -117.5t-17 -124.5h4q16 57 45 106.5t72 86.5t101 56t132 11z" />
<glyph unicode="s" horiz-adv-x="870" d="M770 293q0 -66 -27.5 -122t-81 -99t-132 -66.5t-179.5 -23.5q-63 0 -126.5 7t-112.5 19l14 164q51 -18 115.5 -30.5t124.5 -12.5q104 0 159.5 39t55.5 111q0 51 -32 83.5t-98.5 58t-124 46t-107.5 51.5t-83 85t-33 138q0 129 104.5 212t297.5 83q51 0 102 -5t94 -13 l-12 -154q-45 14 -98 22.5t-103 8.5q-96 0 -146 -37t-50 -100q0 -51 31.5 -83t99 -58.5t124 -47t108 -52.5t84 -86t32.5 -138z" />
<glyph unicode="t" horiz-adv-x="759" d="M694 6q-43 -10 -97 -16t-103 -6q-80 0 -132.5 17t-83 53t-45 94.5t-14.5 144.5v581h-205v144h205v330l184 51v-381h283v-144h-283v-536q0 -59 7.5 -97t23 -60.5t42 -32t67.5 -9.5q59 0 137 17z" />
<glyph unicode="u" horiz-adv-x="1177" d="M825 0q0 53 4.5 112.5t12.5 102.5h-4q-45 -109 -138.5 -171t-220.5 -62q-84 0 -143.5 24.5t-95 68.5t-51 102.5t-15.5 129.5v711h182v-656q0 -115 39 -172t135 -57q61 0 114.5 30t92.5 84t60.5 126.5t21.5 156.5v488h185v-1018h-179z" />
<glyph unicode="v" horiz-adv-x="995" d="M600 0h-211l-371 1018h205l215 -623q20 -63 33.5 -111t26.5 -96h4q12 49 26.5 99.5t30.5 103.5l219 627h197z" />
<glyph unicode="w" horiz-adv-x="1624" d="M1264 0h-211l-201 604q-16 53 -30.5 106.5t-26.5 102.5h-2q-14 -61 -32 -125.5t-38 -136.5l-170 -551h-209l-311 1018h205l159 -561q18 -68 38 -140.5t30 -119.5h2q14 61 31.5 128.5t36.5 133.5l176 559h198l178 -559q14 -47 25.5 -84t20 -68t15.5 -57.5t13 -54.5h2 q10 51 26.5 109t41.5 153l166 561h194z" />
<glyph unicode="x" horiz-adv-x="1060" d="M780 0l-256 391l-258 -391h-223l373 510l-355 508h226l252 -383l256 383h209l-353 -502l369 -516h-240z" />
<glyph unicode="y" horiz-adv-x="983" d="M557 -86q-45 -123 -94 -206t-107.5 -134t-128 -73.5t-157.5 -22.5q-35 0 -68 4t-47 8l18 160q14 -4 49 -10.5t72 -6.5q43 0 80 12.5t68.5 42t61.5 79t58 122.5l41 111l-385 1018h211l193 -533q20 -61 41.5 -131.5t38.5 -128.5h2q6 27 16 60.5t22.5 73.5t31 93.5 t28.5 88.5l164 477h199z" />
<glyph unicode="z" horiz-adv-x="915" d="M98 0v131l488 727q-47 -2 -119 -3t-150 -1h-208v164h692v-129l-482 -723q27 0 76 1t103.5 2t97.5 1h215v-170h-713z" />
<glyph unicode="{" horiz-adv-x="698" d="M586 -408q-172 0 -246 97.5t-74 302.5v358q0 121 -49 170t-168 55v146q63 4 104.5 15.5t66 36t35.5 65.5t11 104v240q0 92 16.5 163.5t53.5 124t99.5 81t150.5 28.5h37v-141q-55 0 -90 -12.5t-56.5 -41t-31 -75.5t-9.5 -121v-238q0 -135 -48 -208.5t-142 -90.5v-4 q92 -14 141 -91t49 -212v-356q0 -74 9.5 -121t31 -76t56 -41t90.5 -12v-146h-37z" />
<glyph unicode="|" horiz-adv-x="583" d="M217 -506v2048h145v-2048h-145z" />
<glyph unicode="}" horiz-adv-x="698" d="M649 575q-119 -6 -167 -55t-48 -170v-358q0 -205 -74.5 -302.5t-244.5 -97.5h-39v146q55 0 90 12t56.5 41t30.5 76t9 121v356q0 135 49 212t142 91v4q-190 25 -191 291v246q0 74 -9 121t-30.5 75.5t-56.5 41t-90 12.5v141h39q88 0 150.5 -28.5t99 -81t53 -124 t16.5 -163.5v-232q0 -66 11.5 -108.5t36 -68t64.5 -37t103 -15.5v-146z" />
<glyph unicode="~" d="M1018 1155q0 -133 -74 -216t-199 -83q-76 0 -125 29.5t-98 89t-75.5 83t-73.5 23.5q-61 0 -92 -48t-33 -134h-137v21q0 135 74.5 218t199.5 83q53 0 93 -15.5t67.5 -40t50 -51.5t50.5 -58.5t53.5 -47t58.5 -15.5q61 0 91 48.5t32 134.5h137v-21z" />
<glyph unicode="&#xa1;" horiz-adv-x="655" d="M199 -422l30 1096h156l33 -1096h-219zM432 915q0 -51 -36 -85.5t-87 -34.5t-87 34.5t-36 85.5t36 86t87 35t87 -35t36 -86z" />
<glyph unicode="&#xa2;" horiz-adv-x="931" d="M852 276q-49 -20 -106.5 -35.5t-116.5 -21.5v-270h-146v270q-94 8 -166.5 45t-122 98.5t-74 146.5t-24.5 191q0 98 25.5 182.5t76 150t123 107.5t162.5 56v231h146v-223q53 -2 109.5 -12t105.5 -29l-25 -157q-102 49 -223 49q-147 0 -228 -90.5t-81 -253.5 q0 -72 15 -132.5t51 -106.5t95.5 -71.5t143.5 -25.5q61 0 120.5 14t112.5 43z" />
<glyph unicode="&#xa3;" horiz-adv-x="964" d="M86 0v129q59 45 98 87t62.5 85t34 91t10.5 110q0 29 -2 65.5t-8 89.5h-220v144h199q-10 86 -16 138t-6 97q0 176 101 270.5t286 94.5q53 0 111.5 -7.5t103.5 -19.5l-33 -157q-43 16 -91 25t-91 9q-96 0 -149.5 -52t-53.5 -150q0 -37 6 -100.5t18 -147.5h310v-144h-291 q4 -41 6 -72.5t2 -64.5q0 -63 -8 -112.5t-27.5 -92.5t-52.5 -81.5t-82 -81.5q39 4 98.5 7t110.5 3h393v-162h-819z" />
<glyph unicode="&#xa4;" d="M770 684q0 109 -51 171.5t-162 62.5q-86 0 -143.5 -66t-57.5 -174q0 -53 11.5 -97t37 -78t65.5 -52.5t97 -18.5q84 0 143.5 68.5t59.5 183.5zM891 123l-164 221q-80 -49 -180 -49q-76 0 -139 27l-148 -199l-137 100l149 185q-39 45 -60.5 112.5t-21.5 153.5q0 158 93 256 l-160 196l135 99l152 -207q35 18 77.5 27.5t90.5 9.5q43 0 85 -8.5t78 -26.5l154 207l131 -101l-158 -198q33 -41 50.5 -102.5t17.5 -139.5q0 -72 -21.5 -135.5t-60.5 -112.5l172 -213z" />
<glyph unicode="&#xa5;" horiz-adv-x="1210" d="M743 596h291v-125h-336v-143h336v-125h-336v-203h-186v203h-338v125h338v143h-338v125h293l-389 786h205l219 -454q31 -63 55.5 -121.5t48.5 -126.5h2q23 63 53.5 131t67.5 139l213 432h199z" />
<glyph unicode="&#xa6;" horiz-adv-x="583" d="M217 -506v774h145v-774h-145zM217 788v754h145v-754h-145z" />
<glyph unicode="&#xa7;" horiz-adv-x="1064" d="M715 457q0 55 -25.5 107t-65.5 99.5t-116 122t-98 97.5q-45 -33 -66.5 -76t-21.5 -90q0 -53 23.5 -103.5t64.5 -98.5t97 -103.5t122 -118.5q43 31 64.5 74t21.5 90zM889 481q0 -84 -42 -157.5t-120 -130.5q39 -51 59.5 -103.5t20.5 -112.5q0 -61 -23.5 -118.5 t-71.5 -101.5t-122 -69.5t-170 -25.5q-35 0 -79 6t-83 17l14 155q43 -14 79 -19t75 -5q88 0 137 43t49 112q0 51 -30.5 100.5t-96 113t-121 115.5t-104.5 111.5t-81 131t-32 151.5q0 84 41 157t121 134q-39 51 -59.5 102.5t-20.5 108.5q0 66 22.5 122t68 99t116 66.5 t162.5 23.5q35 0 77 -4t77 -12l-13 -156q-74 20 -143 21q-84 0 -128 -39t-44 -109q0 -49 30.5 -98t96 -113.5t121 -119t104.5 -113.5t81 -131t32 -152z" />
<glyph unicode="&#xa8;" horiz-adv-x="952" d="M391 1339q0 -45 -32.5 -77.5t-77.5 -32.5t-78 32.5t-33 77.5t33 78t78 33t77.5 -33t32.5 -78zM784 1339q0 -45 -32.5 -77.5t-77.5 -32.5t-78 32.5t-33 77.5t33 78t78 33t77.5 -33t32.5 -78z" />
<glyph unicode="&#xa9;" horiz-adv-x="1548" d="M973 358q-94 -35 -203 -34q-82 0 -143.5 25.5t-101.5 72.5t-59.5 111.5t-19.5 142.5q0 76 20.5 143.5t62.5 119.5t111 82t163 30q45 0 86 -7.5t76 -19.5l-17 -131q-66 33 -147 33q-53 0 -90 -18.5t-60.5 -50.5t-34 -77t-10.5 -98q0 -111 46 -169t141 -58q86 0 159 30z M1313 684q0 111 -42 210t-117 175t-174 119t-210 43t-209 -42t-173 -117t-117 -174t-42 -210t42 -211t117 -176t173 -119t209 -43t210 42t174 118t117 175t42 210zM1458 688q0 -141 -53 -266t-148.5 -220.5t-220.5 -148.5t-266 -53q-143 0 -269 52t-220.5 146.5 t-146.5 219.5t-52 266t53 266t148.5 219.5t220.5 147.5t266 53t267 -52t220.5 -146.5t147.5 -218.5t53 -265z" />
<glyph unicode="&#xaa;" horiz-adv-x="796" d="M504 702q0 23 2 52.5t8 56.5h-2q-29 -57 -84 -90t-125 -33q-104 0 -154.5 51.5t-50.5 130.5q0 57 27 103.5t78 77t125.5 47t173.5 16.5v37q0 18 -5 40.5t-19.5 41t-41 30t-71.5 11.5q-53 0 -108.5 -14.5t-102.5 -36.5l-15 131q53 20 118 32.5t132 12.5q76 0 128 -19.5 t82 -51.5t42 -74t12 -87v-286v-64t2 -57q0 -31 2 -58h-153zM117 432v146h590v-146h-590zM502 1010q-72 0 -119 -7.5t-77 -21.5t-43 -36.5t-13 -53.5q0 -37 23.5 -58.5t64.5 -21.5t72.5 20.5t51 48t30 59.5t10.5 52v19z" />
<glyph unicode="&#xab;" horiz-adv-x="1042" d="M342 233l-231 367l233 373l139 -72l-188 -299l190 -295zM756 238l-250 362l252 369l135 -72l-205 -295l207 -291z" />
<glyph unicode="&#xac;" d="M825 211v321h-739v154h901v-475h-162z" />
<glyph unicode="&#xae;" horiz-adv-x="1150" d="M639 1184q0 29 -15.5 43t-56.5 14h-43v-129h29q47 0 66.5 22.5t19.5 49.5zM641 852l-109 195h-8v-195h-100v467h162q86 0 122.5 -34t36.5 -89q0 -59 -29.5 -92t-78.5 -43q8 -8 18.5 -24.5t20.5 -35.5l88 -149h-123zM903 1079q0 68 -25.5 129.5t-69.5 107.5t-104.5 72.5 t-128.5 26.5t-128 -25.5t-104 -70.5t-69.5 -105.5t-25.5 -128.5t25.5 -129t69.5 -107t104.5 -72.5t127.5 -26.5q68 0 128.5 26.5t104.5 70.5t69.5 104t25.5 128zM1026 1083q0 -92 -36 -174t-97.5 -142t-143 -96t-174.5 -36q-96 0 -178 35t-143 95t-96 142t-35 176 q0 92 36 174t97 142.5t143 95.5t176 35t176.5 -35t143.5 -94.5t96 -141.5t35 -176z" />
<glyph unicode="&#xaf;" horiz-adv-x="856" d="M170 1262v139h516v-139h-516z" />
<glyph unicode="&#xb0;" horiz-adv-x="770" d="M510 1249q0 25 -7 50.5t-22.5 46t-40 33t-59.5 12.5q-55 0 -91 -40t-36 -102q0 -66 35 -102.5t90 -36.5q57 0 94 39t37 100zM653 1251q0 -59 -22.5 -108t-62.5 -83t-91 -52.5t-104 -18.5q-121 0 -192.5 69.5t-71.5 188.5q0 59 23.5 108.5t62 84.5t89 52t101.5 17 q68 0 119 -20.5t84 -55t49 -82t16 -100.5z" />
<glyph unicode="&#xb1;" d="M90 0v154h946v-154h-946zM651 688v-403h-176v403h-389v152h389v401h176v-401h389v-152h-389z" />
<glyph unicode="&#xb2;" horiz-adv-x="731" d="M80 745v127l190 191q84 84 125 149.5t41 124.5q0 66 -35.5 104t-107.5 38q-45 0 -93 -13.5t-85 -33.5l-27 131q51 23 116.5 38t129.5 15q133 0 208.5 -66.5t75.5 -181.5q0 -92 -40.5 -170t-131.5 -170l-141 -141q61 2 139 3t209 1v-146h-573z" />
<glyph unicode="&#xb3;" horiz-adv-x="712" d="M616 1006q0 -61 -26.5 -112.5t-74.5 -87.5t-115.5 -55.5t-147.5 -19.5q-39 0 -88 5t-90 14l18 129q31 -10 76 -16.5t88 -6.5q86 0 134 38t48 101q0 74 -77.5 109t-227.5 16v121q137 0 208 34t71 109q0 51 -36 80t-102 29q-41 0 -86 -10t-84 -27l-18 121q51 18 111.5 28.5 t113.5 10.5q129 0 202 -54.5t73 -156.5q0 -76 -36 -125t-106 -74q82 -18 127 -73t45 -127z" />
<glyph unicode="&#xb4;" horiz-adv-x="716" d="M260 1165l-90 88l264 285l113 -108z" />
<glyph unicode="&#xb6;" horiz-adv-x="1179" d="M592 506q-117 0 -203 36t-142.5 96t-84 140t-27.5 170q0 94 33 174t93.5 137.5t144 90t186.5 32.5v-876v0zM911 1239v-1436h-315v144h149v1435h312v-143h-146z" />
<glyph unicode="&#xb7;" horiz-adv-x="479" d="M371 608q0 -53 -38 -92t-93 -39t-93 39t-38 92q0 55 37.5 94t93.5 39q55 0 93 -39t38 -94z" />
<glyph unicode="&#xb8;" horiz-adv-x="595" d="M362 -82q76 -104 61 -201.5t-104 -197.5h-149q39 49 63.5 92t29.5 83t-8 79t-50 84l157 61v0z" />
<glyph unicode="&#xb9;" horiz-adv-x="565" d="M242 745v697l-181 -70l-30 144l241 86h146v-857h-176z" />
<glyph unicode="&#xba;" horiz-adv-x="858" d="M596 1044q0 53 -11.5 94.5t-33 70t-52 43t-69.5 14.5q-78 0 -123 -56.5t-45 -165.5q0 -53 11.5 -94t33 -69.5t52 -43t69.5 -14.5q78 0 123 57.5t45 163.5zM131 432v146h598v-146h-598zM758 1055q0 -78 -22.5 -144.5t-65.5 -116t-107.5 -77t-146.5 -27.5 q-72 0 -130.5 20.5t-99.5 63.5t-63.5 108.5t-22.5 151.5q0 78 22.5 144.5t66.5 117t107.5 78t145.5 27.5q72 0 130.5 -20.5t99.5 -63.5t63.5 -108.5t22.5 -153.5z" />
<glyph unicode="&#xbb;" horiz-adv-x="1042" d="M283 238l-136 71l207 295l-204 291l139 74l250 -363zM696 233l-137 72l189 299l-189 295l143 74l230 -367z" />
<glyph unicode="&#xbc;" horiz-adv-x="1681" d="M242 745v697l-181 -70l-30 144l241 86h146v-857h-176zM197 -289l-119 84l1308 1852l119 -84zM1468 -25v-191h-161v191h-398l-12 115l332 551h239v-529h138v-137h-138zM1307 524l-250 -416q25 0 58.5 1t68 1h63.5h60v414z" />
<glyph unicode="&#xbd;" horiz-adv-x="1728" d="M197 -289l-119 84l1308 1852l119 -84zM242 745v697l-181 -70l-30 144l241 86h146v-857h-176zM1053 -216v127l190 191q84 84 125 149.5t41 124.5q0 66 -35.5 104t-107.5 38q-45 0 -93 -13.5t-85 -33.5l-27 131q51 23 116.5 38t129.5 15q133 0 208.5 -66.5t75.5 -181.5 q0 -92 -40.5 -170t-131.5 -170l-141 -141q61 2 139 3t209 1v-146h-573z" />
<glyph unicode="&#xbe;" horiz-adv-x="1724" d="M240 -289l-119 84l1308 1852l119 -84zM616 1006q0 -61 -26.5 -112.5t-74.5 -87.5t-115.5 -55.5t-147.5 -19.5q-39 0 -88 5t-90 14l18 129q31 -10 76 -16.5t88 -6.5q86 0 134 38t48 101q0 74 -77.5 109t-227.5 16v121q137 0 208 34t71 109q0 51 -36 80t-102 29 q-41 0 -86 -10t-84 -27l-18 121q51 18 111.5 28.5t113.5 10.5q129 0 202 -54.5t73 -156.5q0 -76 -36 -125t-106 -74q82 -18 127 -73t45 -127zM1509 -25v-191h-161v191h-398l-12 115l332 551h239v-529h138v-137h-138zM1348 524l-250 -416q25 0 58.5 1t68 1h63.5h60v414z" />
<glyph unicode="&#xbf;" horiz-adv-x="911" d="M717 -436q-139 4 -251 37.5t-187.5 88t-115.5 125t-40 146.5q0 78 27.5 137.5t58.5 93t98.5 99t99 114t42 115t-16.5 154.5h180q31 -96 25 -170t-37 -129.5t-83 -107.5t-95 -96t-69.5 -90t-26.5 -101q0 -102 113.5 -171t301.5 -77zM643 915q0 -51 -36 -85.5t-87 -34.5 t-87 34.5t-36 85.5t36 86t87 35t87 -35t36 -86z" />
<glyph unicode="&#xc0;" horiz-adv-x="1259" d="M682 1010q-14 43 -29.5 94t-29.5 100h-2q-10 -41 -23.5 -84t-34.5 -108l-188 -533h495zM1028 0l-113 330h-587l-115 -330h-193l496 1382h229l494 -1382h-211zM725 1485l-389 114l53 144l371 -152z" />
<glyph unicode="&#xc1;" horiz-adv-x="1259" d="M682 1010q-14 43 -29.5 94t-29.5 100h-2q-10 -41 -23.5 -84t-34.5 -108l-188 -533h495zM1028 0l-113 330h-587l-115 -330h-193l496 1382h229l494 -1382h-211zM516 1485l-35 106l373 152l51 -144z" />
<glyph unicode="&#xc2;" horiz-adv-x="1259" d="M682 1010q-14 43 -29.5 94t-29.5 100h-2q-10 -41 -23.5 -84t-34.5 -108l-188 -533h495zM1028 0l-113 330h-587l-115 -330h-193l496 1382h229l494 -1382h-211zM901 1483l-272 123l-277 -123l-49 102l328 170l323 -166z" />
<glyph unicode="&#xc3;" horiz-adv-x="1259" d="M682 1010q-14 43 -29.5 94t-29.5 100h-2q-10 -41 -23.5 -84t-34.5 -108l-188 -533h495zM1028 0l-113 330h-587l-115 -330h-193l496 1382h229l494 -1382h-211zM993 1655q-41 -72 -99.5 -111t-129.5 -39q-53 0 -89 16.5t-66 37t-56.5 37t-59.5 16.5q-74 0 -129 -92l-94 67 q41 72 99.5 112t129.5 40q51 0 88 -16.5t67 -37t56.5 -37t59.5 -16.5q70 0 129 90l94 -67v0z" />
<glyph unicode="&#xc4;" horiz-adv-x="1259" d="M682 1010q-14 43 -29.5 94t-29.5 100h-2q-10 -41 -23.5 -84t-34.5 -108l-188 -533h495zM1028 0l-113 330h-587l-115 -330h-193l496 1382h229l494 -1382h-211zM956 1602q0 -45 -31.5 -78t-78.5 -33q-45 0 -77 31.5t-32 79.5q0 47 32 78.5t77 31.5q47 0 78.5 -31.5 t31.5 -78.5zM520 1602q0 -45 -31.5 -78t-78.5 -33q-45 0 -78 32.5t-33 78.5q0 47 33 78.5t78 31.5q47 0 78.5 -31.5t31.5 -78.5z" />
<glyph unicode="&#xc5;" horiz-adv-x="1259" d="M682 1010q-14 43 -29.5 94t-29.5 100h-2q-10 -41 -23.5 -84t-34.5 -108l-188 -533h495zM1028 0l-113 330h-587l-115 -330h-193l496 1382h229l494 -1382h-211zM876 1681q0 -98 -68.5 -161.5t-181.5 -63.5q-109 0 -169 54.5t-60 158.5q0 96 68.5 159.5t179.5 63.5 t171 -53.5t60 -157.5zM739 1673q0 117 -102 117q-45 0 -75 -29.5t-30 -85.5q0 -117 105 -116q45 0 73.5 29.5t28.5 84.5z" />
<glyph unicode="&#xc6;" horiz-adv-x="1607" d="M752 1229h-13q-27 -63 -58.5 -128t-78.5 -157l-250 -461h400v746zM752 0v334h-469l-174 -334h-197l735 1382h811v-155h-520v-439h483v-151h-483v-479h530v-158h-716z" />
<glyph unicode="&#xc7;" horiz-adv-x="1193" d="M1102 57q-82 -35 -180.5 -54t-198.5 -19q-162 0 -281.5 50t-196.5 140t-114 213t-37 270q0 162 41 296t124 233.5t212 154t299 54.5q80 0 164 -11.5t153 -31.5l-30 -172q-74 25 -152 39t-153 14q-117 0 -203 -41t-142.5 -116t-83 -173t-26.5 -215q0 -260 115.5 -398 t349.5 -138q76 0 160 18t149 49zM733 -82q76 -104 61 -201.5t-104 -197.5h-149q39 49 63.5 92t29.5 83t-8 79t-50 84l157 61v0z" />
<glyph unicode="&#xc8;" horiz-adv-x="1050" d="M174 0v1382h737v-155h-549v-439h504v-151h-504v-479h549v-158h-737zM633 1485l-389 114l53 144l371 -152z" />
<glyph unicode="&#xc9;" horiz-adv-x="1050" d="M174 0v1382h737v-155h-549v-439h504v-151h-504v-479h549v-158h-737zM422 1485l-35 106l373 152l51 -144z" />
<glyph unicode="&#xca;" horiz-adv-x="1050" d="M174 0v1382h737v-155h-549v-439h504v-151h-504v-479h549v-158h-737zM809 1483l-272 123l-277 -123l-49 102l328 170l323 -166z" />
<glyph unicode="&#xcb;" horiz-adv-x="1050" d="M174 0v1382h737v-155h-549v-439h504v-151h-504v-479h549v-158h-737zM854 1602q0 -45 -31.5 -78t-78.5 -33q-45 0 -77 31.5t-32 79.5q0 47 32 78.5t77 31.5q47 0 78.5 -31.5t31.5 -78.5zM418 1602q0 -45 -31.5 -78t-78.5 -33q-45 0 -78 32.5t-33 78.5q0 47 33 78.5 t78 31.5q47 0 78.5 -31.5t31.5 -78.5z" />
<glyph unicode="&#xcc;" horiz-adv-x="536" d="M174 0v1382h188v-1382h-188zM366 1485l-389 114l53 144l371 -152z" />
<glyph unicode="&#xcd;" horiz-adv-x="536" d="M174 0v1382h188v-1382h-188zM176 1485l-35 106l373 152l51 -144z" />
<glyph unicode="&#xce;" horiz-adv-x="536" d="M174 0v1382h188v-1382h-188zM543 1483l-272 123l-277 -123l-49 102l328 170l323 -166z" />
<glyph unicode="&#xcf;" horiz-adv-x="536" d="M174 0v1382h188v-1382h-188zM582 1602q0 -45 -32 -78t-79 -33q-45 0 -78 32.5t-33 78.5q0 47 33 78.5t78 31.5q47 0 79 -31.5t32 -78.5zM180 1602q0 -45 -31.5 -78t-78.5 -33q-45 0 -78 32.5t-33 78.5q0 47 33 78.5t78 31.5q47 0 78.5 -31.5t31.5 -78.5z" />
<glyph unicode="&#xd0;" horiz-adv-x="1406" d="M1114 694q0 266 -131 403.5t-397 137.5q-45 0 -112.5 -2t-94.5 -4v-447h293v-143h-293v-475q37 -6 87 -9t95 -3q125 0 225.5 32.5t174 99t113.5 170t40 240.5zM1313 707q0 -172 -55.5 -306.5t-158 -224.5t-244.5 -137t-314 -47q-74 0 -188.5 4t-159.5 4v639h-187v143h187 v598q113 2 217 5.5t194 3.5q168 0 299 -40t223.5 -124t139.5 -213t47 -305z" />
<glyph unicode="&#xd1;" horiz-adv-x="1419" d="M1061 0h-10l-512 809q-39 59 -67 106.5t-51.5 88t-42 75.5t-34.5 70h-4q4 -59 7 -150.5t6 -197t4 -215t1 -199.5v-387h-184v1382v0h141h91l481 -761q41 -61 69.5 -109.5t50 -87.5t36 -67.5t32.5 -65.5h4q-4 68 -7 156t-5 187t-4 202.5t-2 197.5v348h184v-1382h-184z M1081 1655q-41 -72 -99.5 -111t-129.5 -39q-53 0 -89 16.5t-66 37t-56.5 37t-59.5 16.5q-74 0 -129 -92l-94 67q41 72 99.5 112t129.5 40q51 0 88 -16.5t67 -37t56.5 -37t59.5 -16.5q70 0 129 90l94 -67v0z" />
<glyph unicode="&#xd2;" horiz-adv-x="1452" d="M1167 682q0 256 -112.5 405.5t-327.5 149.5q-94 0 -174 -35t-140.5 -103.5t-93 -170t-32.5 -228.5q0 -125 27.5 -227t83 -176t138 -113t191.5 -39q94 0 174 35t140.5 103.5t93 170t32.5 228.5zM1366 711q0 -172 -51 -309.5t-142.5 -231.5t-210 -142t-253.5 -48 q-150 0 -265.5 48t-194.5 138t-120 218t-41 288q0 172 51 309t142.5 231.5t210 142.5t253.5 48q150 0 265.5 -48t194.5 -138.5t120 -218t41 -287.5zM813 1485l-389 114l53 144l371 -152z" />
<glyph unicode="&#xd3;" horiz-adv-x="1452" d="M1167 682q0 256 -112.5 405.5t-327.5 149.5q-94 0 -174 -35t-140.5 -103.5t-93 -170t-32.5 -228.5q0 -125 27.5 -227t83 -176t138 -113t191.5 -39q94 0 174 35t140.5 103.5t93 170t32.5 228.5zM1366 711q0 -172 -51 -309.5t-142.5 -231.5t-210 -142t-253.5 -48 q-150 0 -265.5 48t-194.5 138t-120 218t-41 288q0 172 51 309t142.5 231.5t210 142.5t253.5 48q150 0 265.5 -48t194.5 -138.5t120 -218t41 -287.5zM651 1485l-35 106l373 152l51 -144z" />
<glyph unicode="&#xd4;" horiz-adv-x="1452" d="M1167 682q0 256 -112.5 405.5t-327.5 149.5q-94 0 -174 -35t-140.5 -103.5t-93 -170t-32.5 -228.5q0 -125 27.5 -227t83 -176t138 -113t191.5 -39q94 0 174 35t140.5 103.5t93 170t32.5 228.5zM1366 711q0 -172 -51 -309.5t-142.5 -231.5t-210 -142t-253.5 -48 q-150 0 -265.5 48t-194.5 138t-120 218t-41 288q0 172 51 309t142.5 231.5t210 142.5t253.5 48q150 0 265.5 -48t194.5 -138.5t120 -218t41 -287.5zM1012 1483l-272 123l-277 -123l-49 102l328 170l323 -166z" />
<glyph unicode="&#xd5;" horiz-adv-x="1452" d="M1167 682q0 256 -112.5 405.5t-327.5 149.5q-94 0 -174 -35t-140.5 -103.5t-93 -170t-32.5 -228.5q0 -125 27.5 -227t83 -176t138 -113t191.5 -39q94 0 174 35t140.5 103.5t93 170t32.5 228.5zM1366 711q0 -172 -51 -309.5t-142.5 -231.5t-210 -142t-253.5 -48 q-150 0 -265.5 48t-194.5 138t-120 218t-41 288q0 172 51 309t142.5 231.5t210 142.5t253.5 48q150 0 265.5 -48t194.5 -138.5t120 -218t41 -287.5zM1088 1655q-41 -72 -99.5 -111t-129.5 -39q-53 0 -89 16.5t-66 37t-56.5 37t-59.5 16.5q-74 0 -129 -92l-94 67 q41 72 99.5 112t129.5 40q51 0 88 -16.5t67 -37t56.5 -37t59.5 -16.5q70 0 129 90l94 -67v0z" />
<glyph unicode="&#xd6;" horiz-adv-x="1452" d="M1167 682q0 256 -112.5 405.5t-327.5 149.5q-94 0 -174 -35t-140.5 -103.5t-93 -170t-32.5 -228.5q0 -125 27.5 -227t83 -176t138 -113t191.5 -39q94 0 174 35t140.5 103.5t93 170t32.5 228.5zM1366 711q0 -172 -51 -309.5t-142.5 -231.5t-210 -142t-253.5 -48 q-150 0 -265.5 48t-194.5 138t-120 218t-41 288q0 172 51 309t142.5 231.5t210 142.5t253.5 48q150 0 265.5 -48t194.5 -138.5t120 -218t41 -287.5zM1060 1602q0 -45 -31.5 -78t-78.5 -33q-45 0 -77 31.5t-32 79.5q0 47 32 78.5t77 31.5q47 0 78.5 -31.5t31.5 -78.5z M624 1602q0 -45 -31.5 -78t-78.5 -33q-45 0 -78 32.5t-33 78.5q0 47 33 78.5t78 31.5q47 0 78.5 -31.5t31.5 -78.5z" />
<glyph unicode="&#xd7;" d="M901 158l-344 344l-342 -344l-102 102l344 344l-344 342l112 113l342 -344l344 344l103 -103l-344 -342l344 -344z" />
<glyph unicode="&#xd8;" horiz-adv-x="1452" d="M909 1200q-39 20 -86 30.5t-96 10.5q-94 0 -176 -35t-142.5 -104.5t-94 -171t-33.5 -230.5q0 -154 39.5 -263t101.5 -177zM1171 682q0 154 -38.5 264.5t-100.5 175.5l-487 -940q39 -18 86 -29.5t96 -11.5q94 0 176 35t142.5 104.5t93 171t32.5 230.5zM1366 711 q0 -172 -51 -309.5t-142.5 -231.5t-210 -142t-253.5 -48t-244 45l-111 -213l-135 63l111 213q-115 84 -178.5 231.5t-63.5 352.5q0 172 51 309t142.5 231.5t210 142.5t253.5 48q66 0 127.5 -11.5t116.5 -33.5l111 213l133 -64l-111 -213q117 -84 180.5 -230t63.5 -353z" />
<glyph unicode="&#xd9;" horiz-adv-x="1419" d="M1243 528q0 -272 -139 -410t-412 -138q-162 0 -263 40.5t-157.5 109.5t-77 155t-20.5 180v917h188v-903q0 -72 14.5 -134t52.5 -109.5t104.5 -74t171.5 -26.5q180 -2 267 84t87 295v868h184v-854v0zM772 1485l-389 114l53 144l371 -152z" />
<glyph unicode="&#xda;" horiz-adv-x="1419" d="M1243 528q0 -272 -139 -410t-412 -138q-162 0 -263 40.5t-157.5 109.5t-77 155t-20.5 180v917h188v-903q0 -72 14.5 -134t52.5 -109.5t104.5 -74t171.5 -26.5q180 -2 267 84t87 295v868h184v-854v0zM674 1485l-35 106l373 152l51 -144z" />
<glyph unicode="&#xdb;" horiz-adv-x="1419" d="M1243 528q0 -272 -139 -410t-412 -138q-162 0 -263 40.5t-157.5 109.5t-77 155t-20.5 180v917h188v-903q0 -72 14.5 -134t52.5 -109.5t104.5 -74t171.5 -26.5q180 -2 267 84t87 295v868h184v-854v0zM987 1483l-272 123l-277 -123l-49 102l328 170l323 -166z" />
<glyph unicode="&#xdc;" horiz-adv-x="1419" d="M1243 528q0 -272 -139 -410t-412 -138q-162 0 -263 40.5t-157.5 109.5t-77 155t-20.5 180v917h188v-903q0 -72 14.5 -134t52.5 -109.5t104.5 -74t171.5 -26.5q180 -2 267 84t87 295v868h184v-854v0zM1038 1602q0 -45 -31.5 -78t-78.5 -33q-45 0 -77 31.5t-32 79.5 q0 47 32 78.5t77 31.5q47 0 78.5 -31.5t31.5 -78.5zM602 1602q0 -45 -31.5 -78t-78.5 -33q-45 0 -78 32.5t-33 78.5q0 47 33 78.5t78 31.5q47 0 78.5 -31.5t31.5 -78.5z" />
<glyph unicode="&#xdd;" horiz-adv-x="1099" d="M641 530v-530h-186v530l-451 852h207l238 -450q55 -111 102 -227h4q27 66 59.5 133t51.5 102l229 442h201zM506 1485l-35 106l373 152l51 -144z" />
<glyph unicode="&#xde;" horiz-adv-x="1099" d="M866 731q0 139 -88 220t-264 81q-45 0 -88 -3t-64 -5v-592q20 -2 65.5 -6t94.5 -4q166 0 255 86t89 223zM1061 756q0 -104 -38 -193.5t-110.5 -155t-175 -102.5t-229.5 -37q-45 0 -86 2t-60 4v-274h-188v1382h188v-200q20 2 68.5 3t106.5 1q258 0 391 -120t133 -310z" />
<glyph unicode="&#xdf;" horiz-adv-x="1214" d="M1130 305q0 -70 -28.5 -130t-81.5 -104t-129 -67.5t-168 -23.5q-57 0 -109.5 6t-93.5 16l12 162q45 -16 94.5 -25.5t94.5 -9.5q111 0 166 44t55 110q0 51 -26.5 87t-57.5 55t-105.5 62t-116.5 79t-69.5 89.5t-27.5 128.5q0 57 18 100.5t47 73t77 65.5t72.5 57.5t43 54 t18.5 77.5q0 74 -53 112t-141 38q-129 0 -196 -79t-67 -249v-1034h-184v1024q0 129 35 222t96.5 149.5t144 83t181.5 26.5q174 0 273.5 -75.5t99.5 -200.5q0 -66 -19.5 -112t-48.5 -76.5t-83 -68.5t-72.5 -52.5t-37 -44t-18.5 -70.5q0 -49 27.5 -85t56.5 -54.5t104.5 -63.5 t118.5 -81t70.5 -89t27.5 -127z" />
<glyph unicode="&#xe0;" horiz-adv-x="1067" d="M707 477q-121 0 -205 -15.5t-133.5 -42t-71 -61t-21.5 -75.5q0 -68 43 -112t113 -44q59 0 110.5 26.5t88.5 73.5t56.5 103.5t19.5 115.5v31zM717 0q0 72 2 118t8 85h-4q-39 -96 -131 -158.5t-215 -62.5q-127 0 -205 75.5t-78 198.5q0 166 161 258t452 92v56 q0 119 -49.5 175t-165.5 56q-70 0 -153 -19.5t-157 -52.5l-32 144q84 33 178 52t184 19q106 0 179 -23.5t117 -69.5t63.5 -110.5t19.5 -150.5v-389q0 -74 2 -152t4 -141h-180zM549 1165l-287 262l113 111l264 -285z" />
<glyph unicode="&#xe1;" horiz-adv-x="1067" d="M707 477q-121 0 -205 -15.5t-133.5 -42t-71 -61t-21.5 -75.5q0 -68 43 -112t113 -44q59 0 110.5 26.5t88.5 73.5t56.5 103.5t19.5 115.5v31zM717 0q0 72 2 118t8 85h-4q-39 -96 -131 -158.5t-215 -62.5q-127 0 -205 75.5t-78 198.5q0 166 161 258t452 92v56 q0 119 -49.5 175t-165.5 56q-70 0 -153 -19.5t-157 -52.5l-32 144q84 33 178 52t184 19q106 0 179 -23.5t117 -69.5t63.5 -110.5t19.5 -150.5v-389q0 -74 2 -152t4 -141h-180zM512 1165l-90 88l264 285l113 -108z" />
<glyph unicode="&#xe2;" horiz-adv-x="1067" d="M707 477q-121 0 -205 -15.5t-133.5 -42t-71 -61t-21.5 -75.5q0 -68 43 -112t113 -44q59 0 110.5 26.5t88.5 73.5t56.5 103.5t19.5 115.5v31zM717 0q0 72 2 118t8 85h-4q-39 -96 -131 -158.5t-215 -62.5q-127 0 -205 75.5t-78 198.5q0 166 161 258t452 92v56 q0 119 -49.5 175t-165.5 56q-70 0 -153 -19.5t-157 -52.5l-32 144q84 33 178 52t184 19q106 0 179 -23.5t117 -69.5t63.5 -110.5t19.5 -150.5v-389q0 -74 2 -152t4 -141h-180zM735 1167l-204 174l-209 -174l-76 88l287 269l282 -267z" />
<glyph unicode="&#xe3;" horiz-adv-x="1067" d="M707 477q-121 0 -205 -15.5t-133.5 -42t-71 -61t-21.5 -75.5q0 -68 43 -112t113 -44q59 0 110.5 26.5t88.5 73.5t56.5 103.5t19.5 115.5v31zM717 0q0 72 2 118t8 85h-4q-39 -96 -131 -158.5t-215 -62.5q-127 0 -205 75.5t-78 198.5q0 166 161 258t452 92v56 q0 119 -49.5 175t-165.5 56q-70 0 -153 -19.5t-157 -52.5l-32 144q84 33 178 52t184 19q106 0 179 -23.5t117 -69.5t63.5 -110.5t19.5 -150.5v-389q0 -74 2 -152t4 -141h-180zM872 1374q-41 -78 -97 -119t-126 -41q-45 0 -79 15.5t-73.5 44.5t-60 41t-49.5 12 q-68 0 -121 -96l-92 72q41 78 97.5 118.5t125.5 40.5q45 0 79 -14t74 -43t60.5 -41t48.5 -12q70 0 121 94z" />
<glyph unicode="&#xe4;" horiz-adv-x="1067" d="M707 477q-121 0 -205 -15.5t-133.5 -42t-71 -61t-21.5 -75.5q0 -68 43 -112t113 -44q59 0 110.5 26.5t88.5 73.5t56.5 103.5t19.5 115.5v31zM717 0q0 72 2 118t8 85h-4q-39 -96 -131 -158.5t-215 -62.5q-127 0 -205 75.5t-78 198.5q0 166 161 258t452 92v56 q0 119 -49.5 175t-165.5 56q-70 0 -153 -19.5t-157 -52.5l-32 144q84 33 178 52t184 19q106 0 179 -23.5t117 -69.5t63.5 -110.5t19.5 -150.5v-389q0 -74 2 -152t4 -141h-180zM440 1339q0 -45 -32.5 -77.5t-77.5 -32.5t-78 32.5t-33 77.5t33 78t78 33t77.5 -33t32.5 -78z M833 1339q0 -45 -32.5 -77.5t-77.5 -32.5t-78 32.5t-33 77.5t33 78t78 33t77.5 -33t32.5 -78z" />
<glyph unicode="&#xe5;" horiz-adv-x="1067" d="M707 477q-121 0 -205 -15.5t-133.5 -42t-71 -61t-21.5 -75.5q0 -68 43 -112t113 -44q59 0 110.5 26.5t88.5 73.5t56.5 103.5t19.5 115.5v31zM717 0q0 72 2 118t8 85h-4q-39 -96 -131 -158.5t-215 -62.5q-127 0 -205 75.5t-78 198.5q0 166 161 258t452 92v56 q0 119 -49.5 175t-165.5 56q-70 0 -153 -19.5t-157 -52.5l-32 144q84 33 178 52t184 19q106 0 179 -23.5t117 -69.5t63.5 -110.5t19.5 -150.5v-389q0 -74 2 -152t4 -141h-180zM774 1372q0 -100 -68.5 -166t-179.5 -66q-109 0 -168 55.5t-59 161.5q0 100 67.5 165t178.5 65 q109 0 169 -54.5t60 -160.5zM639 1364q0 119 -102 118q-45 0 -75 -30.5t-30 -85.5q0 -119 103 -119q45 0 74.5 30t29.5 87z" />
<glyph unicode="&#xe6;" horiz-adv-x="1652" d="M707 477q-121 0 -205 -15.5t-133.5 -42t-71 -61t-21.5 -75.5q0 -68 43 -112t113 -44q59 0 110.5 26.5t88.5 73.5t56.5 103.5t19.5 115.5v31zM1370 635q2 123 -58.5 192.5t-166.5 69.5q-100 0 -169 -69.5t-85 -192.5h479zM1559 618q0 -55 -7 -114h-663 q-6 -190 71.5 -282.5t239.5 -92.5q76 0 150.5 14.5t150.5 40.5l25 -141q-84 -31 -172 -46t-176 -15q-168 0 -269.5 63.5t-140.5 169.5h-2q-25 -47 -61.5 -90t-86 -75t-109.5 -50t-128 -18q-129 0 -208 75.5t-79 198.5q0 166 161 258t452 92v56q0 119 -49.5 175t-165.5 56 q-70 0 -153 -19.5t-157 -52.5l-32 144q84 33 178 52t184 19q119 0 199 -37.5t116 -119.5h2q49 72 133.5 114.5t192.5 42.5q104 0 181 -31.5t126 -90t73 -133.5t24 -163z" />
<glyph unicode="&#xe7;" horiz-adv-x="890" d="M834 39q-63 -27 -144.5 -41t-159.5 -14q-96 0 -176 25.5t-141 81.5t-95 152.5t-34 231.5q0 123 31.5 226.5t94 177t156 114.5t214.5 41q68 0 132 -11t117 -32l-34 -157q-51 20 -111.5 32.5t-120.5 12.5q-68 0 -121 -28t-90 -78t-55 -119.5t-18 -153.5q0 -80 14 -143.5 t47 -111.5t89 -75t138 -27q133 0 238 50zM561 -82q76 -104 61 -201.5t-104 -197.5h-149q39 49 63.5 92t29.5 83t-8 79t-50 84l157 61v0z" />
<glyph unicode="&#xe8;" horiz-adv-x="1040" d="M758 625q2 131 -58.5 201.5t-169.5 70.5q-102 0 -170.5 -71.5t-83.5 -200.5h482zM946 616q0 -63 -6 -120h-666q-2 -186 75 -276.5t239 -90.5q76 0 150.5 14.5t150.5 40.5l24 -141q-84 -31 -172 -46t-176 -15q-238 0 -359.5 128t-121.5 394q0 113 30.5 211t91 169.5 t145.5 111.5t192 40q104 0 181 -32.5t126 -90t72.5 -133.5t23.5 -164zM553 1165l-287 262l113 111l264 -285z" />
<glyph unicode="&#xe9;" horiz-adv-x="1040" d="M758 625q2 131 -58.5 201.5t-169.5 70.5q-102 0 -170.5 -71.5t-83.5 -200.5h482zM946 616q0 -63 -6 -120h-666q-2 -186 75 -276.5t239 -90.5q76 0 150.5 14.5t150.5 40.5l24 -141q-84 -31 -172 -46t-176 -15q-238 0 -359.5 128t-121.5 394q0 113 30.5 211t91 169.5 t145.5 111.5t192 40q104 0 181 -32.5t126 -90t72.5 -133.5t23.5 -164zM516 1165l-90 88l264 285l113 -108z" />
<glyph unicode="&#xea;" horiz-adv-x="1040" d="M758 625q2 131 -58.5 201.5t-169.5 70.5q-102 0 -170.5 -71.5t-83.5 -200.5h482zM946 616q0 -63 -6 -120h-666q-2 -186 75 -276.5t239 -90.5q76 0 150.5 14.5t150.5 40.5l24 -141q-84 -31 -172 -46t-176 -15q-238 0 -359.5 128t-121.5 394q0 113 30.5 211t91 169.5 t145.5 111.5t192 40q104 0 181 -32.5t126 -90t72.5 -133.5t23.5 -164zM741 1167l-204 174l-209 -174l-76 88l287 269l282 -267z" />
<glyph unicode="&#xeb;" horiz-adv-x="1040" d="M758 625q2 131 -58.5 201.5t-169.5 70.5q-102 0 -170.5 -71.5t-83.5 -200.5h482zM946 616q0 -63 -6 -120h-666q-2 -186 75 -276.5t239 -90.5q76 0 150.5 14.5t150.5 40.5l24 -141q-84 -31 -172 -46t-176 -15q-238 0 -359.5 128t-121.5 394q0 113 30.5 211t91 169.5 t145.5 111.5t192 40q104 0 181 -32.5t126 -90t72.5 -133.5t23.5 -164zM450 1339q0 -45 -32.5 -77.5t-77.5 -32.5t-78 32.5t-33 77.5t33 78t78 33t77.5 -33t32.5 -78zM843 1339q0 -45 -32.5 -77.5t-77.5 -32.5t-78 32.5t-33 77.5t33 78t78 33t77.5 -33t32.5 -78z" />
<glyph unicode="&#xec;" horiz-adv-x="532" d="M174 0v1018h184v-1018h-184zM245 1155l-202 324l141 73l174 -338z" />
<glyph unicode="&#xed;" horiz-adv-x="532" d="M174 0v1018h184v-1018h-184zM276 1163l-106 72l213 311l131 -88z" />
<glyph unicode="&#xee;" horiz-adv-x="532" d="M174 0v1018h184v-1018h-184zM444 1167l-178 174l-180 -174l-76 86l258 269l256 -267z" />
<glyph unicode="&#xef;" horiz-adv-x="532" d="M174 0v1018h184v-1018h-184zM198 1339q0 -45 -31.5 -77.5t-78.5 -32.5q-45 0 -78 32.5t-33 77.5q0 47 33 79t78 32q47 0 78.5 -32t31.5 -79zM557 1339q0 -45 -32 -77.5t-79 -32.5q-45 0 -78 32.5t-33 77.5q0 47 33 79t78 32q47 0 79 -32t32 -79z" />
<glyph unicode="&#xf0;" horiz-adv-x="1118" d="M840 535q0 162 -73 255t-210 93q-57 0 -108.5 -22.5t-91.5 -69t-62.5 -116t-22.5 -161.5q0 -180 78 -278.5t215 -98.5q59 0 108.5 22.5t87.5 72t58.5 125.5t20.5 178zM1030 559q0 -143 -37 -252.5t-102.5 -181.5t-153.5 -107.5t-192 -35.5t-189.5 31.5t-147 96t-94 163 t-32.5 227.5q0 113 34 211t97 170.5t152.5 112.5t197.5 40q70 0 128.5 -22.5t86.5 -69.5q-14 27 -32.5 56.5t-28.5 48.5q-27 45 -58.5 88t-72.5 88l-209 -95l-78 97l193 86q-33 29 -70 58.5t-96 76.5l184 78q43 -35 81 -69t73 -71l204 91l80 -97l-198 -86 q135 -164 207.5 -350t72.5 -383z" />
<glyph unicode="&#xf1;" horiz-adv-x="1177" d="M821 0v655q0 115 -39 172.5t-135 57.5q-61 0 -114.5 -30t-92.5 -84t-60.5 -127t-21.5 -157v-487h-184v1018h178q0 -53 -4 -112.5t-12 -102.5h4q45 109 138 171t220 62q84 0 144.5 -24.5t96.5 -68.5t51.5 -102.5t15.5 -129.5v-711h-185zM946 1374q-41 -78 -97 -119 t-126 -41q-45 0 -79 15.5t-73.5 44.5t-60 41t-49.5 12q-68 0 -121 -96l-92 72q41 78 97.5 118.5t125.5 40.5q45 0 79 -14t74 -43t60.5 -41t48.5 -12q70 0 121 94z" />
<glyph unicode="&#xf2;" horiz-adv-x="1116" d="M844 510q0 178 -75 275.5t-208 97.5q-66 0 -119 -23.5t-91 -71t-58.5 -118t-20.5 -162.5q0 -178 75 -274.5t210 -96.5q61 0 113.5 22.5t91.5 68.5t60.5 117t21.5 165zM1034 524q0 -115 -31.5 -214t-95 -173t-157 -114.5t-209.5 -40.5q-104 0 -189.5 31.5t-146 95t-92 160 t-31.5 225.5q0 115 31.5 214t95 172.5t157 114.5t212.5 41q104 0 188 -31.5t144.5 -95t92 -160t31.5 -225.5zM586 1165l-287 262l113 111l264 -285z" />
<glyph unicode="&#xf3;" horiz-adv-x="1116" d="M844 510q0 178 -75 275.5t-208 97.5q-66 0 -119 -23.5t-91 -71t-58.5 -118t-20.5 -162.5q0 -178 75 -274.5t210 -96.5q61 0 113.5 22.5t91.5 68.5t60.5 117t21.5 165zM1034 524q0 -115 -31.5 -214t-95 -173t-157 -114.5t-209.5 -40.5q-104 0 -189.5 31.5t-146 95t-92 160 t-31.5 225.5q0 115 31.5 214t95 172.5t157 114.5t212.5 41q104 0 188 -31.5t144.5 -95t92 -160t31.5 -225.5zM545 1165l-90 88l264 285l113 -108z" />
<glyph unicode="&#xf4;" horiz-adv-x="1116" d="M844 510q0 178 -75 275.5t-208 97.5q-66 0 -119 -23.5t-91 -71t-58.5 -118t-20.5 -162.5q0 -178 75 -274.5t210 -96.5q61 0 113.5 22.5t91.5 68.5t60.5 117t21.5 165zM1034 524q0 -115 -31.5 -214t-95 -173t-157 -114.5t-209.5 -40.5q-104 0 -189.5 31.5t-146 95t-92 160 t-31.5 225.5q0 115 31.5 214t95 172.5t157 114.5t212.5 41q104 0 188 -31.5t144.5 -95t92 -160t31.5 -225.5zM768 1167l-204 174l-209 -174l-76 88l287 269l282 -267z" />
<glyph unicode="&#xf5;" horiz-adv-x="1116" d="M844 510q0 178 -75 275.5t-208 97.5q-66 0 -119 -23.5t-91 -71t-58.5 -118t-20.5 -162.5q0 -178 75 -274.5t210 -96.5q61 0 113.5 22.5t91.5 68.5t60.5 117t21.5 165zM1034 524q0 -115 -31.5 -214t-95 -173t-157 -114.5t-209.5 -40.5q-104 0 -189.5 31.5t-146 95t-92 160 t-31.5 225.5q0 115 31.5 214t95 172.5t157 114.5t212.5 41q104 0 188 -31.5t144.5 -95t92 -160t31.5 -225.5zM919 1374q-41 -78 -97 -119t-126 -41q-45 0 -79 15.5t-73.5 44.5t-60 41t-49.5 12q-68 0 -121 -96l-92 72q41 78 97.5 118.5t125.5 40.5q45 0 79 -14t74 -43 t60.5 -41t48.5 -12q70 0 121 94z" />
<glyph unicode="&#xf6;" horiz-adv-x="1116" d="M844 510q0 178 -75 275.5t-208 97.5q-66 0 -119 -23.5t-91 -71t-58.5 -118t-20.5 -162.5q0 -178 75 -274.5t210 -96.5q61 0 113.5 22.5t91.5 68.5t60.5 117t21.5 165zM1034 524q0 -115 -31.5 -214t-95 -173t-157 -114.5t-209.5 -40.5q-104 0 -189.5 31.5t-146 95t-92 160 t-31.5 225.5q0 115 31.5 214t95 172.5t157 114.5t212.5 41q104 0 188 -31.5t144.5 -95t92 -160t31.5 -225.5zM477 1339q0 -45 -32.5 -77.5t-77.5 -32.5t-78 32.5t-33 77.5t33 78t78 33t77.5 -33t32.5 -78zM870 1339q0 -45 -32.5 -77.5t-77.5 -32.5t-78 32.5t-33 77.5t33 78 t78 33t77.5 -33t32.5 -78z" />
<glyph unicode="&#xf7;" d="M684 197q0 -53 -36 -89t-87 -36q-53 0 -89 35.5t-36 89.5q0 51 36 86.5t89 35.5q51 0 87 -35.5t36 -86.5zM86 532v154h954v-154h-954zM684 1020q0 -51 -36 -87t-87 -36q-53 0 -89 36t-36 87t36 87t89 36q51 0 87 -36t36 -87z" />
<glyph unicode="&#xf8;" horiz-adv-x="1116" d="M1034 524q0 -115 -31.5 -214t-95 -173t-157 -114.5t-209.5 -40.5q-49 0 -94.5 7t-81.5 21l-101 -192l-114 53l104 195q-84 63 -128 169.5t-44 258.5q0 115 31.5 214t95 172.5t157 114.5t212.5 41q100 0 174 -28l100 192l115 -53l-103 -195q33 -25 59.5 -56.5t47 -70.5 t35 -85t21.5 -100.5t7 -115.5zM856 510q0 47 -6 90t-16.5 79t-24.5 64.5t-29 49.5l-340 -641q53 -25 115 -25q68 0 124 24.5t95 73.5t60.5 121t21.5 164zM676 866q-53 25 -115 25q-68 0 -123 -24.5t-95 -74t-60.5 -121t-20.5 -163.5q0 -39 4 -75t11.5 -66.5t16.5 -56 t20.5 -47t23.5 -38.5z" />
<glyph unicode="&#xf9;" horiz-adv-x="1177" d="M825 0q0 53 4.5 112.5t12.5 102.5h-4q-45 -109 -138.5 -171t-220.5 -62q-84 0 -143.5 24.5t-95 68.5t-51 102.5t-15.5 129.5v711h182v-656q0 -115 39 -172t135 -57q61 0 114.5 30t92.5 84t60.5 126.5t21.5 156.5v488h185v-1018h-179zM596 1165l-287 262l113 111l264 -285 z" />
<glyph unicode="&#xfa;" horiz-adv-x="1177" d="M825 0q0 53 4.5 112.5t12.5 102.5h-4q-45 -109 -138.5 -171t-220.5 -62q-84 0 -143.5 24.5t-95 68.5t-51 102.5t-15.5 129.5v711h182v-656q0 -115 39 -172t135 -57q61 0 114.5 30t92.5 84t60.5 126.5t21.5 156.5v488h185v-1018h-179zM586 1165l-90 88l264 285l113 -108z " />
<glyph unicode="&#xfb;" horiz-adv-x="1177" d="M825 0q0 53 4.5 112.5t12.5 102.5h-4q-45 -109 -138.5 -171t-220.5 -62q-84 0 -143.5 24.5t-95 68.5t-51 102.5t-15.5 129.5v711h182v-656q0 -115 39 -172t135 -57q61 0 114.5 30t92.5 84t60.5 126.5t21.5 156.5v488h185v-1018h-179zM794 1167l-204 174l-209 -174l-76 88 l287 269l282 -267z" />
<glyph unicode="&#xfc;" horiz-adv-x="1177" d="M825 0q0 53 4.5 112.5t12.5 102.5h-4q-45 -109 -138.5 -171t-220.5 -62q-84 0 -143.5 24.5t-95 68.5t-51 102.5t-15.5 129.5v711h182v-656q0 -115 39 -172t135 -57q61 0 114.5 30t92.5 84t60.5 126.5t21.5 156.5v488h185v-1018h-179zM502 1339q0 -45 -32.5 -77.5 t-77.5 -32.5t-78 32.5t-33 77.5t33 78t78 33t77.5 -33t32.5 -78zM895 1339q0 -45 -32.5 -77.5t-77.5 -32.5t-78 32.5t-33 77.5t33 78t78 33t77.5 -33t32.5 -78z" />
<glyph unicode="&#xfd;" horiz-adv-x="983" d="M557 -86q-45 -123 -94 -206t-107.5 -134t-128 -73.5t-157.5 -22.5q-35 0 -68 4t-47 8l18 160q14 -4 49 -10.5t72 -6.5q43 0 80 12.5t68.5 42t61.5 79t58 122.5l41 111l-385 1018h211l193 -533q20 -61 41.5 -131.5t38.5 -128.5h2q6 27 16 60.5t22.5 73.5t31 93.5 t28.5 88.5l164 477h199zM500 1165l-90 88l264 285l113 -108z" />
<glyph unicode="&#xfe;" horiz-adv-x="1142" d="M862 541q0 168 -56 256t-169 88q-66 0 -119 -35t-88 -93.5t-53.5 -127t-18.5 -137.5v-336q80 -25 181 -25q74 0 133 23.5t102 72.5t65.5 128.5t22.5 185.5zM1055 557q0 -270 -138.5 -419.5t-386.5 -149.5q-51 0 -91 2t-81 10v-506h-184v2001h184v-446q0 -59 -3 -124 t-9 -104l4 -2q41 100 128 158.5t204 58.5q178 0 275.5 -124t97.5 -355z" />
<glyph unicode="&#xff;" horiz-adv-x="983" d="M557 -86q-45 -123 -94 -206t-107.5 -134t-128 -73.5t-157.5 -22.5q-35 0 -68 4t-47 8l18 160q14 -4 49 -10.5t72 -6.5q43 0 80 12.5t68.5 42t61.5 79t58 122.5l41 111l-385 1018h211l193 -533q20 -61 41.5 -131.5t38.5 -128.5h2q6 27 16 60.5t22.5 73.5t31 93.5 t28.5 88.5l164 477h199zM411 1339q0 -45 -32.5 -77.5t-77.5 -32.5t-78 32.5t-33 77.5t33 78t78 33t77.5 -33t32.5 -78zM804 1339q0 -45 -32.5 -77.5t-77.5 -32.5t-78 32.5t-33 77.5t33 78t78 33t77.5 -33t32.5 -78z" />
<glyph unicode="&#x100;" horiz-adv-x="1259" d="M682 1010q-14 43 -29.5 94t-29.5 100h-2q-10 -41 -23.5 -84t-34.5 -108l-188 -533h495zM1028 0l-113 330h-587l-115 -330h-193l496 1382h229l494 -1382h-211zM344 1532v127h565v-127h-565z" />
<glyph unicode="&#x101;" horiz-adv-x="1067" d="M707 477q-121 0 -205 -15.5t-133.5 -42t-71 -61t-21.5 -75.5q0 -68 43 -112t113 -44q59 0 110.5 26.5t88.5 73.5t56.5 103.5t19.5 115.5v31zM717 0q0 72 2 118t8 85h-4q-39 -96 -131 -158.5t-215 -62.5q-127 0 -205 75.5t-78 198.5q0 166 161 258t452 92v56 q0 119 -49.5 175t-165.5 56q-70 0 -153 -19.5t-157 -52.5l-32 144q84 33 178 52t184 19q106 0 179 -23.5t117 -69.5t63.5 -110.5t19.5 -150.5v-389q0 -74 2 -152t4 -141h-180zM270 1262v139h516v-139h-516z" />
<glyph unicode="&#x102;" horiz-adv-x="1259" d="M682 1010q-14 43 -29.5 94t-29.5 100h-2q-10 -41 -23.5 -84t-34.5 -108l-188 -533h495zM1028 0l-113 330h-587l-115 -330h-193l496 1382h229l494 -1382h-211zM888 1745q0 -106 -70.5 -178t-197.5 -72q-66 0 -114 19.5t-81.5 53.5t-50 80t-16.5 97h119q0 -53 41 -89 t106 -36q66 0 105 36t39 89h120z" />
<glyph unicode="&#x103;" horiz-adv-x="1067" d="M707 477q-121 0 -205 -15.5t-133.5 -42t-71 -61t-21.5 -75.5q0 -68 43 -112t113 -44q59 0 110.5 26.5t88.5 73.5t56.5 103.5t19.5 115.5v31zM717 0q0 72 2 118t8 85h-4q-39 -96 -131 -158.5t-215 -62.5q-127 0 -205 75.5t-78 198.5q0 166 161 258t452 92v56 q0 119 -49.5 175t-165.5 56q-70 0 -153 -19.5t-157 -52.5l-32 144q84 33 178 52t184 19q106 0 179 -23.5t117 -69.5t63.5 -110.5t19.5 -150.5v-389q0 -74 2 -152t4 -141h-180zM791 1470q0 -55 -15.5 -105t-47 -88t-81 -60.5t-116.5 -22.5q-68 0 -116 22.5t-77.5 61.5t-44 88 t-14.5 104h125q0 -57 32.5 -98t96.5 -41q59 0 95 36t36 103h127v0z" />
<glyph unicode="&#x104;" horiz-adv-x="1259" d="M682 1010q-14 43 -29.5 94t-29.5 100h-2q-10 -41 -23.5 -84t-34.5 -108l-188 -533h495zM1309 -389q-100 -90 -232 -90q-102 0 -160.5 50t-58.5 136q0 76 42 151.5t128 141.5l-113 330h-587l-115 -330h-193l496 1382h229l494 -1382q-111 -63 -158 -129t-47 -127 q0 -41 21.5 -61.5t60.5 -20.5q63 0 135 53z" />
<glyph unicode="&#x105;" horiz-adv-x="1067" d="M1006 -389q-49 -45 -107.5 -67.5t-122.5 -22.5q-51 0 -92 13t-69.5 36.5t-44 58.5t-15.5 78q0 39 11.5 78t35 78t58 76.5t81.5 74.5q-8 47 -11 95.5t-1 87.5l-4 2q-20 -47 -54 -86t-79 -69t-99.5 -46t-115.5 -16t-113.5 19t-90.5 56t-58.5 87.5t-20.5 111.5 q0 82 41 146.5t120 110.5t192.5 69.5t259.5 23.5v56q0 119 -49.5 175t-165.5 56q-70 0 -153 -19.5t-157 -52.5l-32 144q84 33 178 52t184 19q106 0 179 -23.5t117 -69.5t63.5 -110.5t19.5 -150.5v-322q0 -92 7 -186t22 -174q-102 -72 -145.5 -134.5t-43.5 -121.5 q0 -82 82 -82q33 0 65.5 13.5t69.5 39.5zM707 477q-121 0 -205 -15.5t-133.5 -42t-71 -61t-21.5 -75.5q0 -68 43 -112t113 -44q59 0 110.5 26.5t88.5 73.5t56.5 103.5t19.5 115.5v31z" />
<glyph unicode="&#x106;" horiz-adv-x="1193" d="M1102 57q-82 -35 -180.5 -54t-198.5 -19q-162 0 -281.5 50t-196.5 140t-114 213t-37 270q0 162 41 296t124 233.5t212 154t299 54.5q80 0 164 -11.5t153 -31.5l-30 -172q-74 25 -152 39t-153 14q-117 0 -203 -41t-142.5 -116t-83 -173t-26.5 -215q0 -260 115.5 -398 t349.5 -138q76 0 160 18t149 49zM629 1485l-35 106l373 152l51 -144z" />
<glyph unicode="&#x107;" horiz-adv-x="890" d="M834 39q-63 -27 -144.5 -41t-159.5 -14q-96 0 -176 25.5t-141 81.5t-95 152.5t-34 231.5q0 123 31.5 226.5t94 177t156 114.5t214.5 41q68 0 132 -11t117 -32l-34 -157q-51 20 -111.5 32.5t-120.5 12.5q-68 0 -121 -28t-90 -78t-55 -119.5t-18 -153.5q0 -80 14 -143.5 t47 -111.5t89 -75t138 -27q133 0 238 50zM500 1165l-90 88l264 285l113 -108z" />
<glyph unicode="&#x10c;" horiz-adv-x="1193" d="M1102 57q-82 -35 -180.5 -54t-198.5 -19q-162 0 -281.5 50t-196.5 140t-114 213t-37 270q0 162 41 296t124 233.5t212 154t299 54.5q80 0 164 -11.5t153 -31.5l-30 -172q-74 25 -152 39t-153 14q-117 0 -203 -41t-142.5 -116t-83 -173t-26.5 -215q0 -260 115.5 -398 t349.5 -138q76 0 160 18t149 49zM709 1483l-322 168l51 104l275 -123l276 123l49 -102z" />
<glyph unicode="&#x10d;" horiz-adv-x="890" d="M834 39q-63 -27 -144.5 -41t-159.5 -14q-96 0 -176 25.5t-141 81.5t-95 152.5t-34 231.5q0 123 31.5 226.5t94 177t156 114.5t214.5 41q68 0 132 -11t117 -32l-34 -157q-51 20 -111.5 32.5t-120.5 12.5q-68 0 -121 -28t-90 -78t-55 -119.5t-18 -153.5q0 -80 14 -143.5 t47 -111.5t89 -75t138 -27q133 0 238 50zM539 1167l-285 267l80 90l205 -174l207 174l77 -88z" />
<glyph unicode="&#x10e;" horiz-adv-x="1388" d="M1096 694q0 266 -130 403.5t-397 137.5q-45 0 -112.5 -2t-94.5 -4v-1065q37 -6 87.5 -9t95.5 -3q123 0 224 32.5t174 99t113 170t40 240.5zM1294 707q0 -174 -55 -308.5t-158.5 -225.5t-245 -136t-311.5 -45q-74 0 -188.5 4t-161.5 4v1380q113 2 217.5 5.5t196.5 3.5 q168 0 299 -40t222 -124t138 -213t47 -305zM611 1483l-322 168l51 104l275 -123l276 123l49 -102z" />
<glyph unicode="&#x10f;" horiz-adv-x="1206" d="M786 864q-49 10 -94 16.5t-88 6.5q-74 0 -133 -23.5t-101 -73t-64.5 -127t-22.5 -186.5q0 -168 55 -256t168 -88q68 0 120 35t88 93t54 127t18 138v338zM791 0q0 51 4 108.5t12 98.5l-4 2q-43 -104 -132 -165.5t-208 -61.5q-186 0 -280.5 125.5t-94.5 353.5 q0 133 37 238.5t105.5 180t166 113.5t217.5 39q39 0 79 -2t93 -8v473h183v-1495h-178zM1192 1157l-123 33l113 371l153 -41z" />
<glyph unicode="&#x110;" horiz-adv-x="1406" d="M1114 694q0 266 -131 403.5t-397 137.5q-45 0 -112.5 -2t-94.5 -4v-447h293v-143h-293v-475q37 -6 87 -9t95 -3q125 0 225.5 32.5t174 99t113.5 170t40 240.5zM1313 707q0 -172 -55.5 -306.5t-158 -224.5t-244.5 -137t-314 -47q-74 0 -188.5 4t-159.5 4v639h-187v143h187 v598q113 2 217 5.5t194 3.5q168 0 299 -40t223.5 -124t139.5 -213t47 -305z" />
<glyph unicode="&#x111;" horiz-adv-x="1142" d="M786 864q-100 23 -182 23q-74 0 -133 -23.5t-101 -73t-64.5 -127t-22.5 -186.5q0 -168 55 -256t168 -88q68 0 120 35t88 93t54 127t18 138v338zM969 1210v-1210h-178q0 51 4 108.5t12 98.5l-4 2q-43 -104 -132 -165.5t-208 -61.5q-186 0 -280.5 125.5t-94.5 353.5 q0 133 37 238.5t105.5 180t166 113.5t217.5 39q39 0 79 -2t93 -8v188h-239v125h239v160h183v-160h145v-125h-145z" />
<glyph unicode="&#x112;" horiz-adv-x="1050" d="M174 0v1382h737v-155h-549v-439h504v-151h-504v-479h549v-158h-737zM248 1532v127h565v-127h-565z" />
<glyph unicode="&#x113;" horiz-adv-x="1040" d="M758 625q2 131 -58.5 201.5t-169.5 70.5q-102 0 -170.5 -71.5t-83.5 -200.5h482zM946 616q0 -63 -6 -120h-666q-2 -186 75 -276.5t239 -90.5q76 0 150.5 14.5t150.5 40.5l24 -141q-84 -31 -172 -46t-176 -15q-238 0 -359.5 128t-121.5 394q0 113 30.5 211t91 169.5 t145.5 111.5t192 40q104 0 181 -32.5t126 -90t72.5 -133.5t23.5 -164zM270 1262v139h516v-139h-516z" />
<glyph unicode="&#x116;" horiz-adv-x="1050" d="M174 0v1382h737v-155h-549v-439h504v-151h-504v-479h549v-158h-737zM656 1608q0 -49 -35 -84t-84 -35t-84 35t-35 84t35 83.5t84 34.5t84 -33.5t35 -84.5z" />
<glyph unicode="&#x117;" horiz-adv-x="1040" d="M758 625q2 131 -58.5 201.5t-169.5 70.5q-102 0 -170.5 -71.5t-83.5 -200.5h482zM946 616q0 -63 -6 -120h-666q-2 -186 75 -276.5t239 -90.5q76 0 150.5 14.5t150.5 40.5l24 -141q-84 -31 -172 -46t-176 -15q-238 0 -359.5 128t-121.5 394q0 113 30.5 211t91 169.5 t145.5 111.5t192 40q104 0 181 -32.5t126 -90t72.5 -133.5t23.5 -164zM656 1345q0 -49 -35 -83.5t-84 -34.5t-84 33.5t-35 84.5q0 49 35 84t84 35t84 -35t35 -84z" />
<glyph unicode="&#x118;" horiz-adv-x="1050" d="M965 -389q-100 -90 -232 -90q-102 0 -160.5 50t-58.5 136q0 82 50 164t126 129h-516v1382h737v-155h-549v-439h504v-151h-504v-479h549v-152q-47 -16 -88 -46t-70.5 -66.5t-46 -75.5t-16.5 -74q0 -82 82 -82q59 0 135 53z" />
<glyph unicode="&#x119;" horiz-adv-x="1040" d="M758 625q2 131 -58.5 201.5t-169.5 70.5q-102 0 -170.5 -71.5t-83.5 -200.5h482zM907 -389q-100 -90 -229 -90q-104 0 -162.5 50t-58.5 136q0 74 41 148.5t116 132.5q-41 -4 -71 -4q-102 0 -185.5 28.5t-144.5 91t-95 162t-34 238.5q0 113 30.5 211t91 169.5t145.5 111.5 t192 40q104 0 181 -32.5t126 -90t72.5 -133t23.5 -164.5q0 -57 -6 -120h-666q-2 -186 75 -276.5t239 -90.5q76 0 150.5 14.5t150.5 40.5l24 -139q-53 -18 -103 -51t-90 -74t-63.5 -87t-23.5 -89q0 -82 82 -82q63 0 135 53z" />
<glyph unicode="&#x11a;" horiz-adv-x="1050" d="M174 0v1382h737v-155h-549v-439h504v-151h-504v-479h549v-158h-737zM525 1483l-322 168l51 104l275 -123l276 123l49 -102z" />
<glyph unicode="&#x11b;" horiz-adv-x="1040" d="M758 625q2 131 -58.5 201.5t-169.5 70.5q-102 0 -170.5 -71.5t-83.5 -200.5h482zM946 616q0 -63 -6 -120h-666q-2 -186 75 -276.5t239 -90.5q76 0 150.5 14.5t150.5 40.5l24 -141q-84 -31 -172 -46t-176 -15q-238 0 -359.5 128t-121.5 394q0 113 30.5 211t91 169.5 t145.5 111.5t192 40q104 0 181 -32.5t126 -90t72.5 -133.5t23.5 -164zM535 1167l-285 267l80 90l205 -174l207 174l77 -88z" />
<glyph unicode="&#x11e;" horiz-adv-x="1396" d="M1231 61q-102 -39 -222 -59t-235 -20q-162 0 -289 46t-216 134t-135 213t-46 282q0 164 48 300.5t142.5 235.5t233.5 153.5t319 54.5q98 0 194.5 -15.5t188.5 -44.5l-40 -170q-86 33 -177.5 50.5t-183.5 17.5q-135 0 -235.5 -44t-164 -121t-94 -176t-30.5 -212 q0 -129 34.5 -229.5t100 -170t161 -105.5t216.5 -36q66 0 125 9.5t118 27.5v523h187v-644zM1056 1745q0 -106 -70.5 -178t-197.5 -72q-66 0 -114 19.5t-81.5 53.5t-50 80t-16.5 97h119q0 -53 41 -89t106 -36q66 0 105 36t39 89h120z" />
<glyph unicode="&#x11f;" horiz-adv-x="1093" d="M535 1036q76 0 147 -18h342v-146h-150q14 -23 34 -65.5t20 -114.5q0 -82 -25.5 -150.5t-79 -118.5t-131.5 -80t-180 -30q-59 0 -109 9q-55 -39 -55 -82q0 -33 34 -53.5t124 -22.5l164 -6q186 -6 276 -84t90 -215q0 -82 -36.5 -153t-105.5 -121t-167 -79.5t-219 -29.5 q-201 0 -317.5 77.5t-116.5 223.5q0 45 14 84t38 74.5t54.5 64.5t67.5 53q-35 18 -62.5 52t-29.5 96q0 51 29.5 95t84.5 79q-35 20 -70.5 58t-58 97.5t-22.5 126.5q0 80 26.5 150t78.5 120t130.5 79.5t180.5 29.5zM297 -82q-35 -51 -35 -108q0 -94 74 -142.5t201 -48.5 q158 0 235.5 60.5t77.5 154.5q0 74 -51 120t-181 50l-169 6q-29 0 -54 2q-65 -43 -98 -94zM750 674q0 98 -59.5 161.5t-166.5 63.5q-109 0 -168 -63.5t-59 -161.5t59.5 -161.5t167.5 -63.5q106 0 166 63.5t60 161.5zM799 1470q0 -55 -15.5 -105t-47 -88t-81 -60.5 t-116.5 -22.5q-68 0 -116 22.5t-77.5 61.5t-44 88t-14.5 104h125q0 -57 32.5 -98t96.5 -41q59 0 95 36t36 103h127v0z" />
<glyph unicode="&#x122;" horiz-adv-x="1396" d="M1231 61q-102 -39 -222 -59t-235 -20q-162 0 -289 46t-216 134t-135 213t-46 282q0 164 48 300.5t142.5 235.5t233.5 153.5t319 54.5q98 0 194.5 -15.5t188.5 -44.5l-40 -170q-86 33 -177.5 50.5t-183.5 17.5q-135 0 -235.5 -44t-164 -121t-94 -176t-30.5 -212 q0 -129 34.5 -229.5t100 -170t161 -105.5t216.5 -36q66 0 125 9.5t118 27.5v523h187v-644zM759 -100q49 0 77 -34t28 -83q0 -66 -49.5 -136.5t-176.5 -138.5l-47 70q55 41 76 75t21 62q0 16 -4.5 26.5t-8.5 20t-8 18.5t-4 25q0 37 24.5 66t71.5 29z" />
<glyph unicode="&#x123;" horiz-adv-x="1093" d="M535 1036q76 0 147 -18h342v-146h-150q14 -23 34 -65.5t20 -114.5q0 -82 -25.5 -150.5t-79 -118.5t-131.5 -80t-180 -30q-59 0 -109 9q-55 -39 -55 -82q0 -33 34 -53.5t124 -22.5l164 -6q186 -6 276 -84t90 -215q0 -82 -36.5 -153t-105.5 -121t-167 -79.5t-219 -29.5 q-201 0 -317.5 77.5t-116.5 223.5q0 45 14 84t38 74.5t54.5 64.5t67.5 53q-35 18 -62.5 52t-29.5 96q0 51 29.5 95t84.5 79q-35 20 -70.5 58t-58 97.5t-22.5 126.5q0 80 26.5 150t78.5 120t130.5 79.5t180.5 29.5zM297 -82q-35 -51 -35 -108q0 -94 74 -142.5t201 -48.5 q158 0 235.5 60.5t77.5 154.5q0 74 -51 120t-181 50l-169 6q-29 0 -54 2q-65 -43 -98 -94zM750 674q0 98 -59.5 161.5t-166.5 63.5q-109 0 -168 -63.5t-59 -161.5t59.5 -161.5t167.5 -63.5q106 0 166 63.5t60 161.5zM526 1159q-47 0 -77.5 37t-25.5 99.5t60 130t164 124.5 l47 -69q-43 -31 -62.5 -56.5t-26.5 -49t-4 -43t11 -36.5q12 -20 12 -45.5t-12 -46t-35.5 -33t-50.5 -12.5z" />
<glyph unicode="&#x12a;" horiz-adv-x="536" d="M174 0v1382h188v-1382h-188zM-10 1532v127h565v-127h-565z" />
<glyph unicode="&#x12b;" horiz-adv-x="532" d="M174 0v1018h184v-1018h-184zM25 1262v139h485v-139h-485z" />
<glyph unicode="&#x12e;" horiz-adv-x="536" d="M481 -389q-49 -45 -107.5 -67.5t-121.5 -22.5q-104 0 -162.5 50t-58.5 136q0 37 9 75t27.5 73.5t45 72.5t61.5 76v1378h188v-1382q-84 -72 -119.5 -136.5t-35.5 -119.5q0 -39 21.5 -60.5t60.5 -21.5q63 0 135 53z" />
<glyph unicode="&#x12f;" horiz-adv-x="532" d="M389 1339q0 -25 -9 -46t-26.5 -37.5t-40 -25.5t-47.5 -9t-47 9t-38.5 25.5t-27 38t-10.5 45.5q0 25 10.5 47.5t27 39t39 25.5t46.5 9q25 0 47.5 -9t40 -25.5t26.5 -38t9 -48.5zM358 0q-90 -78 -121.5 -143.5t-31.5 -112.5q0 -82 82 -82q63 0 135 53l57 -104 q-49 -45 -107.5 -67.5t-121.5 -22.5q-104 0 -162.5 50t-58.5 136q0 76 37.5 148.5t107.5 148.5v1014h184v-1018z" />
<glyph unicode="&#x130;" horiz-adv-x="536" d="M174 0v1382h188v-1382h-188zM396 1608q0 -49 -35 -84t-84 -35t-84 35t-35 84t35 83.5t84 34.5t84 -33.5t35 -84.5z" />
<glyph unicode="&#x131;" horiz-adv-x="532" d="M174 0v1018h184v-1018h-184z" />
<glyph unicode="&#x136;" horiz-adv-x="1196" d="M909 0l-547 684v-684h-188v1382h188v-651l549 651h230l-584 -665l608 -717h-256zM610 -100q49 0 77 -34t28 -83q0 -66 -49.5 -136.5t-176.5 -138.5l-47 70q55 41 76 75t21 62q0 16 -4.5 26.5t-8.5 20t-8 18.5t-4 25q0 37 24.5 66t71.5 29z" />
<glyph unicode="&#x137;" horiz-adv-x="1009" d="M735 0l-377 524v-524h-184v1495h184v-924l359 447h215l-385 -457l424 -561h-236zM522 -100q49 0 77 -34t28 -83q0 -66 -49.5 -136.5t-176.5 -138.5l-47 70q55 41 76 75t21 62q0 16 -4.5 26.5t-8.5 20t-8 18.5t-4 25q0 37 24.5 66t71.5 29z" />
<glyph unicode="&#x139;" horiz-adv-x="872" d="M174 0v1382h188v-1222h496v-160h-684zM307 1485l-35 106l373 152l51 -144z" />
<glyph unicode="&#x13a;" horiz-adv-x="532" d="M174 0v1495h184v-1495h-184zM199 1608l-35 106l373 152l51 -144z" />
<glyph unicode="&#x13b;" horiz-adv-x="872" d="M174 0v1382h188v-1222h496v-160h-684zM524 -100q49 0 77 -34t28 -83q0 -66 -49.5 -136.5t-176.5 -138.5l-47 70q55 41 76 75t21 62q0 16 -4.5 26.5t-8.5 20t-8 18.5t-4 25q0 37 24.5 66t71.5 29z" />
<glyph unicode="&#x13c;" horiz-adv-x="532" d="M174 0v1495h184v-1495h-184zM270 -100q49 0 77 -34t28 -83q0 -66 -49.5 -136.5t-176.5 -138.5l-47 70q55 41 76 75t21 62q0 16 -4.5 26.5t-8.5 20t-8 18.5t-4 25q0 37 24.5 66t71.5 29z" />
<glyph unicode="&#x13d;" horiz-adv-x="878" d="M174 0v1382h188v-1222h496v-160h-684zM610 1241l-106 66l213 321l135 -80z" />
<glyph unicode="&#x13e;" horiz-adv-x="595" d="M174 0v1495h184v-1495h-184zM582 1157l-123 33l113 371l153 -41z" />
<glyph unicode="&#x141;" horiz-adv-x="890" d="M193 0v715l-160 -74l-41 141l201 92v508h186v-419l229 102l39 -141l-268 -121v-643h495v-160h-681z" />
<glyph unicode="&#x142;" horiz-adv-x="595" d="M395 844v-844h-184v743l-127 -73l-45 133l172 98v594h184v-494l140 80l45 -133z" />
<glyph unicode="&#x143;" horiz-adv-x="1419" d="M1061 0h-10l-512 809q-39 59 -67 106.5t-51.5 88t-42 75.5t-34.5 70h-4q4 -59 7 -150.5t6 -197t4 -215t1 -199.5v-387h-184v1382v0h141h91l481 -761q41 -61 69.5 -109.5t50 -87.5t36 -67.5t32.5 -65.5h4q-4 68 -7 156t-5 187t-4 202.5t-2 197.5v348h184v-1382h-184z M668 1485l-35 106l373 152l51 -144z" />
<glyph unicode="&#x144;" horiz-adv-x="1177" d="M821 0v655q0 115 -39 172.5t-135 57.5q-61 0 -114.5 -30t-92.5 -84t-60.5 -127t-21.5 -157v-487h-184v1018h178q0 -53 -4 -112.5t-12 -102.5h4q45 109 138 171t220 62q84 0 144.5 -24.5t96.5 -68.5t51.5 -102.5t15.5 -129.5v-711h-185zM604 1165l-90 88l264 285l113 -108 z" />
<glyph unicode="&#x145;" horiz-adv-x="1419" d="M1061 0h-10l-512 809q-39 59 -67 106.5t-51.5 88t-42 75.5t-34.5 70h-4q4 -59 7 -150.5t6 -197t4 -215t1 -199.5v-387h-184v1382v0h141h91l481 -761q41 -61 69.5 -109.5t50 -87.5t36 -67.5t32.5 -65.5h4q-4 68 -7 156t-5 187t-4 202.5t-2 197.5v348h184v-1382h-184z M712 -100q49 0 77 -34t28 -83q0 -66 -49.5 -136.5t-176.5 -138.5l-47 70q55 41 76 75t21 62q0 16 -4.5 26.5t-8.5 20t-8 18.5t-4 25q0 37 24.5 66t71.5 29z" />
<glyph unicode="&#x146;" horiz-adv-x="1177" d="M821 0v655q0 115 -39 172.5t-135 57.5q-61 0 -114.5 -30t-92.5 -84t-60.5 -127t-21.5 -157v-487h-184v1018h178q0 -53 -4 -112.5t-12 -102.5h4q45 109 138 171t220 62q84 0 144.5 -24.5t96.5 -68.5t51.5 -102.5t15.5 -129.5v-711h-185zM598 -100q49 0 77 -34t28 -83 q0 -66 -49.5 -136.5t-176.5 -138.5l-47 70q55 41 76 75t21 62q0 16 -4.5 26.5t-8.5 20t-8 18.5t-4 25q0 37 24.5 66t71.5 29z" />
<glyph unicode="&#x147;" horiz-adv-x="1419" d="M1061 0h-10l-512 809q-39 59 -67 106.5t-51.5 88t-42 75.5t-34.5 70h-4q4 -59 7 -150.5t6 -197t4 -215t1 -199.5v-387h-184v1382v0h141h91l481 -761q41 -61 69.5 -109.5t50 -87.5t36 -67.5t32.5 -65.5h4q-4 68 -7 156t-5 187t-4 202.5t-2 197.5v348h184v-1382h-184z M717 1483l-322 168l51 104l275 -123l276 123l49 -102z" />
<glyph unicode="&#x148;" horiz-adv-x="1177" d="M821 0v655q0 115 -39 172.5t-135 57.5q-61 0 -114.5 -30t-92.5 -84t-60.5 -127t-21.5 -157v-487h-184v1018h178q0 -53 -4 -112.5t-12 -102.5h4q45 109 138 171t220 62q84 0 144.5 -24.5t96.5 -68.5t51.5 -102.5t15.5 -129.5v-711h-185zM594 1167l-285 267l80 90l205 -174 l207 174l77 -88z" />
<glyph unicode="&#x14c;" horiz-adv-x="1452" d="M1167 682q0 256 -112.5 405.5t-327.5 149.5q-94 0 -174 -35t-140.5 -103.5t-93 -170t-32.5 -228.5q0 -125 27.5 -227t83 -176t138 -113t191.5 -39q94 0 174 35t140.5 103.5t93 170t32.5 228.5zM1366 711q0 -172 -51 -309.5t-142.5 -231.5t-210 -142t-253.5 -48 q-150 0 -265.5 48t-194.5 138t-120 218t-41 288q0 172 51 309t142.5 231.5t210 142.5t253.5 48q150 0 265.5 -48t194.5 -138.5t120 -218t41 -287.5zM446 1532v127h565v-127h-565z" />
<glyph unicode="&#x14d;" horiz-adv-x="1116" d="M844 510q0 178 -75 275.5t-208 97.5q-66 0 -119 -23.5t-91 -71t-58.5 -118t-20.5 -162.5q0 -178 75 -274.5t210 -96.5q61 0 113.5 22.5t91.5 68.5t60.5 117t21.5 165zM1034 524q0 -115 -31.5 -214t-95 -173t-157 -114.5t-209.5 -40.5q-104 0 -189.5 31.5t-146 95t-92 160 t-31.5 225.5q0 115 31.5 214t95 172.5t157 114.5t212.5 41q104 0 188 -31.5t144.5 -95t92 -160t31.5 -225.5zM309 1262v139h516v-139h-516z" />
<glyph unicode="&#x150;" horiz-adv-x="1452" d="M1167 682q0 256 -112.5 405.5t-327.5 149.5q-94 0 -174 -35t-140.5 -103.5t-93 -170t-32.5 -228.5q0 -125 27.5 -227t83 -176t138 -113t191.5 -39q94 0 174 35t140.5 103.5t93 170t32.5 228.5zM1366 711q0 -172 -51 -309.5t-142.5 -231.5t-210 -142t-253.5 -48 q-150 0 -265.5 48t-194.5 138t-120 218t-41 288q0 172 51 309t142.5 231.5t210 142.5t253.5 48q150 0 265.5 -48t194.5 -138.5t120 -218t41 -287.5zM563 1483l-90 82l231 266l113 -102zM921 1483l-86 82l269 260l106 -109z" />
<glyph unicode="&#x151;" horiz-adv-x="1116" d="M844 510q0 178 -75 275.5t-208 97.5q-66 0 -119 -23.5t-91 -71t-58.5 -118t-20.5 -162.5q0 -178 75 -274.5t210 -96.5q61 0 113.5 22.5t91.5 68.5t60.5 117t21.5 165zM1034 524q0 -115 -31.5 -214t-95 -173t-157 -114.5t-209.5 -40.5q-104 0 -189.5 31.5t-146 95t-92 160 t-31.5 225.5q0 115 31.5 214t95 172.5t157 114.5t212.5 41q104 0 188 -31.5t144.5 -95t92 -160t31.5 -225.5zM412 1167l-90 80l242 289l114 -98zM768 1167l-88 82l263 275l110 -103z" />
<glyph unicode="&#x152;" horiz-adv-x="1789" d="M936 1210q-45 12 -100.5 19.5t-108.5 7.5q-94 0 -174 -35t-140.5 -103.5t-93 -170t-32.5 -228.5q0 -125 27.5 -227t83 -176t138 -113t191.5 -39q47 0 105.5 7.5t103.5 17.5v1040zM952 0q-57 -10 -122.5 -15t-120.5 -5q-150 0 -265.5 48t-194.5 138t-120 218t-41 288 q0 172 51 309t142.5 231.5t210 142.5t253.5 48q53 0 114 -5t110 -16h680v-155h-525v-439h498v-151h-498v-479h525v-158h-697z" />
<glyph unicode="&#x153;" horiz-adv-x="1787" d="M844 510q0 178 -75 275.5t-208 97.5q-66 0 -119 -23.5t-91 -71t-58.5 -118t-20.5 -162.5q0 -178 75 -274.5t210 -96.5q61 0 113.5 22.5t91.5 68.5t60.5 117t21.5 165zM1505 635q2 123 -57 192.5t-168 69.5q-100 0 -169 -69.5t-83 -192.5h477zM1694 618q0 -55 -4 -114 h-666q-4 -193 74 -284t239 -91q74 0 150 14.5t151 40.5l23 -141q-84 -31 -172 -46t-176 -15q-152 0 -247 53t-144 149q-53 -92 -150.5 -147t-230.5 -55q-104 0 -189.5 31.5t-146 95t-92 160t-31.5 225.5q0 115 31.5 214t95 172.5t157 114.5t212.5 41q123 0 217 -48t149 -146 q49 90 138 142t208 52q104 0 181 -31.5t126.5 -90t73 -133.5t23.5 -163z" />
<glyph unicode="&#x154;" horiz-adv-x="1161" d="M823 991q0 119 -78.5 182.5t-226.5 63.5q-47 0 -91 -1t-65 -3v-492q20 0 62.5 -1t85.5 -1q150 0 231.5 66.5t81.5 185.5zM881 0l-418 598h-101v-598h-188v1380q45 2 147.5 6.5t213.5 4.5t199.5 -22.5t152 -69t98.5 -118t35 -167.5q0 -88 -27.5 -157t-78 -117t-116 -77.5 t-141.5 -39.5q14 -18 47 -59.5t66 -88.5l344 -475h-233zM455 1485l-35 106l373 152l51 -144z" />
<glyph unicode="&#x155;" horiz-adv-x="727" d="M676 854q-160 29 -239 -84t-79 -360v-410h-184v1018h178q0 -53 -5 -117.5t-17 -124.5h4q16 57 45 106.5t72 86.5t101 56t132 11zM426 1165l-90 88l264 285l113 -108z" />
<glyph unicode="&#x156;" horiz-adv-x="1161" d="M823 991q0 119 -78.5 182.5t-226.5 63.5q-47 0 -91 -1t-65 -3v-492q20 0 62.5 -1t85.5 -1q150 0 231.5 66.5t81.5 185.5zM881 0l-418 598h-101v-598h-188v1380q45 2 147.5 6.5t213.5 4.5t199.5 -22.5t152 -69t98.5 -118t35 -167.5q0 -88 -27.5 -157t-78 -117t-116 -77.5 t-141.5 -39.5q14 -18 47 -59.5t66 -88.5l344 -475h-233zM587 -100q49 0 77 -34t28 -83q0 -66 -49.5 -136.5t-176.5 -138.5l-47 70q55 41 76 75t21 62q0 16 -4.5 26.5t-8.5 20t-8 18.5t-4 25q0 37 24.5 66t71.5 29z" />
<glyph unicode="&#x157;" horiz-adv-x="727" d="M676 854q-160 29 -239 -84t-79 -360v-410h-184v1018h178q0 -53 -5 -117.5t-17 -124.5h4q16 57 45 106.5t72 86.5t101 56t132 11zM286 -100q49 0 77 -34t28 -83q0 -66 -49.5 -136.5t-176.5 -138.5l-47 70q55 41 76 75t21 62q0 16 -4.5 26.5t-8.5 20t-8 18.5t-4 25 q0 37 24.5 66t71.5 29z" />
<glyph unicode="&#x158;" horiz-adv-x="1161" d="M823 991q0 119 -78.5 182.5t-226.5 63.5q-47 0 -91 -1t-65 -3v-492q20 0 62.5 -1t85.5 -1q150 0 231.5 66.5t81.5 185.5zM881 0l-418 598h-101v-598h-188v1380q45 2 147.5 6.5t213.5 4.5t199.5 -22.5t152 -69t98.5 -118t35 -167.5q0 -88 -27.5 -157t-78 -117t-116 -77.5 t-141.5 -39.5q14 -18 47 -59.5t66 -88.5l344 -475h-233zM531 1483l-322 168l51 104l275 -123l276 123l49 -102z" />
<glyph unicode="&#x159;" horiz-adv-x="727" d="M676 854q-160 29 -239 -84t-79 -360v-410h-184v1018h178q0 -53 -5 -117.5t-17 -124.5h4q16 57 45 106.5t72 86.5t101 56t132 11zM432 1167l-285 267l80 90l205 -174l207 174l77 -88z" />
<glyph unicode="&#x15a;" horiz-adv-x="1030" d="M932 391q0 -90 -33 -164.5t-98.5 -130t-160.5 -85t-216 -29.5q-84 0 -164 10t-147 28l24 179q70 -27 146.5 -41.5t152.5 -14.5q66 0 120 13.5t94 41t61.5 70.5t21.5 103q0 72 -42 120t-92 73.5t-163.5 74.5t-179.5 92t-109 113.5t-43 175.5q0 84 33 154.5t94.5 121 t152.5 78t204 27.5q63 0 128.5 -7.5t121.5 -19.5l-23 -166q-57 16 -118.5 26.5t-121.5 10.5q-137 0 -207.5 -54t-70.5 -153q0 -70 43 -117t90 -70.5t165 -74.5t184.5 -95t109.5 -115t43 -175zM455 1485l-35 106l373 152l51 -144z" />
<glyph unicode="&#x15b;" horiz-adv-x="870" d="M770 293q0 -66 -27.5 -122t-81 -99t-132 -66.5t-179.5 -23.5q-63 0 -126.5 7t-112.5 19l14 164q51 -18 115.5 -30.5t124.5 -12.5q104 0 159.5 39t55.5 111q0 51 -32 83.5t-98.5 58t-124 46t-107.5 51.5t-83 85t-33 138q0 129 104.5 212t297.5 83q51 0 102 -5t94 -13 l-12 -154q-45 14 -98 22.5t-103 8.5q-96 0 -146 -37t-50 -100q0 -51 31.5 -83t99 -58.5t124 -47t108 -52.5t84 -86t32.5 -138zM397 1165l-90 88l264 285l113 -108z" />
<glyph unicode="&#x15e;" horiz-adv-x="1030" d="M932 391q0 -90 -33 -164.5t-98.5 -130t-160.5 -85t-216 -29.5q-84 0 -164 10t-147 28l24 179q70 -27 146.5 -41.5t152.5 -14.5q66 0 120 13.5t94 41t61.5 70.5t21.5 103q0 72 -42 120t-92 73.5t-163.5 74.5t-179.5 92t-109 113.5t-43 175.5q0 84 33 154.5t94.5 121 t152.5 78t204 27.5q63 0 128.5 -7.5t121.5 -19.5l-23 -166q-57 16 -118.5 26.5t-121.5 10.5q-137 0 -207.5 -54t-70.5 -153q0 -70 43 -117t90 -70.5t165 -74.5t184.5 -95t109.5 -115t43 -175zM552 -82q76 -104 61 -201.5t-104 -197.5h-149q39 49 63.5 92t29.5 83t-8 79 t-50 84l157 61v0z" />
<glyph unicode="&#x15f;" horiz-adv-x="870" d="M770 293q0 -66 -27.5 -122t-81 -99t-132 -66.5t-179.5 -23.5q-63 0 -126.5 7t-112.5 19l14 164q51 -18 115.5 -30.5t124.5 -12.5q104 0 159.5 39t55.5 111q0 51 -32 83.5t-98.5 58t-124 46t-107.5 51.5t-83 85t-33 138q0 129 104.5 212t297.5 83q51 0 102 -5t94 -13 l-12 -154q-45 14 -98 22.5t-103 8.5q-96 0 -146 -37t-50 -100q0 -51 31.5 -83t99 -58.5t124 -47t108 -52.5t84 -86t32.5 -138zM481 -82q76 -104 61 -201.5t-104 -197.5h-149q39 49 63.5 92t29.5 83t-8 79t-50 84l157 61v0z" />
<glyph unicode="&#x160;" horiz-adv-x="1030" d="M932 391q0 -90 -33 -164.5t-98.5 -130t-160.5 -85t-216 -29.5q-84 0 -164 10t-147 28l24 179q70 -27 146.5 -41.5t152.5 -14.5q66 0 120 13.5t94 41t61.5 70.5t21.5 103q0 72 -42 120t-92 73.5t-163.5 74.5t-179.5 92t-109 113.5t-43 175.5q0 84 33 154.5t94.5 121 t152.5 78t204 27.5q63 0 128.5 -7.5t121.5 -19.5l-23 -166q-57 16 -118.5 26.5t-121.5 10.5q-137 0 -207.5 -54t-70.5 -153q0 -70 43 -117t90 -70.5t165 -74.5t184.5 -95t109.5 -115t43 -175zM515 1483l-322 168l51 104l275 -123l276 123l49 -102z" />
<glyph unicode="&#x161;" horiz-adv-x="870" d="M770 293q0 -66 -27.5 -122t-81 -99t-132 -66.5t-179.5 -23.5q-63 0 -126.5 7t-112.5 19l14 164q51 -18 115.5 -30.5t124.5 -12.5q104 0 159.5 39t55.5 111q0 51 -32 83.5t-98.5 58t-124 46t-107.5 51.5t-83 85t-33 138q0 129 104.5 212t297.5 83q51 0 102 -5t94 -13 l-12 -154q-45 14 -98 22.5t-103 8.5q-96 0 -146 -37t-50 -100q0 -51 31.5 -83t99 -58.5t124 -47t108 -52.5t84 -86t32.5 -138zM441 1167l-285 267l80 90l205 -174l207 174l77 -88z" />
<glyph unicode="&#x162;" horiz-adv-x="1056" d="M623 1225v-1225h-189v1225h-397v157h985v-157h-399zM593 -82q76 -104 61 -201.5t-104 -197.5h-149q39 49 63.5 92t29.5 83t-8 79t-50 84l157 61v0z" />
<glyph unicode="&#x163;" horiz-adv-x="759" d="M694 6q-43 -10 -97 -16t-103 -6q-80 0 -132.5 17t-83 53t-45 94.5t-14.5 144.5v581h-205v144h205v330l184 51v-381h283v-144h-283v-536q0 -59 7.5 -97t23 -60.5t42 -32t67.5 -9.5q59 0 137 17zM505 -82q76 -104 61 -201.5t-104 -197.5h-149q39 49 63.5 92t29.5 83t-8 79 t-50 84l157 61v0z" />
<glyph unicode="&#x164;" horiz-adv-x="1056" d="M623 1225v-1225h-189v1225h-397v157h985v-157h-399zM523 1483l-322 168l51 104l275 -123l276 123l49 -102z" />
<glyph unicode="&#x165;" horiz-adv-x="768" d="M694 6q-43 -10 -97 -16t-103 -6q-80 0 -132.5 17t-83 53t-45 94.5t-14.5 144.5v581h-205v144h205v330l184 51v-381h283v-144h-283v-536q0 -59 7.5 -97t23 -60.5t42 -32t67.5 -9.5q59 0 137 17zM639 1157l-123 33l113 371l153 -41z" />
<glyph unicode="&#x16a;" horiz-adv-x="1419" d="M1243 528q0 -272 -139 -410t-412 -138q-162 0 -263 40.5t-157.5 109.5t-77 155t-20.5 180v917h188v-903q0 -72 14.5 -134t52.5 -109.5t104.5 -74t171.5 -26.5q180 -2 267 84t87 295v868h184v-854v0zM428 1532v127h565v-127h-565z" />
<glyph unicode="&#x16b;" horiz-adv-x="1177" d="M825 0q0 53 4.5 112.5t12.5 102.5h-4q-45 -109 -138.5 -171t-220.5 -62q-84 0 -143.5 24.5t-95 68.5t-51 102.5t-15.5 129.5v711h182v-656q0 -115 39 -172t135 -57q61 0 114.5 30t92.5 84t60.5 126.5t21.5 156.5v488h185v-1018h-179zM332 1262v139h516v-139h-516z" />
<glyph unicode="&#x16e;" horiz-adv-x="1419" d="M1243 528q0 -272 -139 -410t-412 -138q-162 0 -263 40.5t-157.5 109.5t-77 155t-20.5 180v917h188v-903q0 -72 14.5 -134t52.5 -109.5t104.5 -74t171.5 -26.5q180 -2 267 84t87 295v868h184v-854v0zM948 1648q0 -98 -68.5 -161.5t-181.5 -63.5q-109 0 -169 54.5 t-60 158.5q0 96 68.5 159.5t179.5 63.5t171 -53.5t60 -157.5zM811 1640q0 117 -102 117q-45 0 -75 -29.5t-30 -85.5q0 -117 105 -116q45 0 73.5 29.5t28.5 84.5z" />
<glyph unicode="&#x16f;" horiz-adv-x="1177" d="M825 0q0 53 4.5 112.5t12.5 102.5h-4q-45 -109 -138.5 -171t-220.5 -62q-84 0 -143.5 24.5t-95 68.5t-51 102.5t-15.5 129.5v711h182v-656q0 -115 39 -172t135 -57q61 0 114.5 30t92.5 84t60.5 126.5t21.5 156.5v488h185v-1018h-179zM827 1356q0 -100 -68.5 -166 t-179.5 -66q-109 0 -168 55.5t-59 161.5q0 100 67.5 165t178.5 65q109 0 169 -54.5t60 -160.5zM692 1348q0 119 -102 118q-45 0 -75 -30.5t-30 -85.5q0 -119 103 -119q45 0 74.5 30t29.5 87z" />
<glyph unicode="&#x170;" horiz-adv-x="1419" d="M1243 528q0 -272 -139 -410t-412 -138q-162 0 -263 40.5t-157.5 109.5t-77 155t-20.5 180v917h188v-903q0 -72 14.5 -134t52.5 -109.5t104.5 -74t171.5 -26.5q180 -2 267 84t87 295v868h184v-854v0zM520 1483l-90 82l231 266l113 -102zM878 1483l-86 82l269 260l106 -109 z" />
<glyph unicode="&#x171;" horiz-adv-x="1177" d="M825 0q0 53 4.5 112.5t12.5 102.5h-4q-45 -109 -138.5 -171t-220.5 -62q-84 0 -143.5 24.5t-95 68.5t-51 102.5t-15.5 129.5v711h182v-656q0 -115 39 -172t135 -57q61 0 114.5 30t92.5 84t60.5 126.5t21.5 156.5v488h185v-1018h-179zM428 1167l-90 80l242 289l114 -98z M784 1167l-88 82l263 275l110 -103z" />
<glyph unicode="&#x172;" horiz-adv-x="1419" d="M1243 528q0 -135 -34.5 -237.5t-104.5 -171.5q-25 -25 -54.5 -46.5t-63.5 -44t-67.5 -47t-64.5 -57.5q-92 -92 -92 -180q0 -82 82 -82q61 0 135 53l57 -104q-49 -45 -108.5 -67.5t-122.5 -22.5q-104 0 -161.5 50t-57.5 136q0 72 39 144.5t118 132.5q-12 0 -30.5 -1 t-30.5 -1q-158 0 -256 40.5t-154.5 108.5t-77 155t-20.5 179v917h188v-903q0 -70 14.5 -133t52.5 -110.5t104.5 -74t171.5 -26.5q90 0 156.5 20.5t110.5 65.5t65.5 117t21.5 176v868h184v-854z" />
<glyph unicode="&#x173;" horiz-adv-x="1177" d="M1120 -389q-51 -45 -109.5 -67.5t-121.5 -22.5q-51 0 -92 13t-70 36.5t-44 58.5t-15 78q0 39 11 78t34.5 78t58.5 76.5t82 74.5q-6 47 -10 99.5t-2 91.5h-2q-51 -102 -143.5 -162.5t-217.5 -60.5q-84 0 -143.5 24.5t-95 68.5t-51 102.5t-15.5 129.5v711h182v-656 q0 -115 39 -172t135 -57q61 0 114.5 30t92.5 84t60.5 126.5t21.5 156.5v488h185v-658q0 -92 7 -186t21 -174q-100 -72 -143 -134.5t-43 -121.5q0 -39 20.5 -60.5t59.5 -21.5q33 0 65.5 13.5t69.5 39.5z" />
<glyph unicode="&#x178;" horiz-adv-x="1099" d="M641 530v-530h-186v530l-451 852h207l238 -450q55 -111 102 -227h4q27 66 59.5 133t51.5 102l229 442h201zM880 1602q0 -45 -31.5 -78t-78.5 -33q-45 0 -77 31.5t-32 79.5q0 47 32 78.5t77 31.5q47 0 78.5 -31.5t31.5 -78.5zM444 1602q0 -45 -31.5 -78t-78.5 -33 q-45 0 -78 32.5t-33 78.5q0 47 33 78.5t78 31.5q47 0 78.5 -31.5t31.5 -78.5z" />
<glyph unicode="&#x179;" horiz-adv-x="1103" d="M94 0v139l580 914q47 70 66.5 99.5t45.5 66.5q-59 -2 -131.5 -3.5t-171.5 -1.5h-368v168h891v-143l-611 -950q-25 -35 -46 -67t-36 -54q29 2 105 3t239 1h357v-172h-920zM498 1485l-35 106l373 152l51 -144z" />
<glyph unicode="&#x17a;" horiz-adv-x="915" d="M98 0v131l488 727q-47 -2 -119 -3t-150 -1h-208v164h692v-129l-482 -723q27 0 76 1t103.5 2t97.5 1h215v-170h-713zM457 1165l-90 88l264 285l113 -108z" />
<glyph unicode="&#x17b;" horiz-adv-x="1103" d="M94 0v139l580 914q47 70 66.5 99.5t45.5 66.5q-59 -2 -131.5 -3.5t-171.5 -1.5h-368v168h891v-143l-611 -950q-25 -35 -46 -67t-36 -54q29 2 105 3t239 1h357v-172h-920zM672 1608q0 -49 -35 -84t-84 -35t-84 35t-35 84t35 83.5t84 34.5t84 -33.5t35 -84.5z" />
<glyph unicode="&#x17c;" horiz-adv-x="915" d="M98 0v131l488 727q-47 -2 -119 -3t-150 -1h-208v164h692v-129l-482 -723q27 0 76 1t103.5 2t97.5 1h215v-170h-713zM570 1339q0 -49 -35 -83.5t-84 -34.5t-84 33.5t-35 84.5q0 49 35 84t84 35t84 -35t35 -84z" />
<glyph unicode="&#x17d;" horiz-adv-x="1103" d="M94 0v139l580 914q47 70 66.5 99.5t45.5 66.5q-59 -2 -131.5 -3.5t-171.5 -1.5h-368v168h891v-143l-611 -950q-25 -35 -46 -67t-36 -54q29 2 105 3t239 1h357v-172h-920zM555 1483l-322 168l51 104l275 -123l276 123l49 -102z" />
<glyph unicode="&#x17e;" horiz-adv-x="915" d="M98 0v131l488 727q-47 -2 -119 -3t-150 -1h-208v164h692v-129l-482 -723q27 0 76 1t103.5 2t97.5 1h215v-170h-713zM459 1167l-285 267l80 90l205 -174l207 174l77 -88z" />
<glyph unicode="&#x192;" horiz-adv-x="905" d="M410 197q-16 -145 -45 -244.5t-77 -162t-121 -91.5t-175 -29q-37 0 -76 5.5t-74 13.5l31 161q37 -12 74 -19t69 -7q51 0 85 15.5t56.5 51t38 98t25.5 161.5l55 546h-247v144h262l26 260q23 201 121.5 307t278.5 106q31 0 69.5 -4t75.5 -10l-22 -153q-70 16 -144 16 q-86 0 -132 -57.5t-60 -184.5l-29 -280h332v-144h-344z" />
<glyph unicode="&#x218;" horiz-adv-x="1030" d="M932 391q0 -90 -33 -164.5t-98.5 -130t-160.5 -85t-216 -29.5q-84 0 -164 10t-147 28l24 179q70 -27 146.5 -41.5t152.5 -14.5q66 0 120 13.5t94 41t61.5 70.5t21.5 103q0 72 -42 120t-92 73.5t-163.5 74.5t-179.5 92t-109 113.5t-43 175.5q0 84 33 154.5t94.5 121 t152.5 78t204 27.5q63 0 128.5 -7.5t121.5 -19.5l-23 -166q-57 16 -118.5 26.5t-121.5 10.5q-137 0 -207.5 -54t-70.5 -153q0 -70 43 -117t90 -70.5t165 -74.5t184.5 -95t109.5 -115t43 -175zM506 -100q49 0 77 -34t28 -83q0 -66 -49.5 -136.5t-176.5 -138.5l-47 70 q55 41 76 75t21 62q0 16 -4.5 26.5t-8.5 20t-8 18.5t-4 25q0 37 24.5 66t71.5 29z" />
<glyph unicode="&#x219;" horiz-adv-x="870" d="M770 293q0 -66 -27.5 -122t-81 -99t-132 -66.5t-179.5 -23.5q-63 0 -126.5 7t-112.5 19l14 164q51 -18 115.5 -30.5t124.5 -12.5q104 0 159.5 39t55.5 111q0 51 -32 83.5t-98.5 58t-124 46t-107.5 51.5t-83 85t-33 138q0 129 104.5 212t297.5 83q51 0 102 -5t94 -13 l-12 -154q-45 14 -98 22.5t-103 8.5q-96 0 -146 -37t-50 -100q0 -51 31.5 -83t99 -58.5t124 -47t108 -52.5t84 -86t32.5 -138zM438 -100q49 0 77 -34t28 -83q0 -66 -49.5 -136.5t-176.5 -138.5l-47 70q55 41 76 75t21 62q0 16 -4.5 26.5t-8.5 20t-8 18.5t-4 25q0 37 24.5 66 t71.5 29z" />
<glyph unicode="&#x21a;" horiz-adv-x="1056" d="M623 1225v-1225h-189v1225h-397v157h985v-157h-399zM534 -100q49 0 77 -34t28 -83q0 -66 -49.5 -136.5t-176.5 -138.5l-47 70q55 41 76 75t21 62q0 16 -4.5 26.5t-8.5 20t-8 18.5t-4 25q0 37 24.5 66t71.5 29z" />
<glyph unicode="&#x21b;" horiz-adv-x="759" d="M694 6q-43 -10 -97 -16t-103 -6q-80 0 -132.5 17t-83 53t-45 94.5t-14.5 144.5v581h-205v144h205v330l184 51v-381h283v-144h-283v-536q0 -59 7.5 -97t23 -60.5t42 -32t67.5 -9.5q59 0 137 17zM444 -100q49 0 77 -34t28 -83q0 -66 -49.5 -136.5t-176.5 -138.5l-47 70 q55 41 76 75t21 62q0 16 -4.5 26.5t-8.5 20t-8 18.5t-4 25q0 37 24.5 66t71.5 29z" />
<glyph unicode="&#x2bc;" horiz-adv-x="174" d="M205 1522q53 0 86 -41t29.5 -112t-51.5 -163t-156 -194l-72 63q45 51 69.5 93t34 77t3 61.5t-22.5 47.5q-20 25 -22.5 54.5t9 55t36 42t57.5 16.5z" />
<glyph unicode="&#x2c6;" horiz-adv-x="909" d="M659 1167l-204 174l-209 -174l-76 88l287 269l282 -267z" />
<glyph unicode="&#x2c7;" horiz-adv-x="909" d="M455 1167l-285 267l80 90l205 -174l207 174l77 -88z" />
<glyph unicode="&#x2d8;" horiz-adv-x="851" d="M682 1470q0 -55 -15.5 -105t-47 -88t-81 -60.5t-116.5 -22.5q-68 0 -116 22.5t-77.5 61.5t-44 88t-14.5 104h125q0 -57 32.5 -98t96.5 -41q59 0 95 36t36 103h127v0z" />
<glyph unicode="&#x2d9;" horiz-adv-x="577" d="M408 1339q0 -49 -35 -83.5t-84 -34.5t-84 33.5t-35 84.5q0 49 35 84t84 35t84 -35t35 -84z" />
<glyph unicode="&#x2da;" horiz-adv-x="813" d="M645 1356q0 -100 -68.5 -166t-179.5 -66q-109 0 -168 55.5t-59 161.5q0 100 67.5 165t178.5 65q109 0 169 -54.5t60 -160.5zM510 1348q0 119 -102 118q-45 0 -75 -30.5t-30 -85.5q0 -119 103 -119q45 0 74.5 30t29.5 87z" />
<glyph unicode="&#x2db;" horiz-adv-x="790" d="M535 0q-106 -76 -147.5 -137.5t-41.5 -118.5q0 -82 82 -82q63 0 135 53l58 -104q-59 -51 -118 -70.5t-114 -19.5q-102 0 -160.5 50t-58.5 136q0 162 184 307z" />
<glyph unicode="&#x2dc;" horiz-adv-x="1038" d="M868 1374q-41 -78 -97 -119t-126 -41q-45 0 -79 15.5t-73.5 44.5t-60 41t-49.5 12q-68 0 -121 -96l-92 72q41 78 97.5 118.5t125.5 40.5q45 0 79 -14t74 -43t60.5 -41t48.5 -12q70 0 121 94z" />
<glyph unicode="&#x2dd;" horiz-adv-x="1071" d="M260 1167l-90 80l242 289l114 -98zM616 1167l-88 82l263 275l110 -103z" />
<glyph unicode="&#x312;" horiz-adv-x="0" d="M-592 1159q-47 0 -77.5 37t-25.5 99.5t60 130t164 124.5l47 -69q-43 -31 -62.5 -56.5t-26.5 -49t-4 -43t11 -36.5q12 -20 12 -45.5t-12 -46t-35.5 -33t-50.5 -12.5z" />
<glyph unicode="&#x315;" horiz-adv-x="69" d="M35 1157l-123 33l113 371l153 -41z" />
<glyph unicode="&#x326;" horiz-adv-x="0" d="M-584 -100q49 0 77 -34t28 -83q0 -66 -49.5 -136.5t-176.5 -138.5l-47 70q55 41 76 75t21 62q0 16 -4.5 26.5t-8.5 20t-8 18.5t-4 25q0 37 24.5 66t71.5 29z" />
<glyph unicode="&#x394;" horiz-adv-x="1245" d="M655 1057q-14 43 -23 80t-18 73h-2q-10 -43 -21 -81.5t-24 -75.5l-311 -887h713zM57 0v137l449 1245h227l453 -1245v-137h-1129z" />
<glyph unicode="&#x3a9;" horiz-adv-x="1474" d="M887 0v154q68 55 119 110t86.5 120t54 144.5t18.5 178.5q0 117 -26.5 214t-80.5 167.5t-135 109.5t-188 39q-90 0 -168 -36t-136 -104.5t-91 -165.5t-33 -216q0 -96 15.5 -174t48 -143.5t85 -125t130.5 -118.5v-154h-498v158h291q-127 90 -200 229t-73 322 q0 158 49.5 287.5t137.5 220t206.5 138.5t256.5 48q131 0 241.5 -42t193.5 -126t129 -211t46 -293q0 -96 -21.5 -182t-60.5 -159t-90 -130t-111 -102h301v-158h-497z" />
<glyph unicode="&#x3bc;" horiz-adv-x="1200" d="M1126 -8q-39 -8 -77 -8q-113 0 -160 58t-43 169l-2 2q-41 -106 -128 -167.5t-206 -61.5q-55 0 -99 18t-71 53l22 -561h-188v1524h184v-672q0 -109 42 -161t130 -52q63 0 116.5 28.5t92.5 83t60.5 128t21.5 159.5v486h185v-666q0 -70 5 -110.5t18 -63t35.5 -32t61.5 -9.5 v-145z" />
<glyph unicode="&#x3c0;" horiz-adv-x="1296" d="M975 866q0 -186 10 -325.5t27 -231.5q18 -96 43.5 -133t68.5 -37q47 0 86 13l21 -150q-27 -8 -65 -13t-74 -5q-115 0 -174.5 63.5t-90.5 216.5q-18 98 -27 251t-9 351h-338q4 -227 -27 -448t-98 -430l-203 24q78 223 114.5 433t34.5 421h-247v152h1200v-152h-252z" />
<glyph unicode="&#x2013;" d="M0 530v160h1126v-160h-1126z" />
<glyph unicode="&#x2014;" horiz-adv-x="2048" d="M242 530v160h1564v-160h-1564z" />
<glyph unicode="&#x2015;" horiz-adv-x="2048" d="M242 530v160h1564v-160h-1564z" />
<glyph unicode="&#x2018;" horiz-adv-x="499" d="M416 1464q-98 -106 -111.5 -176.5t23.5 -116.5q20 -29 23 -60.5t-9 -59t-40 -46t-64 -18.5q-55 0 -92 45t-34 122t54 175t170 207l80 -72v0z" />
<glyph unicode="&#x2019;" horiz-adv-x="499" d="M258 1522q57 0 93 -45t33 -124t-57.5 -178.5t-166.5 -201.5l-80 71q92 100 109.5 172t-21.5 121q-20 27 -23.5 60t10 61.5t40 46t63.5 17.5z" />
<glyph unicode="&#x201a;" horiz-adv-x="499" d="M258 231q55 0 92 -45t35 -119.5t-54 -174t-171 -207.5l-80 69q98 109 111.5 179.5t-23.5 115.5q-23 27 -25 58.5t10.5 59.5t40 46t64.5 18z" />
<glyph unicode="&#x201c;" horiz-adv-x="886" d="M416 1464q-92 -100 -109.5 -171.5t21.5 -121.5q20 -27 23 -59.5t-10 -61t-40 -46t-63 -17.5q-57 0 -93 45t-33 124t57 178.5t167 201.5zM805 1464q-92 -100 -109.5 -171.5t21.5 -121.5q20 -27 23 -59.5t-10 -61t-39.5 -46t-63.5 -17.5q-57 0 -93 45t-33 124t57 178.5 t167 201.5z" />
<glyph unicode="&#x201d;" horiz-adv-x="886" d="M258 1522q55 0 92 -45t34 -121t-54 -175.5t-170 -207.5l-80 71q98 106 110.5 177t-22.5 116q-23 27 -25 60t10.5 60.5t40 46t64.5 18.5zM647 1522q55 0 92 -45t34 -121t-54 -175.5t-170 -207.5l-80 71q98 106 110.5 177t-22.5 116q-23 27 -25 60t10.5 60.5t40 46 t64.5 18.5z" />
<glyph unicode="&#x201e;" horiz-adv-x="886" d="M258 231q55 0 92 -45t35 -119.5t-54 -174t-171 -207.5l-80 69q98 111 111.5 180.5t-23.5 114.5q-23 27 -25 58.5t10.5 59.5t40 46t64.5 18zM647 231q55 0 92 -45t35 -119.5t-54 -174t-171 -207.5l-80 69q98 109 111.5 179.5t-23.5 115.5q-23 27 -25 58.5t10.5 59.5t40 46 t64.5 18z" />
<glyph unicode="&#x2020;" horiz-adv-x="919" d="M532 1141l35 -201l-39 -514h-137l-39 514l33 201h-287v143h287l-33 281h215l-35 -281h287v-143h-287z" />
<glyph unicode="&#x2021;" horiz-adv-x="919" d="M535 604l32 -266h-217l35 266h-287v144h287l-33 204l33 203h-287v143h287l-33 267h215l-32 -267h284v-143h-284l32 -203l-32 -204h284v-144h-284z" />
<glyph unicode="&#x2022;" horiz-adv-x="860" d="M678 608q0 -51 -19.5 -96t-53.5 -79t-79 -53.5t-96 -19.5t-96 19.5t-79 53.5t-53.5 79t-19.5 96t19.5 96.5t53.5 79t79 53t96 19.5t96 -19.5t79 -53t53.5 -79t19.5 -96.5z" />
<glyph unicode="&#x2026;" horiz-adv-x="1361" d="M354 104q0 -51 -35.5 -86.5t-87.5 -35.5q-53 0 -89 35.5t-36 86.5q0 53 36 89t89 36q51 0 87 -36t36 -89zM795 104q0 -51 -36 -86.5t-89 -35.5q-51 0 -87 35.5t-36 86.5q0 53 35.5 89t87.5 36q53 0 89 -36t36 -89zM1235 104q0 -51 -36 -86.5t-89 -35.5q-51 0 -87 35.5 t-36 86.5q0 53 36 89t87 36q53 0 89 -36t36 -89z" />
<glyph unicode="&#x2030;" horiz-adv-x="2101" d="M657 1104q0 -76 -22.5 -137.5t-62.5 -103.5t-93 -64.5t-112 -22.5q-127 0 -199 75t-72 226q0 74 22.5 134.5t62.5 102.5t92.5 64.5t111.5 22.5q125 0 198.5 -72.5t73.5 -224.5zM510 1090q0 96 -32 142t-99 46q-63 0 -99 -51t-36 -140q0 -96 31.5 -142t99.5 -46 q63 0 99 51.5t36 139.5zM229 -33l-112 86l1079 1362l115 -90zM1333 309q0 -76 -22.5 -137t-62.5 -104t-93 -65.5t-113 -22.5q-127 0 -198.5 74.5t-71.5 226.5q0 74 22.5 135t62.5 103t92 63.5t112 21.5q125 0 198.5 -71.5t73.5 -223.5zM1188 295q0 96 -32 141t-101 45 q-63 0 -99 -51t-36 -137q0 -98 30.5 -143.5t100.5 -45.5q63 0 100 51.5t37 139.5zM1985 309q0 -76 -23 -138t-62.5 -104t-92 -64.5t-111.5 -22.5q-127 0 -199 74.5t-72 226.5q0 74 22.5 135t62.5 103t92.5 63.5t111.5 21.5q125 0 198 -71.5t73 -223.5zM1839 295 q0 96 -31.5 141t-99.5 45q-63 0 -100 -51t-37 -137q0 -188 133 -189q63 0 99 51.5t36 139.5z" />
<glyph unicode="&#x2039;" horiz-adv-x="641" d="M352 236l-243 364l245 371l135 -74l-196 -295l199 -291z" />
<glyph unicode="&#x203a;" horiz-adv-x="641" d="M285 236l-135 73l200 295l-198 291l139 76l241 -365z" />
<glyph unicode="&#x2044;" horiz-adv-x="423" d="M-360 -289l-119 84l1308 1852l119 -84z" />
<glyph unicode="&#x2074;" horiz-adv-x="798" d="M612 936v-191h-161v191h-398l-12 115l332 551h239v-529h138v-137h-138zM451 1485l-250 -416q25 0 58.5 1t68 1h63.5h60v414z" />
<glyph unicode="&#x207f;" horiz-adv-x="878" d="M586 745v441q0 66 -23.5 101.5t-87.5 35.5q-80 0 -131 -67.5t-51 -178.5v-332h-160v689h154q0 -27 -2 -66t-9 -68q41 80 107 114t145 34q61 0 103.5 -17.5t68 -47t37 -70.5t11.5 -86v-482h-162z" />
<glyph unicode="&#x20ac;" horiz-adv-x="1212" d="M1155 92q-86 -53 -178 -82.5t-219 -29.5q-240 0 -379 124.5t-170 366.5h-182v121h172q-2 27 -2 40v34q0 31 1 55t3 57h-174v119h188q23 133 76 228.5t129 156.5t172 91t205 30q96 0 188 -23.5t152 -58.5l-54 -147q-53 33 -131 55t-170 22q-68 0 -127 -20.5t-107 -63.5 t-82 -109.5t-50 -160.5h456v-119h-471q-2 -31 -2 -49v-43v-43t2 -51h471v-121h-458q23 -162 117 -250t260 -88q78 0 159.5 26.5t149.5 71.5z" />
<glyph unicode="&#x2122;" horiz-adv-x="1431" d="M1184 807l-45 301l-15 111l-24 -97l-92 -315h-142l-90 321l-22 91l-6 -76l-50 -336h-131l90 575h177l92 -315l20 -94l19 86l96 323h176l88 -575h-141zM383 1270v-463h-141v463h-152v112h442v-112h-149z" />
<glyph unicode="&#x2202;" horiz-adv-x="1304" d="M901 487q0 111 -67.5 184.5t-200.5 73.5q-66 0 -120 -24.5t-94 -67.5t-60.5 -101t-20.5 -126q0 -141 70.5 -212t185.5 -71q66 0 122 27t97 73t64.5 108t23.5 136zM1155 838q0 -180 -44 -356.5t-144 -305.5q-68 -86 -171.5 -139t-226.5 -53q-205 0 -311 114.5t-106 311.5 q0 104 35.5 194t100 155.5t154.5 102.5t201 37q119 0 201 -53t119 -139v92t-2 80q-6 121 -43 210t-96.5 148t-140.5 88t-173 29l20 151q141 -2 257 -48t198 -132t127 -208.5t45 -278.5z" />
<glyph unicode="&#x220f;" horiz-adv-x="1605" d="M1298 1337v-1843h-178v1843h-633v-1843h-178v1843h-217v158h1421v-158h-215z" />
<glyph unicode="&#x2211;" horiz-adv-x="1247" d="M74 -506v144l633 874l-594 840v143h989v-158h-760l582 -817l-629 -862h838v-164h-1059z" />
<glyph unicode="&#x2212;" d="M86 530v160h954v-160h-954z" />
<glyph unicode="&#x221a;" horiz-adv-x="1245" d="M707 0h-213l-304 877h-188v141h338l195 -592q23 -70 39 -124t30 -109h4q25 113 56 217l323 1142h199z" />
<glyph unicode="&#x221e;" horiz-adv-x="1996" d="M854 608q-125 94 -209 140.5t-158 46.5q-86 0 -136 -53.5t-50 -129.5q0 -82 50 -132t143 -50q74 0 157.5 45t202.5 133zM1696 610q0 82 -50.5 133.5t-142.5 51.5q-72 0 -157.5 -46.5t-202.5 -134.5q123 -92 208 -138t158 -46q86 0 136.5 52t50.5 128zM1880 621 q0 -72 -25.5 -135.5t-74.5 -112.5t-121 -77t-160 -28q-115 0 -235.5 60.5t-272.5 173.5q-68 -51 -127 -91t-122.5 -72t-129 -51.5t-131.5 -19.5q-90 0 -158.5 25.5t-114.5 72t-68.5 106.5t-22.5 130q0 74 26.5 138.5t75.5 112.5t119 74.5t154 26.5q119 0 241.5 -60 t272.5 -173q68 51 127 90t122.5 71.5t129 52t128.5 19.5q88 0 157 -25.5t116 -71.5t70.5 -106t23.5 -130z" />
<glyph unicode="&#x222b;" horiz-adv-x="694" d="M649 1833q-23 6 -50.5 11t-51.5 5q-41 0 -68.5 -13t-45 -49t-26 -101.5t-8.5 -169.5q0 -76 2 -193t4.5 -230.5t7.5 -333.5t8 -364.5t5 -282t2 -237.5q0 -145 -19.5 -245.5t-58.5 -164t-97 -92t-138 -28.5q-25 0 -51.5 3t-57.5 9v162q20 -6 47 -10.5t51 -4.5q41 0 69 13.5 t46.5 48.5t26.5 99.5t8 166.5q0 72 -2 186.5t-4 220t-7 334t-8.5 377t-5.5 285.5t-2 240q0 145 20.5 247.5t60.5 165t99.5 91t139.5 28.5q25 0 52.5 -3t51.5 -9v-162z" />
<glyph unicode="&#x2248;" d="M1032 397q-53 -47 -121.5 -77.5t-142.5 -30.5q-68 0 -116 15t-107.5 47t-98 46.5t-92.5 14.5q-55 0 -103 -25t-95 -63l-62 129q55 49 121 81.5t141 32.5q63 0 111.5 -16t109 -47t102.5 -46.5t97 -15.5q51 0 98.5 20.5t98.5 61.5zM1032 764q-53 -53 -119.5 -86t-144.5 -33 q-63 0 -111.5 15.5t-106.5 46t-99 46t-97 15.5q-57 0 -106 -24.5t-94 -61.5l-60 127q53 51 123 84t145 33q63 0 112.5 -16.5t111 -48.5t100.5 -46t88 -14q51 0 98.5 22.5t98.5 67.5z" />
<glyph unicode="&#x2260;" d="M545 358l-115 -284h-164l115 284h-266v152h325l78 197h-403v153h463l116 289h164l-115 -289h269v-153h-330l-80 -197h410v-152h-467z" />
<glyph unicode="&#x2264;" d="M139 0v154h848v-154h-848zM856 260l-739 508l737 508l109 -127l-586 -379l586 -375z" />
<glyph unicode="&#x2265;" d="M139 0v154h848v-154h-848zM272 260l-108 127l586 381l-586 375l106 133l740 -506z" />
<glyph unicode="&#x25ca;" horiz-adv-x="1267" d="M623 1198l-351 -496l373 -516l352 490zM698 -18h-116l-512 716l503 703h113l512 -715z" />
<glyph unicode="&#xe000;" horiz-adv-x="1013" d="M0 1014h1014v-1014h-1014v1014z" />
<glyph unicode="&#xeeee;" horiz-adv-x="358" d="M358 2007v-2662h-358v2662h358z" />
<glyph unicode="&#xf000;" horiz-adv-x="1966" d="M604 86q0 -16 -9 -26.5t-20 -20.5q-8 -2 -16 -8t-18 0q-14 4 -10 15t6 22q0 12 18 20q12 0 20 8q6 -2 15.5 -1t13.5 -9zM881 158q14 -29 8 -59.5t-27 -53.5q-4 -8 -11 -9t-13 -5q-27 4 -30 26.5t-7 40.5q4 16 5 34t11 32q14 8 20.5 22.5t22.5 14.5l6 -6q-4 -14 4.5 -20.5 t10.5 -16.5zM508 371q-25 4 -52.5 3t-54.5 -3q-16 -2 -30.5 -5.5t-24.5 -11.5q-2 -33 -6 -66.5t-8 -66.5q4 -53 2 -111.5t2 -113.5q8 0 15 3t14 -1q12 4 23 -1t24 1q2 33 2 63q0 33 2 66q4 10 13 15t20 10q8 4 16 -0.5t14 6.5l-2 57q-8 10 -19.5 9t-23.5 -1q-8 -8 -14 -8 q-16 4 -15 19.5t-4 25.5q-4 8 9 21q20 6 39.5 9t39.5 7l13 8q-4 18 1 34t5 32zM682 70q-6 23 -6 45q0 23 1 45t-1 43.5t-14 40.5q-23 14 -48 24l-16 11q-16 -4 -33.5 -1t-34.5 -10q-14 -8 -14 -22t-2 -31q10 -4 23.5 -3t25.5 2t23.5 -2t19.5 -15q-2 -8 3 -12.5t-1 -12.5 q-6 -10 2 -16q4 -4 2 -10.5t-8 -8.5q-14 -4 -27.5 -3t-29.5 -3q-23 -10 -35 -31.5t-16 -44.5q-6 -10 -1 -21t-3 -22q0 -14 10 -22t20 -13q10 10 17 5q16 -4 29.5 9t29.5 23q10 2 12 -2t2 -12q0 -6 -1 -14.5t5 -12.5q10 -4 16.5 0t16.5 4q8 4 16.5 5.5t14.5 7.5l2 80v0z M938 61q18 35 13 72t-13 78q2 6 -5 12t-16.5 10.5t-17.5 9.5t-12 7q-4 4 -10 4q-4 0 -7 -6q-23 2 -39 -8q-10 -6 -15 -16.5t-13 -14.5q-10 -6 -19 6q8 37 4 75t-10 77l-4 14h-16q-18 -6 -16.5 -22.5t-2.5 -28.5q-6 -35 -4 -70t-4 -70q4 -35 0 -67.5t0 -63.5q0 -18 -3 -35.5 t-1 -37.5q14 -8 31.5 -2t32.5 12q10 4 16 2t11 -8t10.5 -12.5t11.5 -10.5q16 0 26 2q23 12 48.5 39.5t23.5 52.5zM1147 252q-16 -2 -33.5 -5t-28.5 -22q-8 -8 -10 -23.5t-20 -11.5q-4 16 -4 29v31q-8 4 -15.5 0t-15.5 0q-14 -8 -23 -27q0 -59 1 -113.5t8 -113.5l6 -8 q10 -8 23.5 -3t23.5 1q-6 23 -1 42t-3 42q4 23 10 46t22 44q12 10 26.5 13t27.5 13q2 16 6 33t0 33zM1249 31q0 41 -2 80t-2 75q0 14 2 27.5t-2 26.5q-14 10 -27.5 4t-29.5 -4q-14 -23 -10 -49.5t0 -53.5q-4 -10 -4 -24t-3 -29q4 -20 1 -45t12 -45q31 0 61 10q4 6 4 12v15z M1245 367q-4 10 -9 18t-15 12q-4 4 -10.5 5t-10.5 -5q-10 -12 -14 -30.5t6 -30.5q4 -10 16.5 -11t22.5 3q18 12 14 39zM1513 -20q-8 16 -16 33.5t-20 31.5q-12 23 -26.5 42t-18.5 46q-4 10 -10.5 17.5t-2.5 17.5q14 16 34 26.5t34 26.5l-19 35q-18 -2 -32.5 -9t-30.5 -11 q-8 -4 -18.5 -12.5t-20.5 1.5q2 41 3 81t-1 79l-4 6q-16 0 -28.5 5t-26.5 10q-4 -23 -7.5 -48.5t1.5 -50.5q-6 -16 -1 -39.5t-4 -40.5q2 -31 1 -56.5t-3 -50t-2 -48.5q0 -25 2 -56l-2 -14h49q6 2 13.5 -2t11.5 2v27q0 14 -2 30q2 16 -4 34t14 24q10 -4 11.5 -13.5t7.5 -17.5 q-2 -14 7 -24.5t13 -22.5q20 -12 30.5 -32.5t29.5 -35.5q6 2 11 -3t15 -1q12 1 12 13zM870 1104q-4 23 -15 44t-38 26q-4 -10 -13 -7.5t-16 0.5q-14 6 -28.5 2t-24.5 -14q-23 -31 -7.5 -59.5t32.5 -55.5q4 -8 10 -6t14 0q14 -4 26.5 3t25.5 12q12 12 27 22t7 33zM1571 -127 q-45 4 -100.5 -5t-98.5 -3q-115 4 -223.5 -8.5t-220.5 0.5q-51 -8 -99.5 -3t-97.5 9q-59 4 -121.5 3t-126.5 -1q-43 0 -102 -3t-102 -14q-8 -2 -19 -2q-8 0 -12 11q0 33 -2 66.5t8 66.5q4 41 2 82t4 82q-8 47 -1 91t-1 91q0 66 5 132.5t9 135.5q4 74 1 146.5t1 146.5 q8 16 23.5 13t30.5 1q16 -10 37.5 -5t37.5 3q6 6 15.5 11.5t11.5 -9.5q4 -4 1 -12t5 -12q-4 -29 -3 -78t4 -106.5t7.5 -118t6.5 -109.5q66 20 120 56t117 59q10 4 19.5 12t23.5 12q4 2 8 6.5t13 0.5q10 -4 8 -14.5t-2 -20.5q-20 -59 -10 -125q4 -10 13 -6t15 4 q16 14 34.5 23.5t35.5 21.5q20 12 40.5 23.5t43.5 19.5q25 16 48 32.5t50 26.5l41 33q2 8 12 14q6 0 11.5 -4t11.5 -8q0 -29 6 -58.5t6 -58.5q2 -6 6 -5t6 -3q8 -10 4 -20.5t-8 -20.5l4 -4q35 8 65 26.5t59.5 39t59 39t64.5 26.5q10 10 22.5 13t22.5 14q10 2 18.5 9t17.5 13 t19.5 9.5t22.5 -7.5q4 0 8 -2t6 -6q-2 -8 1.5 -13t7.5 -11q-4 -16 0 -29.5t-4 -26.5q2 -27 0 -51.5t10 -46.5q-4 -14 5 -25.5t-1 -21.5q2 -16 0 -29.5t8 -25.5q2 -10 3 -19.5t-5 -17.5q4 -23 5 -47.5t9 -47.5q-4 -8 -2 -16t2 -16q0 -78 11.5 -151t13.5 -150q0 -4 3 -9.5 t-1 -9.5zM926 1360q-25 -27 -60 -17q-10 12 -18 23.5t-10 26.5q-27 41 -72 51t-88 22l-64 4q-4 -4 -12 -2t-14 -2q-68 -20 -113 -43q-12 -16 -31.5 -27.5t-23.5 -33.5q-12 -31 -16.5 -70t-6.5 -73q10 -8 22.5 -5t22.5 0q43 4 86 5h90q8 -4 3 -15q-16 -12 -32 -1t-32 5 q-20 2 -41.5 -1t-42.5 -1q-18 -4 -39 -4q-18 0 -35 -10l-6 -8q-4 -39 -3 -63.5t5 -65.5q4 -14 1 -28.5t7 -29.5q27 -2 42.5 -1t28.5 2t28.5 3.5t42.5 2.5q6 4 13 2t13 -5q2 -2 1 -4t1 -4l-8 -4q-25 4 -43 3t-36.5 -3t-41 -4t-53.5 0q-23 -2 -47.5 -4t-46.5 0q-33 -2 -68 -2 t-63 8l-4 6q6 6 18 11q16 -8 37 -9.5t43 -5.5q14 2 28.5 1t24.5 7q-2 53 8.5 94.5t14.5 96.5q-2 4 -6 8q-31 2 -58.5 0t-56.5 10q-4 10 6 11q29 -8 58 -9q29 0 57 2l4 7q4 35 11 70.5t20 64.5v6q47 53 107.5 86t135.5 41q37 4 74 -4t70 -23q10 -4 20 -4t21 -4 q35 -8 69.5 -24.5t57.5 -47.5q4 -4 0 -18zM915 1145q6 -39 -14 -64q-23 -14 -41 -31.5t-45 -21.5q-12 4 -14 -7t-12.5 -3t-24.5 4t-27 -2q-12 0 -22 1t-21 5q-16 14 -31.5 31.5t-5.5 42.5q6 18 17.5 34.5t32.5 26.5q23 10 45 21.5t51 5.5q33 -2 64.5 -8t47.5 -35zM1327 1028 q-25 0 -52.5 -1t-51.5 -9q-8 4 -15.5 5t-11.5 11q4 29 7 57.5t-5 57.5q-4 6 -13 1t-16 -9q-29 -16 -54 -40t-30 -59q-8 -8 -18 -11t-20 1q-10 14 -6.5 30.5t-0.5 33.5l-2 63q-6 6 -16 3t-21 1q-4 4 -13 2t-9 9q27 -2 52.5 2t53.5 0q6 -6 7 -15v-16t2 -14.5t10 -10.5 q29 12 53.5 29.5t52.5 28.5q12 -8 28.5 -3t21.5 -16q4 -23 3 -44t1 -44q4 -6 3 -13t5 -11q18 -4 26 0q8 0 16.5 -2.5t18.5 -2.5q6 -4 0 -10zM1802 1169q0 -8 -4 -8q-23 4 -43 1t-43 -5q-70 -4 -109.5 -6t-74.5 -8q-16 -14 -14 -32.5t-7 -35.5q0 -10 3 -16t6 -15 q8 -10 28 -14q14 2 27.5 8t19.5 19q0 14 -14 24q-10 8 -21.5 6t-19.5 9q6 10 19.5 8t25.5 -2q20 -6 31 -33q-2 -31 -37 -55q-10 -4 -21.5 -5t-21.5 -5q-25 6 -50.5 16t-41.5 33q-8 25 -2 46t8 44q-4 10 -12.5 8t-18.5 0l-67 -2q0 4 -2 4t-3 4q6 4 15 4q8 0 14 2q18 -4 39 -2 t39 2q8 6 9 15.5t1 19.5q6 14 7 32.5t12 29.5q10 6 16 -2.5t12 -12.5q10 -16 6 -35.5t5 -38.5q8 -12 21 -8t24 0q47 4 100 3t131 10q6 -5 8 -7z" />
<glyph unicode="&#xf001;" horiz-adv-x="1208" d="M850 0v874h-442v-874h-185v874h-209v144h209v43q0 215 117 331.5t352 116.5q78 0 156 -10t143 -29l-35 -153q-66 18 -137 29.5t-141 11.5q-135 0 -202.5 -72t-67.5 -203v-65h626v-1018h-184z" />
<glyph unicode="&#xf002;" horiz-adv-x="1208" d="M850 0v1343q-94 16 -191 17q-129 0 -190 -62.5t-61 -199.5v-80h262v-144h-262v-874h-185v874h-209v144h209v72q0 209 111.5 313t349.5 104q102 0 202.5 -10t147.5 -16v-1481h-184z" />
<glyph unicode="&#xf8ff;" horiz-adv-x="2131" d="M311 1362q23 23 43.5 44t44.5 42l170 -197q-16 -12 -31.5 -28.5t-31.5 -30.5l-195 170v0zM1112 1425q-47 4 -90 0l-16 254q63 4 122 0l-16 -254v0zM1733 1446q49 -39 88 -88l-193 -166q-14 16 -30.5 32.5t-32.5 28.5zM2087 756q6 -63 0 -125l-258 18q4 43 0 88l258 19v0z M1563 692q0 -106 -40 -195t-100 -149v-158l-32 -10l65 -151l-61 -17l61 -147l-63 -15l20 -51l-59 -139h-105q-6 -37 -58 -63.5t-124 -26.5q-74 0 -125 26.5t-55 63.5h-107l-102 250l63 16l-63 152l70 18l-39 94v160q-59 61 -98.5 149.5t-39.5 192.5q0 102 39 192.5 t105.5 158t157 106.5t194.5 39q102 0 192.5 -39t158 -106.5t106.5 -158t39 -192.5zM932 393l-33 281q-27 -6 -43 -13.5t-30.5 -11.5t-22.5 8.5t-9 31t2 34.5t13 20q59 16 125.5 28.5t132.5 12.5q70 0 136.5 -12t125.5 -29q8 -2 11 -18t2 -34.5t-9 -32t-22 -9.5 q-16 8 -35 13.5t-45 11.5l-29 -281h121q53 47 94 124t41 175q0 82 -30.5 154t-84 125t-125 83.5t-151.5 30.5q-82 0 -153.5 -30.5t-125 -83.5t-84 -125t-30.5 -154q0 -86 35.5 -164.5t103.5 -134.5h119zM1155 686q-27 4 -46 5t-42 1q-20 0 -43 -1t-49 -5l31 -293h122l27 293 v0zM809 309v-110l33 -78l481 121v67h-514zM1296 158l-493 -127l33 -80l493 123zM1298 -12l-495 -125l53 -127h424l29 65l-15 29l-151 -39l-25 68l213 53zM1044 733h-4v12h-2v-14h6v2zM1051 741v-6q0 -4 -1 -3t-1 3v6h-2v-6q0 -4 2 -4q4 0 4 4v6h-2zM1061 733q-4 -2 -4 2 q0 6 4 4v2q-4 2 -5 -5t5 -5v2zM1069 727q-6 10 0 21q-4 0 -4 -11q0 -10 4 -10zM1075 731h2v6q0 10 -8 2q4 0 6 -2q-4 0 -6 -4t6 0v-2zM1075 735q-4 -4 -4 -2q0 4 4 2zM1081 731q10 0 5 4t-1 4v2q-10 0 -4 -4t0 -4v-2v0zM1087 727q4 0 5 10q0 10 -5 11q6 -11 0 -21zM307 737 q-4 -45 0 -90l-262 -18q-4 66 0 127z" />
<glyph unicode="&#xfb00;" horiz-adv-x="1335" d="M887 1296q-55 20 -116.5 31.5t-119.5 11.5q-123 0 -183 -63.5t-60 -188.5v-69h436v63q0 133 43 215zM1386 1335q-18 6 -62 14.5t-91 8.5q-106 0 -155.5 -63.5t-49.5 -200.5v-76h283v-144h-283v-874h-184v874h-436v-874h-185v874h-209v144h209v51q0 88 23.5 164t76 134 t137.5 91t206 33q74 0 157.5 -15.5t163.5 -39.5q100 72 252 71q80 0 162 -16z" />
<glyph unicode="&#xfb01;" horiz-adv-x="1208" d="M850 0v874h-442v-874h-185v874h-209v144h209v43q0 215 117 331.5t352 116.5q78 0 156 -10t143 -29l-35 -153q-66 18 -137 29.5t-141 11.5q-135 0 -202.5 -72t-67.5 -203v-65h626v-1018h-184z" />
<glyph unicode="&#xfb02;" horiz-adv-x="1208" d="M850 0v1343q-94 16 -191 17q-129 0 -190 -62.5t-61 -199.5v-80h262v-144h-262v-874h-185v874h-209v144h209v72q0 209 111.5 313t349.5 104q102 0 202.5 -10t147.5 -16v-1481h-184z" />
<glyph unicode="&#xfb03;" horiz-adv-x="1824" d="M895 1292q-57 23 -120.5 35t-123.5 12q-123 0 -183 -63.5t-60 -188.5v-69h436v43q0 63 12 122.5t39 108.5zM1470 0v874h-442v-874h-184v874h-436v-874h-185v874h-209v144h209v51q0 88 23.5 164t76 134t137.5 91t206 33q78 0 171 -17.5t171 -46.5q57 41 131.5 61.5 t173.5 20.5q78 0 155.5 -10t143.5 -29l-37 -153q-66 18 -137.5 29.5t-139.5 11.5q-137 0 -203.5 -70.5t-66.5 -204.5v-65h627v-1018h-185z" />
<glyph unicode="&#xfb04;" horiz-adv-x="1824" d="M887 1296q-55 20 -116.5 31.5t-119.5 11.5q-123 0 -183 -63.5t-60 -188.5v-69h436v72q0 120 43 206zM1470 0v1343q-94 16 -190 17q-131 0 -191.5 -61.5t-60.5 -200.5v-80h260v-144h-260v-874h-184v874h-436v-874h-185v874h-209v144h209v51q0 88 23.5 164t76 133t137.5 90 t206 33q78 0 165 -15.5t166 -41.5q53 37 129 56t177 19q104 0 204.5 -10t147.5 -16v-1481h-185z" />
<glyph unicode="&#xfb06;" horiz-adv-x="1603" d="M1536 6q-45 -10 -98.5 -16t-100.5 -6q-80 0 -132 17t-85 54t-46 95.5t-13 142.5v581h-205v144h205v24q0 147 -76 232.5t-203 85.5q-104 0 -154 -50t-50 -126q0 -59 32.5 -107.5t91.5 -70.5l-16 -142q-39 14 -92 22.5t-107 8.5q-98 0 -147 -37t-49 -100q0 -55 35.5 -87 t89 -53.5t115 -42t114.5 -53.5t89 -87t36 -142q0 -66 -26.5 -122t-80 -98t-132 -66.5t-181.5 -24.5q-63 0 -126.5 7t-112.5 19l14 164q49 -18 114.5 -30.5t125.5 -12.5q104 0 159.5 39t55.5 111q0 55 -36 86.5t-88.5 53t-114.5 41t-114.5 52.5t-88.5 86t-36 143 q0 63 28 117.5t78 93.5t120.5 58.5t156.5 13.5q-37 25 -60.5 68t-23.5 104t26 117.5t75 98.5t123.5 66.5t173.5 24.5q94 0 176 -26.5t142.5 -83t94 -141.5t33.5 -201v-33h283v-144h-283v-536q0 -57 6 -95t22.5 -61.5t44.5 -33t68 -9.5q35 0 71 5.5t65 11.5z" />
<glyph horiz-adv-x="1820" d="M1733 557q0 -133 -37 -238.5t-106.5 -180.5t-168 -113.5t-221.5 -38.5q-66 0 -128 6t-110.5 13t-75 13.5t-36.5 8.5v1316q-6 2 -21.5 4.5t-42 5.5t-60.5 5t-67 2q-129 0 -190 -62.5t-61 -199.5v-80h262v-144h-262v-874h-185v874h-209v144h209v72q0 209 111.5 313 t349.5 104q57 0 117.5 -4t111 -9t80 -8t41.5 -5v-480q0 -45 -4 -99t-12 -91l4 -2q41 106 130 166.5t206 60.5q180 0 277.5 -123t97.5 -356zM1538 541q0 168 -55.5 256t-169.5 88q-66 0 -119 -35t-88 -92.5t-53.5 -127t-18.5 -136.5v-336q6 -2 19.5 -5t38 -8.5t57.5 -9.5 t68 -4q74 0 133 23.5t101 72.5t64.5 127t22.5 187z" />
<glyph horiz-adv-x="1853" d="M1497 0v655q0 115 -39 172.5t-133 57.5q-61 0 -114.5 -30t-93.5 -84t-61.5 -127t-21.5 -157v-487h-184v1343q-6 2 -21.5 4.5t-42 5.5t-60.5 5t-67 2q-129 0 -190 -62.5t-61 -199.5v-80h262v-144h-262v-874h-185v874h-209v144h209v72q0 209 111.5 313t349.5 104 q57 0 117.5 -4t111 -9t80 -8t41.5 -5v-469q0 -55 -4 -109.5t-12 -93.5l4 -2q45 106 137 167.5t217 61.5q84 0 143.5 -24.5t95.5 -68.5t51 -102.5t15 -129.5v-711h-184z" />
<glyph horiz-adv-x="1206" d="M1034 -113q0 -104 -17.5 -180t-58 -126t-108.5 -75.5t-168 -25.5q-35 0 -73 5t-66 13l16 162q29 -10 62.5 -17.5t66.5 -7.5q49 0 80 11.5t49.5 38t25.5 71.5t7 115v1003h-442v-874h-185v874h-209v144h209v43q0 215 117 331.5t352 116.5q78 0 156 -10t143 -29l-35 -153 q-66 18 -137 29.5t-141 11.5q-135 0 -202.5 -72t-67.5 -203v-65h626v-1131z" />
<glyph horiz-adv-x="1687" d="M1411 0l-377 524v-524h-184v1343q-6 2 -21.5 4.5t-42 5.5t-60.5 5t-67 2q-129 0 -190 -62.5t-61 -199.5v-80h262v-144h-262v-874h-185v874h-209v144h209v72q0 209 111.5 313t349.5 104q57 0 117.5 -4t111 -9t80 -8t41.5 -5v-910l359 447h225l-391 -465l422 -553h-238z " />
<glyph horiz-adv-x="763" d="M559 1485l-389 114l53 144l371 -152z" />
<glyph horiz-adv-x="763" d="M205 1485l-35 106l373 152l51 -144z" />
<glyph horiz-adv-x="997" d="M827 1602q0 -45 -31.5 -78t-78.5 -33q-45 0 -77 31.5t-32 79.5q0 47 32 78.5t77 31.5q47 0 78.5 -31.5t31.5 -78.5zM391 1602q0 -45 -31.5 -78t-78.5 -33q-45 0 -78 32.5t-33 78.5q0 47 33 78.5t78 31.5q47 0 78.5 -31.5t31.5 -78.5z" />
<glyph horiz-adv-x="905" d="M170 1532v127h565v-127h-565z" />
<glyph horiz-adv-x="989" d="M768 1483l-272 123l-277 -123l-49 102l328 170l323 -166z" />
<glyph horiz-adv-x="1062" d="M893 1655q-41 -72 -99.5 -111t-129.5 -39q-53 0 -89 16.5t-66 37t-56.5 37t-59.5 16.5q-74 0 -129 -92l-94 67q41 72 99.5 112t129.5 40q51 0 88 -16.5t67 -37t56.5 -37t59.5 -16.5q70 0 129 90l94 -67v0z" />
<glyph horiz-adv-x="989" d="M492 1483l-322 168l51 104l275 -123l276 123l49 -102z" />
<glyph horiz-adv-x="870" d="M700 1745q0 -106 -70.5 -178t-197.5 -72q-66 0 -114 19.5t-81.5 53.5t-50 80t-16.5 97h119q0 -53 41 -89t106 -36q66 0 105 36t39 89h120z" />
<glyph horiz-adv-x="577" d="M408 1608q0 -49 -35 -84t-84 -35t-84 35t-35 84t35 83.5t84 34.5t84 -33.5t35 -84.5z" />
<glyph horiz-adv-x="819" d="M649 1681q0 -98 -68.5 -161.5t-181.5 -63.5q-109 0 -169 54.5t-60 158.5q0 96 68.5 159.5t179.5 63.5t171 -53.5t60 -157.5zM512 1673q0 117 -102 117q-45 0 -75 -29.5t-30 -85.5q0 -117 105 -116q45 0 73.5 29.5t28.5 84.5z" />
<glyph horiz-adv-x="1077" d="M260 1483l-90 82l231 266l113 -102zM618 1483l-86 82l269 260l106 -109z" />
<glyph horiz-adv-x="688" d="M276 1241l-106 66l213 321l135 -80z" />
<glyph horiz-adv-x="755" d="M399 1155l-202 324l141 73l174 -338z" />
<glyph horiz-adv-x="729" d="M276 1163l-106 72l213 311l131 -88z" />
<glyph horiz-adv-x="608" d="M391 1339q0 -45 -31.5 -77.5t-78.5 -32.5q-45 0 -78 32.5t-33 77.5q0 47 33 79t78 32q47 0 78.5 -32t31.5 -79zM750 1339q0 -45 -32 -77.5t-79 -32.5q-45 0 -78 32.5t-33 77.5q0 47 33 79t78 32q47 0 79 -32t32 -79z" />
<glyph horiz-adv-x="808" d="M162 1262v139h485v-139h-485z" />
<glyph horiz-adv-x="886" d="M616 1167l-178 174l-180 -174l-76 86l258 269l256 -267z" />
<glyph horiz-adv-x="1001" d="M801 1374q-33 -72 -82 -111.5t-117 -39.5q-37 0 -66.5 15t-55 32.5t-47 33t-42.5 15.5q-33 0 -56.5 -25.5t-39.5 -60.5l-90 65q25 63 75 110.5t126 47.5q37 0 66.5 -15.5t55 -33.5t47 -33.5t39.5 -15.5q33 0 56.5 25.5t42.5 60.5z" />
<glyph horiz-adv-x="819" d="M649 1470q0 -135 -64.5 -205.5t-178.5 -70.5q-113 0 -174.5 71.5t-61.5 204.5h125q0 -55 28.5 -97t84.5 -42q53 0 83.5 37t30.5 102h127z" />
<glyph horiz-adv-x="962" d="M793 1602q0 -45 -32 -78t-79 -33q-45 0 -78 32.5t-33 78.5q0 47 33 78.5t78 31.5q47 0 79 -31.5t32 -78.5zM391 1602q0 -45 -31.5 -78t-78.5 -33q-45 0 -78 32.5t-33 78.5q0 47 33 78.5t78 31.5q47 0 78.5 -31.5t31.5 -78.5z" />
</font>
</defs>
</svg>
