<?xml version="1.0" standalone="no"?>
<!DOCTYPE svg PUBLIC "-//W3C//DTD SVG 1.1//EN" "http://www.w3.org/Graphics/SVG/1.1/DTD/svg11.dtd" >
<svg xmlns="http://www.w3.org/2000/svg">
<metadata>
Designer    : Lucas de Groot
Foundry     : LucasFonts
Foundry URL : http://www.lucasfonts.com
</metadata>
<defs>
<font id="TheSans_TT6_" horiz-adv-x="550" >
<font-face units-per-em="1000" ascent="740" descent="-260" />
<missing-glyph horiz-adv-x="218" />
<glyph horiz-adv-x="500" />
<glyph horiz-adv-x="500" />
<glyph unicode="&#xd;" horiz-adv-x="500" />
<glyph unicode=" "  horiz-adv-x="218" />
<glyph unicode="&#x09;" horiz-adv-x="218" />
<glyph unicode="&#xa0;" horiz-adv-x="218" />
<glyph unicode="!" horiz-adv-x="320" d="M237 57q0 -29 -19.5 -48t-48.5 -19t-49 19t-20 48q0 28 20 47t49 19t48.5 -19t19.5 -47zM215 177h-91l-18 528h126z" />
<glyph unicode="&#x22;" horiz-adv-x="383" d="M143 460h-79l-16 241h110zM320 460h-80l-15 241h110z" />
<glyph unicode="#" horiz-adv-x="579" d="M456 421l-17 -162h86v-74h-94l-19 -185h-86l20 185h-144l-19 -185h-86l19 185h-86v74h94l18 162h-87v74h94l19 180h86l-20 -180h144l19 180h86l-19 -180h85v-74h-93zM227 421l-17 -162h143l18 162h-144z" />
<glyph unicode="$" horiz-adv-x="491" d="M441 181q0 -69 -44 -119t-123 -67v-126h-78v121q-35 1 -64 4.5t-58 9.5l6 98q29 -11 64.5 -16.5t64.5 -5.5q52 0 86 21t34 68q0 31 -20.5 49.5t-51 32.5t-66.5 27t-66.5 34t-51 53t-20.5 83q0 66 43.5 112.5t115.5 59.5v103h78v-98q56 -2 104 -12l-8 -93q-59 17 -112 17 q-62 0 -87 -23.5t-25 -54.5q0 -29 20.5 -47.5t51.5 -32.5t67.5 -28t67.5 -35t51.5 -53t20.5 -82z" />
<glyph unicode="%" horiz-adv-x="755" d="M255 528q0 47 -16 68t-49 21q-28 0 -46 -23.5t-18 -63.5q0 -48 16.5 -69.5t49.5 -21.5q27 0 45 23.5t18 65.5zM629 147q0 48 -15.5 68.5t-49.5 20.5q-28 0 -46 -23t-18 -64q0 -48 16.5 -69t49.5 -21q27 0 45 23.5t18 64.5zM338 534q0 -36 -11 -66.5t-31.5 -52 t-48.5 -33.5t-62 -12q-72 0 -107.5 41.5t-35.5 113.5q0 35 11 64.5t31 51t48 33.5t62 12q70 0 107 -38.5t37 -113.5zM161 -21l-69 48l499 668l68 -49zM713 153q0 -36 -11.5 -66t-31.5 -51.5t-48.5 -33.5t-61.5 -12q-73 0 -108.5 41t-35.5 113q0 35 11.5 64.5t31.5 51 t48 33.5t62 12q69 0 106.5 -38.5t37.5 -113.5z" />
<glyph unicode="&#x26;" horiz-adv-x="796" d="M460 141l-58.5 48.5l-57 51.5l-52.5 50.5l-44 44.5q-46 -38 -66 -70t-20 -66q0 -24 9 -45.5t26 -38t41.5 -26t54.5 -9.5q54 0 95.5 17.5t71.5 42.5zM346 587q0 29 -17 49t-54 20q-32 0 -52.5 -19.5t-20.5 -51.5q0 -23 14.5 -52t51.5 -71q38 32 58 61t20 64zM676 -21 l-73 52t-66 51q-49 -40 -115 -66t-147 -26q-56 0 -98 15.5t-70 42t-41.5 62t-13.5 76.5q0 33 9.5 62t27.5 54.5t42.5 49.5t54.5 47q-25 29 -42 53t-27.5 45t-15.5 41t-5 41q0 32 12.5 60.5t36 50.5t58.5 34.5t80 12.5q82 0 125 -39t43 -102q0 -51 -28.5 -97.5t-93.5 -97.5 l44.5 -43.5l51 -47.5l54 -47.5l54.5 -44.5v-1q32 46 49.5 106.5t14.5 128.5h106q2 -82 -21.5 -157.5t-69.5 -135.5q35 -28 71 -54l63 -44z" />
<glyph unicode="'" horiz-adv-x="207" d="M143 460h-79l-16 241h110z" />
<glyph unicode="(" horiz-adv-x="304" d="M209 -211q-43 68 -71.5 132.5t-45 126t-23.5 120.5t-7 116t7.5 117.5t24.5 123.5t45.5 128t70.5 131l77 -37q-59 -103 -89.5 -219t-30.5 -239q0 -128 30 -242.5t93 -220.5z" />
<glyph unicode=")" horiz-adv-x="304" d="M246 288q0 -57 -7.5 -117t-24.5 -123t-45.5 -128t-70.5 -131l-77 36q60 103 90.5 219t30.5 239q0 254 -122 463l81 38q43 -68 71 -132.5t44.5 -126t23 -121t6.5 -116.5z" />
<glyph unicode="*" horiz-adv-x="378" d="M300 466l-88 67l14 -110h-78l13 110l-88 -67l-38 67l102 43l-102 43l39 67l88 -66l-14 110h78l-13 -110l88 66l38 -66l-102 -43l102 -43z" />
<glyph unicode="+" d="M325 253v-195h-101v195h-183v89h183v194h101v-194h184v-89h-184z" />
<glyph unicode="," horiz-adv-x="241" d="M119 129q31 0 51 -24.5t19.5 -65t-28 -93t-90.5 -109.5l-45 40q25 27 38.5 49t17.5 40t0.5 32.5t-13.5 26.5q-12 15 -14 33t5 34t22 26.5t37 10.5z" />
<glyph unicode="-" horiz-adv-x="332" d="M46 240v86h240v-86h-240z" />
<glyph unicode="." horiz-adv-x="242" d="M192 61q0 -29 -21 -50t-50 -21t-50 21t-21 50t21 50t50 21t50 -21t21 -50z" />
<glyph unicode="/" horiz-adv-x="449" d="M101 -161h-105l351 918h104z" />
<glyph unicode="0" horiz-adv-x="611" d="M564 267q0 -67 -22 -118t-58 -86t-85 -54t-104 -19q-52 0 -97.5 15t-78.5 46.5t-52.5 81t-19.5 122.5q0 62 21.5 114.5t60 88.5t85 54t98.5 18q66 0 113.5 -20.5t78.5 -56.5t45.5 -84.5t14.5 -101.5zM457 262q0 38 -8.5 69.5t-28 57t-47 38.5t-65.5 13q-32 0 -58.5 -11.5 t-48.5 -34.5t-34.5 -56.5t-12.5 -74.5t9.5 -73.5t26.5 -56t45.5 -37.5t68.5 -14q31 0 57.5 12t48 35t34.5 56t13 77z" />
<glyph unicode="1" horiz-adv-x="340" d="M146 0v420l-108 -46l-18 91l151 57h85v-522h-110z" />
<glyph unicode="2" horiz-adv-x="482" d="M50 0v86l117 99q75 60 94 83.5t27 40t8 42.5q0 38 -25 63.5t-73 25.5q-33 0 -67 -11.5t-56 -25.5l-15 91q37 17 76 26.5t86 9.5q93 0 142.5 -44.5t49.5 -115.5q0 -55 -31.5 -103.5t-95.5 -97.5l-92 -74l-1 -3q31 2 82 2.5t88 0.5h71v-95h-385z" />
<glyph unicode="3" horiz-adv-x="460" d="M412 41q0 -48 -19 -90.5t-54.5 -73.5t-87.5 -49t-118 -18q-45 0 -97 12l11 94q17 -5 42 -9t51 -4q73 0 114.5 34.5t41.5 90.5q0 36 -16.5 59.5t-45 37.5t-69 18t-90.5 -1v86q98 -1 153 30t55 91q0 41 -28 67t-78 26q-29 0 -58.5 -8t-56.5 -22l-10 90q69 28 146 28 q51 0 88.5 -13t61 -34.5t35.5 -51t12 -62.5q0 -57 -32 -99.5t-84 -64.5v-1q62 -11 97.5 -57t35.5 -106z" />
<glyph unicode="4" horiz-adv-x="549" d="M420 0v-184h-105v184h-282l-17 87l268 433h33h103v-424h114v-96h-114zM317 416h-1l-197 -321q52 1 81 1h50h67v320z" />
<glyph unicode="5" horiz-adv-x="466" d="M421 57q0 -52 -21.5 -96t-59.5 -77.5t-94 -53.5t-120 -20q-20 0 -41.5 2t-39.5 5l12 98q15 -3 35.5 -6t41.5 -3q45 0 78 11.5t53.5 30t31 42.5t10.5 52q0 62 -45.5 95t-137.5 34q-15 0 -26.5 -0.5t-25.5 -1.5v351h326v-105l-225 1v-156q61 0 107 -15t77.5 -42t47.5 -64.5 t16 -81.5z" />
<glyph unicode="6" horiz-adv-x="582" d="M538 230q0 -52 -18 -96.5t-51 -76t-78.5 -49.5t-101.5 -18q-105 0 -166.5 73.5t-62.5 213.5q0 105 26.5 184.5t74 133.5t114 81.5t146.5 27.5q10 0 25 -0.5t26 -1.5v-95q-14 2 -30 3.5t-30 1.5q-49 0 -88 -14.5t-67.5 -41.5t-47.5 -64.5t-29 -83.5l-4 -16.5t-4 -19.5 l1 -1q23 33 63 52.5t94 19.5q48 0 86.5 -15t65.5 -43t41.5 -67.5t14.5 -87.5zM424 217q0 62 -31.5 97.5t-87.5 35.5q-31 0 -54.5 -10.5t-39 -28t-23.5 -40t-8 -46.5q0 -28 7.5 -54.5t22.5 -46t38 -31.5t54 -12q57 0 89.5 38.5t32.5 97.5z" />
<glyph unicode="7" horiz-adv-x="459" d="M432 430q-58 -137 -110 -292.5t-89 -321.5h-120q40 161 91.5 314.5t107.5 287.5q-53 -2 -75.5 -2.5t-78.5 -0.5h-135v105h409v-90v0z" />
<glyph unicode="8" horiz-adv-x="553" d="M502 182q0 -46 -18.5 -82t-51 -60t-75 -37t-91.5 -13q-52 0 -92 13t-67.5 36.5t-41.5 55.5t-14 71q0 35 12 62.5t30.5 49.5t42 40.5t46.5 33.5q-61 35 -91.5 77t-30.5 96q0 41 16 75t45.5 58.5t70.5 37.5t89 13t86 -11.5t65.5 -33.5t42 -52.5t14.5 -67.5q0 -53 -30 -94.5 t-94 -82.5q26 -15 50 -32.5t43.5 -40t31.5 -50t12 -62.5zM378 533q0 38 -27 63t-75 25t-76 -25.5t-28 -64.5q0 -37 28 -64.5t81 -56.5q51 33 74 60.5t23 62.5zM389 172q0 43 -33.5 75.5t-88.5 59.5h-1q-45 -26 -73.5 -58.5t-28.5 -70.5q0 -45 31 -72t82 -27q47 0 79.5 25 t32.5 68z" />
<glyph unicode="9" horiz-adv-x="582" d="M522 239q0 -209 -99.5 -319t-269.5 -110q-12 0 -29.5 1t-33.5 4v99q15 -5 34 -7.5t34 -2.5q99 0 156.5 47.5t79.5 142.5q2 9 4 19.5t4 29.5h-1q-23 -31 -63 -49.5t-90 -18.5q-48 0 -85.5 15t-64 43t-40.5 67t-14 87q0 53 17.5 97.5t49.5 76.5t77.5 50.5t99.5 18.5 q51 0 94 -17t74 -52.5t48.5 -90.5t17.5 -131zM400 292q0 64 -31 105.5t-90 41.5q-28 0 -50.5 -10.5t-38.5 -28.5t-24.5 -42.5t-8.5 -53.5q0 -64 30.5 -99t89.5 -35q29 0 51.5 10t38.5 26.5t24.5 39t8.5 46.5z" />
<glyph unicode=":" horiz-adv-x="292" d="M230 61q0 -29 -21 -50t-50 -21t-50 21t-21 50t21 50t50 21t50 -21t21 -50zM230 349q0 -29 -21 -50t-50 -21t-50 21t-21 50t21 50t50 21t50 -21t21 -50z" />
<glyph unicode=";" horiz-adv-x="292" d="M159 129q31 0 51 -24.5t19 -65t-28 -93t-90 -109.5l-45 40q25 27 38.5 49t17.5 40t0 32.5t-14 26.5q-12 15 -13.5 33t5.5 34t22 26.5t37 10.5zM230 349q0 -29 -21 -50t-50 -21t-50 21t-21 50t21 50t50 21t50 -21t21 -50z" />
<glyph unicode="&#x3c;" d="M386 13l-318 289l317 288l69 -70l-249 -217l250 -217z" />
<glyph unicode="=" d="M55 164v87h440v-87h-440zM55 343v87h440v-87h-440z" />
<glyph unicode="&#x3e;" d="M165 13l-69 70l249 218l-250 216l69 73l318 -288z" />
<glyph unicode="?" horiz-adv-x="448" d="M260 57q0 -29 -19.5 -48t-48.5 -19t-48.5 19t-19.5 48q0 28 19.5 47t48.5 19t48.5 -19t19.5 -47zM394 515q0 -42 -14.5 -71t-36 -52.5t-44.5 -43.5t-39.5 -43.5t-23 -54t6.5 -73.5h-104q-16 48 -12 83.5t19 62.5t37.5 48l43 41t35 41.5t14.5 49.5q0 48 -53 78.5 t-147 34.5l14 97q75 -2 132 -19.5t95.5 -44.5t57.5 -62t19 -72z" />
<glyph unicode="@" horiz-adv-x="975" d="M553 456q-20 7 -52 7q-30 0 -52.5 -17.5t-37.5 -44t-22 -57.5t-7 -58q0 -71 38 -71q33 0 68.5 46.5t55.5 146.5l9 48v0zM882 409q0 -68 -17.5 -120.5t-49 -88t-74 -53.5t-92.5 -18q-29 0 -50 8.5t-33.5 23t-18 33t-3.5 39.5h-3q-7 -16 -21 -34t-33 -33.5t-42.5 -26 t-49.5 -10.5q-48 0 -73.5 35t-25.5 104q0 55 14 104t42.5 85.5t71.5 57.5t101 21q35 0 67.5 -5t55.5 -12l-37 -206q-10 -53 3.5 -75.5t48.5 -22.5q52 0 87.5 46.5t35.5 142.5q0 46 -14.5 90t-46.5 78.5t-83.5 55.5t-124.5 21q-70 0 -131 -26t-106.5 -73t-72 -112.5 t-26.5 -144.5q0 -67 18.5 -120.5t56 -91t93 -57.5t130.5 -20q44 0 86.5 7t84.5 20l16 -84q-48 -16 -101.5 -23.5t-98.5 -7.5q-92 0 -163.5 25.5t-120.5 73t-74 115t-25 151.5q0 99 34.5 182.5t94.5 143.5t140.5 94t171.5 34q90 0 157 -26t112 -71t67 -104t22 -125z" />
<glyph unicode="A" horiz-adv-x="620" d="M333 465l-15.5 47.5t-12.5 44.5h-2q-10 -42 -27 -91l-81 -230h219zM493 0l-51 149h-274l-52 -149h-110l240 675h125l243 -675h-121z" />
<glyph unicode="B" horiz-adv-x="574" d="M412 202q0 29 -12.5 49t-35 32.5t-54 18t-67.5 5.5q-22 0 -56 -1v-216q28 -4 80 -5q75 1 110 33t35 84zM393 497q0 21 -6 37.5t-20.5 30t-39 20.5t-58.5 7q-45 0 -82 -2v-201q28 -1 58 -1q75 0 111.5 28.5t36.5 80.5zM528 204q0 -33 -12.5 -69.5t-42.5 -67t-83 -50.5 t-129 -20q-86 1 -183 3v675q40 1 94 2t115 1q108 0 164.5 -43t56.5 -121q0 -52 -28.5 -93t-81.5 -61v-2q63 -12 96.5 -55t33.5 -99z" />
<glyph unicode="C" horiz-adv-x="576" d="M533 26q-38 -16 -85 -25t-96 -9q-85 0 -144 25.5t-95.5 70t-53 104t-16.5 127.5q0 79 20 145.5t61.5 114.5t104 75t147.5 27q38 0 76.5 -5t73.5 -16l-16 -100q-70 25 -143 25q-53 0 -91.5 -19t-64 -52.5t-37.5 -79t-12 -97.5q0 -118 51.5 -182.5t162.5 -64.5q35 0 72.5 9 t66.5 23l18 -96v0z" />
<glyph unicode="D" horiz-adv-x="673" d="M515 339q0 125 -58.5 187t-177.5 62q-25 0 -44.5 -0.5t-47.5 -1.5v-492q17 -2 39 -3.5t42 -1.5q54 0 99.5 14.5t78.5 45.5t51 78t18 112zM631 347q0 -87 -27.5 -152.5t-77 -110t-118.5 -66.5t-151 -22q-43 0 -78 1l-101 3v674l102.5 2.5t106.5 1.5q80 0 143.5 -19 t108 -59t68.5 -102.5t24 -150.5z" />
<glyph unicode="E" horiz-adv-x="498" d="M78 0v675h356v-91h-247v-192h235v-89h-235v-210h247v-93h-356z" />
<glyph unicode="F" horiz-adv-x="467" d="M187 583v-198h230v-89h-230v-296h-109v675h352v-92h-243z" />
<glyph unicode="G" horiz-adv-x="679" d="M604 31q-51 -20 -109.5 -30.5t-116.5 -10.5q-78 0 -142.5 23t-108.5 65.5t-65.5 104.5t-21.5 138q0 80 24 146.5t69 114.5t117 75t158 27q51 0 99 -7.5t90 -20.5l-23 -100q-40 16 -83 24.5t-91 8.5q-51 0 -98 -16.5t-78.5 -48.5t-49 -79.5t-17.5 -110.5 q0 -118 62.5 -182.5t171.5 -64.5q29 0 55 4t49 12v245h109v-317v0z" />
<glyph unicode="H" horiz-adv-x="693" d="M506 0v303h-319v-303h-109v675h109v-279h319v279h108v-675h-108z" />
<glyph unicode="I" horiz-adv-x="266" d="M78 0v675h109v-675h-109z" />
<glyph unicode="J" horiz-adv-x="332" d="M254 182q0 -42 -9 -77t-29.5 -60t-54 -39t-82.5 -14q-24 0 -43 2.5t-35 5.5v95q13 -5 30 -8t35 -3q19 0 34 4.5t25 16t15 31.5t5 51v488h109v-493v0z" />
<glyph unicode="K" horiz-adv-x="590" d="M432 0l-245 330v-330h-109v675h109v-313l246 313h134l-268 -326l278 -349h-145z" />
<glyph unicode="L" horiz-adv-x="427" d="M78 0v675h109v-580h232v-95h-341z" />
<glyph unicode="M" horiz-adv-x="886" d="M732 0l-54 362q-8 56 -12.5 96.5l-8.5 73.5h-2q-6 -29 -14 -61.5t-22 -77.5l-129 -393h-110l-122 367q-28 89 -44 165h-1q-3 -41 -8 -87t-11 -93l-43 -352h-110l101 675h130l130 -392q9 -29 19 -64.5t19 -73.5h1l18.5 69.5t19.5 64.5l132 396h131l103 -675h-113z" />
<glyph unicode="N" horiz-adv-x="704" d="M481 0l-239 406q-12 21 -31 59l-35 72q1 -25 3 -65.5t2.5 -81.5t0.5 -86.5t2 -117.5v-186h-106v675h143l236 -397q27 -47 39.5 -72.5l30.5 -64.5q-2 29 -3 69t-2 88.5t-1.5 94t-0.5 111.5l-1 171h106v-675h-144z" />
<glyph unicode="O" horiz-adv-x="704" d="M550 335q0 123 -51.5 188.5t-146.5 65.5q-39 0 -75 -15.5t-63 -46.5t-43.5 -77t-16.5 -107q0 -57 12 -104.5t36 -81t61 -52t87 -18.5q37 0 73 15t64.5 46t45.5 77.5t17 109.5zM666 346q0 -84 -25.5 -150t-69.5 -112t-103 -70t-126 -24q-77 0 -134 24t-95 68.5t-56.5 107 t-18.5 140.5q0 84 25.5 150t69.5 111.5t103 69.5t126 24q68 0 124 -21t96 -63.5t62 -106t22 -148.5z" />
<glyph unicode="P" horiz-adv-x="532" d="M391 464q0 60 -34.5 92.5t-109.5 32.5q-28 0 -60 -1v-249q11 -2 29 -3.5t35 -1.5q71 1 105.5 35.5t34.5 94.5zM504 476q0 -49 -19 -95t-53.5 -76t-82 -46t-106.5 -16q-33 0 -56 3v-246h-109v675q42 2 84 3t94 1q121 0 184.5 -54t63.5 -149z" />
<glyph unicode="Q" horiz-adv-x="703" d="M550 335q0 123 -51.5 188.5t-146.5 65.5q-39 0 -75 -15.5t-63 -46.5t-43.5 -77t-16.5 -107q0 -57 12 -104.5t36 -81t61 -52t87 -18.5q37 0 73 15t64.5 46t45.5 77.5t17 109.5zM702 -193q-67 -10 -115.5 -4t-91.5 16t-85.5 17t-97.5 0v97q63 7 109 0.5t88 -16t87 -16 t106 1.5v-96v0zM666 346q0 -84 -25.5 -150t-69.5 -112t-103 -70t-126 -24q-77 0 -134 24t-95 68.5t-56.5 107t-18.5 140.5q0 84 25.5 150t69.5 111.5t103 69.5t126 24q68 0 124 -21t96 -63.5t62 -106t22 -148.5z" />
<glyph unicode="R" horiz-adv-x="559" d="M381 484q0 56 -34 81t-103 25q-16 0 -30.5 -0.5t-26.5 -1.5v-214q8 -1 21.5 -1.5t31.5 -0.5q66 0 103.5 30.5t37.5 81.5zM402 0l-203 292h-12v-292h-109v675q37 2 80.5 3t100.5 1q52 0 95.5 -10t75 -31.5t48.5 -56.5t17 -85q0 -41 -14.5 -73.5t-39.5 -57t-58.5 -39.5 t-71.5 -19l29 -36.5t27 -35.5l172 -235h-137z" />
<glyph unicode="S" horiz-adv-x="503" d="M460 202q0 -46 -18 -85t-51.5 -67t-80.5 -44t-104 -16q-44 0 -82 5t-70 14l12 104q33 -13 69.5 -20.5t74.5 -7.5q27 0 51 5.5t42 18t28.5 32t10.5 47.5q0 35 -22 56t-55 36.5t-71 29t-71 35t-55 55t-22 88.5q0 43 16 79.5t47.5 62.5t76.5 40.5t104 14.5q29 0 61.5 -3.5 t60.5 -9.5l-11 -96q-27 9 -56.5 14t-59.5 5q-64 0 -94 -26t-30 -68q0 -34 22 -54.5t55.5 -36t72 -30t72 -36.5t55.5 -55.5t22 -86.5z" />
<glyph unicode="T" horiz-adv-x="514" d="M311 583v-583h-109v583h-185v92h480v-92h-186z" />
<glyph unicode="U" horiz-adv-x="687" d="M609 260q0 -136 -70 -203t-204 -67q-80 0 -130 20t-78 53.5t-38.5 76.5t-10.5 90v445h109v-437q0 -34 6.5 -63t24 -50t47.5 -33t77 -12q41 0 71.5 9t50 29.5t29 53.5t9.5 80v423h107v-415v0z" />
<glyph unicode="V" horiz-adv-x="622" d="M371 0h-124l-240 675h120l142 -416q11 -29 22 -65.5t20 -69.5h1q9 34 20.5 70.5t24.5 71.5l145 409h112z" />
<glyph unicode="W" horiz-adv-x="952" d="M747 0h-134l-115 417q-9 31 -15 63t-11 64h-1q-7 -61 -24 -125l-114 -419h-128l-175 675h116l104 -410q9 -34 15 -66.5t11 -66.5h1q5 33 11.5 65t15.5 63l115 415h119l118 -416q8 -27 15 -59.5t12 -64.5h1q5 32 10.5 61t13.5 57l105 422h109z" />
<glyph unicode="X" horiz-adv-x="612" d="M461 0l-160 265l-159 -265h-128l219 347l-206 328h126l150 -247l148 247h123l-202 -326l226 -349h-137z" />
<glyph unicode="Y" horiz-adv-x="548" d="M326 241v-241h-109v241l-211 434h119l100 -213q27 -60 48 -114h2q11 30 25.5 62t30.5 64l95 201h115z" />
<glyph unicode="Z" horiz-adv-x="538" d="M45 0v83l266 423q12 20 24 37.5t26 35.5q-22 -1 -54 -1h-83h-169v97h435v-86l-280 -437q-8 -14 -16.5 -27l-18.5 -27q14 2 53 2h105h161v-100h-449z" />
<glyph unicode="[" horiz-adv-x="324" d="M79 -201v975h208v-84h-108v-806h108v-85h-208z" />
<glyph unicode="\" horiz-adv-x="459" d="M359 -161l-350 918h104l351 -918h-105z" />
<glyph unicode="]" horiz-adv-x="324" d="M37 -201v85h108v806h-108v84h208v-975h-208z" />
<glyph unicode="^" d="M403 340l-139 257l-132 -257l-72 38l165 297h84l172 -295z" />
<glyph unicode="_" d="M0 -248v86h550v-86h-550z" />
<glyph unicode="`" horiz-adv-x="371" d="M239 566l-164 111l54 71l153 -125z" />
<glyph unicode="a" horiz-adv-x="523" d="M336 228q-56 0 -91 -6.5t-57 -18.5t-31.5 -28t-9.5 -34q0 -29 19 -48t49 -19q26 0 48.5 12t38.5 32t25 45t9 52v13zM343 0q0 24 1 48t4 44l-1 1q-18 -45 -62.5 -74t-102.5 -29q-63 0 -101 38.5t-38 99.5q0 83 78 127.5t215 44.5v21q0 54 -22 78.5t-76 24.5 q-35 0 -75.5 -10t-74.5 -25l-19 83q40 16 88 25.5t96 9.5q54 0 89.5 -11.5t58 -33t32.5 -53.5t10 -76v-197q0 -32 0.5 -66.5t2.5 -69.5h-103z" />
<glyph unicode="b" horiz-adv-x="558" d="M406 263q0 75 -23.5 115t-74.5 40q-30 0 -53 -16t-38.5 -41t-23.5 -57t-8 -63v-154q31 -10 78 -10q32 0 58.5 10t45 32.5t29 58t10.5 85.5zM519 273q0 -65 -18 -116.5t-52 -88.5t-83 -56.5t-111 -19.5q-53 0 -94.5 5t-82.5 16v717h107v-229q0 -22 -2 -48.5t-7 -46.5h2 q20 47 61.5 74t96.5 27q89 0 136 -60.5t47 -173.5z" />
<glyph unicode="c" horiz-adv-x="431" d="M403 17q-31 -13 -68.5 -19t-75.5 -6q-48 0 -88.5 12.5t-70 41t-46 74.5t-16.5 112q0 59 15 109t46 86.5t77.5 57t108.5 20.5q32 0 61.5 -4.5t54.5 -14.5l-18 -91q-23 9 -49.5 15t-54.5 6q-63 0 -96 -47.5t-33 -124.5q0 -34 6.5 -63.5t21.5 -51t40 -33.5t62 -12 q29 0 56.5 5.5t50.5 16.5l16 -89v0z" />
<glyph unicode="d" horiz-adv-x="557" d="M373 411q-41 9 -79 9q-64 0 -103.5 -43t-39.5 -143q0 -75 24 -115.5t75 -40.5q30 0 52.5 16t38.5 41.5t24 57.5t8 64v154zM378 0q0 20 1.5 46t5.5 47h-2q-20 -46 -62 -74.5t-100 -28.5q-92 0 -137.5 63t-45.5 171q0 64 18 116t51.5 88.5t82 56.5t108.5 20q18 0 36.5 -1 t38.5 -3v229h106v-730h-101z" />
<glyph unicode="e" horiz-adv-x="511" d="M361 310q1 57 -26.5 87t-73.5 30q-44 0 -74.5 -30.5t-37.5 -86.5h212v0zM468 300q0 -32 -4 -64h-316q-2 -81 33.5 -120.5t113.5 -39.5q36 0 72.5 7.5t70.5 21.5l14 -83q-43 -16 -86 -24t-90 -8q-115 0 -176 61.5t-62 193.5q0 56 15.5 103.5t44 82.5t72 55.5t97.5 20.5 q51 0 89 -15.5t63 -44t37 -66t12 -81.5z" />
<glyph unicode="f" horiz-adv-x="352" d="M370 640q-17 5 -34 7.5t-34 2.5q-48 0 -70.5 -27t-22.5 -86v-40h129v-83h-129v-414h-106v414h-95v83h95v38q0 202 194 202q42 0 81 -9z" />
<glyph unicode="g" horiz-adv-x="543" d="M409 -75q0 32 -22 52t-70 22l-91 3l-26 1q-27 -19 -42 -41t-15 -48q0 -40 34 -62.5t88 -22.5q70 0 107 27.5t37 68.5zM365 328q0 46 -26.5 73t-76.5 27q-51 0 -78.5 -28.5t-27.5 -71.5q0 -47 26.5 -73t77.5 -26q49 0 77 26t28 73zM515 -60q0 -40 -19 -75.5t-54.5 -61.5 t-84.5 -41.5t-109 -15.5q-98 0 -154.5 38t-56.5 111q0 41 24.5 75.5t56.5 52.5q-23 10 -36 29.5t-13 45.5q0 27 15.5 50.5t41.5 35.5q-35 20 -54.5 53.5t-19.5 82.5q0 37 14 71t41 60t67 41t93 15q22 0 38.5 -2.5t36.5 -7.5h169v-84h-76q33 -28 33 -79q0 -39 -13 -72 t-39.5 -57t-66 -37.5t-92.5 -13.5q-14 0 -24.5 1.5t-22.5 4.5q-14 -7 -21.5 -17t-7.5 -20q0 -20 18.5 -27t63.5 -9l84 -3q81 -3 124.5 -39t43.5 -105z" />
<glyph unicode="h" horiz-adv-x="573" d="M389 0v319q0 47 -15.5 73t-58.5 26q-28 0 -52 -14t-41 -38t-27 -57t-10 -70v-239h-107v730h107v-226q0 -23 -2 -51t-7 -49l2 -1q22 48 65 76t104 28q42 0 70.5 -12.5t46 -34.5t24.5 -50.5t7 -61.5v-348h-106z" />
<glyph unicode="i" horiz-adv-x="263" d="M78 0v497h107v-497h-107zM200 652q0 -28 -20 -47.5t-48 -19.5q-29 0 -49 19t-20 48q0 28 20 47.5t49 19.5q28 0 48 -19.5t20 -47.5z" />
<glyph unicode="j" horiz-adv-x="268" d="M190 -47q0 -50 -9 -88t-30 -64t-56 -39t-86 -13q-17 0 -35.5 2t-33.5 7l7 92q30 -11 62 -11q43 0 59 22.5t16 81.5v554h106v-544v0zM205 652q0 -28 -19.5 -47.5t-48.5 -19.5t-49 19t-20 48q0 28 20 47.5t49 19.5t48.5 -19.5t19.5 -47.5z" />
<glyph unicode="k" horiz-adv-x="506" d="M355 0l-170 252v-252h-107v730h107v-446l161 213h131l-184 -227l198 -270h-136z" />
<glyph unicode="l" horiz-adv-x="263" d="M78 0v730h107v-730h-107z" />
<glyph unicode="m" horiz-adv-x="873" d="M689 0v317q0 46 -14.5 73.5t-57.5 27.5q-24 0 -47 -13t-41 -36.5t-29 -57t-11 -74.5v-237h-105v317q0 21 -3 39.5t-10.5 32t-22 21.5t-36.5 8q-26 0 -49 -13.5t-40 -37.5t-27.5 -57.5t-10.5 -72.5v-237h-107v497h102q0 -20 -1.5 -47.5t-5.5 -50.5l2 -1q22 50 66 79.5 t102 29.5q37 0 62 -10.5t41 -26.5t24 -35t11 -35q8 18 22 36.5t35 34.5t48 26t61 10q72 0 110 -39.5t38 -124.5v-343h-106z" />
<glyph unicode="n" horiz-adv-x="573" d="M389 0v319q0 47 -15.5 73t-58.5 26q-28 0 -52 -14t-41 -38t-27 -57t-10 -70v-239h-107v497h102q0 -20 -1.5 -48.5t-5.5 -49.5h1q22 48 66 78t107 30q42 0 70.5 -12.5t46 -34.5t24.5 -50.5t7 -61.5v-348h-106z" />
<glyph unicode="o" horiz-adv-x="549" d="M402 251q0 80 -31 123t-95 43q-24 0 -47 -9.5t-41 -29.5t-29 -51t-11 -74q0 -85 32 -128t95 -43q26 0 49 10t40.5 31t27.5 53t10 75zM512 258q0 -57 -18 -106t-50.5 -85t-78 -56.5t-100.5 -20.5q-52 0 -94 15t-72 45.5t-46 78t-16 113.5q0 56 17.5 104.5t50 84t78 56 t102.5 20.5q50 0 91.5 -14.5t71.5 -44.5t47 -77t17 -113z" />
<glyph unicode="p" horiz-adv-x="558" d="M406 263q0 75 -23.5 115.5t-74.5 40.5q-30 0 -53 -16t-38.5 -41.5t-23.5 -57.5t-8 -64v-153q33 -10 78 -10q32 0 58.5 10t45 32.5t29 58t10.5 85.5zM519 273q0 -132 -67 -206t-192 -74q-21 0 -38 1t-37 5v-243h-107v741h101q0 -20 -1 -46.5t-5 -46.5h2q21 48 62.5 75.5 t98.5 27.5q89 0 136 -60.5t47 -173.5z" />
<glyph unicode="q" horiz-adv-x="558" d="M374 412q-39 9 -79 9q-64 0 -103.5 -43.5t-39.5 -143.5q0 -75 23.5 -115.5t74.5 -40.5q30 0 53 16t39 42t24 58t8 65v153zM374 -244v243q0 19 1 44t6 48l-2 1q-20 -48 -61 -75t-94 -27q-89 0 -136.5 58.5t-47.5 174.5q0 64 18 116.5t52 89t83.5 56.5t112.5 20 q48 0 91.5 -3.5t82.5 -10.5v-735h-106z" />
<glyph unicode="r" horiz-adv-x="355" d="M332 401q-75 14 -111 -36.5t-36 -162.5v-202h-107v497h102q0 -21 -2.5 -51t-7.5 -59h2q8 25 22 48t34 40t47 26t62 5z" />
<glyph unicode="s" horiz-adv-x="421" d="M376 152q0 -35 -15 -65t-42.5 -51.5t-67.5 -33.5t-89 -12q-29 0 -58 3.5t-52 10.5l8 91q23 -9 51.5 -14t57.5 -5q42 0 68.5 17.5t26.5 47.5q0 25 -16 39t-40.5 23t-52.5 17.5t-52.5 23.5t-40.5 40.5t-16 68.5q0 33 12.5 61t37.5 48.5t63.5 32.5t89.5 12q23 0 47.5 -2.5 t46.5 -7.5l-6 -86q-45 14 -94 14q-45 0 -66 -16.5t-21 -45.5q0 -24 16.5 -38t40.5 -23.5t53 -18.5t53 -24t40.5 -40t16.5 -67z" />
<glyph unicode="t" horiz-adv-x="373" d="M341 3q-23 -5 -51 -8.5t-53 -3.5q-40 0 -66.5 8t-42.5 26t-22.5 47t-6.5 71v271h-95v83h95v158l107 29v-187h130v-83h-130v-238q0 -28 3 -46t10.5 -28.5t20 -15t31.5 -4.5q17 0 32 2t29 5l9 -86v0z" />
<glyph unicode="u" horiz-adv-x="573" d="M393 0q0 20 1.5 48.5t5.5 49.5h-1q-22 -48 -66 -78t-107 -30q-42 0 -70.5 12.5t-46 34.5t-24.5 50.5t-7 61.5v348h106v-319q0 -47 15.5 -73t58.5 -26q28 0 52 14t41 38t27 56.5t10 70.5v239h107v-497h-102z" />
<glyph unicode="v" horiz-adv-x="495" d="M309 0h-126l-175 497h10h106l94 -276q19 -60 31 -110h1q6 26 13.5 54.5t15.5 54.5l94 277h104h10z" />
<glyph unicode="w" horiz-adv-x="794" d="M622 0h-118l-86 260q-8 25 -15 50.5t-14 54.5h-1l-16 -63t-18 -62l-75 -240h-113l-153 497h12h105l66 -231l19.5 -70t17.5 -69h1q8 37 16.5 70.5t18.5 65.5l74 234h108l75 -230q14 -45 22.5 -76.5l16.5 -63.5h1q8 35 16 66.5t19 68.5l69 235h99h12z" />
<glyph unicode="x" horiz-adv-x="523" d="M370 0l-112 180l-113 -180h-129l178 250l-168 247h129l111 -177l113 177h119l-164 -245l172 -252h-136z" />
<glyph unicode="y" horiz-adv-x="490" d="M283 -35q-23 -62 -48 -104t-53.5 -67t-63 -35.5t-76.5 -10.5q-14 0 -32 2t-31 4l12 93q13 -4 29.5 -6t31.5 -2q18 0 34.5 5t32.5 17.5t30.5 34.5t26.5 55l18 49l-186 497h12h108l81 -227q12 -33 21.5 -65.5t17.5 -64.5h1q8 30 21.5 73.5t27.5 81.5l71 202h103h12z" />
<glyph unicode="z" horiz-adv-x="449" d="M47 0v76l221 327q-19 -1 -50.5 -1.5t-69.5 -0.5h-96v96h343v-75l-218 -326q27 1 49 1.5t43 0.5h130v-98h-352z" />
<glyph unicode="{" horiz-adv-x="350" d="M299 -201q-91 0 -129.5 50.5t-38.5 156.5v157q0 61 -24 84.5t-79 26.5v82q28 1 47.5 6.5t32 17.5t18 32.5t5.5 51.5v104q0 48 8.5 86t28.5 65t52 41t79 14h19v-84q-25 0 -42 -5.5t-27 -19t-14.5 -36.5t-4.5 -59v-103q0 -72 -23.5 -107.5t-68.5 -43.5v-1q44 -7 68 -45 t24 -110v-156q0 -36 4.5 -59t14.5 -36.5t27 -19t42 -5.5v-85h-19z" />
<glyph unicode="|" horiz-adv-x="286" d="M99 -244v1000h85v-1000h-85z" />
<glyph unicode="}" horiz-adv-x="348" d="M327 274q-54 -3 -78.5 -26.5t-24.5 -84.5v-157q0 -106 -38.5 -156.5t-129.5 -50.5h-19v85q25 0 42 5.5t27 19t14.5 36.5t4.5 59v156q0 72 24 110t68 45v1q-45 6 -68.5 42t-23.5 106v106q0 36 -4.5 59t-14.5 36.5t-27 19t-42 5.5v84h19q47 0 79 -14t52 -41t28.5 -65 t8.5 -86v-101q0 -32 5.5 -53t18 -33.5t32 -18t47.5 -6.5v-82v0z" />
<glyph unicode="~" d="M502 565q0 -69 -37.5 -111t-103.5 -42q-42 0 -66 17t-41 37l-32 37t-39 17q-29 0 -41.5 -22.5t-13.5 -62.5h-79v13q0 69 37.5 111t103.5 42q42 0 66 -17t41 -37l32 -37t39 -17q29 0 41.5 23t13.5 63h79v-14v0z" />
<glyph horiz-adv-x="538" d="M45 0v83l266 423q12 20 24 37.5t26 35.5q-22 -1 -54 -1h-83h-169v97h435v-86l-280 -437q-8 -14 -16.5 -27l-18.5 -27q14 2 53 2h105h161v-100h-449zM273 720l-162 81l28 60l138 -59l131 58l26 -55z" />
<glyph unicode="&#x17d;" horiz-adv-x="538" d="M45 0v83l266 423q12 20 24 37.5t26 35.5q-22 -1 -54 -1h-83h-169v97h435v-86l-280 -437q-8 -14 -16.5 -27l-18.5 -27q14 2 53 2h105h161v-100h-449zM273 720l-162 81l28 60l138 -59l131 58l26 -55z" />
<glyph horiz-adv-x="449" d="M47 0v76l221 327q-19 -1 -50.5 -1.5t-69.5 -0.5h-96v96h343v-75l-218 -326q27 1 49 1.5t43 0.5h130v-98h-352zM224 566l-145 132l45 50l101 -83l101 83l44 -49z" />
<glyph unicode="&#x17e;" horiz-adv-x="449" d="M47 0v76l221 327q-19 -1 -50.5 -1.5t-69.5 -0.5h-96v96h343v-75l-218 -326q27 1 49 1.5t43 0.5h130v-98h-352zM224 566l-145 132l45 50l101 -83l101 83l44 -49z" />
<glyph unicode="&#xa1;" horiz-adv-x="320" d="M88 -208l17 528h91l18 -528h-126zM220 440q0 -28 -19.5 -47t-48.5 -19t-48.5 19t-19.5 47q0 29 19.5 48t48.5 19t48.5 -19t19.5 -48z" />
<glyph unicode="&#xa2;" horiz-adv-x="455" d="M411 60q-20 -8 -45.5 -15t-53.5 -9v-104h-82v105q-93 10 -141 71t-48 163q0 48 13 89t37.5 73t59.5 53t79 29v92h82v-87q23 -1 48 -5.5t49 -13.5l-9 -91q-48 23 -105 23q-66 0 -104.5 -40.5t-38.5 -115.5q0 -32 7.5 -59.5t24.5 -48t43.5 -32t65.5 -11.5q31 0 59 7.5 t51 20.5l8 -94v0z" />
<glyph unicode="&#xa3;" horiz-adv-x="473" d="M42 0v75q53 38 74 76t21 92q0 11 -1 27t-4 42h-102v82h92l-8 56t-4 53q0 90 51 136t145 46q26 0 55.5 -3t52.5 -11l-18 -89q-43 16 -87 16q-42 0 -66.5 -23t-24.5 -68q0 -19 3 -48.5t8 -64.5h144v-82h-134q2 -18 3 -30.5t1 -28.5q0 -53 -17 -91t-60 -74q20 3 50 4.5 t55 1.5h175v-94h-404z" />
<glyph unicode="&#xa4;" d="M369 334q0 48 -22 77.5t-74 29.5q-38 0 -65 -28.5t-27 -81.5q0 -24 5 -44.5t16.5 -35.5t29.5 -24t44 -9q36 0 64.5 29.5t28.5 86.5zM427 54l-79 106q-37 -20 -82 -20q-34 0 -62 11l-70 -96l-82 58l71 88q-17 22 -27 53.5t-10 73.5q0 74 42 124l-75 94l80 58l73 -100 q33 16 77 16q17 0 36 -3t36 -11l73 98l79 -59l-74 -93q14 -20 22.5 -48.5t8.5 -67.5q0 -73 -39 -121l82 -102z" />
<glyph unicode="&#xa5;" horiz-adv-x="596" d="M377 299h135v-70h-161v-64h161v-71h-161v-94h-108v94h-160v71h160v64h-160v70h135l-187 376h119l99 -205q16 -32 27 -60.5l22 -56.5h1q11 32 25.5 64.5t31.5 64.5l97 193h115z" />
<glyph unicode="&#xa6;" horiz-adv-x="286" d="M99 -244v378h85v-378h-85zM99 388v368h85v-368h-85z" />
<glyph unicode="&#xa7;" horiz-adv-x="524" d="M346 226q0 27 -12.5 50.5t-32.5 46.5t-45.5 46.5t-51.5 50.5q-20 -15 -29 -34.5t-9 -38.5q0 -25 11 -47.5t30 -45.5t45 -47.5l56 -52.5q20 14 29 33t9 39zM444 240q0 -42 -20.5 -79t-56.5 -64q17 -22 27.5 -47.5t10.5 -56.5q0 -30 -12 -58.5t-37 -51t-64 -36t-93 -13.5 q-17 0 -38.5 2.5t-41.5 7.5l7 90q21 -6 39 -9t37 -3q45 0 67 20t22 50q0 25 -16.5 47.5t-41.5 46l-54 49t-54 55t-41.5 65t-16.5 78.5q0 42 20 78.5t57 64.5q-18 23 -28 48t-10 56q0 32 11 60.5t34.5 50t60.5 34t88 12.5q18 0 39 -2t39 -6l-7 -90q-19 6 -35.5 8.5t-34.5 2.5 q-42 0 -61.5 -17t-19.5 -48q0 -24 16.5 -47t41.5 -47.5l54 -50.5t54 -56t41.5 -65.5t16.5 -78.5z" />
<glyph unicode="&#xa8;" horiz-adv-x="546" d="M227 652q0 -26 -17.5 -43.5t-43.5 -17.5t-43 17.5t-17 43.5q0 25 17 42.5t43 17.5t43.5 -17.5t17.5 -42.5zM423 652q0 -26 -17.5 -43.5t-42.5 -17.5q-26 0 -43.5 17.5t-17.5 43.5q0 25 17.5 42.5t43.5 17.5q25 0 42.5 -17.5t17.5 -42.5z" />
<glyph unicode="&#xa9;" horiz-adv-x="758" d="M477 176q-23 -9 -48 -14t-52 -5q-80 0 -119.5 48t-39.5 125q0 36 9.5 69t30.5 58.5t54 40.5t80 15q24 0 44 -4t37 -10l-11 -74q-14 8 -31.5 12.5t-36.5 4.5q-47 0 -66.5 -31t-19.5 -78q0 -49 20 -75t62 -26q39 0 74 15l13 -71v0zM634 334q0 53 -20 100t-54.5 82 t-81.5 55.5t-100 20.5t-100 -20t-81.5 -55t-54.5 -82t-20 -100t20 -100t54.5 -82t81.5 -55.5t100 -20.5t100 20t81.5 55t54.5 82t20 100zM716 335q0 -70 -26.5 -131.5t-72.5 -107.5t-107.5 -72.5t-131.5 -26.5q-72 0 -133.5 26t-107.5 72t-72 107t-26 132q0 70 26.5 131.5 t72.5 107.5t107.5 72.5t132.5 26.5q70 0 132 -26.5t107.5 -72t72 -107t26.5 -131.5z" />
<glyph unicode="&#xaa;" horiz-adv-x="395" d="M242 486q-60 0 -87 -14t-27 -41q0 -16 10.5 -25.5t29.5 -9.5t33 8.5t23 21t13.5 26.5t4.5 24v10zM54 195v84h298v-84h-298zM245 335q0 11 1 25t4 26l-2 1q-10 -24 -38.5 -42t-62.5 -18q-54 0 -78 25.5t-24 65.5q0 31 14.5 54.5t40.5 39t62 23.5t80 8v17q0 9 -2 18.5 t-8.5 17.5t-18.5 13t-33 5q-29 0 -56.5 -7.5t-50.5 -19.5l-8 75q55 22 129 22q39 0 65 -9.5t41 -25.5t21.5 -36.5t6.5 -42.5v-149v-51t1 -35h-84z" />
<glyph unicode="&#xab;" horiz-adv-x="520" d="M159 107l-110 186l112 188l81 -39l-89 -149l91 -146zM372 110l-120 183l122 185l80 -40l-97 -145l98 -142z" />
<glyph unicode="&#xac;" d="M391 100v153h-350v89h444v-242h-94z" />
<glyph unicode="&#xad;" horiz-adv-x="332" d="M46 240v86h240v-86h-240z" />
<glyph unicode="&#x2010;" horiz-adv-x="332" d="M46 240v86h240v-86h-240z" />
<glyph unicode="&#xae;" horiz-adv-x="563" d="M309 576q0 26 -32 26h-19v-58h12q21 0 30 10t9 22zM310 418l-47 90h-5v-90h-54v225h85q42 0 60.5 -16.5t18.5 -44.5q0 -27 -13.5 -43t-36.5 -21q8 -8 18 -28l39 -72h-65zM440 528q0 33 -12.5 62.5t-34 51.5t-50.5 35t-62 13t-61.5 -12.5t-50 -34.5t-34 -50.5t-12.5 -61.5 t12.5 -62.5t34 -51.5t50 -35t61.5 -13t62 12.5t50.5 34.5t34 50.5t12.5 61.5zM508 529q0 -46 -18 -87t-49 -71.5t-72.5 -48t-87.5 -17.5q-48 0 -89 17.5t-71.5 47.5t-48 71t-17.5 88t17.5 88t48.5 71.5t72 48t88 17.5q48 0 89 -17.5t72 -47.5t48.5 -71t17.5 -89z" />
<glyph unicode="&#xaf;" horiz-adv-x="395" d="M68 609v78h259v-78h-259z" />
<glyph unicode="&#x2c9;" horiz-adv-x="395" d="M68 609v78h259v-78h-259z" />
<glyph unicode="&#xb0;" horiz-adv-x="381" d="M247 607q0 23 -13 43.5t-45 20.5q-26 0 -42.5 -17.5t-16.5 -46.5q0 -31 16 -48t42 -17t42.5 18.5t16.5 46.5zM328 608q0 -32 -12 -57t-32.5 -42t-46.5 -26t-53 -9q-63 0 -99.5 35t-36.5 96q0 32 12.5 57t32.5 42t45.5 26t51.5 9q36 0 62.5 -10.5t43 -28.5t24.5 -41.5 t8 -50.5z" />
<glyph unicode="&#xb1;" d="M43 0v89h464v-89h-464zM326 340v-190h-102v190h-183v89h183v189h102v-189h183v-89h-183z" />
<glyph unicode="&#xb2;" horiz-adv-x="353" d="M37 370v72l85 82q42 39 57.5 68t15.5 52q0 28 -14 44t-44 16q-46 0 -82 -22l-14 75q24 11 56 18.5t64 7.5q74 0 107 -34t33 -86q0 -38 -18.5 -77t-63.5 -80l-57 -56q32 2 70.5 2h84.5v-82h-280z" />
<glyph unicode="&#xb3;" horiz-adv-x="338" d="M298 495q0 -58 -47 -95.5t-131 -37.5q-21 0 -44.5 2.5t-43.5 7.5l11 71q33 -11 74 -11t60.5 16t19.5 41q0 28 -31.5 45t-103.5 8v66q66 0 94 15.5t28 46.5q0 20 -15.5 32t-42.5 12q-38 0 -77 -17l-10 67q52 19 110 19q68 0 101 -27.5t33 -73.5q0 -67 -65 -92 q38 -9 59 -35.5t21 -59.5z" />
<glyph unicode="&#xb4;" horiz-adv-x="391" d="M150 566l-42 57l152 125l54 -71z" />
<glyph unicode="&#xb5;" horiz-adv-x="585" d="M553 -4q-12 -2 -23 -3t-21 -1q-61 0 -83.5 28.5t-21.5 75.5l-1 1q-20 -48 -58.5 -76.5t-95.5 -28.5q-24 0 -43.5 7.5t-30.5 22.5l12 -266h-109v741h107v-325q0 -93 74 -93q28 0 52 13t41.5 37t27 57.5t9.5 73.5v237h106v-322q0 -30 2.5 -48.5t9 -29t18 -14t28.5 -3.5v-84 v0z" />
<glyph unicode="&#x3bc;" horiz-adv-x="585" d="M553 -4q-12 -2 -23 -3t-21 -1q-61 0 -83.5 28.5t-21.5 75.5l-1 1q-20 -48 -58.5 -76.5t-95.5 -28.5q-24 0 -43.5 7.5t-30.5 22.5l12 -266h-109v741h107v-325q0 -93 74 -93q28 0 52 13t41.5 37t27 57.5t9.5 73.5v237h106v-322q0 -30 2.5 -48.5t9 -29t18 -14t28.5 -3.5v-84 v0z" />
<glyph unicode="&#xb6;" horiz-adv-x="585" d="M290 240q-59 0 -102.5 17t-71.5 47t-41.5 70t-13.5 85q0 48 16.5 87.5t47 68t72.5 44.5t93 16v-435v0zM460 591v-687h-165v84h72v687h161v-84h-68z" />
<glyph unicode="&#xb7;" horiz-adv-x="250" d="M198 297q0 -30 -21.5 -51t-51.5 -21t-51.5 21t-21.5 51q0 31 21.5 52t51.5 21t51.5 -21t21.5 -52z" />
<glyph unicode="&#x2219;" horiz-adv-x="250" d="M198 297q0 -30 -21.5 -51t-51.5 -21t-51.5 21t-21.5 51q0 31 21.5 52t51.5 21t51.5 -21t21.5 -52z" />
<glyph unicode="&#xb8;" horiz-adv-x="400" d="M257 -40q39 -52 30.5 -100t-51.5 -95h-83q38 46 44 83t-30 81l90 31v0z" />
<glyph unicode="&#xb9;" horiz-adv-x="279" d="M109 370v314l-79 -31l-16 80l111 42h86v-405h-102z" />
<glyph unicode="&#xba;" horiz-adv-x="422" d="M285 510q0 20 -3.5 37.5t-12.5 31t-23.5 21.5t-35.5 8q-14 0 -28 -5.5t-24.5 -17.5t-17 -31.5t-6.5 -46.5q0 -20 3.5 -38t11.5 -32.5t22.5 -23t35.5 -8.5q33 0 55.5 24t22.5 81zM58 195v84h304v-84h-304zM375 511q0 -42 -13 -75.5t-36 -57.5t-55 -37t-70 -13 q-34 0 -63 9.5t-50 30.5t-33 55t-12 82q0 41 13 74t36 56.5t54.5 36.5t68.5 13q32 0 61 -8.5t51.5 -29t35 -54t12.5 -82.5z" />
<glyph unicode="&#xbb;" horiz-adv-x="520" d="M145 110l-79 40l97 145l-97 142l82 41l120 -183zM359 107l-82 39l90 149l-90 146l85 40l110 -186z" />
<glyph unicode="&#xbc;" horiz-adv-x="707" d="M127 -22l-68 49l493 670l68 -49zM616 60v-60h-86v60h-153l-5 56l121 208h123v-197h47v-67h-47zM120 351v243l-60 -25l-14 73l88 33h76v-324h-90zM529 264l-81 -139q17 1 42.5 1h38.5v138z" />
<glyph unicode="&#xbd;" horiz-adv-x="725" d="M436 0v68l65 59q32 29 44 49t12 37q0 43 -44 43q-34 0 -63 -17l-10 71q20 8 46 14t54 6q60 0 86.5 -27t26.5 -69q0 -30 -14.5 -58.5t-49.5 -61.5l-43 -41q25 2 53.5 2h64.5v-75h-228zM127 -22l-68 49l493 670l68 -49zM120 351v243l-60 -25l-14 73l88 33h76v-324h-90z" />
<glyph unicode="&#xbe;" horiz-adv-x="723" d="M144 -22l-69 49l493 670l68 -49zM632 60v-60h-86v60h-153l-4 56l120 208h123v-197h48v-67h-48zM269 451q0 -49 -37 -78t-106 -29q-16 0 -35 1.5t-35 4.5l9 63q13 -4 26.5 -6.5t29.5 -2.5q24 0 40 12.5t16 32.5q0 10 -5 18.5t-17 14t-32.5 7t-50.5 -2.5v56q54 0 78 12.5 t24 35.5q0 32 -42 32q-15 0 -31.5 -3.5t-31.5 -11.5l-9 60q21 8 45.5 11.5t49.5 3.5q55 0 81.5 -22.5t26.5 -59.5q0 -54 -55 -76q28 -5 44.5 -26t16.5 -47zM545 264l-81 -139q9 0 20 0.5t22.5 0.5h22h16.5v138z" />
<glyph unicode="&#xbf;" horiz-adv-x="448" d="M358 -216q-75 2 -132 19.5t-95.5 44.5t-57.5 61.5t-19 72.5q0 42 14.5 71t36 52.5t44.5 43.5t39.5 43.5t23 54t-6.5 73.5h104q16 -48 12 -83.5t-19.5 -62.5t-37.5 -48l-43 -41t-35.5 -41.5t-14.5 -49.5q0 -48 53.5 -78.5t147.5 -34.5zM324 440q0 -28 -19.5 -47t-48.5 -19 t-49 19t-20 47q0 29 20 48t49 19t48.5 -19t19.5 -48z" />
<glyph unicode="&#xc0;" horiz-adv-x="620" d="M333 465l-15.5 47.5t-12.5 44.5h-2q-10 -42 -27 -91l-81 -230h219zM493 0l-51 149h-274l-52 -149h-110l240 675h125l243 -675h-121zM362 721l-201 55l27 79l193 -74z" />
<glyph unicode="&#xc1;" horiz-adv-x="620" d="M333 465l-15.5 47.5t-12.5 44.5h-2q-10 -42 -27 -91l-81 -230h219zM493 0l-51 149h-274l-52 -149h-110l240 675h125l243 -675h-121zM248 721l-19 60l193 74l27 -79z" />
<glyph unicode="&#xc2;" horiz-adv-x="620" d="M333 465l-15.5 47.5t-12.5 44.5h-2q-10 -42 -27 -91l-81 -230h219zM493 0l-51 149h-274l-52 -149h-110l240 675h125l243 -675h-121zM441 720l-137 58l-132 -58l-26 56l161 85l163 -81z" />
<glyph unicode="&#xc3;" horiz-adv-x="620" d="M333 465l-15.5 47.5t-12.5 44.5h-2q-10 -42 -27 -91l-81 -230h219zM493 0l-51 149h-274l-52 -149h-110l240 675h125l243 -675h-121zM491 809q-45 -77 -118 -77q-26 0 -43.5 8t-32 17l-27 17t-28.5 8q-34 0 -60 -44l-54 37q21 38 50.5 58t67.5 20q25 0 43 -8t32 -17 l27 -17t28 -8q34 0 61 44l54 -38v0z" />
<glyph unicode="&#xc4;" horiz-adv-x="620" d="M333 465l-15.5 47.5t-12.5 44.5h-2q-10 -42 -27 -91l-81 -230h219zM493 0l-51 149h-274l-52 -149h-110l240 675h125l243 -675h-121zM259 782q0 -25 -17 -41.5t-42 -16.5t-42 16.5t-17 41.5t17 42t42 17t42 -17t17 -42zM474 782q0 -25 -17 -41.5t-42 -16.5t-42 16.5 t-17 41.5t17 42t42 17t42 -17t17 -42z" />
<glyph unicode="&#xc5;" horiz-adv-x="620" d="M333 465l-15.5 47.5t-12.5 44.5h-2q-10 -42 -27 -91l-81 -230h219zM493 0l-51 149h-274l-52 -149h-110l240 675h125l243 -675h-121zM361 819q0 20 -14.5 35t-34.5 15q-21 0 -35 -15t-14 -35t14 -35t35 -15q20 0 34.5 15t14.5 35zM423 820q0 -22 -9 -41.5t-24 -34.5 t-35.5 -23.5t-43.5 -8.5q-46 0 -78 30t-32 76q0 23 9 42.5t24 33.5t35.5 22.5t42.5 8.5q47 0 79 -30t32 -75z" />
<glyph unicode="&#xc6;" horiz-adv-x="783" d="M363 583h-2l-28 -62.5t-37 -75.5l-107 -202h174v340zM363 0v157h-212l-79 -157h-113l348 675h404v-91h-242v-192h233v-89h-233v-210h250v-93h-356z" />
<glyph unicode="&#xc7;" horiz-adv-x="576" d="M533 26q-38 -16 -85 -25t-96 -9q-85 0 -144 25.5t-95.5 70t-53 104t-16.5 127.5q0 79 20 145.5t61.5 114.5t104 75t147.5 27q38 0 76.5 -5t73.5 -16l-16 -100q-70 25 -143 25q-53 0 -91.5 -19t-64 -52.5t-37.5 -79t-12 -97.5q0 -118 51.5 -182.5t162.5 -64.5q35 0 72.5 9 t66.5 23l18 -96v0zM360 -40q39 -52 30.5 -100t-51.5 -95h-83q38 46 44 83t-30 81l90 31v0z" />
<glyph unicode="&#xc8;" horiz-adv-x="498" d="M78 0v675h356v-91h-247v-192h235v-89h-235v-210h247v-93h-356zM310 721l-201 55l27 79l193 -74z" />
<glyph unicode="&#xc9;" horiz-adv-x="498" d="M78 0v675h356v-91h-247v-192h235v-89h-235v-210h247v-93h-356zM196 721l-19 60l193 74l27 -79z" />
<glyph unicode="&#xca;" horiz-adv-x="498" d="M78 0v675h356v-91h-247v-192h235v-89h-235v-210h247v-93h-356zM389 720l-137 58l-132 -58l-26 56l161 85l163 -81z" />
<glyph unicode="&#xcb;" horiz-adv-x="498" d="M78 0v675h356v-91h-247v-192h235v-89h-235v-210h247v-93h-356zM203 782q0 -25 -17 -41.5t-42 -16.5t-42 16.5t-17 41.5t17 42t42 17t42 -17t17 -42zM418 782q0 -25 -17 -41.5t-42 -16.5t-42 16.5t-17 41.5t17 42t42 17t42 -17t17 -42z" />
<glyph unicode="&#xcc;" horiz-adv-x="266" d="M78 0v675h109v-675h-109zM187 721l-201 55l27 79l193 -74z" />
<glyph unicode="&#xcd;" horiz-adv-x="266" d="M78 0v675h109v-675h-109zM82 721l-19 60l193 74l27 -79z" />
<glyph unicode="&#xce;" horiz-adv-x="266" d="M78 0v675h109v-675h-109zM268 720l-137 58l-132 -58l-26 56l161 85l163 -81z" />
<glyph unicode="&#xcf;" horiz-adv-x="266" d="M78 0v675h109v-675h-109zM85 782q0 -25 -17 -41.5t-42 -16.5t-42 16.5t-17 41.5t17 42t42 17t42 -17t17 -42zM300 782q0 -25 -17 -41.5t-42 -16.5t-42 16.5t-17 41.5t17 42t42 17t42 -17t17 -42z" />
<glyph unicode="&#xd0;" horiz-adv-x="682" d="M524 338q0 120 -55.5 185t-179.5 65q-26 0 -50 -0.5t-44 -2.5v-197h134v-83h-134v-212q23 -2 40 -3t43 -1q54 0 99.5 14.5t78.5 45.5t50.5 77.5t17.5 111.5zM640 346q0 -87 -27.5 -152.5t-77 -109.5t-118 -66t-151.5 -22q-51 0 -95 1.5t-84 2.5v305h-83v83h83v286 l95.5 2.5t114.5 1.5q80 0 143.5 -19t108 -59.5t68 -103t23.5 -150.5z" />
<glyph unicode="&#xd1;" horiz-adv-x="704" d="M481 0l-239 406q-12 21 -31 59l-35 72q1 -25 3 -65.5t2.5 -81.5t0.5 -86.5t2 -117.5v-186h-106v675h143l236 -397q27 -47 39.5 -72.5l30.5 -64.5q-2 29 -3 69t-2 88.5t-1.5 94t-0.5 111.5l-1 171h106v-675h-144zM535 809q-45 -77 -118 -77q-26 0 -43.5 8t-32 17l-27 17 t-28.5 8q-34 0 -60 -44l-54 37q21 38 50.5 58t67.5 20q25 0 43 -8t32 -17l27 -17t28 -8q34 0 61 44l54 -38v0z" />
<glyph unicode="&#xd2;" horiz-adv-x="704" d="M550 335q0 123 -51.5 188.5t-146.5 65.5q-39 0 -75 -15.5t-63 -46.5t-43.5 -77t-16.5 -107q0 -57 12 -104.5t36 -81t61 -52t87 -18.5q37 0 73 15t64.5 46t45.5 77.5t17 109.5zM666 346q0 -84 -25.5 -150t-69.5 -112t-103 -70t-126 -24q-77 0 -134 24t-95 68.5t-56.5 107 t-18.5 140.5q0 84 25.5 150t69.5 111.5t103 69.5t126 24q68 0 124 -21t96 -63.5t62 -106t22 -148.5zM403 721l-201 55l27 79l193 -74z" />
<glyph unicode="&#xd3;" horiz-adv-x="704" d="M550 335q0 123 -51.5 188.5t-146.5 65.5q-39 0 -75 -15.5t-63 -46.5t-43.5 -77t-16.5 -107q0 -57 12 -104.5t36 -81t61 -52t87 -18.5q37 0 73 15t64.5 46t45.5 77.5t17 109.5zM666 346q0 -84 -25.5 -150t-69.5 -112t-103 -70t-126 -24q-77 0 -134 24t-95 68.5t-56.5 107 t-18.5 140.5q0 84 25.5 150t69.5 111.5t103 69.5t126 24q68 0 124 -21t96 -63.5t62 -106t22 -148.5zM309 721l-19 60l193 74l27 -79z" />
<glyph unicode="&#xd4;" horiz-adv-x="704" d="M550 335q0 123 -51.5 188.5t-146.5 65.5q-39 0 -75 -15.5t-63 -46.5t-43.5 -77t-16.5 -107q0 -57 12 -104.5t36 -81t61 -52t87 -18.5q37 0 73 15t64.5 46t45.5 77.5t17 109.5zM666 346q0 -84 -25.5 -150t-69.5 -112t-103 -70t-126 -24q-77 0 -134 24t-95 68.5t-56.5 107 t-18.5 140.5q0 84 25.5 150t69.5 111.5t103 69.5t126 24q68 0 124 -21t96 -63.5t62 -106t22 -148.5zM492 720l-137 58l-132 -58l-26 56l161 85l163 -81z" />
<glyph unicode="&#xd5;" horiz-adv-x="704" d="M550 335q0 123 -51.5 188.5t-146.5 65.5q-39 0 -75 -15.5t-63 -46.5t-43.5 -77t-16.5 -107q0 -57 12 -104.5t36 -81t61 -52t87 -18.5q37 0 73 15t64.5 46t45.5 77.5t17 109.5zM666 346q0 -84 -25.5 -150t-69.5 -112t-103 -70t-126 -24q-77 0 -134 24t-95 68.5t-56.5 107 t-18.5 140.5q0 84 25.5 150t69.5 111.5t103 69.5t126 24q68 0 124 -21t96 -63.5t62 -106t22 -148.5zM533 809q-45 -77 -118 -77q-26 0 -43.5 8t-32 17l-27 17t-28.5 8q-34 0 -60 -44l-54 37q21 38 50.5 58t67.5 20q25 0 43 -8t32 -17l27 -17t28 -8q34 0 61 44l54 -38v0z" />
<glyph unicode="&#xd6;" horiz-adv-x="704" d="M550 335q0 123 -51.5 188.5t-146.5 65.5q-39 0 -75 -15.5t-63 -46.5t-43.5 -77t-16.5 -107q0 -57 12 -104.5t36 -81t61 -52t87 -18.5q37 0 73 15t64.5 46t45.5 77.5t17 109.5zM666 346q0 -84 -25.5 -150t-69.5 -112t-103 -70t-126 -24q-77 0 -134 24t-95 68.5t-56.5 107 t-18.5 140.5q0 84 25.5 150t69.5 111.5t103 69.5t126 24q68 0 124 -21t96 -63.5t62 -106t22 -148.5zM308 782q0 -25 -17 -41.5t-42 -16.5t-42 16.5t-17 41.5t17 42t42 17t42 -17t17 -42zM523 782q0 -25 -17 -41.5t-42 -16.5t-42 16.5t-17 41.5t17 42t42 17t42 -17t17 -42z " />
<glyph unicode="&#xd7;" d="M433 73l-161 162l-162 -162l-59 59l162 162l-162 161l66 66l161 -162l162 162l59 -59l-162 -162l162 -161z" />
<glyph unicode="&#xd8;" horiz-adv-x="704" d="M666 344q0 -84 -25 -150t-69 -111t-104 -69t-129 -24q-51 0 -90 10l-43 -102l-78 33l44 102q-70 41 -102 118.5t-32 178.5q0 84 25.5 150t69.5 111.5t103 69.5t126 24q22 0 43.5 -2t41.5 -6l42 99l78 -33l-41 -97q68 -37 104 -113t36 -189zM553 334q0 76 -19 130.5 t-55 83.5l-188 -456q29 -8 56 -8q41 0 78.5 15t66 46t45 78t16.5 111zM405 585q-9 3 -23.5 5t-29.5 2q-40 0 -76.5 -16t-64 -47t-44 -78t-16.5 -108q0 -59 10.5 -98.5t17 -53t15 -26.5t26.5 -30l186 450h-1z" />
<glyph unicode="&#xd9;" horiz-adv-x="687" d="M609 260q0 -136 -70 -203t-204 -67q-80 0 -130 20t-78 53.5t-38.5 76.5t-10.5 90v445h109v-437q0 -34 6.5 -63t24 -50t47.5 -33t77 -12q41 0 71.5 9t50 29.5t29 53.5t9.5 80v423h107v-415v0zM378 721l-201 55l27 79l193 -74z" />
<glyph unicode="&#xda;" horiz-adv-x="687" d="M609 260q0 -136 -70 -203t-204 -67q-80 0 -130 20t-78 53.5t-38.5 76.5t-10.5 90v445h109v-437q0 -34 6.5 -63t24 -50t47.5 -33t77 -12q41 0 71.5 9t50 29.5t29 53.5t9.5 80v423h107v-415v0zM325 721l-19 60l193 74l27 -79z" />
<glyph unicode="&#xdb;" horiz-adv-x="687" d="M609 260q0 -136 -70 -203t-204 -67q-80 0 -130 20t-78 53.5t-38.5 76.5t-10.5 90v445h109v-437q0 -34 6.5 -63t24 -50t47.5 -33t77 -12q41 0 71.5 9t50 29.5t29 53.5t9.5 80v423h107v-415v0zM479 720l-137 58l-132 -58l-26 56l161 85l163 -81z" />
<glyph unicode="&#xdc;" horiz-adv-x="687" d="M609 260q0 -136 -70 -203t-204 -67q-80 0 -130 20t-78 53.5t-38.5 76.5t-10.5 90v445h109v-437q0 -34 6.5 -63t24 -50t47.5 -33t77 -12q41 0 71.5 9t50 29.5t29 53.5t9.5 80v423h107v-415v0zM294 782q0 -25 -17 -41.5t-42 -16.5t-42 16.5t-17 41.5t17 42t42 17t42 -17 t17 -42zM509 782q0 -25 -17 -41.5t-42 -16.5t-42 16.5t-17 41.5t17 42t42 17t42 -17t17 -42z" />
<glyph unicode="&#xdd;" horiz-adv-x="548" d="M326 241v-241h-109v241l-211 434h119l100 -213q27 -60 48 -114h2q11 30 25.5 62t30.5 64l95 201h115zM249 721l-19 60l193 74l27 -79z" />
<glyph unicode="&#xde;" horiz-adv-x="537" d="M407 359q0 58 -37 94.5t-122 36.5q-15 0 -31 -1.5t-30 -3.5v-262q14 -2 30.5 -3t33.5 -1q72 0 114 35.5t42 104.5zM519 366q0 -52 -20 -95.5t-56 -74.5t-87 -48.5t-113 -17.5q-27 0 -37 0.5t-19 1.5v-132h-109v675h109v-99q19 2 37.5 2.5t41.5 0.5q118 0 185.5 -53.5 t67.5 -159.5z" />
<glyph unicode="&#xdf;" horiz-adv-x="599" d="M563 153q0 -36 -14.5 -66t-41 -51.5t-64 -33.5t-83.5 -12q-30 0 -56.5 3.5t-45.5 8.5l7 91q43 -19 91 -19q52 0 74.5 20.5t22.5 46.5q0 24 -14 40.5t-35 30t-45.5 26.5t-45.5 31.5t-35 44.5t-14 65q0 29 9.5 50t23 36.5t30 28t30 26t23 29.5t9.5 38q0 33 -23.5 49.5 t-62.5 16.5q-56 0 -87 -35.5t-31 -114.5v-503h-107v497q0 66 18 111.5t49.5 74t73.5 41t89 12.5q90 0 141 -38.5t51 -102.5q0 -33 -9.5 -55t-23.5 -38t-30.5 -27.5t-30.5 -23t-23.5 -25.5t-9.5 -35q0 -24 14 -40t35 -30t46 -27.5t46 -32t35 -44.5t14 -64z" />
<glyph unicode="&#xe0;" horiz-adv-x="523" d="M336 228q-56 0 -91 -6.5t-57 -18.5t-31.5 -28t-9.5 -34q0 -29 19 -48t49 -19q26 0 48.5 12t38.5 32t25 45t9 52v13zM343 0q0 24 1 48t4 44l-1 1q-18 -45 -62.5 -74t-102.5 -29q-63 0 -101 38.5t-38 99.5q0 83 78 127.5t215 44.5v21q0 54 -22 78.5t-76 24.5 q-35 0 -75.5 -10t-74.5 -25l-19 83q40 16 88 25.5t96 9.5q54 0 89.5 -11.5t58 -33t32.5 -53.5t10 -76v-197q0 -32 0.5 -66.5t2.5 -69.5h-103zM284 566l-164 111l54 71l153 -125z" />
<glyph unicode="&#xe1;" horiz-adv-x="523" d="M336 228q-56 0 -91 -6.5t-57 -18.5t-31.5 -28t-9.5 -34q0 -29 19 -48t49 -19q26 0 48.5 12t38.5 32t25 45t9 52v13zM343 0q0 24 1 48t4 44l-1 1q-18 -45 -62.5 -74t-102.5 -29q-63 0 -101 38.5t-38 99.5q0 83 78 127.5t215 44.5v21q0 54 -22 78.5t-76 24.5 q-35 0 -75.5 -10t-74.5 -25l-19 83q40 16 88 25.5t96 9.5q54 0 89.5 -11.5t58 -33t32.5 -53.5t10 -76v-197q0 -32 0.5 -66.5t2.5 -69.5h-103zM241 566l-42 57l152 125l54 -71z" />
<glyph unicode="&#xe2;" horiz-adv-x="523" d="M336 228q-56 0 -91 -6.5t-57 -18.5t-31.5 -28t-9.5 -34q0 -29 19 -48t49 -19q26 0 48.5 12t38.5 32t25 45t9 52v13zM343 0q0 24 1 48t4 44l-1 1q-18 -45 -62.5 -74t-102.5 -29q-63 0 -101 38.5t-38 99.5q0 83 78 127.5t215 44.5v21q0 54 -22 78.5t-76 24.5 q-35 0 -75.5 -10t-74.5 -25l-19 83q40 16 88 25.5t96 9.5q54 0 89.5 -11.5t58 -33t32.5 -53.5t10 -76v-197q0 -32 0.5 -66.5t2.5 -69.5h-103zM362 566l-101 83l-102 -83l-43 49l146 133l145 -132z" />
<glyph unicode="&#xe3;" horiz-adv-x="523" d="M336 228q-56 0 -91 -6.5t-57 -18.5t-31.5 -28t-9.5 -34q0 -29 19 -48t49 -19q26 0 48.5 12t38.5 32t25 45t9 52v13zM343 0q0 24 1 48t4 44l-1 1q-18 -45 -62.5 -74t-102.5 -29q-63 0 -101 38.5t-38 99.5q0 83 78 127.5t215 44.5v21q0 54 -22 78.5t-76 24.5 q-35 0 -75.5 -10t-74.5 -25l-19 83q40 16 88 25.5t96 9.5q54 0 89.5 -11.5t58 -33t32.5 -53.5t10 -76v-197q0 -32 0.5 -66.5t2.5 -69.5h-103zM433 669q-43 -83 -115 -83q-25 0 -42 8.5t-30.5 18.5t-25.5 18t-27 8q-33 0 -58 -46l-52 40q20 41 49 62t66 21q24 0 41 -8.5 t30.5 -18l26 -18t27.5 -8.5q32 0 58 46l52 -40v0z" />
<glyph unicode="&#xe4;" horiz-adv-x="523" d="M336 228q-56 0 -91 -6.5t-57 -18.5t-31.5 -28t-9.5 -34q0 -29 19 -48t49 -19q26 0 48.5 12t38.5 32t25 45t9 52v13zM343 0q0 24 1 48t4 44l-1 1q-18 -45 -62.5 -74t-102.5 -29q-63 0 -101 38.5t-38 99.5q0 83 78 127.5t215 44.5v21q0 54 -22 78.5t-76 24.5 q-35 0 -75.5 -10t-74.5 -25l-19 83q40 16 88 25.5t96 9.5q54 0 89.5 -11.5t58 -33t32.5 -53.5t10 -76v-197q0 -32 0.5 -66.5t2.5 -69.5h-103zM223 652q0 -26 -17.5 -43.5t-43.5 -17.5t-43 17.5t-17 43.5q0 25 17 42.5t43 17.5t43.5 -17.5t17.5 -42.5zM419 652 q0 -26 -17.5 -43.5t-42.5 -17.5q-26 0 -43.5 17.5t-17.5 43.5q0 25 17.5 42.5t43.5 17.5q25 0 42.5 -17.5t17.5 -42.5z" />
<glyph unicode="&#xe5;" horiz-adv-x="523" d="M336 228q-56 0 -91 -6.5t-57 -18.5t-31.5 -28t-9.5 -34q0 -29 19 -48t49 -19q26 0 48.5 12t38.5 32t25 45t9 52v13zM343 0q0 24 1 48t4 44l-1 1q-18 -45 -62.5 -74t-102.5 -29q-63 0 -101 38.5t-38 99.5q0 83 78 127.5t215 44.5v21q0 54 -22 78.5t-76 24.5 q-35 0 -75.5 -10t-74.5 -25l-19 83q40 16 88 25.5t96 9.5q54 0 89.5 -11.5t58 -33t32.5 -53.5t10 -76v-197q0 -32 0.5 -66.5t2.5 -69.5h-103zM317 665q0 23 -15 39t-38 16t-38.5 -16t-15.5 -39t15.5 -39t38.5 -16t38 16t15 39zM384 667q0 -24 -9.5 -45.5t-26 -37t-38.5 -25 t-47 -9.5t-46.5 8.5t-38 23.5t-26 36t-9.5 46t10 46t26.5 36.5t38.5 24.5t46 9q25 0 47 -8.5t38 -23.5t25.5 -36t9.5 -45z" />
<glyph unicode="&#xe6;" horiz-adv-x="804" d="M336 229q-56 0 -92.5 -7t-58.5 -19t-30.5 -28t-8.5 -34q0 -29 18 -48t50 -19q27 0 49.5 12t38.5 32t25 45t9 52v14zM654 314q2 54 -25 84t-75 30q-45 0 -74 -30.5t-37 -83.5h211v0zM761 292q0 -21 -3 -52h-317q-2 -85 35 -124.5t112 -39.5q37 0 73.5 7.5t69.5 22.5 l14 -84q-39 -16 -84 -24t-92 -8q-82 0 -131 30.5t-68 78.5h-1q-11 -22 -28.5 -42t-40.5 -35t-52.5 -23.5t-63.5 -8.5q-66 0 -103.5 38.5t-37.5 99.5q0 84 78 128.5t215 44.5v29q0 46 -22.5 70t-81.5 24q-35 0 -73.5 -10t-68.5 -26l-21 86q38 14 85.5 23.5t95.5 9.5 q53 0 93 -15.5t62 -54.5h1q23 30 62 50t90 20q54 0 92 -17t63 -46.5t36.5 -68.5t11.5 -83z" />
<glyph unicode="&#xe7;" horiz-adv-x="431" d="M403 17q-31 -13 -68.5 -19t-75.5 -6q-48 0 -88.5 12.5t-70 41t-46 74.5t-16.5 112q0 59 15 109t46 86.5t77.5 57t108.5 20.5q32 0 61.5 -4.5t54.5 -14.5l-18 -91q-23 9 -49.5 15t-54.5 6q-63 0 -96 -47.5t-33 -124.5q0 -34 6.5 -63.5t21.5 -51t40 -33.5t62 -12 q29 0 56.5 5.5t50.5 16.5l16 -89v0zM276 -40q39 -52 30.5 -100t-51.5 -95h-83q38 46 44 83t-30 81l90 31v0z" />
<glyph unicode="&#xe8;" horiz-adv-x="511" d="M361 310q1 57 -26.5 87t-73.5 30q-44 0 -74.5 -30.5t-37.5 -86.5h212v0zM468 300q0 -32 -4 -64h-316q-2 -81 33.5 -120.5t113.5 -39.5q36 0 72.5 7.5t70.5 21.5l14 -83q-43 -16 -86 -24t-90 -8q-115 0 -176 61.5t-62 193.5q0 56 15.5 103.5t44 82.5t72 55.5t97.5 20.5 q51 0 89 -15.5t63 -44t37 -66t12 -81.5zM286 566l-164 111l54 71l153 -125z" />
<glyph unicode="&#xe9;" horiz-adv-x="511" d="M361 310q1 57 -26.5 87t-73.5 30q-44 0 -74.5 -30.5t-37.5 -86.5h212v0zM468 300q0 -32 -4 -64h-316q-2 -81 33.5 -120.5t113.5 -39.5q36 0 72.5 7.5t70.5 21.5l14 -83q-43 -16 -86 -24t-90 -8q-115 0 -176 61.5t-62 193.5q0 56 15.5 103.5t44 82.5t72 55.5t97.5 20.5 q51 0 89 -15.5t63 -44t37 -66t12 -81.5zM240 566l-42 57l152 125l54 -71z" />
<glyph unicode="&#xea;" horiz-adv-x="511" d="M361 310q1 57 -26.5 87t-73.5 30q-44 0 -74.5 -30.5t-37.5 -86.5h212v0zM468 300q0 -32 -4 -64h-316q-2 -81 33.5 -120.5t113.5 -39.5q36 0 72.5 7.5t70.5 21.5l14 -83q-43 -16 -86 -24t-90 -8q-115 0 -176 61.5t-62 193.5q0 56 15.5 103.5t44 82.5t72 55.5t97.5 20.5 q51 0 89 -15.5t63 -44t37 -66t12 -81.5zM365 566l-101 83l-102 -83l-43 49l146 133l145 -132z" />
<glyph unicode="&#xeb;" horiz-adv-x="511" d="M361 310q1 57 -26.5 87t-73.5 30q-44 0 -74.5 -30.5t-37.5 -86.5h212v0zM468 300q0 -32 -4 -64h-316q-2 -81 33.5 -120.5t113.5 -39.5q36 0 72.5 7.5t70.5 21.5l14 -83q-43 -16 -86 -24t-90 -8q-115 0 -176 61.5t-62 193.5q0 56 15.5 103.5t44 82.5t72 55.5t97.5 20.5 q51 0 89 -15.5t63 -44t37 -66t12 -81.5zM227 652q0 -26 -17.5 -43.5t-43.5 -17.5t-43 17.5t-17 43.5q0 25 17 42.5t43 17.5t43.5 -17.5t17.5 -42.5zM423 652q0 -26 -17.5 -43.5t-42.5 -17.5q-26 0 -43.5 17.5t-17.5 43.5q0 25 17.5 42.5t43.5 17.5q25 0 42.5 -17.5 t17.5 -42.5z" />
<glyph unicode="&#xec;" horiz-adv-x="263" d="M78 0v497h107v-497h-107zM155 556l-145 138l65 61l133 -148z" />
<glyph unicode="&#xed;" horiz-adv-x="263" d="M78 0v497h107v-497h-107zM105 556l-50 50l132 149l63 -61z" />
<glyph unicode="&#xee;" horiz-adv-x="263" d="M78 0v497h107v-497h-107zM220 566l-88 83l-90 -83l-40 49l131 133l130 -132z" />
<glyph unicode="&#xef;" horiz-adv-x="263" d="M78 0v497h107v-497h-107zM283 652q0 -26 -17.5 -43.5t-43.5 -17.5q-25 0 -42.5 17.5t-17.5 43.5q0 25 17.5 42.5t42.5 17.5q26 0 43.5 -17t17.5 -43zM103 652q0 -26 -17 -43.5t-43 -17.5t-43.5 17.5t-17.5 43.5q0 25 17.5 42.5t43.5 17.5t43 -17t17 -43z" />
<glyph unicode="&#xf0;" d="M399 261q0 72 -31 114t-94 42q-25 0 -47.5 -10t-40 -30.5t-28.5 -51.5t-11 -74q0 -82 35 -125.5t96 -43.5q25 0 47.5 10t38.5 32t25.5 55.5t9.5 81.5zM510 275q0 -72 -19 -126t-52 -89t-77 -52.5t-95 -17.5t-93.5 15t-72.5 46.5t-47 78.5t-17 112q0 57 17 105.5 t48.5 83.5t75 54.5t96.5 19.5q28 0 54 -9t40 -30l-15.5 26.5l-12.5 20.5q-11 19 -25 38.5t-34 39.5l-98 -43l-44 52l90 40q-17 15 -36.5 30l-42.5 32l106 45q19 -15 37 -31t35 -33l95 41l44 -53l-92 -40q65 -78 100 -168t35 -188z" />
<glyph unicode="&#xf1;" horiz-adv-x="573" d="M389 0v319q0 47 -15.5 73t-58.5 26q-28 0 -52 -14t-41 -38t-27 -57t-10 -70v-239h-107v497h102q0 -20 -1.5 -48.5t-5.5 -49.5h1q22 48 66 78t107 30q42 0 70.5 -12.5t46 -34.5t24.5 -50.5t7 -61.5v-348h-106zM465 669q-43 -83 -115 -83q-25 0 -42 8.5t-30.5 18.5 t-25.5 18t-27 8q-33 0 -58 -46l-52 40q20 41 49 62t66 21q24 0 41 -8.5t30.5 -18l26 -18t27.5 -8.5q32 0 58 46l52 -40v0z" />
<glyph unicode="&#xf2;" horiz-adv-x="549" d="M402 251q0 80 -31 123t-95 43q-24 0 -47 -9.5t-41 -29.5t-29 -51t-11 -74q0 -85 32 -128t95 -43q26 0 49 10t40.5 31t27.5 53t10 75zM512 258q0 -57 -18 -106t-50.5 -85t-78 -56.5t-100.5 -20.5q-52 0 -94 15t-72 45.5t-46 78t-16 113.5q0 56 17.5 104.5t50 84t78 56 t102.5 20.5q50 0 91.5 -14.5t71.5 -44.5t47 -77t17 -113zM301 566l-164 111l54 71l153 -125z" />
<glyph unicode="&#xf3;" horiz-adv-x="549" d="M402 251q0 80 -31 123t-95 43q-24 0 -47 -9.5t-41 -29.5t-29 -51t-11 -74q0 -85 32 -128t95 -43q26 0 49 10t40.5 31t27.5 53t10 75zM512 258q0 -57 -18 -106t-50.5 -85t-78 -56.5t-100.5 -20.5q-52 0 -94 15t-72 45.5t-46 78t-16 113.5q0 56 17.5 104.5t50 84t78 56 t102.5 20.5q50 0 91.5 -14.5t71.5 -44.5t47 -77t17 -113zM253 566l-42 57l152 125l54 -71z" />
<glyph unicode="&#xf4;" horiz-adv-x="549" d="M402 251q0 80 -31 123t-95 43q-24 0 -47 -9.5t-41 -29.5t-29 -51t-11 -74q0 -85 32 -128t95 -43q26 0 49 10t40.5 31t27.5 53t10 75zM512 258q0 -57 -18 -106t-50.5 -85t-78 -56.5t-100.5 -20.5q-52 0 -94 15t-72 45.5t-46 78t-16 113.5q0 56 17.5 104.5t50 84t78 56 t102.5 20.5q50 0 91.5 -14.5t71.5 -44.5t47 -77t17 -113zM378 566l-101 83l-102 -83l-43 49l146 133l145 -132z" />
<glyph unicode="&#xf5;" horiz-adv-x="549" d="M402 251q0 80 -31 123t-95 43q-24 0 -47 -9.5t-41 -29.5t-29 -51t-11 -74q0 -85 32 -128t95 -43q26 0 49 10t40.5 31t27.5 53t10 75zM512 258q0 -57 -18 -106t-50.5 -85t-78 -56.5t-100.5 -20.5q-52 0 -94 15t-72 45.5t-46 78t-16 113.5q0 56 17.5 104.5t50 84t78 56 t102.5 20.5q50 0 91.5 -14.5t71.5 -44.5t47 -77t17 -113zM456 669q-43 -83 -115 -83q-25 0 -42 8.5t-30.5 18.5t-25.5 18t-27 8q-33 0 -58 -46l-52 40q20 41 49 62t66 21q24 0 41 -8.5t30.5 -18l26 -18t27.5 -8.5q32 0 58 46l52 -40v0z" />
<glyph unicode="&#xf6;" horiz-adv-x="549" d="M402 251q0 80 -31 123t-95 43q-24 0 -47 -9.5t-41 -29.5t-29 -51t-11 -74q0 -85 32 -128t95 -43q26 0 49 10t40.5 31t27.5 53t10 75zM512 258q0 -57 -18 -106t-50.5 -85t-78 -56.5t-100.5 -20.5q-52 0 -94 15t-72 45.5t-46 78t-16 113.5q0 56 17.5 104.5t50 84t78 56 t102.5 20.5q50 0 91.5 -14.5t71.5 -44.5t47 -77t17 -113zM240 652q0 -26 -17.5 -43.5t-43.5 -17.5t-43 17.5t-17 43.5q0 25 17 42.5t43 17.5t43.5 -17.5t17.5 -42.5zM436 652q0 -26 -17.5 -43.5t-42.5 -17.5q-26 0 -43.5 17.5t-17.5 43.5q0 25 17.5 42.5t43.5 17.5 q25 0 42.5 -17.5t17.5 -42.5z" />
<glyph unicode="&#xf7;" d="M342 96q0 -28 -19.5 -48t-48.5 -20t-49 20t-20 48q0 29 20 49t49 20t48.5 -20t19.5 -49zM41 253v89h468v-89h-468zM342 498q0 -29 -19.5 -48.5t-48.5 -19.5t-49 19.5t-20 48.5t20 48.5t49 19.5t48.5 -19.5t19.5 -48.5z" />
<glyph unicode="&#xf8;" d="M513 258q0 -57 -17.5 -106t-50 -85t-78 -56.5t-101.5 -20.5q-41 0 -79 11l-46 -100l-63 27l47 101q-46 32 -67 87t-21 126q0 56 17 104.5t49.5 84t78.5 56t103 20.5q17 0 33 -2t31 -5l43 90l62 -27l-42 -89q45 -27 73 -79t28 -137zM410 251q0 94 -49 130l-129 -298 q18 -7 44 -7q57 0 95.5 43t38.5 132zM305 420q-14 3 -29 3q-25 0 -49 -9t-43.5 -29.5t-31.5 -53t-12 -78.5q0 -41 9.5 -73t29.5 -52z" />
<glyph unicode="&#xf9;" horiz-adv-x="573" d="M393 0q0 20 1.5 48.5t5.5 49.5h-1q-22 -48 -66 -78t-107 -30q-42 0 -70.5 12.5t-46 34.5t-24.5 50.5t-7 61.5v348h106v-319q0 -47 15.5 -73t58.5 -26q28 0 52 14t41 38t27 56.5t10 70.5v239h107v-497h-102zM304 566l-164 111l54 71l153 -125z" />
<glyph unicode="&#xfa;" horiz-adv-x="573" d="M393 0q0 20 1.5 48.5t5.5 49.5h-1q-22 -48 -66 -78t-107 -30q-42 0 -70.5 12.5t-46 34.5t-24.5 50.5t-7 61.5v348h106v-319q0 -47 15.5 -73t58.5 -26q28 0 52 14t41 38t27 56.5t10 70.5v239h107v-497h-102zM271 566l-42 57l152 125l54 -71z" />
<glyph unicode="&#xfb;" horiz-adv-x="573" d="M393 0q0 20 1.5 48.5t5.5 49.5h-1q-22 -48 -66 -78t-107 -30q-42 0 -70.5 12.5t-46 34.5t-24.5 50.5t-7 61.5v348h106v-319q0 -47 15.5 -73t58.5 -26q28 0 52 14t41 38t27 56.5t10 70.5v239h107v-497h-102zM386 566l-101 83l-102 -83l-43 49l146 133l145 -132z" />
<glyph unicode="&#xfc;" horiz-adv-x="573" d="M393 0q0 20 1.5 48.5t5.5 49.5h-1q-22 -48 -66 -78t-107 -30q-42 0 -70.5 12.5t-46 34.5t-24.5 50.5t-7 61.5v348h106v-319q0 -47 15.5 -73t58.5 -26q28 0 52 14t41 38t27 56.5t10 70.5v239h107v-497h-102zM249 652q0 -26 -17.5 -43.5t-43.5 -17.5t-43 17.5t-17 43.5 q0 25 17 42.5t43 17.5t43.5 -17.5t17.5 -42.5zM445 652q0 -26 -17.5 -43.5t-42.5 -17.5q-26 0 -43.5 17.5t-17.5 43.5q0 25 17.5 42.5t43.5 17.5q25 0 42.5 -17.5t17.5 -42.5z" />
<glyph unicode="&#xfd;" horiz-adv-x="490" d="M283 -35q-23 -62 -48 -104t-53.5 -67t-63 -35.5t-76.5 -10.5q-14 0 -32 2t-31 4l12 93q13 -4 29.5 -6t31.5 -2q18 0 34.5 5t32.5 17.5t30.5 34.5t26.5 55l18 49l-186 497h12h108l81 -227q12 -33 21.5 -65.5t17.5 -64.5h1q8 30 21.5 73.5t27.5 81.5l71 202h103h12z M233 566l-42 57l152 125l54 -71z" />
<glyph unicode="&#xfe;" horiz-adv-x="558" d="M406 263q0 75 -23.5 115.5t-74.5 40.5q-30 0 -53 -16t-38.5 -41.5t-23.5 -57.5t-8 -64v-153q33 -10 78 -10q32 0 58.5 10t45 32.5t29 58t10.5 85.5zM519 273q0 -132 -67 -206t-192 -74q-21 0 -38 1t-37 5v-243h-107v974h107v-212q0 -26 -1.5 -56t-4.5 -51h2 q20 43 59 69.5t96 26.5q89 0 136 -60.5t47 -173.5z" />
<glyph unicode="&#xff;" horiz-adv-x="490" d="M283 -35q-23 -62 -48 -104t-53.5 -67t-63 -35.5t-76.5 -10.5q-14 0 -32 2t-31 4l12 93q13 -4 29.5 -6t31.5 -2q18 0 34.5 5t32.5 17.5t30.5 34.5t26.5 55l18 49l-186 497h12h108l81 -227q12 -33 21.5 -65.5t17.5 -64.5h1q8 30 21.5 73.5t27.5 81.5l71 202h103h12z M212 652q0 -26 -17.5 -43.5t-43.5 -17.5t-43 17.5t-17 43.5q0 25 17 42.5t43 17.5t43.5 -17.5t17.5 -42.5zM408 652q0 -26 -17.5 -43.5t-42.5 -17.5q-26 0 -43.5 17.5t-17.5 43.5q0 25 17.5 42.5t43.5 17.5q25 0 42.5 -17.5t17.5 -42.5z" />
<glyph unicode="&#x100;" horiz-adv-x="620" d="M333 465l-15.5 47.5t-12.5 44.5h-2q-10 -42 -27 -91l-81 -230h219zM493 0l-51 149h-274l-52 -149h-110l240 675h125l243 -675h-121zM165 745v70h283v-70h-283z" />
<glyph unicode="&#x101;" horiz-adv-x="523" d="M336 228q-56 0 -91 -6.5t-57 -18.5t-31.5 -28t-9.5 -34q0 -29 19 -48t49 -19q26 0 48.5 12t38.5 32t25 45t9 52v13zM343 0q0 24 1 48t4 44l-1 1q-18 -45 -62.5 -74t-102.5 -29q-63 0 -101 38.5t-38 99.5q0 83 78 127.5t215 44.5v21q0 54 -22 78.5t-76 24.5 q-35 0 -75.5 -10t-74.5 -25l-19 83q40 16 88 25.5t96 9.5q54 0 89.5 -11.5t58 -33t32.5 -53.5t10 -76v-197q0 -32 0.5 -66.5t2.5 -69.5h-103zM132 609v78h259v-78h-259z" />
<glyph unicode="&#x102;" horiz-adv-x="620" d="M333 465l-15.5 47.5t-12.5 44.5h-2q-10 -42 -27 -91l-81 -230h219zM493 0l-51 149h-274l-52 -149h-110l240 675h125l243 -675h-121zM442 855q0 -27 -9 -50t-26.5 -40.5t-43 -27.5t-58.5 -10t-58 10t-41.5 27.5t-25 41t-8.5 49.5h65q0 -25 19.5 -42t49.5 -17q32 0 50.5 17 t18.5 42h67v0z" />
<glyph unicode="&#x103;" horiz-adv-x="523" d="M336 228q-56 0 -91 -6.5t-57 -18.5t-31.5 -28t-9.5 -34q0 -29 19 -48t49 -19q26 0 48.5 12t38.5 32t25 45t9 52v13zM343 0q0 24 1 48t4 44l-1 1q-18 -45 -62.5 -74t-102.5 -29q-63 0 -101 38.5t-38 99.5q0 83 78 127.5t215 44.5v21q0 54 -22 78.5t-76 24.5 q-35 0 -75.5 -10t-74.5 -25l-19 83q40 16 88 25.5t96 9.5q54 0 89.5 -11.5t58 -33t32.5 -53.5t10 -76v-197q0 -32 0.5 -66.5t2.5 -69.5h-103zM395 719q0 -28 -7 -52.5t-23.5 -45.5t-41.5 -33t-60 -12q-34 0 -59 12t-40.5 32.5t-22.5 45.5t-7 53h71q0 -28 15 -46.5t44 -18.5 q27 0 43 16.5t16 48.5h72v0z" />
<glyph unicode="&#x104;" horiz-adv-x="620" d="M644 -151q-23 -32 -55.5 -49.5t-73.5 -17.5q-51 0 -77 23.5t-26 61.5q0 30 19.5 65.5t61.5 67.5l-51 149h-274l-52 -149h-110l240 675h125l243 -675q-51 -23 -74.5 -50t-23.5 -52q0 -32 34 -32q28 0 50 31zM333 465l-15.5 48t-12.5 44h-2q-5 -21 -12 -44l-15 -47 l-81 -230h219z" />
<glyph unicode="&#x105;" horiz-adv-x="523" d="M497 -146q-24 -35 -59 -53.5t-74 -18.5q-43 0 -69.5 21t-26.5 64q0 45 27 80.5t61 60.5q-4 20 -6 41t-2 40l-1 1q-20 -43 -63 -71.5t-102 -28.5q-64 0 -101.5 38.5t-37.5 99.5q0 84 78 128.5t215 44.5v29q0 46 -21.5 70t-76.5 24q-35 0 -76 -10t-74 -24l-19 83 q38 15 86 24.5t98 9.5q55 0 92 -12t58.5 -33.5t30.5 -52t9 -67.5v-171q0 -45 4 -89t12 -82q-48 -26 -69 -51.5t-21 -48.5q0 -31 34 -31q29 0 50 32zM336 229q-56 0 -92.5 -7t-58.5 -19t-30.5 -28t-8.5 -34q0 -29 18 -48t50 -19q27 0 49.5 12t38.5 32t25 45t9 52v14z" />
<glyph unicode="&#x106;" horiz-adv-x="576" d="M533 26q-38 -16 -85 -25t-96 -9q-85 0 -144 25.5t-95.5 70t-53 104t-16.5 127.5q0 79 20 145.5t61.5 114.5t104 75t147.5 27q38 0 76.5 -5t73.5 -16l-16 -100q-70 25 -143 25q-53 0 -91.5 -19t-64 -52.5t-37.5 -79t-12 -97.5q0 -118 51.5 -182.5t162.5 -64.5q35 0 72.5 9 t66.5 23l18 -96v0zM297 721l-19 60l193 74l27 -79z" />
<glyph unicode="&#x107;" horiz-adv-x="431" d="M403 17q-31 -13 -68.5 -19t-75.5 -6q-48 0 -88.5 12.5t-70 41t-46 74.5t-16.5 112q0 59 15 109t46 86.5t77.5 57t108.5 20.5q32 0 61.5 -4.5t54.5 -14.5l-18 -91q-23 9 -49.5 15t-54.5 6q-63 0 -96 -47.5t-33 -124.5q0 -34 6.5 -63.5t21.5 -51t40 -33.5t62 -12 q29 0 56.5 5.5t50.5 16.5l16 -89v0zM232 566l-42 57l152 125l54 -71z" />
<glyph unicode="&#x10c;" horiz-adv-x="576" d="M533 26q-38 -16 -85 -25t-96 -9q-85 0 -144 25.5t-95.5 70t-53 104t-16.5 127.5q0 79 20 145.5t61.5 114.5t104 75t147.5 27q38 0 76.5 -5t73.5 -16l-16 -100q-70 25 -143 25q-53 0 -91.5 -19t-64 -52.5t-37.5 -79t-12 -97.5q0 -118 51.5 -182.5t162.5 -64.5q35 0 72.5 9 t66.5 23l18 -96v0zM345 720l-162 81l28 60l138 -59l131 58l26 -55z" />
<glyph unicode="&#x10d;" horiz-adv-x="431" d="M403 17q-31 -13 -68.5 -19t-75.5 -6q-48 0 -88.5 12.5t-70 41t-46 74.5t-16.5 112q0 59 15 109t46 86.5t77.5 57t108.5 20.5q32 0 61.5 -4.5t54.5 -14.5l-18 -91q-23 9 -49.5 15t-54.5 6q-63 0 -96 -47.5t-33 -124.5q0 -34 6.5 -63.5t21.5 -51t40 -33.5t62 -12 q29 0 56.5 5.5t50.5 16.5l16 -89v0zM259 566l-145 132l45 50l101 -83l101 83l44 -49z" />
<glyph unicode="&#x10e;" horiz-adv-x="673" d="M515 339q0 125 -58.5 187t-177.5 62q-25 0 -44.5 -0.5t-47.5 -1.5v-492q17 -2 39 -3.5t42 -1.5q54 0 99.5 14.5t78.5 45.5t51 78t18 112zM631 347q0 -87 -27.5 -152.5t-77 -110t-118.5 -66.5t-151 -22q-43 0 -78 1l-101 3v674l102.5 2.5t106.5 1.5q80 0 143.5 -19 t108 -59t68.5 -102.5t24 -150.5zM297 720l-162 81l28 60l138 -59l131 58l26 -55z" />
<glyph unicode="&#x10f;" horiz-adv-x="598" d="M373 411q-41 9 -79 9q-64 0 -103.5 -43t-39.5 -143q0 -75 24 -115.5t75 -40.5q30 0 52.5 16t38.5 41.5t24 57.5t8 64v154zM378 0q0 20 1.5 46t5.5 47h-2q-20 -46 -62 -74.5t-100 -28.5q-92 0 -137.5 63t-45.5 171q0 64 18 116t51.5 88.5t82 56.5t108.5 20q18 0 36.5 -1 t38.5 -3v229h106v-730h-101zM592 559l-70 18l53 191l87 -21z" />
<glyph unicode="&#x110;" horiz-adv-x="682" d="M524 338q0 120 -55.5 185t-179.5 65q-26 0 -50 -0.5t-44 -2.5v-197h134v-83h-134v-212q23 -2 40 -3t43 -1q54 0 99.5 14.5t78.5 45.5t50.5 77.5t17.5 111.5zM640 346q0 -87 -27.5 -152.5t-77 -109.5t-118 -66t-151.5 -22q-51 0 -95 1.5t-84 2.5v305h-83v83h83v286 l95.5 2.5t114.5 1.5q80 0 143.5 -19t108 -59.5t68 -103t23.5 -150.5z" />
<glyph unicode="&#x111;" horiz-adv-x="557" d="M378 0q0 20 1.5 46t5.5 47h-2q-20 -46 -62 -74.5t-100 -28.5q-92 0 -137.5 63t-45.5 171q0 64 18 116t51.5 88.5t82 56.5t108.5 20q18 0 36.5 -1t38.5 -3v86h-111v70h111v73h106v-73h67v-70h-67v-587h-101zM373 411q-41 9 -79 9q-64 0 -103.5 -43t-39.5 -143 q0 -75 24 -115.5t75 -40.5q30 0 52.5 16t38.5 41.5t24 57.5t8 64v154z" />
<glyph unicode="&#x112;" horiz-adv-x="498" d="M113 745v70h283v-70h-283zM78 0v675h356v-91h-247v-192h235v-89h-235v-210h247v-93h-356z" />
<glyph unicode="&#x113;" horiz-adv-x="511" d="M361 310q1 57 -26.5 87t-73.5 30q-44 0 -74.5 -30.5t-37.5 -86.5h212v0zM468 300q0 -32 -4 -64h-316q-2 -81 33.5 -120.5t113.5 -39.5q36 0 72.5 7.5t70.5 21.5l14 -83q-43 -16 -86 -24t-90 -8q-115 0 -176 61.5t-62 193.5q0 56 15.5 103.5t44 82.5t72 55.5t97.5 20.5 q51 0 89 -15.5t63 -44t37 -66t12 -81.5zM130 609v78h259v-78h-259z" />
<glyph unicode="&#x116;" horiz-adv-x="498" d="M78 0v675h356v-91h-247v-192h235v-89h-235v-210h247v-93h-356zM320 783q0 -25 -18 -42.5t-44 -17.5t-44 17t-18 43q0 25 18 43t44 18t44 -17.5t18 -43.5z" />
<glyph unicode="&#x117;" horiz-adv-x="511" d="M361 310q1 57 -26.5 87t-73.5 30q-44 0 -74.5 -30.5t-37.5 -86.5h212v0zM468 300q0 -32 -4 -64h-316q-2 -81 33.5 -120.5t113.5 -39.5q36 0 72.5 7.5t70.5 21.5l14 -83q-43 -16 -86 -24t-90 -8q-115 0 -176 61.5t-62 193.5q0 56 15.5 103.5t44 82.5t72 55.5t97.5 20.5 q51 0 89 -15.5t63 -44t37 -66t12 -81.5zM332 652q0 -28 -20 -47.5t-49 -19.5t-48.5 19t-19.5 48q0 28 19.5 47.5t48.5 19.5t49 -19.5t20 -47.5z" />
<glyph unicode="&#x118;" horiz-adv-x="498" d="M469 -151q-23 -32 -55.5 -49.5t-73.5 -17.5q-51 0 -78.5 23.5t-27.5 61.5q0 34 21 70t57 63h-234v675h354v-91h-245v-192h233v-89h-233v-210h251v-90q-46 -14 -71.5 -45t-25.5 -60q0 -32 34 -32q28 0 50 31l44 -48v0z" />
<glyph unicode="&#x119;" horiz-adv-x="511" d="M452 22q-34 -10 -59 -25t-41 -32t-24 -34.5t-8 -32.5t8.5 -23.5t23.5 -8.5t31.5 7.5t28.5 21.5l35 -56q-23 -27 -56 -42t-73 -15q-25 0 -44.5 6.5t-32 17.5t-19 26.5t-6.5 34.5q0 28 18 63t55 64q-15 -2 -20 -2h-8q-45 0 -85.5 13t-70.5 42.5t-48.5 78t-18.5 119.5 q0 55 15.5 103.5t45 83.5t72 55t96.5 20q53 0 91.5 -16.5t62.5 -44.5t35.5 -66t11.5 -80q0 -12 -0.5 -28.5t-3.5 -32.5h-316q-2 -84 34.5 -123.5t112.5 -39.5q36 0 72.5 7.5t70.5 21.5zM361 313q2 53 -25.5 83.5t-74.5 30.5q-45 0 -74.5 -31t-36.5 -83h211z" />
<glyph unicode="&#x11a;" horiz-adv-x="498" d="M78 0v675h356v-91h-247v-192h235v-89h-235v-210h247v-93h-356zM254 720l-162 81l28 60l138 -59l131 58l26 -55z" />
<glyph unicode="&#x11b;" horiz-adv-x="511" d="M361 310q1 57 -26.5 87t-73.5 30q-44 0 -74.5 -30.5t-37.5 -86.5h212v0zM468 300q0 -32 -4 -64h-316q-2 -81 33.5 -120.5t113.5 -39.5q36 0 72.5 7.5t70.5 21.5l14 -83q-43 -16 -86 -24t-90 -8q-115 0 -176 61.5t-62 193.5q0 56 15.5 103.5t44 82.5t72 55.5t97.5 20.5 q51 0 89 -15.5t63 -44t37 -66t12 -81.5zM263 566l-145 132l45 50l101 -83l101 83l44 -49z" />
<glyph unicode="&#x11e;" horiz-adv-x="679" d="M604 31q-51 -20 -109.5 -30.5t-116.5 -10.5q-78 0 -142.5 23t-108.5 65.5t-65.5 104.5t-21.5 138q0 80 24 146.5t69 114.5t117 75t158 27q51 0 99 -7.5t90 -20.5l-23 -100q-40 16 -83 24.5t-91 8.5q-51 0 -98 -16.5t-78.5 -48.5t-49 -79.5t-17.5 -110.5 q0 -118 62.5 -182.5t171.5 -64.5q29 0 55 4t49 12v245h109v-317v0zM523 855q0 -27 -9 -50t-26.5 -40.5t-43 -27.5t-58.5 -10t-58 10t-41.5 27.5t-25 41t-8.5 49.5h65q0 -25 19.5 -42t49.5 -17q32 0 50.5 17t18.5 42h67v0z" />
<glyph unicode="&#x11f;" horiz-adv-x="543" d="M409 -75q0 32 -22 52t-70 22l-91 3l-26 1q-27 -19 -42 -41t-15 -48q0 -40 34 -62.5t88 -22.5q70 0 107 27.5t37 68.5zM365 328q0 46 -26.5 73t-76.5 27q-51 0 -78.5 -28.5t-27.5 -71.5q0 -47 26.5 -73t77.5 -26q49 0 77 26t28 73zM515 -60q0 -40 -19 -75.5t-54.5 -61.5 t-84.5 -41.5t-109 -15.5q-98 0 -154.5 38t-56.5 111q0 41 24.5 75.5t56.5 52.5q-23 10 -36 29.5t-13 45.5q0 27 15.5 50.5t41.5 35.5q-35 20 -54.5 53.5t-19.5 82.5q0 37 14 71t41 60t67 41t93 15q22 0 38.5 -2.5t36.5 -7.5h169v-84h-76q33 -28 33 -79q0 -39 -13 -72 t-39.5 -57t-66 -37.5t-92.5 -13.5q-14 0 -24.5 1.5t-22.5 4.5q-14 -7 -21.5 -17t-7.5 -20q0 -20 18.5 -27t63.5 -9l84 -3q81 -3 124.5 -39t43.5 -105zM397 719q0 -28 -7 -52.5t-23.5 -45.5t-41.5 -33t-60 -12q-34 0 -59 12t-40.5 32.5t-22.5 45.5t-7 53h71q0 -28 15 -46.5 t44 -18.5q27 0 43 16.5t16 48.5h72v0z" />
<glyph unicode="&#x122;" horiz-adv-x="679" d="M604 31q-51 -20 -109.5 -30.5t-116.5 -10.5q-78 0 -142.5 23t-108.5 65.5t-65.5 104.5t-21.5 138q0 80 24 146.5t69 114.5t117 75t158 27q51 0 99 -7.5t90 -20.5l-23 -100q-40 16 -83 24.5t-91 8.5q-51 0 -98 -16.5t-78.5 -48.5t-49 -79.5t-17.5 -110.5 q0 -118 62.5 -182.5t171.5 -64.5q29 0 55 4t49 12v245h109v-317v0zM376 -48q26 0 42 -20.5t12.5 -50t-31.5 -63t-91 -59.5l-22 39q38 26 44.5 46t-1.5 37q-6 13 -5 25.5t7.5 22.5t18 16.5t26.5 6.5z" />
<glyph unicode="&#x123;" horiz-adv-x="543" d="M409 -75q0 32 -22 52t-70 22l-91 3l-26 1q-27 -19 -42 -41t-15 -48q0 -40 34 -62.5t88 -22.5q70 0 107 27.5t37 68.5zM365 328q0 46 -26.5 73t-76.5 27q-51 0 -78.5 -28.5t-27.5 -71.5q0 -47 26.5 -73t77.5 -26q49 0 77 26t28 73zM515 -60q0 -40 -19 -75.5t-54.5 -61.5 t-84.5 -41.5t-109 -15.5q-98 0 -154.5 38t-56.5 111q0 41 24.5 75.5t56.5 52.5q-23 10 -36 29.5t-13 45.5q0 27 15.5 50.5t41.5 35.5q-35 20 -54.5 53.5t-19.5 82.5q0 37 14 71t41 60t67 41t93 15q22 0 38.5 -2.5t36.5 -7.5h169v-84h-76q33 -28 33 -79q0 -39 -13 -72 t-39.5 -57t-66 -37.5t-92.5 -13.5q-14 0 -24.5 1.5t-22.5 4.5q-14 -7 -21.5 -17t-7.5 -20q0 -20 18.5 -27t63.5 -9l84 -3q81 -3 124.5 -39t43.5 -105zM253 564q-24 0 -39.5 17.5t-15.5 44.5q0 15 6 32.5t20.5 35t38 34t58.5 29.5l22 -40q-28 -17 -38 -32t-10 -29 q0 -15 5.5 -21.5t5.5 -20.5q0 -23 -15 -36.5t-38 -13.5z" />
<glyph unicode="&#x12a;" horiz-adv-x="266" d="M78 0v675h109v-675h-109zM-7 745v70h283v-70h-283z" />
<glyph unicode="&#x12b;" horiz-adv-x="263" d="M78 0v497h107v-497h-107zM10 609v78h245v-78h-245z" />
<glyph unicode="&#x12e;" horiz-adv-x="266" d="M225 -147q-24 -35 -59 -53t-74 -18q-43 0 -69.5 21t-26.5 64q0 42 25.5 78t56.5 59v671h109v-675q-49 -26 -69.5 -52t-20.5 -49q0 -16 9.5 -23.5t24.5 -7.5q28 0 49 32l45 -47v0z" />
<glyph unicode="&#x12f;" horiz-adv-x="263" d="M200 652q0 -28 -20 -47.5t-48 -19.5q-29 0 -49 19t-20 48q0 28 20 47.5t49 19.5q28 0 48 -19.5t20 -47.5zM223 -147q-24 -35 -59 -53t-74 -18q-43 0 -69.5 21t-26.5 64q0 38 23 74.5t61 62.5v493h107v-497q-49 -26 -69.5 -52t-20.5 -49q0 -16 9.5 -23.5t24.5 -7.5 q28 0 50 32z" />
<glyph unicode="&#x130;" horiz-adv-x="266" d="M78 0v675h109v-675h-109zM196 783q0 -25 -18 -42.5t-44 -17.5t-44 17t-18 43q0 25 18 43t44 18t44 -17.5t18 -43.5z" />
<glyph unicode="&#x131;" horiz-adv-x="263" d="M78 0v497h107v-497h-107z" />
<glyph unicode="&#x136;" horiz-adv-x="590" d="M432 0l-245 330v-330h-109v675h109v-313l246 313h134l-268 -326l278 -349h-145zM300 -48q26 0 42 -20.5t12.5 -50t-31.5 -63t-91 -59.5l-22 39q38 26 44.5 46t-1.5 37q-6 13 -5 25.5t7.5 22.5t18 16.5t26.5 6.5z" />
<glyph unicode="&#x137;" horiz-adv-x="506" d="M355 0l-170 252v-252h-107v730h107v-446l161 213h131l-184 -227l198 -270h-136zM261 -48q26 0 42 -20.5t12.5 -50t-31.5 -63t-91 -59.5l-22 39q38 26 44.5 46t-1.5 37q-6 13 -5 25.5t7.5 22.5t18 16.5t26.5 6.5z" />
<glyph unicode="&#x139;" horiz-adv-x="427" d="M78 0v675h109v-580h232v-95h-341zM139 721l-19 60l193 74l27 -79z" />
<glyph unicode="&#x13a;" horiz-adv-x="263" d="M78 0v730h107v-730h-107zM95 756l-19 60l193 74l27 -79z" />
<glyph unicode="&#x13b;" horiz-adv-x="427" d="M78 0v675h109v-580h232v-95h-341zM254 -48q26 0 42 -20.5t12.5 -50t-31.5 -63t-91 -59.5l-22 39q38 26 44.5 46t-1.5 37q-6 13 -5 25.5t7.5 22.5t18 16.5t26.5 6.5z" />
<glyph unicode="&#x13c;" horiz-adv-x="263" d="M78 0v730h107v-730h-107zM135 -48q26 0 42 -20.5t12.5 -50t-31.5 -63t-91 -59.5l-22 39q38 26 44.5 46t-1.5 37q-6 13 -5 25.5t7.5 22.5t18 16.5t26.5 6.5z" />
<glyph unicode="&#x13d;" horiz-adv-x="431" d="M78 0v675h109v-580h232v-95h-341zM309 598l-62 36l104 168l78 -43z" />
<glyph unicode="&#x13e;" horiz-adv-x="303" d="M78 0v730h107v-730h-107zM298 559l-70 18l53 191l87 -21z" />
<glyph unicode="&#x141;" horiz-adv-x="436" d="M87 0v334l-72 -34l-22 83l94 44v248h109v-198l105 48l22 -83l-127 -57v-290h232v-95h-341z" />
<glyph unicode="&#x142;" horiz-adv-x="295" d="M203 403v-403h-107v346l-57 -32l-24 78l81 45v293h107v-236l61 35l24 -78z" />
<glyph unicode="&#x143;" horiz-adv-x="704" d="M481 0l-239 406q-12 21 -31 59l-35 72q1 -25 3 -65.5t2.5 -81.5t0.5 -86.5t2 -117.5v-186h-106v675h143l236 -397q27 -47 39.5 -72.5l30.5 -64.5q-2 29 -3 69t-2 88.5t-1.5 94t-0.5 111.5l-1 171h106v-675h-144zM327 721l-19 60l193 74l27 -79z" />
<glyph unicode="&#x144;" horiz-adv-x="573" d="M389 0v319q0 47 -15.5 73t-58.5 26q-28 0 -52 -14t-41 -38t-27 -57t-10 -70v-239h-107v497h102q0 -20 -1.5 -48.5t-5.5 -49.5h1q22 48 66 78t107 30q42 0 70.5 -12.5t46 -34.5t24.5 -50.5t7 -61.5v-348h-106zM274 566l-42 57l152 125l54 -71z" />
<glyph unicode="&#x145;" horiz-adv-x="704" d="M481 0l-239 406q-12 21 -31 59l-35 72q1 -25 3 -65.5t2.5 -81.5t0.5 -86.5t2 -117.5v-186h-106v675h143l236 -397q27 -47 39.5 -72.5l30.5 -64.5q-2 29 -3 69t-2 88.5t-1.5 94t-0.5 111.5l-1 171h106v-675h-144zM349 -48q26 0 42 -20.5t12.5 -50t-31.5 -63t-91 -59.5 l-22 39q38 26 44.5 46t-1.5 37q-6 13 -5 25.5t7.5 22.5t18 16.5t26.5 6.5z" />
<glyph unicode="&#x146;" horiz-adv-x="573" d="M389 0v319q0 47 -15.5 73t-58.5 26q-28 0 -52 -14t-41 -38t-27 -57t-10 -70v-239h-107v497h102q0 -20 -1.5 -48.5t-5.5 -49.5h1q22 48 66 78t107 30q42 0 70.5 -12.5t46 -34.5t24.5 -50.5t7 -61.5v-348h-106zM291 -48q26 0 42 -20.5t12.5 -50t-31.5 -63t-91 -59.5l-22 39 q38 26 44.5 46t-1.5 37q-6 13 -5 25.5t7.5 22.5t18 16.5t26.5 6.5z" />
<glyph unicode="&#x147;" horiz-adv-x="704" d="M481 0l-239 406q-12 21 -31 59l-35 72q1 -25 3 -65.5t2.5 -81.5t0.5 -86.5t2 -117.5v-186h-106v675h143l236 -397q27 -47 39.5 -72.5l30.5 -64.5q-2 29 -3 69t-2 88.5t-1.5 94t-0.5 111.5l-1 171h106v-675h-144zM354 720l-162 81l28 60l138 -59l131 58l26 -55z" />
<glyph unicode="&#x148;" horiz-adv-x="573" d="M389 0v319q0 47 -15.5 73t-58.5 26q-28 0 -52 -14t-41 -38t-27 -57t-10 -70v-239h-107v497h102q0 -20 -1.5 -48.5t-5.5 -49.5h1q22 48 66 78t107 30q42 0 70.5 -12.5t46 -34.5t24.5 -50.5t7 -61.5v-348h-106zM286 566l-145 132l45 50l101 -83l101 83l44 -49z" />
<glyph unicode="&#x14c;" horiz-adv-x="704" d="M550 335q0 123 -51.5 188.5t-146.5 65.5q-39 0 -75 -15.5t-63 -46.5t-43.5 -77t-16.5 -107q0 -57 12 -104.5t36 -81t61 -52t87 -18.5q37 0 73 15t64.5 46t45.5 77.5t17 109.5zM666 346q0 -84 -25.5 -150t-69.5 -112t-103 -70t-126 -24q-77 0 -134 24t-95 68.5t-56.5 107 t-18.5 140.5q0 84 25.5 150t69.5 111.5t103 69.5t126 24q68 0 124 -21t96 -63.5t62 -106t22 -148.5zM212 745v70h283v-70h-283z" />
<glyph unicode="&#x14d;" horiz-adv-x="549" d="M402 251q0 80 -31 123t-95 43q-24 0 -47 -9.5t-41 -29.5t-29 -51t-11 -74q0 -85 32 -128t95 -43q26 0 49 10t40.5 31t27.5 53t10 75zM512 258q0 -57 -18 -106t-50.5 -85t-78 -56.5t-100.5 -20.5q-52 0 -94 15t-72 45.5t-46 78t-16 113.5q0 56 17.5 104.5t50 84t78 56 t102.5 20.5q50 0 91.5 -14.5t71.5 -44.5t47 -77t17 -113zM150 609v78h259v-78h-259z" />
<glyph unicode="&#x150;" horiz-adv-x="704" d="M550 335q0 123 -51.5 188.5t-146.5 65.5q-39 0 -75 -15.5t-63 -46.5t-43.5 -77t-16.5 -107q0 -57 12 -104.5t36 -81t61 -52t87 -18.5q37 0 73 15t64.5 46t45.5 77.5t17 109.5zM666 346q0 -84 -25.5 -150t-69.5 -112t-103 -70t-126 -24q-77 0 -134 24t-95 68.5t-56.5 107 t-18.5 140.5q0 84 25.5 150t69.5 111.5t103 69.5t126 24q68 0 124 -21t96 -63.5t62 -106t22 -148.5zM258 719l-36 49l145 108l46 -63zM459 720l-33 51l158 98l42 -67z" />
<glyph unicode="&#x151;" horiz-adv-x="549" d="M402 251q0 80 -31 123t-95 43q-24 0 -47 -9.5t-41 -29.5t-29 -51t-11 -74q0 -85 32 -128t95 -43q26 0 49 10t40.5 31t27.5 53t10 75zM512 258q0 -57 -18 -106t-50.5 -85t-78 -56.5t-100.5 -20.5q-52 0 -94 15t-72 45.5t-46 78t-16 113.5q0 56 17.5 104.5t50 84t78 56 t102.5 20.5q50 0 91.5 -14.5t71.5 -44.5t47 -77t17 -113zM201 566l-51 44l123 147l64 -54zM382 566l-49 44l135 140l60 -57z" />
<glyph unicode="&#x152;" horiz-adv-x="862" d="M443 575q-21 7 -42.5 10.5t-47.5 3.5q-39 0 -75 -15.5t-63.5 -46.5t-44 -77t-16.5 -107q0 -57 12 -104.5t36 -81t61 -52t87 -18.5q23 0 47 4t46 11v473zM451 0q-26 -5 -53.5 -7.5t-55.5 -2.5q-77 0 -134 24t-95 68.5t-56.5 107t-18.5 140.5q0 84 25.5 150t69.5 111.5 t102 69.5t124 24q57 0 103 -10h337v-91h-247v-192h234v-89h-234v-210h247v-93h-348z" />
<glyph unicode="&#x153;" horiz-adv-x="867" d="M401 251q0 80 -31 123t-95 43q-24 0 -47 -9.5t-41 -29.5t-29 -51t-11 -74q0 -85 32 -128t95 -43q26 0 49 10t40.5 31t27.5 53t10 75zM717 314q2 54 -25 84t-75 30q-45 0 -74.5 -30.5t-36.5 -83.5h211v0zM824 292q0 -21 -3 -52h-317q-2 -85 35 -124.5t112 -39.5 q36 0 72.5 7.5t70.5 22.5l14 -84q-39 -16 -84 -24t-92 -8q-72 0 -117 24.5t-71 68.5q-27 -41 -72 -67t-108 -26q-52 0 -94 14.5t-72 45.5t-46 78.5t-16 113.5q0 57 17.5 105.5t50 84t78 55.5t102.5 20q51 0 97.5 -20.5t74.5 -64.5q26 38 67 61.5t98 23.5q53 0 91.5 -17 t63 -46.5t36.5 -68.5t12 -83z" />
<glyph unicode="&#x154;" horiz-adv-x="559" d="M381 484q0 56 -34 81t-103 25q-16 0 -30.5 -0.5t-26.5 -1.5v-214q8 -1 21.5 -1.5t31.5 -0.5q66 0 103.5 30.5t37.5 81.5zM402 0l-203 292h-12v-292h-109v675q37 2 80.5 3t100.5 1q52 0 95.5 -10t75 -31.5t48.5 -56.5t17 -85q0 -41 -14.5 -73.5t-39.5 -57t-58.5 -39.5 t-71.5 -19l29 -36.5t27 -35.5l172 -235h-137zM221 721l-19 60l193 74l27 -79z" />
<glyph unicode="&#x155;" horiz-adv-x="355" d="M332 401q-75 14 -111 -36.5t-36 -162.5v-202h-107v497h102q0 -21 -2.5 -51t-7.5 -59h2q8 25 22 48t34 40t47 26t62 5zM190 566l-42 57l152 125l54 -71z" />
<glyph unicode="&#x156;" horiz-adv-x="559" d="M381 484q0 56 -34 81t-103 25q-16 0 -30.5 -0.5t-26.5 -1.5v-214q8 -1 21.5 -1.5t31.5 -0.5q66 0 103.5 30.5t37.5 81.5zM402 0l-203 292h-12v-292h-109v675q37 2 80.5 3t100.5 1q52 0 95.5 -10t75 -31.5t48.5 -56.5t17 -85q0 -41 -14.5 -73.5t-39.5 -57t-58.5 -39.5 t-71.5 -19l29 -36.5t27 -35.5l172 -235h-137zM288 -48q26 0 42 -20.5t12.5 -50t-31.5 -63t-91 -59.5l-22 39q38 26 44.5 46t-1.5 37q-6 13 -5 25.5t7.5 22.5t18 16.5t26.5 6.5z" />
<glyph unicode="&#x157;" horiz-adv-x="355" d="M332 401q-75 14 -111 -36.5t-36 -162.5v-202h-107v497h102q0 -21 -2.5 -51t-7.5 -59h2q8 25 22 48t34 40t47 26t62 5zM143 -48q26 0 42 -20.5t12.5 -50t-31.5 -63t-91 -59.5l-22 39q38 26 44.5 46t-1.5 37q-6 13 -5 25.5t7.5 22.5t18 16.5t26.5 6.5z" />
<glyph unicode="&#x158;" horiz-adv-x="559" d="M381 484q0 56 -34 81t-103 25q-16 0 -30.5 -0.5t-26.5 -1.5v-214q8 -1 21.5 -1.5t31.5 -0.5q66 0 103.5 30.5t37.5 81.5zM402 0l-203 292h-12v-292h-109v675q37 2 80.5 3t100.5 1q52 0 95.5 -10t75 -31.5t48.5 -56.5t17 -85q0 -41 -14.5 -73.5t-39.5 -57t-58.5 -39.5 t-71.5 -19l29 -36.5t27 -35.5l172 -235h-137zM264 720l-162 81l28 60l138 -59l131 58l26 -55z" />
<glyph unicode="&#x159;" horiz-adv-x="355" d="M332 401q-75 14 -111 -36.5t-36 -162.5v-202h-107v497h102q0 -21 -2.5 -51t-7.5 -59h2q8 25 22 48t34 40t47 26t62 5zM208 566l-145 132l45 50l101 -83l101 83l44 -49z" />
<glyph unicode="&#x15a;" horiz-adv-x="503" d="M460 202q0 -46 -18 -85t-51.5 -67t-80.5 -44t-104 -16q-44 0 -82 5t-70 14l12 104q33 -13 69.5 -20.5t74.5 -7.5q27 0 51 5.5t42 18t28.5 32t10.5 47.5q0 35 -22 56t-55 36.5t-71 29t-71 35t-55 55t-22 88.5q0 43 16 79.5t47.5 62.5t76.5 40.5t104 14.5q29 0 61.5 -3.5 t60.5 -9.5l-11 -96q-27 9 -56.5 14t-59.5 5q-64 0 -94 -26t-30 -68q0 -34 22 -54.5t55.5 -36t72 -30t72 -36.5t55.5 -55.5t22 -86.5zM217 721l-19 60l193 74l27 -79z" />
<glyph unicode="&#x15b;" horiz-adv-x="421" d="M376 152q0 -35 -15 -65t-42.5 -51.5t-67.5 -33.5t-89 -12q-29 0 -58 3.5t-52 10.5l8 91q23 -9 51.5 -14t57.5 -5q42 0 68.5 17.5t26.5 47.5q0 25 -16 39t-40.5 23t-52.5 17.5t-52.5 23.5t-40.5 40.5t-16 68.5q0 33 12.5 61t37.5 48.5t63.5 32.5t89.5 12q23 0 47.5 -2.5 t46.5 -7.5l-6 -86q-45 14 -94 14q-45 0 -66 -16.5t-21 -45.5q0 -24 16.5 -38t40.5 -23.5t53 -18.5t53 -24t40.5 -40t16.5 -67zM195 566l-42 57l152 125l54 -71z" />
<glyph unicode="&#x15e;" horiz-adv-x="503" d="M460 202q0 -46 -18 -85t-51.5 -67t-80.5 -44t-104 -16q-44 0 -82 5t-70 14l12 104q33 -13 69.5 -20.5t74.5 -7.5q27 0 51 5.5t42 18t28.5 32t10.5 47.5q0 35 -22 56t-55 36.5t-71 29t-71 35t-55 55t-22 88.5q0 43 16 79.5t47.5 62.5t76.5 40.5t104 14.5q29 0 61.5 -3.5 t60.5 -9.5l-11 -96q-27 9 -56.5 14t-59.5 5q-64 0 -94 -26t-30 -68q0 -34 22 -54.5t55.5 -36t72 -30t72 -36.5t55.5 -55.5t22 -86.5zM277 -40q39 -52 30.5 -100t-51.5 -95h-83q38 46 44 83t-30 81l90 31v0z" />
<glyph unicode="&#x15f;" horiz-adv-x="421" d="M376 152q0 -35 -15 -65t-42.5 -51.5t-67.5 -33.5t-89 -12q-29 0 -58 3.5t-52 10.5l8 91q23 -9 51.5 -14t57.5 -5q42 0 68.5 17.5t26.5 47.5q0 25 -16 39t-40.5 23t-52.5 17.5t-52.5 23.5t-40.5 40.5t-16 68.5q0 33 12.5 61t37.5 48.5t63.5 32.5t89.5 12q23 0 47.5 -2.5 t46.5 -7.5l-6 -86q-45 14 -94 14q-45 0 -66 -16.5t-21 -45.5q0 -24 16.5 -38t40.5 -23.5t53 -18.5t53 -24t40.5 -40t16.5 -67zM243 -40q39 -52 30.5 -100t-51.5 -95h-83q38 46 44 83t-30 81l90 31v0z" />
<glyph unicode="&#x160;" horiz-adv-x="503" d="M460 202q0 -46 -18 -85t-51.5 -67t-80.5 -44t-104 -16q-44 0 -82 5t-70 14l12 104q33 -13 69.5 -20.5t74.5 -7.5q27 0 51 5.5t42 18t28.5 32t10.5 47.5q0 35 -22 56t-55 36.5t-71 29t-71 35t-55 55t-22 88.5q0 43 16 79.5t47.5 62.5t76.5 40.5t104 14.5q29 0 61.5 -3.5 t60.5 -9.5l-11 -96q-27 9 -56.5 14t-59.5 5q-64 0 -94 -26t-30 -68q0 -34 22 -54.5t55.5 -36t72 -30t72 -36.5t55.5 -55.5t22 -86.5zM254 720l-162 81l28 60l138 -59l131 58l26 -55z" />
<glyph unicode="&#x161;" horiz-adv-x="421" d="M376 152q0 -35 -15 -65t-42.5 -51.5t-67.5 -33.5t-89 -12q-29 0 -58 3.5t-52 10.5l8 91q23 -9 51.5 -14t57.5 -5q42 0 68.5 17.5t26.5 47.5q0 25 -16 39t-40.5 23t-52.5 17.5t-52.5 23.5t-40.5 40.5t-16 68.5q0 33 12.5 61t37.5 48.5t63.5 32.5t89.5 12q23 0 47.5 -2.5 t46.5 -7.5l-6 -86q-45 14 -94 14q-45 0 -66 -16.5t-21 -45.5q0 -24 16.5 -38t40.5 -23.5t53 -18.5t53 -24t40.5 -40t16.5 -67zM212 566l-145 132l45 50l101 -83l101 83l44 -49z" />
<glyph unicode="&#x162;" horiz-adv-x="514" d="M311 583v-583h-109v583h-185v92h480v-92h-186zM261 -48q26 0 42 -20.5t12.5 -50t-31.5 -63t-91 -59.5l-22 39q38 26 44.5 46t-1.5 37q-6 13 -5 25.5t7.5 22.5t18 16.5t26.5 6.5z" />
<glyph unicode="&#x21a;" horiz-adv-x="514" d="M311 583v-583h-109v583h-185v92h480v-92h-186zM261 -48q26 0 42 -20.5t12.5 -50t-31.5 -63t-91 -59.5l-22 39q38 26 44.5 46t-1.5 37q-6 13 -5 25.5t7.5 22.5t18 16.5t26.5 6.5z" />
<glyph unicode="&#x163;" horiz-adv-x="373" d="M341 3q-23 -5 -51 -8.5t-53 -3.5q-40 0 -66.5 8t-42.5 26t-22.5 47t-6.5 71v271h-95v83h95v158l107 29v-187h130v-83h-130v-238q0 -28 3 -46t10.5 -28.5t20 -15t31.5 -4.5q17 0 32 2t29 5l9 -86v0zM220 -48q26 0 42 -20.5t12.5 -50t-31.5 -63t-91 -59.5l-22 39 q38 26 44.5 46t-1.5 37q-6 13 -5 25.5t7.5 22.5t18 16.5t26.5 6.5z" />
<glyph unicode="&#x21b;" horiz-adv-x="373" d="M341 3q-23 -5 -51 -8.5t-53 -3.5q-40 0 -66.5 8t-42.5 26t-22.5 47t-6.5 71v271h-95v83h95v158l107 29v-187h130v-83h-130v-238q0 -28 3 -46t10.5 -28.5t20 -15t31.5 -4.5q17 0 32 2t29 5l9 -86v0zM220 -48q26 0 42 -20.5t12.5 -50t-31.5 -63t-91 -59.5l-22 39 q38 26 44.5 46t-1.5 37q-6 13 -5 25.5t7.5 22.5t18 16.5t26.5 6.5z" />
<glyph unicode="&#x164;" horiz-adv-x="514" d="M311 583v-583h-109v583h-185v92h480v-92h-186zM255 720l-162 81l28 60l138 -59l131 58l26 -55z" />
<glyph unicode="&#x165;" horiz-adv-x="377" d="M341 3q-23 -5 -51 -8.5t-53 -3.5q-40 0 -66.5 8t-42.5 26t-22.5 47t-6.5 71v271h-95v83h95v158l107 29v-187h130v-83h-130v-238q0 -28 3 -46t10.5 -28.5t20 -15t31.5 -4.5q17 0 32 2t29 5l9 -86v0zM326 559l-70 18l53 191l87 -21z" />
<glyph unicode="&#x16a;" horiz-adv-x="687" d="M609 260q0 -136 -70 -203t-204 -67q-80 0 -130 20t-78 53.5t-38.5 76.5t-10.5 90v445h109v-437q0 -34 6.5 -63t24 -50t47.5 -33t77 -12q41 0 71.5 9t50 29.5t29 53.5t9.5 80v423h107v-415v0zM203 745v70h283v-70h-283z" />
<glyph unicode="&#x16b;" horiz-adv-x="573" d="M393 0q0 20 1.5 48.5t5.5 49.5h-1q-22 -48 -66 -78t-107 -30q-42 0 -70.5 12.5t-46 34.5t-24.5 50.5t-7 61.5v348h106v-319q0 -47 15.5 -73t58.5 -26q28 0 52 14t41 38t27 56.5t10 70.5v239h107v-497h-102zM157 609v78h259v-78h-259z" />
<glyph unicode="&#x16e;" horiz-adv-x="687" d="M609 260q0 -136 -70 -203t-204 -67q-80 0 -130 20t-78 53.5t-38.5 76.5t-10.5 90v445h109v-437q0 -34 6.5 -63t24 -50t47.5 -33t77 -12q41 0 71.5 9t50 29.5t29 53.5t9.5 80v423h107v-415v0zM393 773q0 20 -14.5 35t-34.5 15q-21 0 -35 -15t-14 -35t14 -35t35 -15 q20 0 34.5 15t14.5 35zM455 774q0 -22 -9 -41.5t-24 -34.5t-35.5 -23.5t-43.5 -8.5q-46 0 -78 30t-32 76q0 23 9 42.5t24 33.5t35.5 22.5t42.5 8.5q47 0 79 -30t32 -75z" />
<glyph unicode="&#x16f;" horiz-adv-x="573" d="M393 0q0 20 1.5 48.5t5.5 49.5h-1q-22 -48 -66 -78t-107 -30q-42 0 -70.5 12.5t-46 34.5t-24.5 50.5t-7 61.5v348h106v-319q0 -47 15.5 -73t58.5 -26q28 0 52 14t41 38t27 56.5t10 70.5v239h107v-497h-102zM339 657q0 23 -15 39t-38 16t-38.5 -16t-15.5 -39t15.5 -39 t38.5 -16t38 16t15 39zM406 659q0 -24 -9.5 -45.5t-26 -37t-38.5 -25t-47 -9.5t-46.5 8.5t-38 23.5t-26 36t-9.5 46t10 46t26.5 36.5t38.5 24.5t46 9q25 0 47 -8.5t38 -23.5t25.5 -36t9.5 -45z" />
<glyph unicode="&#x170;" horiz-adv-x="687" d="M609 260q0 -136 -70 -203t-204 -67q-80 0 -130 20t-78 53.5t-38.5 76.5t-10.5 90v445h109v-437q0 -34 6.5 -63t24 -50t47.5 -33t77 -12q41 0 71.5 9t50 29.5t29 53.5t9.5 80v423h107v-415v0zM235 719l-36 49l145 108l46 -63zM436 720l-33 51l158 98l42 -67z" />
<glyph unicode="&#x171;" horiz-adv-x="573" d="M393 0q0 20 1.5 48.5t5.5 49.5h-1q-22 -48 -66 -78t-107 -30q-42 0 -70.5 12.5t-46 34.5t-24.5 50.5t-7 61.5v348h106v-319q0 -47 15.5 -73t58.5 -26q28 0 52 14t41 38t27 56.5t10 70.5v239h107v-497h-102zM205 566l-51 44l123 147l64 -54zM386 566l-49 44l135 140 l60 -57z" />
<glyph unicode="&#x172;" horiz-adv-x="687" d="M609 260q0 -177 -122 -239q-49 -25 -77.5 -59.5t-28.5 -63.5q0 -15 9.5 -23.5t25.5 -8.5q27 0 50 31l44 -48q-24 -32 -56.5 -49.5t-73.5 -17.5q-51 0 -77 23.5t-26 61.5q0 30 18 63t55 62q-6 0 -13 -0.5t-14 -0.5q-71 0 -118 19t-75.5 51t-40 75.5t-11.5 93.5v445h109 v-437q0 -34 6.5 -63t24 -50t47.5 -33t77 -12q41 0 71.5 9t50 29.5t29 53.5t9.5 80v423h107v-415v0z" />
<glyph unicode="&#x173;" horiz-adv-x="573" d="M549 -146q-24 -35 -59 -53.5t-74 -18.5q-43 0 -69.5 21t-26.5 64q0 45 26.5 80.5t61.5 60.5q-4 20 -6.5 43t-1.5 42h-1q-23 -45 -66.5 -74t-106.5 -29q-42 0 -70.5 12.5t-46 34.5t-24.5 50.5t-7 61.5v348h106v-319q0 -47 15.5 -73t58.5 -26q28 0 52 14t41 38t27 56.5 t10 70.5v239h107v-326q0 -45 4 -89t12 -82q-48 -26 -69 -51.5t-21 -48.5q0 -31 34 -31q13 0 26.5 8.5t23.5 23.5l44 -47v0z" />
<glyph unicode="&#x178;" horiz-adv-x="548" d="M326 241v-241h-109v241l-211 434h119l100 -213q27 -60 48 -114h2q11 30 25.5 62t30.5 64l95 201h115zM228 782q0 -25 -17 -41.5t-42 -16.5t-42 16.5t-17 41.5t17 42t42 17t42 -17t17 -42zM443 782q0 -25 -17 -41.5t-42 -16.5t-42 16.5t-17 41.5t17 42t42 17t42 -17 t17 -42z" />
<glyph unicode="&#x179;" horiz-adv-x="538" d="M45 0v83l266 423q12 20 24 37.5t26 35.5q-22 -1 -54 -1h-83h-169v97h435v-86l-280 -437q-8 -14 -16.5 -27l-18.5 -27q14 2 53 2h105h161v-100h-449zM234 721l-19 60l193 74l27 -79z" />
<glyph unicode="&#x17a;" horiz-adv-x="449" d="M47 0v76l221 327q-19 -1 -50.5 -1.5t-69.5 -0.5h-96v96h343v-75l-218 -326q27 1 49 1.5t43 0.5h130v-98h-352zM205 566l-42 57l152 125l54 -71z" />
<glyph unicode="&#x17b;" horiz-adv-x="538" d="M45 0v83l266 423q12 20 24 37.5t26 35.5q-22 -1 -54 -1h-83h-169v97h435v-86l-280 -437q-8 -14 -16.5 -27l-18.5 -27q14 2 53 2h105h161v-100h-449zM332 783q0 -25 -18 -42.5t-44 -17.5t-44 17t-18 43q0 25 18 43t44 18t44 -17.5t18 -43.5z" />
<glyph unicode="&#x17c;" horiz-adv-x="449" d="M47 0v76l221 327q-19 -1 -50.5 -1.5t-69.5 -0.5h-96v96h343v-75l-218 -326q27 1 49 1.5t43 0.5h130v-98h-352zM290 652q0 -28 -20 -47.5t-49 -19.5t-48.5 19t-19.5 48q0 28 19.5 47.5t48.5 19.5t49 -19.5t20 -47.5z" />
<glyph unicode="&#x192;" horiz-adv-x="447" d="M214 100q-7 -72 -22.5 -122t-41 -81.5t-62 -45.5t-87.5 -14q-17 0 -36.5 2.5t-36.5 7.5l16 92q14 -4 32 -8.5t36 -4.5q22 0 37.5 7t26 24t17.5 46t12 72l25 258h-116v83h125l12 114q11 102 59.5 155.5t142.5 53.5q15 0 34.5 -1.5t37.5 -5.5l-13 -88q-14 4 -32 6t-34 2 q-38 0 -60 -25.5t-28 -87.5l-12 -123h153v-83h-161z" />
<glyph unicode="&#x218;" horiz-adv-x="503" d="M460 202q0 -46 -18 -85t-51.5 -67t-80.5 -44t-104 -16q-44 0 -82 5t-70 14l12 104q33 -13 69.5 -20.5t74.5 -7.5q27 0 51 5.5t42 18t28.5 32t10.5 47.5q0 35 -22 56t-55 36.5t-71 29t-71 35t-55 55t-22 88.5q0 43 16 79.5t47.5 62.5t76.5 40.5t104 14.5q29 0 61.5 -3.5 t60.5 -9.5l-11 -96q-27 9 -56.5 14t-59.5 5q-64 0 -94 -26t-30 -68q0 -34 22 -54.5t55.5 -36t72 -30t72 -36.5t55.5 -55.5t22 -86.5zM249 -48q26 0 42 -20.5t12.5 -50t-31.5 -63t-91 -59.5l-22 39q38 26 44.5 46t-1.5 37q-6 13 -5 25.5t7.5 22.5t18 16.5t26.5 6.5z" />
<glyph unicode="&#x219;" horiz-adv-x="421" d="M376 152q0 -35 -15 -65t-42.5 -51.5t-67.5 -33.5t-89 -12q-29 0 -58 3.5t-52 10.5l8 91q23 -9 51.5 -14t57.5 -5q42 0 68.5 17.5t26.5 47.5q0 25 -16 39t-40.5 23t-52.5 17.5t-52.5 23.5t-40.5 40.5t-16 68.5q0 33 12.5 61t37.5 48.5t63.5 32.5t89.5 12q23 0 47.5 -2.5 t46.5 -7.5l-6 -86q-45 14 -94 14q-45 0 -66 -16.5t-21 -45.5q0 -24 16.5 -38t40.5 -23.5t53 -18.5t53 -24t40.5 -40t16.5 -67zM215 -48q26 0 42 -20.5t12.5 -50t-31.5 -63t-91 -59.5l-22 39q38 26 44.5 46t-1.5 37q-6 13 -5 25.5t7.5 22.5t18 16.5t26.5 6.5z" />
<glyph unicode="&#x2c6;" horiz-adv-x="430" d="M314 566l-101 83l-102 -83l-43 49l146 133l145 -132z" />
<glyph unicode="&#x2c7;" horiz-adv-x="430" d="M211 566l-145 132l45 50l101 -83l101 83l44 -49z" />
<glyph unicode="&#x2d8;" horiz-adv-x="388" d="M324 719q0 -28 -7 -52.5t-23.5 -45.5t-41.5 -33t-60 -12q-34 0 -59 12t-40.5 32.5t-22.5 45.5t-7 53h71q0 -28 15 -46.5t44 -18.5q27 0 43 16.5t16 48.5h72v0z" />
<glyph unicode="&#x2d9;" horiz-adv-x="285" d="M208 652q0 -28 -20 -47.5t-49 -19.5t-48.5 19t-19.5 48q0 28 19.5 47.5t48.5 19.5t49 -19.5t20 -47.5z" />
<glyph unicode="&#x2da;" horiz-adv-x="375" d="M241 657q0 23 -15 39t-38 16t-38.5 -16t-15.5 -39t15.5 -39t38.5 -16t38 16t15 39zM308 659q0 -24 -9.5 -45.5t-26 -37t-38.5 -25t-47 -9.5t-46.5 8.5t-38 23.5t-26 36t-9.5 46t10 46t26.5 36.5t38.5 24.5t46 9q25 0 47 -8.5t38 -23.5t25.5 -36t9.5 -45z" />
<glyph unicode="&#x2db;" horiz-adv-x="454" d="M185 0q-49 -26 -69.5 -52t-20.5 -49q0 -16 9.5 -23.5t24.5 -7.5q28 0 50 32l44 -47q-24 -35 -59 -53t-74 -18q-43 0 -69.5 21t-26.5 64q0 38 24 75.5t66 66.5z" />
<glyph unicode="&#x2dc;" horiz-adv-x="477" d="M415 669q-43 -83 -115 -83q-25 0 -42 8.5t-30.5 18.5t-25.5 18t-27 8q-33 0 -58 -46l-52 40q20 41 49 62t66 21q24 0 41 -8.5t30.5 -18l26 -18t27.5 -8.5q32 0 58 46l52 -40v0z" />
<glyph unicode="&#x2dd;" horiz-adv-x="498" d="M121 566l-51 44l123 147l64 -54zM302 566l-49 44l135 140l60 -57z" />
<glyph unicode="&#x312;" horiz-adv-x="463" d="M161 564q-24 0 -39.5 17.5t-15.5 44.5q0 15 6 32.5t20.5 35t38 34t58.5 29.5l22 -40q-28 -17 -38 -32t-10 -29q0 -15 5.5 -21.5t5.5 -20.5q0 -23 -15 -36.5t-38 -13.5z" />
<glyph unicode="&#x315;" horiz-adv-x="360" d="M174 559l-70 18l53 191l87 -21z" />
<glyph unicode="&#x326;" horiz-adv-x="283" d="M141 -48q26 0 42 -20.5t12.5 -50t-31.5 -63t-91 -59.5l-22 39q38 26 44.5 46t-1.5 37q-6 13 -5 25.5t7.5 22.5t18 16.5t26.5 6.5z" />
<glyph unicode="&#x394;" horiz-adv-x="611" d="M28 0v81l209 594h133l213 -594v-81h-555zM323 487q-8 23 -13 43.5t-10 43.5h-1q-5 -23 -11 -45.5t-13 -44.5l-134 -387h318z" />
<glyph unicode="&#x2206;" horiz-adv-x="611" d="M28 0v81l209 594h133l213 -594v-81h-555zM323 487q-8 23 -13 43.5t-10 43.5h-1q-5 -23 -11 -45.5t-13 -44.5l-134 -387h318z" />
<glyph unicode="&#x3a9;" horiz-adv-x="717" d="M424 0v87q63 47 95.5 108t32.5 152q0 52 -12 97t-36.5 77t-61 50t-86.5 18q-40 0 -75.5 -16.5t-61 -47.5t-40.5 -76.5t-15 -99.5q0 -47 7 -83t22.5 -66.5t39.5 -56.5t60 -55v-88h-252v89h133q-57 41 -91.5 106.5t-34.5 153.5q0 76 25 139t68 106.5t101.5 67t125.5 23.5 q63 0 118 -19.5t95.5 -60t63.5 -102.5t23 -143q0 -49 -10 -88.5t-28 -73t-40 -60t-52 -49.5h138v-89h-252z" />
<glyph unicode="&#x2126;" horiz-adv-x="717" d="M424 0v87q63 47 95.5 108t32.5 152q0 52 -12 97t-36.5 77t-61 50t-86.5 18q-40 0 -75.5 -16.5t-61 -47.5t-40.5 -76.5t-15 -99.5q0 -47 7 -83t22.5 -66.5t39.5 -56.5t60 -55v-88h-252v89h133q-57 41 -91.5 106.5t-34.5 153.5q0 76 25 139t68 106.5t101.5 67t125.5 23.5 q63 0 118 -19.5t95.5 -60t63.5 -102.5t23 -143q0 -49 -10 -88.5t-28 -73t-40 -60t-52 -49.5h138v-89h-252z" />
<glyph unicode="&#x3c0;" horiz-adv-x="632" d="M485 409q0 -89 4 -151.5t12 -101.5q8 -44 20 -59.5t31 -15.5q18 0 38 5l10 -86q-13 -4 -31 -6t-38 -2q-30 0 -52.5 7t-38.5 23t-27 42t-18 64q-9 46 -13.5 118t-4.5 163h-148q2 -103 -11.5 -209t-47.5 -209l-116 18q37 104 55.5 201t16.5 199h-114v88h587v-88h-114z" />
<glyph unicode="&#x2000;" horiz-adv-x="490" />
<glyph unicode="&#x2001;" horiz-adv-x="980" />
<glyph unicode="&#x2002;" horiz-adv-x="490" />
<glyph unicode="&#x2003;" horiz-adv-x="980" />
<glyph unicode="&#x2004;" horiz-adv-x="326" />
<glyph unicode="&#x2005;" horiz-adv-x="245" />
<glyph unicode="&#x2006;" horiz-adv-x="163" />
<glyph unicode="&#x2007;" horiz-adv-x="163" />
<glyph unicode="&#x2008;" horiz-adv-x="122" />
<glyph unicode="&#x2009;" horiz-adv-x="196" />
<glyph unicode="&#x200a;" horiz-adv-x="54" />
<glyph unicode="&#x2011;" horiz-adv-x="332" d="M46 240v86h240v-86h-240z" />
<glyph unicode="&#x2012;" horiz-adv-x="332" d="M46 240v86h240v-86h-240z" />
<glyph unicode="&#x2013;" d="M0 251v93h550v-93h-550z" />
<glyph unicode="&#x2014;" horiz-adv-x="1000" d="M115 251v93h770v-93h-770z" />
<glyph unicode="&#x2018;" horiz-adv-x="254" d="M215 712q-25 -26 -38.5 -48t-17.5 -40t0 -33t14 -27q12 -15 13.5 -33t-5.5 -33.5t-22 -26.5t-36 -11q-31 0 -51.5 24.5t-19.5 65t28 93t90 109.5l45 -40v0z" />
<glyph unicode="&#x2019;" horiz-adv-x="254" d="M130 745q31 0 51 -24.5t19.5 -65t-27.5 -93t-90 -109.5l-45 40q24 27 37.5 48.5t17.5 39.5t0.5 33t-13.5 27q-12 15 -14 33t5 33.5t22 26.5t37 11z" />
<glyph unicode="&#x201a;" horiz-adv-x="254" d="M130 129q31 0 51 -24.5t19.5 -65t-27.5 -93t-90 -109.5l-45 40q24 27 37.5 49t17.5 40t0.5 32.5t-13.5 26.5q-12 15 -14 33t5 34t22 26.5t37 10.5z" />
<glyph unicode="&#x201c;" horiz-adv-x="457" d="M215 712q-25 -26 -38.5 -48t-17.5 -40t0 -33t14 -27q12 -15 13.5 -33t-5.5 -33t-22 -26t-36 -11q-31 0 -51.5 24t-19.5 64.5t28 93t90 109.5l45 -40v0zM418 712q-25 -26 -38.5 -48t-17.5 -40t0 -33t14 -27q12 -15 13.5 -33t-5.5 -33.5t-22 -26t-37 -10.5q-31 0 -51 24 t-19.5 64.5t28 93t90.5 109.5l45 -40v0z" />
<glyph unicode="&#x201d;" horiz-adv-x="456" d="M130 745q31 0 51 -24.5t19.5 -65t-27.5 -93t-90 -109.5l-45 40q24 27 37.5 48.5t17.5 39.5t0.5 33t-13.5 27q-12 15 -14 33t5 33.5t22 26.5t37 11zM333 745q31 0 51 -24.5t19.5 -65t-28 -93t-90.5 -109.5l-45 40q25 27 38.5 48.5t17.5 39.5t0 33t-14 27q-12 15 -13.5 33 t5.5 33.5t22 26.5t37 11z" />
<glyph unicode="&#x201e;" horiz-adv-x="456" d="M130 129q31 0 51 -24.5t19.5 -65t-27.5 -93t-90 -109.5l-45 40q24 27 37.5 49t17.5 40t0.5 32.5t-13.5 26.5q-12 15 -14 33t5 34t22 26.5t37 10.5zM333 129q31 0 51 -24.5t19.5 -65t-28 -93t-90.5 -109.5l-45 40q25 27 38.5 49t17.5 40t0 32.5t-14 26.5q-12 15 -13.5 33 t5.5 34t22 26.5t37 10.5z" />
<glyph unicode="&#x2020;" horiz-adv-x="452" d="M269 546l19 -93l-21 -253h-82l-21 253l19 93h-138v83h138l-19 137h124l-19 -137h138v-83h-138z" />
<glyph unicode="&#x2021;" horiz-adv-x="452" d="M270 292l19 -127h-126l19 127h-137v82h137l-18 91l18 92h-137v82h137l-18 127h124l-18 -127h137v-82h-137l18 -92l-18 -91h137v-82h-137z" />
<glyph unicode="&#x2022;" horiz-adv-x="421" d="M344 297q0 -27 -10.5 -51.5t-28.5 -42.5t-42.5 -28.5t-51.5 -10.5q-28 0 -52 10.5t-42 28.5t-28.5 42.5t-10.5 51.5t10.5 51.5t28.5 42.5t42 28.5t52 10.5q27 0 51.5 -10.5t42.5 -28.5t28.5 -42.5t10.5 -51.5z" />
<glyph unicode="&#x2026;" horiz-adv-x="691" d="M187 58q0 -28 -20 -48t-49 -20q-28 0 -48 20t-20 48q0 29 20 49t48 20q29 0 49 -20t20 -49zM410 58q0 -28 -20 -48t-49 -20q-28 0 -48 20t-20 48q0 29 20 49t48 20q29 0 49 -20t20 -49zM633 58q0 -28 -20 -48t-48 -20q-29 0 -49 20t-20 48q0 29 20 49t49 20q28 0 48 -20 t20 -49z" />
<glyph unicode="&#x202f;" horiz-adv-x="196" />
<glyph unicode="&#x2030;" horiz-adv-x="1037" d="M324 538q0 -38 -11.5 -68t-31.5 -51t-46 -32t-55 -11q-62 0 -99 36.5t-37 112.5q0 37 11.5 67t31.5 50.5t46 31.5t55 11t54 -8t43 -26t28.5 -46t10.5 -67zM244 531q0 45 -14 65t-44 20q-28 0 -44.5 -23t-16.5 -63q0 -45 15 -65t44 -20q27 0 43.5 22.5t16.5 63.5zM123 -18 l-65 50l524 660l65 -50zM662 152q0 -38 -11.5 -68t-31.5 -51t-46 -32t-55 -11q-62 0 -99 36.5t-37 112.5q0 37 11.5 67t31.5 50.5t46 31.5t55 11t54 -8t43 -26t28.5 -46t10.5 -67zM582 145q0 45 -14 65t-44 20q-28 0 -44.5 -23t-16.5 -63q0 -45 14.5 -65t44.5 -20 q27 0 43.5 22.5t16.5 63.5zM985 152q0 -38 -11.5 -68t-31.5 -51t-46.5 -32t-55.5 -11q-61 0 -98 36.5t-37 112.5q0 37 11.5 67t31.5 50.5t46 31.5t55 11t54 -8t43 -26t28.5 -46t10.5 -67zM905 145q0 45 -14.5 65t-44.5 20q-27 0 -43.5 -23t-16.5 -63q0 -45 14.5 -65 t43.5 -20q27 0 44 22.5t17 63.5z" />
<glyph unicode="&#x2039;" horiz-adv-x="313" d="M164 108l-116 185l118 187l80 -41l-94 -146l95 -143z" />
<glyph unicode="&#x203a;" horiz-adv-x="313" d="M147 108l-80 41l94 146l-94 143l83 42l115 -185z" />
<glyph unicode="&#x2044;" horiz-adv-x="204" d="M-176 -145l-68 47l645 904l67 -47z" />
<glyph unicode="&#x2215;" horiz-adv-x="204" d="M-176 -145l-68 47l645 904l67 -47z" />
<glyph unicode="&#x205f;" horiz-adv-x="245" />
<glyph unicode="&#x20ac;" horiz-adv-x="592" d="M565 43q-39 -24 -85.5 -38.5t-106.5 -14.5q-121 0 -190.5 59.5t-86.5 176.5h-83v66h78v26q0 16 0.5 30.5t1.5 28.5h-80v66h87q12 62 38 107.5t63.5 75.5t85.5 44.5t103 14.5q48 0 92.5 -11t73.5 -27l-29 -85q-25 14 -62 24.5t-79 10.5q-63 0 -108 -36.5t-60 -117.5h210 v-66h-219q0 -10 -0.5 -20t-0.5 -21v-22t1 -22h219v-66h-212q12 -71 54 -109t120 -38q35 0 73.5 12t70.5 32l31 -80v0z" />
<glyph unicode="&#x2122;" horiz-adv-x="694" d="M187 610v-216h-78v216h-72v65h220v-65h-70zM569 394l-20 136l-6 50l-10 -45l-40 -141h-76l-39 144l-10 42l-3 -36l-21 -150h-74l44 281h97l39 -140l10 -44l8 41l41 143h96l45 -281h-81z" />
<glyph unicode="&#x2202;" horiz-adv-x="636" d="M428 238q0 50 -30.5 83t-90.5 33q-29 0 -53.5 -11t-42 -30t-27 -45.5t-9.5 -56.5q0 -63 31.5 -94.5t83.5 -31.5q30 0 55 11.5t43.5 32t29 48.5t10.5 61zM568 404q0 -90 -22.5 -175t-74.5 -147q-35 -41 -85 -65.5t-110 -24.5q-51 0 -89.5 15t-65 42.5t-39.5 66t-13 86.5 q0 52 17.5 96t49.5 76.5t76.5 51t99.5 18.5q52 0 89 -22t56 -59q-2 24 -2 41q0 18 -2 35q-4 52 -22 91t-46 65.5t-65 39t-80 12.5l13 89q71 -1 129 -24t99.5 -65.5t64 -104t22.5 -138.5z" />
<glyph unicode="&#x220f;" horiz-adv-x="784" d="M639 639v-883h-101v883h-291v-883h-102v883h-102v91h697v-91h-101z" />
<glyph unicode="&#x2211;" horiz-adv-x="608" d="M36 -244v83l301 413l-283 395v83h486v-91h-353l274 -383l-298 -406h392v-94h-519z" />
<glyph unicode="&#x2212;" d="M41 251v93h468v-93h-468z" />
<glyph unicode="&#x221a;" horiz-adv-x="612" d="M358 0h-124l-143 416h-89v81h177l88 -275l16 -52.5t15 -53.5h2q10 52 24 99l150 543h117z" />
<glyph unicode="&#x221e;" horiz-adv-x="979" d="M406 297q-49 37 -89.5 60.5t-75.5 23.5q-42 0 -63.5 -24.5t-21.5 -57.5q0 -35 22.5 -58.5t64.5 -23.5q35 0 75.5 22.5t87.5 57.5zM824 299q0 35 -23 58.5t-65 23.5q-35 0 -76 -23t-87 -58q49 -37 89.5 -60t76.5 -23q42 0 63.5 24.5t21.5 57.5zM928 304q0 -37 -13 -69.5 t-37.5 -57t-61 -39t-83.5 -14.5q-59 0 -119.5 30t-127.5 81q-28 -21 -58 -41t-61.5 -35.5t-64 -25t-66.5 -9.5q-47 0 -81.5 13.5t-57.5 37t-34.5 54t-11.5 65.5q0 38 13.5 71t38.5 57t60.5 38t78.5 14q63 0 124 -31.5t127 -80.5l56.5 40t61 36t64.5 26t66 10q45 0 80 -13 t59 -36t36 -54t12 -67z" />
<glyph unicode="&#x222b;" horiz-adv-x="341" d="M317 881q-10 3 -23 5.5t-26 2.5q-17 0 -29.5 -5.5t-20.5 -22t-12 -45.5t-4 -76q0 -40 1.5 -100t3 -131.5t4 -149.5t4 -153.5t3 -143.5t1.5 -119q0 -71 -10 -121t-29.5 -81.5t-50 -46t-70.5 -14.5q-13 0 -27 2l-27 4v94q10 -3 22.5 -5t23.5 -2q18 0 31 5.5t21 21.5 t12 44.5t4 74.5q0 38 -1.5 97.5t-3 131t-4 150t-4 154.5t-3 144.5t-1.5 120.5q0 72 11 122.5t31.5 81.5t51 45t69.5 14q12 0 26 -1.5t26 -4.5v-93v0z" />
<glyph unicode="&#x2248;" d="M508 185q-26 -23 -61.5 -39.5t-73.5 -16.5q-35 0 -60 9t-46 20.5t-42.5 20.5t-49.5 9q-29 0 -53.5 -13.5t-43.5 -29.5l-36 73q23 21 57 40.5t75 19.5q34 0 59 -9.5t47 -20.5t45 -20.5t53 -9.5q51 0 95 40l35 -73v0zM507 374q-24 -25 -57.5 -43t-75.5 -18q-34 0 -58 9 t-45.5 20.5t-43.5 20.5t-52 9q-29 0 -54 -13t-44 -29l-35 73q26 23 61.5 41t75.5 18q34 0 59.5 -9.5t47.5 -20.5t43 -20.5t47 -9.5t49.5 12.5t46.5 32.5l35 -73v0z" />
<glyph unicode="&#x2260;" d="M269 164l-52 -131h-95l52 131h-124v87h158l37 92h-195v87h229l53 133h96l-53 -133h125v-87h-160l-37 -92h197v-87h-231z" />
<glyph unicode="&#x2264;" d="M69 0v89h412v-89h-412zM405 135l-349 252l348 252l65 -73l-266 -178l266 -177z" />
<glyph unicode="&#x2265;" d="M69 0v89h412v-89h-412zM146 135l-65 73l266 179l-266 176l64 76l349 -251z" />
<glyph unicode="&#x25ca;" horiz-adv-x="622" d="M306 567l-160 -224l170 -235l161 223zM347 -9h-67l-252 349l249 344h65l252 -349z" />
<glyph unicode="&#xe000;" horiz-adv-x="495" d="M0 495h495v-495h-495v495z" />
<glyph unicode="&#xe080;" horiz-adv-x="888" d="M736 263q0 75 -23.5 115t-74.5 40q-30 0 -53 -16t-39 -41t-24 -56.5t-8 -63.5v-154q33 -10 79 -10q64 0 103.5 43t39.5 143zM849 273q0 -64 -18 -116t-52 -89t-82.5 -56.5t-109.5 -19.5q-57 0 -97.5 5.5t-81.5 15.5v631q-38 7 -79 7q-60 0 -90 -25.5t-30 -82.5v-46h124 v-83h-124v-414h-106v414h-95v83h95v53q0 85 56 136.5t180 51.5q38 0 84 -4.5t91 -11.5v-221q0 -22 -2 -48.5t-6 -46.5h2q20 47 61.5 74t96.5 27q89 0 136 -60.5t47 -173.5z" />
<glyph unicode="&#xe081;" horiz-adv-x="902" d="M719 0v320q0 47 -15.5 72.5t-58.5 25.5q-28 0 -52 -14t-41.5 -38t-27.5 -56.5t-10 -70.5v-239h-106v644q-38 7 -79 7q-60 0 -90 -25.5t-30 -82.5v-46h124v-83h-124v-414h-106v414h-95v83h95v53q0 85 56 136.5t180 51.5q38 0 84 -4.5t91 -11.5v-217q0 -23 -1.5 -51.5 t-6.5 -48.5l2 -1q22 47 65 75t104 28q42 0 70.5 -12.5t45.5 -34t24.5 -50.5t7.5 -62v-348h-106z" />
<glyph unicode="&#xe082;" horiz-adv-x="591" d="M514 -47q0 -50 -9 -88t-30 -64t-56 -39t-86 -13q-17 0 -35.5 2t-33.5 7l8 92q14 -5 30 -8t31 -3q22 0 36.5 5t23 17t12 32t3.5 50v471h-199v-414h-106v414h-95v83h95v20q0 108 57.5 164.5t179.5 56.5q41 0 76.5 -5t70.5 -14l-19 -89q-29 9 -61.5 14.5t-60.5 5.5 q-73 0 -105 -32t-32 -92v-29h305v-544v0z" />
<glyph unicode="&#xe083;" horiz-adv-x="836" d="M408 644q-38 7 -79 7q-60 0 -90 -25.5t-30 -82.5v-46h124v-83h-124v-414h-106v414h-95v83h95v53q0 85 56 136.5t180 51.5q38 0 84 -4.5t91 -11.5v-438l162 213h131l-184 -227l198 -270h-136l-171 252v-252h-106v644v0z" />
<glyph unicode="&#xe084;" horiz-adv-x="654" d="M422 623q-26 11 -51 14.5t-48 3.5q-60 0 -87 -28.5t-27 -83.5v-32h196v38q0 27 4.5 48.5t12.5 39.5zM672 640q-17 5 -34 7.5t-34 2.5q-48 0 -70 -27t-22 -86v-40h128v-83h-128v-414h-107v414h-196v-414h-106v414h-95v83h95v24q0 44 12 81.5t38.5 65.5t69.5 44t105 16 q38 0 76 -6t71 -18q22 16 53 24.5t71 8.5q42 0 81 -9z" />
<glyph unicode="&#xe085;" horiz-adv-x="592" d="M408 0v414h-199v-414h-106v414h-95v83h95v20q0 108 57.5 164t179.5 56q41 0 76.5 -5t70.5 -14l-19 -89q-29 9 -61.5 14.5t-60.5 5.5q-73 0 -105 -31.5t-32 -91.5v-29h305v-497h-106z" />
<glyph unicode="&#xe086;" horiz-adv-x="592" d="M408 0v643q-38 7 -79 7q-60 0 -90 -25t-30 -82v-46h124v-83h-124v-414h-106v414h-95v83h95v53q0 42 13.5 76.5t42 59t73.5 38t107 13.5q38 0 84 -4t91 -12v-721h-106z" />
<glyph unicode="&#xe087;" horiz-adv-x="893" d="M427 621q-29 12 -54 16t-50 4q-60 0 -87 -28.5t-27 -83.5v-32h196v20q0 26 4.5 53t17.5 51zM710 0v414h-198v-414h-107v414h-196v-414h-106v414h-95v83h95v24q0 44 12 82t39 65.5t70 43.5t105 16q44 0 84 -7.5t72 -21.5q27 18 66 28.5t94 10.5q40 0 76 -5t73 -14l-20 -89 q-30 9 -63 14.5t-61 5.5q-73 0 -105.5 -32t-32.5 -92v-29h305v-497h-107z" />
<glyph unicode="&#xe088;" horiz-adv-x="893" d="M421 624q-26 11 -50 14t-48 3q-60 0 -87 -28.5t-27 -83.5v-32h196v53q0 43 16 74zM710 0v644q-38 7 -79 7q-60 0 -89.5 -25.5t-29.5 -82.5v-46h123v-83h-123v-414h-107v414h-196v-414h-106v414h-95v83h95v24q0 44 12 82t39 65.5t70 43.5t105 16q42 0 81.5 -7.5 t71.5 -20.5q56 38 159 38q38 0 84 -4.5t92 -11.5v-722h-107z" />
<glyph unicode="&#xe0a0;" horiz-adv-x="430" d="M346 720l-137 58l-132 -58l-26 56l161 85l163 -81z" />
<glyph unicode="&#xe0a1;" horiz-adv-x="375" d="M237 773q0 20 -14.5 35t-34.5 15q-21 0 -35 -15t-14 -35t14 -35t35 -15q20 0 34.5 15t14.5 35zM299 774q0 -22 -9 -41.5t-24 -34.5t-35.5 -23.5t-43.5 -8.5q-46 0 -78 30t-32 76q0 23 9 42.5t24 33.5t35.5 22.5t42.5 8.5q47 0 79 -30t32 -75z" />
<glyph unicode="&#xe0a2;" horiz-adv-x="483" d="M431 809q-45 -77 -118 -77q-26 0 -43.5 8t-32 17l-27 17t-28.5 8q-34 0 -60 -44l-54 37q21 38 50.5 58t67.5 20q25 0 43 -8t32 -17l27 -17t28 -8q34 0 61 44l54 -38v0z" />
<glyph unicode="&#xe0a3;" horiz-adv-x="388" d="M329 855q0 -27 -9 -50t-26.5 -40.5t-43 -27.5t-58.5 -10t-58 10t-41.5 27.5t-25 41t-8.5 49.5h65q0 -25 19.5 -42t49.5 -17q32 0 50.5 17t18.5 42h67v0z" />
<glyph unicode="&#xe0a4;" horiz-adv-x="285" d="M235 783q0 -25 -18 -42.5t-44 -17.5t-44 17t-18 43q0 25 18 43t44 18t44 -17.5t18 -43.5z" />
<glyph unicode="&#xe0a5;" horiz-adv-x="318" d="M309 652q0 -26 -17.5 -43.5t-43.5 -17.5q-25 0 -42.5 17.5t-17.5 43.5q0 25 17.5 42.5t42.5 17.5q26 0 43.5 -17t17.5 -43zM129 652q0 -26 -17 -43.5t-43 -17.5t-43.5 17.5t-17.5 43.5q0 25 17.5 42.5t43.5 17.5t43 -17t17 -43z" />
<glyph unicode="&#xe0a6;" horiz-adv-x="371" d="M223 556l-145 138l65 61l133 -148z" />
<glyph unicode="&#xe0a7;" horiz-adv-x="391" d="M164 556l-50 50l132 149l63 -61z" />
<glyph unicode="&#xe0a8;" horiz-adv-x="430" d="M301 566l-88 83l-90 -83l-40 49l131 133l130 -132z" />
<glyph unicode="&#xe0a9;" horiz-adv-x="477" d="M392 669q-17 -38 -42.5 -59t-61.5 -21q-18 0 -32.5 7.5t-27 16l-23 16t-19.5 7.5q-15 0 -27 -13t-19 -29l-51 37q12 33 38.5 58t65.5 25q18 0 33 -7.5t27 -16.5l22.5 -16.5t19.5 -7.5q15 0 26.5 13t19.5 29z" />
<glyph unicode="&#xe0aa;" horiz-adv-x="395" d="M75 609v78h245v-78h-245z" />
<glyph unicode="&#xe0ab;" horiz-adv-x="388" d="M316 719q0 -69 -32 -106t-92 -37t-90.5 37.5t-30.5 105.5h71q0 -26 13 -45.5t38 -19.5q24 0 37.5 17.5t13.5 47.5h72z" />
<glyph unicode="&#xe0ac;" horiz-adv-x="546" d="M420 782q0 -25 -17 -41.5t-42 -16.5t-42 16.5t-17 41.5t17 42t42 17t42 -17t17 -42zM223 782q0 -25 -17 -41.5t-42 -16.5t-42 16.5t-17 41.5t17 42t42 17t42 -17t17 -42z" />
<glyph unicode="&#xe0ae;" horiz-adv-x="340" d="M141 598l-62 36l104 168l78 -43z" />
<glyph unicode="&#xea01;" horiz-adv-x="703" d="M703 -67q-43 -6 -74.5 -4t-57 8.5t-47.5 15.5t-44.5 17t-49 14t-61.5 6h-27q-77 0 -134 24t-95 68.5t-56.5 107t-18.5 140.5q0 84 25.5 150t69.5 111.5t103 69.5t126 24q68 0 124 -21t96 -63.5t62 -106t22 -148.5q0 -67 -17 -120.5t-43 -92.5q-15 -23 -41 -45.5 t-52 -34.5q23 0 43 -5.5l41.5 -11t46.5 -9t59 0.5v-95v0zM550 335q0 123 -51.5 188.5t-146.5 65.5q-39 0 -75 -15.5t-63 -46.5t-43.5 -77t-16.5 -107q0 -57 12 -104.5t36 -81t61 -52t87 -18.5q37 0 73 15t64.5 46t45.5 77.5t17 109.5z" />
<glyph unicode="&#xea43;" horiz-adv-x="1316" d="M947 -34q-5 -6 -11.5 -8t-13.5 -3l-14 -2t-12 -5q-17 -2 -32 -6.5t-22 -21.5q-4 -10 -9.5 -19.5t-10.5 -19.5t-8 -20.5t0 -22.5q2 -9 11 -8.5t15 2.5q4 0 6.5 4.5t7.5 1.5t1 -6t-6 -7q-8 -5 -18 -7.5t-20 2.5q-8 8 -12 16.5t-1 19.5q2 8 8.5 24t26.5 50q-8 4 -16 3 t-15.5 -2.5t-15.5 -2.5t-16 2q5 6 12.5 9t14.5 5q13 3 27.5 2t22.5 12q7 11 5 22.5t0 23.5q-5 2 -5 6v6q-6 11 -15 17t-19.5 8.5t-21.5 3t-21 0.5q-23 -2 -42.5 -17t-27.5 -35q-7 -16 -5.5 -32t8.5 -33q-2 -12 2.5 -23t10 -21.5t8 -22.5t-3.5 -25q-5 -5 -12.5 -4t-13.5 3 q-14 7 -15.5 22t-6.5 28q8 6 7 16.5t5 18.5q2 5 1 13t-8 11q-17 -2 -37.5 -2t-34.5 -12q1 -11 2.5 -22t1 -22t-4.5 -21t-14 -17q-11 -3 -24 4q-11 9 -9.5 21.5t1.5 24.5q8 15 15.5 31.5t24.5 22.5q8 -5 16.5 -3l16.5 4l49 1q5 5 4.5 12.5t1.5 13.5q9 29 31.5 51.5t54.5 24.5 q17 2 33 1t31 -9q1 -5 4 -8t7 -5t7.5 -5t4.5 -8q9 -14 6.5 -33t-5.5 -35q23 0 45 4t42 8zM541 -54q-4 -3 -8 -1.5t-8 3.5t-8.5 3.5t-8.5 -1.5q-7 -5 -10 -11t-4.5 -12.5t-3.5 -13t-6 -11.5q-2 -14 -5 -26.5t-3 -25.5l-6 -4t-8 0q-6 8 -3 18t2 18q7 9 5.5 21.5t3.5 22.5 q-3 5 -2.5 12.5t-1.5 12.5q-5 2 -7.5 -2t-7.5 1q2 10 14 18q8 0 12 -6t7 -12q4 1 7.5 5.5t7 8t8 4.5t9.5 -4zM408 -9q-1 -38 1.5 -76t0.5 -74.5t-13.5 -69.5t-39.5 -61q-32 -20 -70.5 -24.5t-74.5 5.5q-4 2 -8 5.5t-4 8.5q2 10 6 20t16 14q-3 -8 -6.5 -16t-5.5 -17 q13 -8 29 -11t33.5 -2t34 6t29.5 12q14 5 22.5 14t13.5 20t9 22.5t9 22.5q6 35 7 75.5t-1 70.5q4 11 1 24t-1 24q-2 5 -6 3.5t-6 -2.5q-8 -8 -11 -17.5t-11 -15.5q1 -8 -2 -12t-7.5 -7.5t-8.5 -7.5t-4 -11q-20 -23 -37.5 -46.5l-34.5 -47.5q-4 -6 -7 -12t-11 -5 q-5 7 -5.5 14.5t0 15t1.5 15.5t0 16q5 17 9 35t17 35q9 24 25.5 47.5t40.5 38.5q14 4 24.5 -2.5l21.5 -13.5q8 10 12 24q12 -5 12 -20q-5 -5 -1.5 -8.5t1.5 -8.5zM731 209q-18 -3 -35 -8l-34 -10t-34 -8.5t-35 -1.5q-3 -3 -5 -11t-0.5 -16t5.5 -13t13 -2q3 4 4.5 11.5 t7.5 9.5q5 -9 1.5 -17.5t-9.5 -15.5q-3 -2 -10.5 -2.5t-14.5 4t-11.5 15.5t-1.5 32q-2 3 -4.5 6t-0.5 8q11 8 12 20.5t3 25.5q-2 1 -2 2t-2 2q-17 -11 -26 -29t-22 -32q0 -7 -4 -12.5t-8.5 -11t-8 -11.5t-1.5 -14q-3 -3 -3.5 -8t-1 -9.5t-2.5 -8t-9 -4.5q-9 2 -12 7.5t-3 12 t1 13.5t0 13q-3 19 1 35t1 33q-9 -5 -11.5 -14t-9.5 -17q-5 -6 -9.5 -14t-9.5 -15t-12.5 -10.5t-17.5 -1.5q-11 17 -4 36t17 36l9 11.5t10.5 11.5t12.5 7.5t15 -0.5q5 -3 10 0q9 21 13.5 44t6.5 46l10 8q6 -2 7 -5t-0.5 -7l-3 -8t-0.5 -8q-4 -28 -9.5 -55.5t-7.5 -54.5 q-1 -15 -4 -29t2 -29q16 21 30 46t36 46q6 8 14 16t18 14q8 -6 15 -14.5t15 -13.5q0 -9 -1 -20t1 -20q27 6 51.5 10t50.5 12q8 -5 7 -13zM1064 581q-2 29 -16 58t-44 43q6 9 12.5 8t12.5 -6t11 -12.5t9 -11.5q16 -19 23 -41.5t7.5 -46.5t-5 -48t-14.5 -46q-14 -34 -41 -63.5 t-63 -44.5q14 10 26.5 21.5t21.5 26.5q16 16 30 35t18 45q12 20 13 41t-1 42zM974 480q-3 -8 -9 -15.5t-15 -9.5q-8 2 -11.5 6.5l-8.5 10.5l2 14q5 -2 4.5 -8t6.5 -8q5 -2 9.5 3t6.5 8q4 23 0.5 45t-15.5 42l-6 -3l-22.5 -20.5t-17.5 -24.5l-8 -4q-14 -14 -24 -29.5 t-22 -26.5q-6 -1 -8.5 1.5t-4 6.5t-2 9t-2.5 8q4 10 -3 17q-6 1 -6.5 -3.5t-3.5 -6.5q-8 -8 -14.5 -11.5t-17.5 -4.5q-11 3 -14 9t-1.5 13.5t4 16.5t2.5 17q4 15 13 26.5t20 23.5q10 2 22 6t20 -8l4 -6q-6 -17 -7.5 -35.5t-3.5 -36.5q1 -3 2.5 -6.5t5.5 -3.5q11 0 13.5 9 t9.5 15q22 19 41 38.5l37 39.5q6 -2 8.5 -7.5t3 -11.5l1 -12.5t3.5 -10.5q5 -2 3 -8q8 -15 7.5 -31t-2.5 -33zM838 676q-3 -5 -9.5 -10t-14.5 -4l-4.5 7t-7.5 -1q-29 -23 -55.5 -48.5t-37.5 -59.5q-3 -20 -5 -42t1 -43t11.5 -39.5t25.5 -31.5q10 -8 22 -6.5t24 0.5 q6 4 10.5 8.5t10.5 8.5q2 -9 -6.5 -13t-14.5 -10q-15 -6 -32.5 -2.5t-29.5 14.5q-23 21 -27 46q-5 2 -5 5t1 6t1.5 6t-3.5 5q2 3 1 6.5t-2.5 7.5t-2 7.5t2.5 8.5q-1 30 8.5 55.5t25.5 48t37 42t43 36.5q4 0 9 1.5t10 1.5t8.5 -2t4.5 -9zM655 498q-7 -17 -22 -29.5t-35 -12.5 t-37.5 7.5t-26.5 24.5q-8 11 -7.5 23.5t2.5 26.5q2 9 7.5 15t6.5 15q29 24 64 12q4 -3 8 -4.5t3 -7.5q-3 -4 -7 0t-9 4q-27 7 -50 -16q-8 -12 -12 -26.5t2 -28.5q22 -30 54 -34q9 4 19.5 4t18.5 10q6 4 9.5 12.5t11.5 4.5zM501 470q-5 -12 -9 -24.5t-13 -23.5 q-7 -3 -12.5 0.5t-8.5 9.5q-16 37 -10 75q-2 1 -1 8t1.5 16t0.5 18t-3 13q-6 -15 -6.5 -31l-1 -31.5t-4 -30t-15.5 -27.5q-2 -2 -7 -3.5t-12 1.5t-13 11.5t-9 28.5q3 19 4 36.5t4 35.5q2 7 -2 14.5t4 13.5q7 4 13 -4q1 -15 -1 -31.5t-3 -32t-0.5 -29t6.5 -23.5q7 -5 10.5 -2 t5 9t2.5 12.5t3 8.5q4 20 3 42t5 42q3 3 5 7.5t4 8t5.5 5t9.5 -2.5q7 -20 7.5 -38.5t-0.5 -37.5t-0.5 -38t6.5 -38q1 -3 4.5 -4t6.5 3l2 5.5t4.5 11.5t6 11t8.5 5zM345 440l-4 -4t-10 -4t-24 -4.5t-46 -4.5q-34 -3 -64.5 -8.5t-62.5 -16.5q-5 -11 -13.5 -8t-14.5 6q-1 4 1 7 t5 5.5l6 5t4 6.5q6 12 10.5 24t8.5 24q-2 6 2 13t7 13q22 51 42 102.5t32 105.5q-4 14 3 21q6 2 8 -2t5 -7q-7 -39 -20 -75t-28 -71.5l-29.5 -71.5t-24.5 -74l2 -2q38 6 73 13t75 8q12 -2 27 -2t27 5zM706 -154q6 13 2 28t-12 26q-5 -6 -6 -13l-2 -14q2 -8 4.5 -16.5 t13.5 -10.5zM572 -92q-2 -11 -3.5 -23t2.5 -23q3 -3 8 -2.5t9.5 3.5t6.5 8.5t-1 13.5q1 4 2.5 11t1 13.5t-3 11.5t-8.5 6zM372 -6q-3 11 -15 13t-21 -2q-11 -9 -21.5 -19t-18.5 -21q-5 -15 -12 -30t-13 -30t-9.5 -30.5t-1.5 -32.5q3 -1 3.5 0.5t2.5 3.5q13 18 28.5 35 l30.5 35t27 37t20 41zM599 208q2 5 4 13.5t-6 10.5l-5 -29q5 1 5 2t2 3zM461 230q-7 2 -13 -3t-10 -11q-11 -14 -19.5 -30t-1.5 -33q5 -2 7 1l4 6q11 11 19.5 23t15.5 27zM828 575q-5 4 -7 -0.5t-5 -2.5q-23 -11 -30.5 -34t-6.5 -46q7 -2 12 4t12 4q3 7 8.5 14.5t10 15t6 16 t-5.5 16.5q6 0 6 5.5v7.5z" />
<glyph unicode="&#xeeee;" horiz-adv-x="175" d="M175 980v-1300h-175v1300h175z" />
<glyph unicode="&#xeeef;" d="M450 100v350h-350v-350h350zM250 350v50h150v-250h-50v100h-100v50h100v50h-100zM50 50v450h450v-450h-450zM150 150v250h50v-200h100v-50h-150z" />
<glyph unicode="&#xf000;" horiz-adv-x="960" d="M887 571q-2 -4 -3 -4q-11 2 -21.5 0.5t-21.5 -2.5q-34 -2 -53 -3t-37 -4q-8 -7 -8.5 -16t-5.5 -17q-1 -5 0.5 -8t1.5 -7q2 -3 6 -4.5t7 -2.5q8 1 14.5 4t10.5 9q0 7 -5 12q-5 4 -10.5 3t-9.5 4q4 5 10.5 4t12.5 -1q8 -3 13 -16q-4 -15 -21 -27q-5 -2 -10.5 -2.5 t-11.5 -2.5q-11 3 -23.5 8t-18.5 16q-3 12 1.5 22.5t6.5 21.5q-2 5 -6 4t-8 0l-34 -1q0 2 -1 2t-1 2q4 2 8 2t7 1q9 -2 19 -1t19 1q5 3 5.5 7.5t1.5 9.5q4 7 5 16t8 14q5 3 7.5 -1t4.5 -6q5 -8 2 -17.5t0 -18.5q2 -6 9 -4t12 0q23 2 49 1.5t65 4.5q3 -2 4 -3zM646 502 q-12 0 -25.5 -0.5t-26.5 -4.5q-3 2 -6 2.5t-5 5.5q4 14 6.5 28t0.5 28q-2 3 -6.5 0.5t-7.5 -4.5q-15 -8 -29.5 -19.5t-17.5 -28.5q-4 -4 -9.5 -5.5t-9.5 0.5q-5 7 -1.5 15t1.5 16l3 31q-3 3 -8 1.5t-10 0.5q-2 2 -6.5 1t-3.5 4q13 -1 25.5 1t26.5 0q3 -3 2.5 -7t-1.5 -8 t0 -7t5 -5q14 6 27 14.5t27 13.5q3 -2 7 -1.5t7 0.5q4 0 6.5 -1.5t3.5 -6.5q1 -11 -0.5 -21.5t-2.5 -21.5q1 -3 0.5 -6.5t1.5 -5.5q9 -2 13 0q4 0 8 -1t9 -1q3 -2 0 -5zM452 559q1 -18 -10 -31q-12 -7 -22 -15.5t-24 -10.5q-3 1 -4 -0.5t-2.5 -3t-3 -2.5t-4.5 1q-5 4 -12 2 t-13 -1q-6 0 -10.5 0.5t-9.5 2.5q-7 7 -13.5 15.5t0.5 20.5q8 20 27 30l23 10.5t25 2.5q16 -1 31.5 -4t21.5 -17zM469 664q-13 -13 -30 -8l-7.5 11.5t-3.5 12.5q-10 20 -31.5 25t-42.5 11l-31 2q-2 -2 -6 -1t-7 -1q-18 -5 -31 -10t-26 -11q-7 -8 -17.5 -13.5t-13.5 -16.5 q-8 -15 -12 -34t-7 -36q5 -4 11 -2.5t11 0.5q22 2 42 2h44q5 -2 0 -7q-9 -6 -15.5 -0.5t-14.5 2.5q-10 1 -21 -0.5t-21 -0.5q-9 -2 -19 -2t-18 -5l-3 -4q-4 -19 -5 -31t-1 -32q1 -7 -1.5 -14t2.5 -14q13 -1 20.5 -0.5t14 1t14 1.5t20.5 1q4 2 7 1l6 -2q1 -1 0.5 -2t0.5 -2 l-5 -2q-11 2 -20 1.5t-18.5 -1.5t-20.5 -2t-26 0l-23 -2t-24 0q-15 -1 -32 -1t-31 4l-1 3q3 3 9 5q8 -4 18 -4.5t20 -2.5q8 1 14.5 0.5t12.5 3.5q2 26 9 46t12 47l-2 4q-15 1 -29 0t-27 5q0 5 4 5q13 -4 27 -4q15 0 29 1l2 3l10 34.5t13 31.5l1 3q25 26 56.5 42t69.5 20 q17 2 35 -2t32 -11q5 -2 10 -2q6 0 11 -2q17 -4 32.5 -12t25.5 -23q1 -2 0 -4.5t-2 -4.5zM767 -62q-22 2 -49 -2.5t-48 -1.5q-56 2 -109 -4t-108 0q-25 -4 -48.5 -1.5t-47.5 4.5q-29 2 -59.5 1.5t-61.5 -0.5q-21 0 -50 -1.5t-50 -6.5q-4 -1 -9 -1q-4 0 -6 5q0 16 -1 32.5 t4 32.5q2 20 1 40t2 40q-4 23 -0.5 44.5t-0.5 44.5q0 32 2.5 64.5t4.5 66.5q2 36 0.5 71.5t0.5 71.5q4 8 11.5 6.5t14.5 0.5q8 -5 18.5 -2.5t18.5 1.5q3 3 7.5 5.5t5.5 -4.5q2 -2 0.5 -6t2.5 -6q-2 -14 -1.5 -38t2 -52t3.5 -57.5t3 -53.5q32 10 58.5 27.5t57.5 28.5 q5 2 9.5 6t11.5 6q2 1 4 3t6 0q5 -2 4 -7t-1 -10q-10 -29 -5 -61q2 -5 6.5 -3t7.5 2q8 7 17 11.5t17 10.5l20 11.5t21 9.5l23.5 16t24.5 13l20 16q1 4 6 7q3 0 5.5 -2t5.5 -4q0 -14 3 -28.5t3 -28.5q1 -3 3 -2.5t3 -1.5q4 -5 2 -10l-4 -10l2 -2q17 4 31.5 13t29 19t29 19 t31.5 13q5 5 11 6.5t11 6.5q5 1 9 4.5t8.5 6.5t9.5 4.5t11 -3.5q2 0 4 -1t3 -3q-1 -4 0.5 -6.5t3.5 -5.5q-2 -8 0 -14.5t-2 -12.5q1 -13 0 -25t5 -23q-2 -7 2.5 -12.5t-0.5 -10.5q1 -8 0 -14.5t4 -12.5q1 -5 1.5 -9.5t-2.5 -8.5q2 -11 2.5 -23t4.5 -23q-2 -4 -1 -8t1 -8 q0 -38 5.5 -73.5t6.5 -73.5q0 -2 1.5 -4.5t-0.5 -4.5zM428 539q-2 11 -6 21.5t-16 12.5q-2 -5 -6.5 -3.5t-8.5 0.5q-13 6 -27 -6q-12 -15 -6.5 -29t12.5 -27q1 -4 4.5 -3t7.5 0q6 -2 12.5 1.5t12.5 5.5q7 6 15 11t6 16zM720 -10q-2 8 -4.5 16.5t-7.5 15.5q-5 11 -10 20.5 t-4 22.5q-1 5 -3 8.5t0 8.5q9 8 20 13t19 13l-7 17q-9 -1 -16.5 -4.5t-15.5 -5.5q-5 -2 -10.5 -6t-9.5 1q5 20 9 39.5t7 38.5l-2 3q-8 0 -13.5 2.5t-12.5 4.5l-6.5 -23.5t-5.5 -24.5q-4 -8 -4 -20q0 -11 -5 -19q-5 -31 -11.5 -52t-9.5 -51l-2 -7h24q3 1 6 -1t6 1 q2 7 2.5 13.5t2.5 14.5t0 16.5t9 11.5q6 -2 5 -6.5t1 -8.5q-1 -7 2.5 -12t3.5 -11q9 -6 12.5 -16t11.5 -17q3 1 5 -1.5t7 -0.5q7 0 7 6zM625 179q-1 5 -3 9t-7 6q-2 2 -5 2.5t-5 -2.5q-5 -6 -8.5 -15t-0.5 -15q1 -5 7 -5.5t11 1.5q11 6 11 19zM595 15q4 20 7 39l6 37 q5 15 5 26q-6 5 -13 2t-15 -2q-9 -11 -10 -24t-4 -26q-4 -5 -5.5 -12t-3.5 -14q2 -10 -2.5 -22t0.5 -22q14 0 31 5q4 5 4 13zM567 123q-8 -1 -17 -2.5t-16 -10.5q-5 -4 -7.5 -11.5t-10.5 -5.5q-2 8 -0.5 14.5l3.5 14.5q-4 2 -7.5 0t-7.5 0q-9 -4 -14 -13l-10 -55.5t-7 -55.5 l3 -4q5 -4 11.5 -1.5t11.5 0.5q-2 11 2.5 20.5t2.5 20.5l10 22.5t15 21.5q6 5 13 6.5t15 6.5q2 8 6 16t4 16zM447 30q12 17 13 35t0 38q2 3 -1 6t-7 5t-8 4.5t-5 3.5q-2 2 -5 2q-2 0 -3 -3q-11 1 -20 -4q-6 -3 -9 -8t-8 -7q-2 -2 -4.5 -0.5t-3.5 3.5q7 18 8.5 36.5t2.5 37.5 l-1 7h-8q-9 -3 -9.5 -11t-3.5 -14q-6 -17 -8.5 -34t-8.5 -34q-2 -17 -6.5 -33t-5.5 -31q-2 -9 -5 -17.5t-4 -18.5q6 -4 15 -1t16 6q5 2 8 1t5.5 -4t4 -6t4.5 -5q8 0 13 1q12 6 27 19.5t17 25.5zM322 34q-1 11 2 23.5l6 24.5t5 24t-2 21q-5 4 -12 6.5t-9 -2.5l-2 -6 q-8 -2 -18.5 2t-19.5 -2q-8 -4 -10.5 -8t-4.5 -12q1 -3 -1.5 -4.5t-6 -3t-6 -4.5t-1.5 -9q-2 -4 -0.5 -6.5t-2.5 -6.5q-2 -5 -5.5 -13t-6.5 -10q-10 -6 -8.5 -20t5.5 -22q-2 -7 2.5 -11t9.5 -6q2 2 4 3t4 -1q8 -2 19 7.5t19 14.5q6 1 6 -1t-1.5 -5t-2.5 -7t1 -6 q5 -2 6.5 -3.5t6.5 -1.5q4 2 8 2.5t8 3.5zM266 181q-12 2 -25.5 1.5t-26.5 -1.5q-8 -1 -15.5 -2.5t-13.5 -5.5l-10 -32.5t-9 -32.5q-3 -26 -9.5 -54.5t-10.5 -55.5q4 0 8 1.5t6 -0.5q7 2 12 -0.5t11 0.5q5 16 7.5 31.5t7.5 31.5q3 5 8 7.5t10 4.5t8.5 0t7.5 3l4 28 q-3 5 -9 4.5t-12 -0.5q-4 -4 -7 -4q-8 2 -5.5 9.5t0.5 12.5q-1 3 1.5 5.5l4.5 4.5q11 3 21 4.5t20 3.5l6 4q1 9 4.5 16.5t5.5 15.5zM428 77q4 -14 -2.5 -29t-17.5 -26q-3 -4 -6.5 -4.5t-7.5 -2.5q-12 2 -11.5 13t0.5 20q4 8 6 16.5t7 15.5q8 4 13 11t13 7l2 -3 q-4 -7 -0.5 -10t4.5 -8zM291 57q-1 -8 -8.5 -20t-15.5 -18q-4 -1 -8.5 -4t-9.5 0q-6 2 -2.5 7.5t5.5 10.5q0 2 1.5 10t6 18t11 20.5t15.5 16.5q9 1 11 1q3 0 6 2q2 -3 0 -9l-4.5 -13l-5 -13.5t-2.5 -8.5z" />
<glyph unicode="&#xf6c9;" horiz-adv-x="391" d="M106 721l-19 60l193 74l27 -79z" />
<glyph unicode="&#xf6ca;" horiz-adv-x="430" d="M212 720l-162 81l28 60l138 -59l131 58l26 -55z" />
<glyph unicode="&#xf6cb;" horiz-adv-x="546" d="M214 782q0 -25 -17 -41.5t-42 -16.5t-42 16.5t-17 41.5t17 42t42 17t42 -17t17 -42zM429 782q0 -25 -17 -41.5t-42 -16.5t-42 16.5t-17 41.5t17 42t42 17t42 -17t17 -42z" />
<glyph unicode="&#xf6ce;" horiz-adv-x="371" d="M269 721l-201 55l27 79l193 -74z" />
<glyph unicode="&#xf6cf;" horiz-adv-x="498" d="M121 719l-36 49l145 108l46 -63zM322 720l-33 51l158 98l42 -67z" />
<glyph unicode="&#xf6d0;" horiz-adv-x="418" d="M68 745v70h283v-70h-283z" />
<glyph unicode="&#xf8ff;" horiz-adv-x="1042" d="M157 362q-2 -26 0 -50l-138 -12q-3 37 0 74zM531 355q2 0 2 5t-2 5q3 -5 0 -10zM528 357q5 0 2.5 2t-0.5 2v1q-5 0 -2 -2t0 -2v-1v0zM525 359q-2 -2 -2 -1q0 2 2 1zM525 357h1v3q0 5 -4 1q2 0 3 -1q-2 0 -3 -2t3 0v-1zM522 355q-3 5 0 10q-2 0 -2 -5t2 -5zM518 358 q-2 -1 -2 1q0 3 2 2v1q-2 1 -2.5 -2.5t2.5 -2.5v1zM513 362v-3q0 -2 -0.5 -1.5t-0.5 1.5v3h-1v-3q0 -2 1 -2q2 0 2 2v3h-1zM510 358h-2v6h-1v-7h3v1zM633 -12l-238 -61l24 -59h205l13 30l-6 12l-72 -19l-13 37l102 26zM632 71l-238 -61l15 -36l238 60zM397 145v-51l15 -36 l233 59v28h-248zM563 333q-12 2 -22 2h-19h-21q-10 0 -22 -2l14 -141h56l14 141v0zM452 192l-15 134q-14 -3 -22.5 -7t-15.5 -6t-11 5.5t-5 17.5t1 19t7 11q29 8 63 14t68 6q35 0 68 -6t63 -14q4 -1 6 -10.5t1.5 -19.5t-5 -17.5t-11.5 -4.5q-14 6 -39 12l-14 -134h55 q26 24 46 61t20 84q0 39 -15 74t-41 61t-60.5 41t-73.5 15q-40 0 -74.5 -15t-60.5 -41t-41 -61t-15 -74q0 -42 17.5 -80t49.5 -65h54zM770 337q0 -51 -19 -95.5t-48 -74.5v-78l-16 -5l32 -75l-31 -8l31 -72l-32 -8l10 -25l-30 -69h-54q-3 -20 -29 -33t-62 -13q-38 0 -64 13 t-28 33h-54l-52 125l31 9l-32 75l35 9l-19 45v78q-29 32 -47.5 75.5t-18.5 93.5q0 51 19.5 96.5t53 79t79 53t97.5 19.5q51 0 96 -19.5t79 -53t53.5 -79t19.5 -96.5zM1023 373q2 -19 2 -37q0 -17 -1 -35l-136 11q2 25 0 50l135 11v0zM846 713q14 -12 27 -24.5t24 -27.5 l-102 -86q-8 9 -18 18.5l-18 16.5zM547 691q-13 2 -25.5 1.5t-25.5 -1.5l-11 133q18 2 37 2t36 -2l-11 -133v0zM145 663q12 14 25 27t27 24l88 -105q-9 -7 -18.5 -16.5t-17.5 -18.5l-104 89v0z" />
<glyph unicode="&#xfb00;" horiz-adv-x="654" d="M422 623q-26 11 -51 14.5t-48 3.5q-60 0 -87 -28.5t-27 -83.5v-32h196v38q0 27 4.5 48.5t12.5 39.5zM672 640q-17 5 -34 7.5t-34 2.5q-48 0 -70 -27t-22 -86v-40h128v-83h-128v-414h-107v414h-196v-414h-106v414h-95v83h95v24q0 44 12 81.5t38.5 65.5t69.5 44t105 16 q38 0 76 -6t71 -18q22 16 53 24.5t71 8.5q42 0 81 -9z" />
<glyph unicode="&#xfb01;" horiz-adv-x="592" d="M408 0v414h-199v-414h-106v414h-95v83h95v20q0 108 59 164t178 56q41 0 76.5 -5t70.5 -14l-19 -89q-29 9 -61.5 14.5t-60.5 5.5q-73 0 -105 -31.5t-32 -91.5v-29h305v-497h-106z" />
<glyph unicode="&#xfb02;" horiz-adv-x="592" d="M408 0v643q-38 7 -79 7q-60 0 -90 -25t-30 -82v-46h124v-83h-124v-414h-106v414h-95v83h95v53q0 42 13.5 76.5t42 59t73.5 38t107 13.5q38 0 84 -4t91 -12v-721h-106z" />
<glyph unicode="&#xfb03;" horiz-adv-x="893" d="M427 621q-29 12 -54 16t-50 4q-60 0 -87 -28.5t-27 -83.5v-32h196v20q0 26 4.5 53t17.5 51zM710 0v414h-198v-414h-107v414h-196v-414h-106v414h-95v83h95v24q0 44 12 82t39 65.5t70 43.5t105 16q44 0 84 -7.5t72 -21.5q27 18 66 28.5t94 10.5q40 0 76 -5t73 -14l-20 -89 q-30 9 -63 14.5t-61 5.5q-73 0 -105.5 -32t-32.5 -92v-29h305v-497h-107z" />
<glyph unicode="&#xfb04;" horiz-adv-x="893" d="M421 624q-26 11 -50 14t-48 3q-60 0 -87 -28.5t-27 -83.5v-32h196v53q0 43 16 74zM710 0v644q-38 7 -79 7q-60 0 -89.5 -25.5t-29.5 -82.5v-46h123v-83h-123v-414h-107v414h-196v-414h-106v414h-95v83h95v24q0 44 12 82t39 65.5t70 43.5t105 16q42 0 81.5 -7.5 t71.5 -20.5q56 38 159 38q38 0 84 -4.5t92 -11.5v-722h-107z" />
</font>
</defs>
</svg>
