<?xml version="1.0" standalone="no"?>
<!DOCTYPE svg PUBLIC "-//W3C//DTD SVG 1.1//EN" "http://www.w3.org/Graphics/SVG/1.1/DTD/svg11.dtd" >
<svg xmlns="http://www.w3.org/2000/svg">
<metadata>
Copyright   : Copyright  2000-2011 Lucas de Groot. All rights reserved. Published by LucasFonts.
Designer    : Lucas de Groot
Foundry     : LucasFonts
Foundry URL : http://www.lucasfonts.com
</metadata>
<defs>
<font id="TheSans_TT7i" horiz-adv-x="550" >
<font-face units-per-em="1000" ascent="740" descent="-260" />
<missing-glyph horiz-adv-x="218" />
<glyph horiz-adv-x="0" />
<glyph horiz-adv-x="0" />
<glyph unicode="&#xd;" horiz-adv-x="500" />
<glyph unicode=" "  horiz-adv-x="218" />
<glyph unicode="&#x09;" horiz-adv-x="218" />
<glyph unicode="&#xa0;" horiz-adv-x="218" />
<glyph unicode="!" horiz-adv-x="315" d="M214 69q0 -35 -24.5 -57.5t-57.5 -22.5t-53.5 21t-20.5 50q0 35 24.5 58t57.5 23t53.5 -21.5t20.5 -50.5zM214 188h-108l79 520h147z" />
<glyph unicode="&#x22;" horiz-adv-x="397" d="M195 448h-93l32 254h126zM380 448h-93l32 254h125z" />
<glyph unicode="#" horiz-adv-x="583" d="M589 411h-89l-42 -143h79l-17 -90h-88l-54 -178h-101l53 178h-132l-53 -178h-102l53 178h-79l17 90h89l42 143h-80l18 89h88l51 175h102l-51 -175h132l51 175h102l-51 -175h79zM266 411l-41 -143h131l42 143h-132z" />
<glyph unicode="$" horiz-adv-x="484" d="M428 201q0 -39 -16.5 -73.5t-44 -62t-64 -46t-77.5 -23.5l-24 -120h-89l22 113q-33 1 -61 4t-55 9l30 114q13 -5 28.5 -9.5t31 -7t31 -3.5t30.5 -1q21 0 42.5 4t38.5 14.5t28 27.5t11 41q0 21 -16 36t-39.5 28t-51.5 27t-51.5 32.5t-39.5 44.5t-16 63q0 39 14 71.5 t39.5 58t60.5 42.5t77 22l19 98h90l-18 -92q26 -1 50 -3.5t47 -7.5l-29 -107q-27 8 -54 12t-51 4q-25 0 -45.5 -5t-35 -15t-22.5 -24t-8 -33q0 -20 16 -34.5t40.5 -27.5t53 -26.5t52.5 -32.5t40 -46t16 -66v0z" />
<glyph unicode="%" horiz-adv-x="745" d="M604 182q0 24 -9.5 34.5t-29.5 10.5q-17 0 -31 -9t-24.5 -24.5t-16.5 -36t-6 -42.5q0 -26 10 -36t29 -10q17 0 31 9t24.5 24.5t16.5 36t6 43.5zM303 561q0 46 -40 46q-16 0 -30.5 -9.5t-25 -25t-16.5 -36t-6 -42.5q0 -26 10.5 -36t29.5 -10q17 0 31 9t24.5 24.5t16.5 36 t6 43.5zM699 192q0 -49 -16.5 -87t-42.5 -64t-58 -39t-64 -13q-63 0 -94.5 30.5t-31.5 86.5q0 49 16.5 86.5t42.5 63t58 39t63 13.5q61 0 94 -29.5t33 -86.5zM118 -22l-68 61l618 657l68 -62zM398 571q0 -49 -16.5 -87t-42.5 -64t-58.5 -39t-64.5 -13q-63 0 -94.5 30.5 t-31.5 86.5q0 49 16.5 86.5t42.5 63t58.5 39t63.5 13.5q61 0 94 -29.5t33 -86.5z" />
<glyph unicode="&#x26;" horiz-adv-x="781" d="M418 150l-80 84.5t-70 84.5q-41 -30 -69.5 -62t-28.5 -73q0 -35 22.5 -60.5t71.5 -25.5q37 0 76.5 12.5t77.5 39.5zM403 592q0 23 -13 36.5t-39 13.5q-32 0 -53 -22t-21 -55q0 -20 9.5 -43t23.5 -49l35 26.5t29.5 27.5t20.5 30t8 35zM743 458q-12 -87 -50.5 -164 t-92.5 -137l56 -47.5t58 -44.5l-88 -87q-33 23 -62.5 47l-58.5 50q-57 -41 -125 -63.5t-142 -22.5q-53 0 -91 13.5t-62.5 36.5t-36 54.5t-11.5 66.5q0 41 15 76t39 64.5t54.5 55t62.5 47.5q-22 34 -39.5 74t-17.5 75q0 36 15.5 69.5t43.5 59.5t67 41.5t87 15.5 q86 0 125.5 -36t39.5 -94q0 -33 -13 -62.5t-34.5 -56t-50.5 -50.5t-61 -48q29 -38 65.5 -78.5t78.5 -80.5q38 45 66 103.5t39 122.5h124v0z" />
<glyph unicode="'" horiz-adv-x="211" d="M195 448h-93l32 254h126z" />
<glyph unicode="(" horiz-adv-x="300" d="M389 742q-48 -62 -89 -137.5t-70 -155.5t-45.5 -161t-16.5 -154q0 -88 11 -162t37 -144l-101 -43q-35 80 -52.5 164.5t-17.5 178.5q0 80 16.5 164t48.5 168t80.5 166.5t111.5 159.5l87 -44v0z" />
<glyph unicode=")" horiz-adv-x="300" d="M280 443q0 -80 -16 -163.5t-48.5 -167.5t-80.5 -167t-111 -160l-87 44q48 62 88.5 137.5t70 156t46 161.5t16.5 153q0 89 -11.5 163t-36.5 143l100 43q35 -79 52.5 -164t17.5 -179z" />
<glyph unicode="*" horiz-adv-x="377" d="M312 566l91 -47l-59 -74l-71 74l-8 -110l-89 12l38 102l-94 -60l-30 82l108 32l-92 48l60 73l71 -74l7 111l89 -12l-38 -103l95 61l30 -82z" />
<glyph unicode="+" d="M514 244h-176l-35 -186h-122l36 186h-175l21 107h174l35 185h122l-35 -185h175z" />
<glyph unicode="," horiz-adv-x="253" d="M102 149q35 0 58.5 -27.5t20 -72.5t-41.5 -102.5t-126 -119.5l-46 54q31 25 49 46t25.5 39t5.5 34t-12 31q-11 17 -11 37q0 21 9 39t27 30t42 12z" />
<glyph unicode="-" horiz-adv-x="330" d="M286 226h-242l20 103h242z" />
<glyph unicode="." horiz-adv-x="256" d="M183 74q0 -36 -25 -60.5t-59 -24.5t-56.5 23.5t-22.5 54.5q0 36 25 60.5t59 24.5t56.5 -23.5t22.5 -54.5z" />
<glyph unicode="/" horiz-adv-x="454" d="M37 -161h-128l521 918h127z" />
<glyph unicode="0" horiz-adv-x="596" d="M569 330q0 -72 -25 -134t-68 -108t-102 -72.5t-126 -26.5q-106 0 -157.5 51t-51.5 146q0 69 24 132t66 110t100.5 75t127.5 28q106 0 159 -52t53 -149zM443 314q0 46 -24.5 77.5t-77.5 31.5q-39 0 -71 -18t-55 -48t-35.5 -69.5t-12.5 -81.5q0 -46 25 -76.5t75 -30.5 q35 0 67 16.5t56 46t38.5 68.5t14.5 84z" />
<glyph unicode="1" horiz-adv-x="336" d="M220 0h-129l78 399l-108 -43v111l162 55h98z" />
<glyph unicode="2" horiz-adv-x="471" d="M442 392q0 -63 -41.5 -118t-117.5 -104l-83 -59v-2q30 2 85 3t123 1l-21 -113h-386l20 104l112 80q49 33 80 57.5t49.5 44t26.5 38t8 38.5q1 24 -16.5 42.5t-53.5 18.5q-31 0 -64.5 -10.5t-60.5 -26.5v113q35 14 79 23t85 9q47 0 80.5 -11t54.5 -30t31 -43.5t10 -54.5z " />
<glyph unicode="3" horiz-adv-x="451" d="M424 392q0 -62 -37.5 -109.5t-102.5 -74.5v-1q21 -4 38 -16t30 -30t20 -39.5t7 -45.5q0 -51 -22.5 -98t-64.5 -83.5t-102 -58.5t-136 -22q-26 0 -51 3t-46 9l30 113q38 -16 83 -16q39 0 70 10t53 28t34 42.5t12 52.5q0 49 -47.5 68t-140.5 8l19 103q102 0 159 34t57 91 q0 30 -19 47.5t-60 17.5q-33 0 -61.5 -8.5t-51.5 -19.5v109q34 13 74.5 19t78.5 6q88 0 132.5 -37t44.5 -102z" />
<glyph unicode="4" horiz-adv-x="547" d="M340 401l-222 -288q26 1 45 1.5t43 0.5h80l55 286h-1zM488 0h-101l-34 -181h-125l34 181h-269v104l321 416h48h124l-76 -405h100z" />
<glyph unicode="5" horiz-adv-x="443" d="M415 395l-201 1l-25 -133q92 -9 140.5 -55.5t48.5 -119.5q0 -64 -28.5 -116.5t-76.5 -87t-107.5 -52.5t-121.5 -18q-23 0 -39 1t-39 5l29 116q27 -9 62 -9q39 0 72.5 9t57 25t37.5 41t14 56q0 16 -4.5 28.5t-14 24.5t-24 21t-28.5 14t-26.5 8t-32 5.5t-31.5 3t-24 0.5 l66 357h118h203z" />
<glyph unicode="6" horiz-adv-x="571" d="M403 257q0 35 -20 57t-62 22q-28 0 -52.5 -12t-42.5 -32.5t-28 -47t-10 -55.5q0 -15 4 -31t13 -29.5t24 -22t38 -8.5q30 0 55 11.5t43 32.5t28 50.5t10 64.5zM537 587q-16 3 -31 4t-27 1q-93 0 -154.5 -48t-95.5 -125l-6.5 -15l-7.5 -18l1 -1q26 29 65.5 45t81.5 16 q45 0 78 -13t54.5 -35.5t32 -53t10.5 -64.5q0 -65 -23.5 -118.5t-63 -92t-93 -59.5t-113.5 -21q-97 0 -144 56t-47 150q0 48 10.5 104t33 112.5t58 109t84.5 93t113 64.5t144 24q14 0 31 -0.5t31 -1.5z" />
<glyph unicode="7" horiz-adv-x="450" d="M463 412q-80 -129 -154.5 -278.5t-136.5 -314.5h-148q63 155 136 302t151 276q-27 -1 -73 -1.5t-77 -0.5h-107l24 125h253h152z" />
<glyph unicode="8" horiz-adv-x="546" d="M364 189q0 20 -7 35.5t-19 29t-27 24.5t-31 21q-22 -13 -43 -27.5t-37 -31.5t-25.5 -36.5t-9.5 -42.5q0 -26 19.5 -45.5t65.5 -19.5q23 0 43.5 7t36 19.5t25 29.5t9.5 37zM421 541q0 27 -19.5 45t-58.5 18q-25 0 -44.5 -8t-33 -20.5t-20.5 -29t-7 -34.5q0 -29 19.5 -51 t54.5 -43q46 26 77.5 54.5t31.5 68.5zM552 565q0 -34 -11.5 -63t-31.5 -53.5t-47.5 -45t-59.5 -39.5q19 -13 36.5 -29t30.5 -34.5t21 -41t8 -49.5q0 -49 -21.5 -89.5t-58.5 -70t-85.5 -45.5t-102.5 -16q-52 0 -89.5 11.5t-61.5 32t-35.5 49t-11.5 61.5q0 38 12.5 68.5t34 56 t50 46.5t60.5 39q-37 28 -60.5 62.5t-23.5 84.5q0 39 17.5 76.5t50.5 67t80.5 47t107.5 17.5q50 0 86 -11t59.5 -30t34.5 -45.5t11 -56.5z" />
<glyph unicode="9" horiz-adv-x="569" d="M395 334q0 35 -20 61t-62 26q-30 0 -54.5 -13t-42 -35t-27 -51t-9.5 -60q0 -33 19 -55.5t59 -22.5q32 0 57 12t43 32.5t27.5 47.5t9.5 58zM532 323q0 -46 -9 -101t-30.5 -111t-55.5 -108.5t-85 -96t-118.5 -68t-155.5 -24.5q-17 0 -35 1.5t-34 3.5l21 115q14 -3 32 -5.5 t35 -2.5q92 0 151.5 45t93.5 121q5 11 8.5 19.5t8.5 18.5l-1 1q-26 -29 -63.5 -44t-79.5 -15q-43 0 -75 13t-53 35.5t-31 53.5t-10 66q0 59 21 111.5t59 92t91 63.5t116 24q53 0 90.5 -15.5t61.5 -43t35.5 -65.5t11.5 -84z" />
<glyph unicode=":" horiz-adv-x="295" d="M212 74q0 -36 -25 -60.5t-58 -24.5q-34 0 -57 23.5t-23 54.5q0 36 25 60.5t59 24.5q33 0 56 -23.5t23 -54.5zM266 357q0 -36 -25 -60.5t-58 -24.5q-34 0 -57 23.5t-23 54.5q0 36 25 60.5t59 24.5q33 0 56 -23.5t23 -54.5z" />
<glyph unicode=";" horiz-adv-x="295" d="M132 149q35 0 58.5 -27.5t20 -72.5t-41.5 -102.5t-125 -118.5l-46 53q30 25 48 46t25.5 39t5.5 34t-12 31q-11 17 -11 37q0 21 9 39t27 30t42 12zM266 357q0 -36 -25 -60.5t-58 -24.5q-34 0 -57 23.5t-23 54.5q0 36 25 60.5t59 24.5q33 0 56 -23.5t23 -54.5z" />
<glyph unicode="&#x3c;" d="M242 299l199 -212l-93 -81l-271 302l366 287l75 -88z" />
<glyph unicode="=" d="M482 150h-443l19 103h443zM518 341h-443l19 103h443z" />
<glyph unicode="&#x3e;" d="M134 6l-74 88l276 208l-200 212l94 81l270 -302z" />
<glyph unicode="?" horiz-adv-x="442" d="M237 69q0 -35 -24.5 -57.5t-57.5 -22.5t-53 21t-20 50q0 35 24 58t57 23t53.5 -21.5t20.5 -50.5zM449 532q0 -45 -17 -77t-41.5 -57t-53 -46t-51.5 -44.5t-36 -51.5t-8 -68h-123q-8 49 3.5 85t32.5 63t47.5 47.5l50 39.5t39.5 39.5t16 46.5q0 21 -13 37t-36 27t-54 18 t-67 10l37 116q70 -4 121.5 -20t85.5 -40.5t50.5 -56.5t16.5 -68z" />
<glyph unicode="@" horiz-adv-x="962" d="M560 449q-17 6 -40 6q-25 0 -47.5 -17t-39.5 -43.5t-27 -59.5t-10 -66q0 -40 25 -40q14 0 31 10.5t34 32t33 54.5t29 79l12 44v0zM899 451q0 -66 -18 -124.5t-52.5 -102t-84.5 -69t-113 -25.5q-56 0 -79 27.5t-17 68.5h-3q-9 -16 -24.5 -33t-35 -31t-42 -23t-46.5 -9 q-42 0 -66 28t-24 85q0 46 14 98t44.5 96t80.5 73.5t122 29.5q35 0 67.5 -6t53.5 -14l-55 -198q-14 -49 -6 -70.5t38 -21.5q28 0 52 15t42 42t28 65t10 85q0 39 -12 74.5t-39 63t-70.5 43.5t-105.5 16q-81 0 -146.5 -33t-111.5 -87.5t-71 -124t-25 -142.5q0 -104 62 -164 t193 -60q87 0 177 29l9 -100q-51 -17 -108.5 -25.5t-103.5 -8.5q-86 0 -150.5 21.5t-108 62t-65.5 98.5t-22 130q0 100 36.5 191.5t101 161.5t154 111.5t196.5 41.5q82 0 143 -22t101 -60t60 -90.5t20 -112.5z" />
<glyph unicode="A" horiz-adv-x="614" d="M433 0l-19 138h-251l-72 -138h-133l357 675h150l105 -675h-137zM372 441q-3 24 -5.5 47.5t-3.5 46.5h-2q-8 -22 -19 -45.5l-23 -47.5l-105 -201h187z" />
<glyph unicode="B" horiz-adv-x="568" d="M390 225q0 73 -111 73q-40 0 -69 -1l-35 -189q11 -2 28 -3t37 -1q37 0 65 10t47 26.5t28.5 38.5t9.5 46zM427 512q0 28 -20 45t-73 17q-19 0 -36.5 -0.5t-34.5 -1.5l-34 -176q18 -1 46 -1q70 0 111 31t41 86zM566 542q0 -71 -36.5 -116t-91.5 -68v-1q42 -11 65.5 -45.5 t23.5 -77.5q0 -48 -20.5 -91t-59.5 -75t-95.5 -51t-127.5 -19q-33 0 -51.5 0.5t-51 1t-95.5 0.5l128 674q42 2 85.5 3t57.5 1.5t70 0.5q97 0 148 -34t51 -103z" />
<glyph unicode="C" horiz-adv-x="549" d="M552 543q-61 22 -121 22q-67 0 -112.5 -30t-73.5 -76t-40.5 -101.5t-12.5 -105.5q0 -32 7 -58.5t23.5 -45t44.5 -28.5t69 -10q38 0 72.5 7.5t64.5 20.5l-1 -118q-38 -13 -85 -20.5t-89 -7.5q-77 0 -126 21.5t-76.5 55t-38 75.5t-10.5 84q0 86 25 167.5t75 145t124.5 102 t172.5 38.5q42 0 77.5 -5.5t65.5 -13.5z" />
<glyph unicode="D" horiz-adv-x="654" d="M512 422q0 33 -8 60.5t-27.5 47t-51.5 30t-80 10.5q-53 0 -84 -3l-86 -455q13 -2 30 -3.5t31 -1.5q76 0 129 31t85.5 78t47 102t14.5 104zM651 435q0 -85 -27 -164t-81 -140t-135.5 -98t-190.5 -37q-59 0 -104 1.5t-87 3.5l128 673q19 1 44 1.5t53 1.5t57 1.5t57 0.5 q144 0 215 -62.5t71 -181.5z" />
<glyph unicode="E" horiz-adv-x="482" d="M493 566h-232l-32 -166h221l-21 -106h-220l-34 -183h231l-21 -111h-231h-128l128 675h128h231z" />
<glyph unicode="F" horiz-adv-x="456" d="M487 565h-226l-33 -174h214l-21 -107h-213l-54 -284h-128l128 675h128h226z" />
<glyph unicode="G" horiz-adv-x="661" d="M633 535q-39 17 -83 25.5t-84 8.5q-66 0 -118 -25t-88 -67t-55 -97t-19 -116q0 -31 9 -59.5t28.5 -50t51 -34.5t77.5 -13q26 0 50 3.5t46 9.5l45 234h127l-62 -324q-53 -20 -113 -30t-116 -10q-72 0 -125 19t-87.5 53t-51.5 81.5t-17 104.5q0 94 32 174t89.5 138.5 t136.5 91.5t172 33q51 0 99.5 -6.5t93.5 -20.5z" />
<glyph unicode="H" horiz-adv-x="672" d="M562 0h-128l56 293h-280l-56 -293h-128l128 675h128l-51 -270h280l51 270h128z" />
<glyph unicode="I" horiz-adv-x="265" d="M154 0h-128l128 675h128z" />
<glyph unicode="J" horiz-adv-x="327" d="M251 177q-7 -39 -22 -72.5t-40.5 -59t-63 -40t-88.5 -14.5q-26 0 -45 2.5t-35 5.5l22 112q23 -10 54 -10q36 0 60 19.5t34 70.5l92 484h127z" />
<glyph unicode="K" horiz-adv-x="573" d="M344 339l169 -339h-159l-139 324l-62 -324h-127l128 675h128l-58 -306l252 306h164z" />
<glyph unicode="L" horiz-adv-x="420" d="M368 0h-342l128 675h128l-107 -561h215z" />
<glyph unicode="M" horiz-adv-x="862" d="M790 0h-133l13 320q2 44 4.5 84t6.5 79h-2q-24 -65 -63 -144l-170 -339h-125l-40 315q-5 42 -8 84.5t-2 83.5h-1l-25.5 -86l-26.5 -86l-97 -311h-133l230 675h147l44 -347q5 -36 6.5 -71t2.5 -71h2q14 35 29.5 69.5t34.5 70.5l178 349h152z" />
<glyph unicode="N" horiz-adv-x="670" d="M558 0h-150l-126 337l-25 75.5t-20 71.5q-6 -48 -13.5 -95t-17.5 -98l-55 -291h-125l128 675h151l123 -319q15 -40 27 -81l23 -79q6 47 14.5 99.5t17.5 100.5l52 279h125z" />
<glyph unicode="O" horiz-adv-x="689" d="M551 424q0 66 -32 105.5t-101 39.5q-54 0 -98 -26t-74.5 -69.5t-47.5 -100t-17 -116.5q0 -72 33.5 -111t97.5 -39q51 0 95 25.5t76 68.5t50 100.5t18 122.5zM688 439q0 -98 -31 -180.5t-85 -142.5t-125.5 -93.5t-152.5 -33.5q-128 0 -189 65.5t-61 180.5q0 91 30 173 t83.5 144t125.5 98t156 36q123 0 186 -64.5t63 -182.5z" />
<glyph unicode="P" horiz-adv-x="520" d="M414 490q0 38 -23 60.5t-76 22.5q-37 0 -52 -1l-43 -224q11 -2 18.5 -2.5t18.5 -0.5q32 0 60 11t50 31t34.5 46.5t12.5 56.5zM547 507q0 -57 -23.5 -106.5t-65 -86t-97 -57.5t-118.5 -21q-9 0 -21 0.5t-24 1.5l-45 -238h-127l128 675q42 2 86.5 3t95.5 1q99 0 155 -43.5 t56 -128.5z" />
<glyph unicode="Q" horiz-adv-x="689" d="M551 424q0 66 -32 105.5t-101 39.5q-54 0 -98 -26t-74.5 -69.5t-47.5 -100t-17 -116.5q0 -72 33.5 -111t97.5 -39q51 0 95 25.5t76 68.5t50 100.5t18 122.5zM606 -199q-46 -7 -82 -6.5t-66 5t-56.5 11t-54 12t-58 7.5t-68.5 -3l20 111q66 8 111 1.5t85 -16t83.5 -15.5 t106.5 3zM688 439q0 -98 -31 -180.5t-85 -142.5t-125.5 -93.5t-152.5 -33.5q-128 0 -189 65.5t-61 180.5q0 92 29.5 174t82 143.5t124.5 97.5t157 36q124 0 187.5 -64.5t63.5 -182.5z" />
<glyph unicode="R" horiz-adv-x="555" d="M417 501q0 35 -23 53.5t-74 18.5q-18 0 -33 -0.5t-25 -2.5l-37 -195q7 -1 18.5 -1.5t25.5 -0.5q32 0 59.5 9.5t47 26t30.5 40t11 52.5zM553 525q0 -45 -15.5 -82.5t-43 -67t-65 -49.5t-82.5 -30l18 -36.5l18 -37.5l110 -222h-150l-126 279h-10l-53 -279h-128l128 675 q40 2 86.5 3t100.5 1q111 0 161.5 -40t50.5 -114z" />
<glyph unicode="S" horiz-adv-x="460" d="M441 562q-24 8 -49 12t-46 4q-32 0 -55 -7.5t-38 -19.5t-22 -28t-7 -33q0 -25 14.5 -44t36.5 -35t46.5 -32t47 -37.5t36.5 -50t14 -68.5q0 -49 -20.5 -91.5t-58 -74t-89 -50t-113.5 -18.5q-32 0 -64 3.5t-58 11.5l23 123q24 -11 52.5 -17.5t55.5 -6.5q65 0 98.5 26 t33.5 72q0 22 -13.5 40.5t-35.5 33.5l-48 32t-47.5 37.5t-35 49.5t-13.5 66q0 46 17 87t50 72t83 49t116 18q29 0 55.5 -2t55.5 -7z" />
<glyph unicode="T" horiz-adv-x="500" d="M550 564h-171l-107 -564h-128l107 564h-171l21 111h171h128h170z" />
<glyph unicode="U" horiz-adv-x="667" d="M602 248q-26 -134 -107 -196.5t-209 -62.5q-76 0 -123 20t-70.5 55t-27 82t6.5 101l81 428h128l-84 -438q-13 -69 10.5 -104.5t96.5 -35.5q75 0 116 37.5t58 124.5l80 416h126z" />
<glyph unicode="V" horiz-adv-x="616" d="M338 0h-148l-101 675h134l55 -395q4 -29 7 -64.5t5 -67.5h2q14 35 31.5 70.5l35.5 69.5l203 387h136z" />
<glyph unicode="W" horiz-adv-x="934" d="M698 0h-157l-26 372q-2 32 -1 67.5t3 71.5h-1q-21 -71 -50 -136l-168 -375h-149l-39 675h130l21 -374q2 -33 0.5 -67t-3.5 -69h1l24 67.5t27 65.5l172 377h136l32 -375q2 -29 2.5 -63t-1.5 -69h1q11 35 22.5 66.5t25.5 63.5l162 377h133z" />
<glyph unicode="X" horiz-adv-x="615" d="M408 342l152 -342h-154l-96 248l-189 -248h-155l279 348l-135 327h142l91 -233l176 233h150z" />
<glyph unicode="Y" d="M339 239l-45 -239h-127l45 238l-124 437h134l51 -194q15 -61 24 -112h2q16 29 36 61l41 64l116 181h141z" />
<glyph unicode="Z" horiz-adv-x="520" d="M539 571l-318 -406l-18.5 -23.5t-20.5 -23.5q12 2 47 2h228l-23 -120h-433l19 100l303 396q13 17 26.5 32.5l28.5 31.5q-18 -1 -43.5 -1.5t-74.5 -0.5h-144l21 117h421z" />
<glyph unicode="[" horiz-adv-x="321" d="M371 676h-97l-149 -778h98l-19 -103h-99h-116l187 982h117h98z" />
<glyph unicode="\" horiz-adv-x="470" d="M286 -161l-176 918h114l177 -918h-115z" />
<glyph unicode="]" horiz-adv-x="321" d="M170 -205h-119h-97l19 103h98l148 778h-98l20 101h97h119z" />
<glyph unicode="^" d="M408 337l-80 247l-171 -247l-78 45l217 293h97l111 -292z" />
<glyph unicode="_" d="M480 -246h-550l19 103h550z" />
<glyph unicode="`" horiz-adv-x="353" d="M273 560l-172 111l62 83l162 -126z" />
<glyph unicode="a" horiz-adv-x="542" d="M383 399q-12 3 -25.5 5t-30.5 2q-43 0 -74.5 -22.5t-52.5 -57.5t-31 -77t-10 -81q0 -37 9.5 -53t28.5 -16q27 0 55.5 27t53.5 67.5t44 87.5t27 86l6 32v0zM525 491l-30 -156l-24 -127l-20 -108.5l-17 -99.5h-124q7 29 18.5 67.5t28.5 90.5h-2q-15 -27 -35.5 -57 t-46.5 -55t-57.5 -41t-68.5 -16q-57 0 -87 37.5t-30 117.5q0 70 19 135.5t58.5 116t99.5 80.5t142 30q45 0 89.5 -3.5t86.5 -11.5z" />
<glyph unicode="b" horiz-adv-x="542" d="M393 329q0 37 -10 53t-28 16q-27 0 -55.5 -27t-53.5 -67.5t-44 -86.5t-26 -85l-7 -34q13 -3 26 -5t30 -2q43 0 74.5 22.5t52.5 57.5t31 77t10 81zM522 353q0 -71 -19 -136t-58.5 -115.5t-99.5 -80.5t-142 -30q-95 0 -176 18l138 721h125l-41 -212q-3 -17 -7.5 -35 t-11 -39l-15 -46.5t-20.5 -58.5h2q19 37 41.5 68t48.5 53.5t55.5 35t62.5 12.5q57 0 87 -37.5t30 -117.5z" />
<glyph unicode="c" horiz-adv-x="404" d="M393 384q-33 15 -77 15q-39 0 -67.5 -19.5t-47.5 -50t-28 -67.5t-9 -72q0 -18 4 -34t14.5 -28t27 -19t42.5 -7q24 0 48 5t44 13l-8 -109q-26 -10 -57.5 -15.5t-63.5 -5.5q-50 0 -85 12t-57 34.5t-32 54.5t-10 71q0 71 20.5 134t58.5 110t92 74t122 27q27 0 51.5 -3.5 t47.5 -9.5z" />
<glyph unicode="d" horiz-adv-x="542" d="M383 399q-12 3 -25.5 5t-30.5 2q-43 0 -74.5 -22.5t-52.5 -57.5t-31 -77t-10 -81q0 -37 9.5 -53t28.5 -16q27 0 55.5 27t53.5 67.5t44 87.5t27 86l6 32v0zM466 179q-3 -13 -7.5 -37.5l-9 -51.5l-9 -52t-6.5 -38h-123q5 29 17 67.5l29 90.5h-2q-15 -27 -35.5 -57 t-46.5 -55t-57.5 -41t-68.5 -16q-57 0 -87 37.5t-30 117.5q0 70 19 135.5t58.5 116t99.5 80.5t142 30q13 0 25 -1t28 -3l43 228h126z" />
<glyph unicode="e" horiz-adv-x="485" d="M350 369q0 21 -13.5 32.5t-37.5 11.5t-44 -10.5t-35.5 -27.5t-26.5 -40t-18 -47q87 3 131 22t44 59zM474 386q0 -45 -21.5 -78t-62 -55.5t-98.5 -35t-131 -14.5q-1 -8 -2 -19.5t-1 -19.5q0 -43 19.5 -58.5t71.5 -15.5q36 0 72.5 8t71.5 22l2 -98q-43 -16 -90 -24t-97 -8 q-95 0 -135.5 42.5t-40.5 125.5q0 78 22 142.5t60.5 110t89.5 71t109 25.5q46 0 77 -10.5t49.5 -27.5t26.5 -39t8 -44z" />
<glyph unicode="f" horiz-adv-x="347" d="M436 626q-14 4 -29.5 6t-29.5 2q-44 0 -67 -23.5t-34 -80.5l-6 -33h113l-19 -99h-114l-78 -416q-23 -121 -82 -175.5t-152 -54.5q-45 0 -87 9l30 105q14 -4 29.5 -6t28.5 -2q21 0 37.5 5.5t29.5 20t23 38.5t17 61l79 415h-85l20 99h85l6 37q18 100 73 152t160 52 q21 0 41 -1.5t40 -6.5z" />
<glyph unicode="g" horiz-adv-x="539" d="M383 399q-12 3 -25.5 5t-30.5 2q-43 0 -74.5 -22.5t-52.5 -57.5t-31 -77t-10 -81q0 -37 9.5 -53t28.5 -16q27 0 55.5 27t53.5 67.5t44 87.5t27 86l6 32v0zM425 -31q-10 -51 -32 -92t-58.5 -69t-90 -43t-126.5 -15q-42 0 -78.5 5.5t-65.5 15.5l29 117q30 -14 66 -21.5 t71 -7.5q71 0 111.5 29t53.5 96q4 21 8.5 39.5t10.5 38l13.5 42t18.5 51.5l-2 1q-15 -27 -35 -56t-46 -54t-57.5 -41t-68.5 -16q-57 0 -87 37.5t-30 117.5q0 70 19 135.5t58.5 116t99.5 80.5t142 30q45 0 89.5 -3.5t86.5 -11.5z" />
<glyph unicode="h" horiz-adv-x="559" d="M449 0h-126l60 312q9 46 1.5 66t-31.5 20q-25 0 -53 -26t-53.5 -66.5t-45 -88.5t-27.5 -91l-24 -126h-125l139 730h125l-39 -210q-7 -33 -19.5 -74t-34.5 -103l2 -1q17 33 38.5 63.5t47.5 53t56.5 36t66.5 13.5t59.5 -12t36.5 -34t15.5 -52.5t-4.5 -66.5z" />
<glyph unicode="i" horiz-adv-x="262" d="M150 0h-125l95 497h125zM291 655q0 -37 -25.5 -60.5t-58.5 -23.5t-54 22t-21 51q0 18 7 33t18.5 26t26.5 17t32 6q33 0 54 -21.5t21 -49.5z" />
<glyph unicode="j" horiz-adv-x="265" d="M147 -42q-9 -48 -26.5 -86.5t-44.5 -65t-66 -40.5t-91 -14q-38 0 -68 8l27 109q13 -5 27.5 -7.5t25.5 -2.5q41 0 60.5 25t32.5 88l101 525h125zM294 655q0 -37 -25.5 -60.5t-58.5 -23.5t-54 22t-21 51q0 18 7 33t18.5 26t26.5 17t32 6q33 0 54 -21.5t21 -49.5z" />
<glyph unicode="k" horiz-adv-x="503" d="M322 270l132 -270h-151l-104 252l-49 -252h-125l139 730h125l-82 -433l215 229l98 -65z" />
<glyph unicode="l" horiz-adv-x="261" d="M150 0h-125l139 730h125z" />
<glyph unicode="m" horiz-adv-x="850" d="M739 0h-125l60 312q8 46 1 66.5t-29 20.5q-23 0 -50 -24t-52.5 -62.5t-46 -87.5t-29.5 -99l-23 -126h-125l60 312q8 46 1 66.5t-30 20.5q-22 0 -49 -24t-52.5 -62.5t-46 -87.5t-29.5 -99l-24 -126h-125l50 260q3 17 9.5 50l13 69l12 68.5l8.5 49.5h123q-5 -23 -15 -60 t-30 -94l2 -1q17 33 38 63.5t46.5 53t56 36t65.5 13.5q46 0 73.5 -24.5t27.5 -72.5q0 -15 -3.5 -31t-11.5 -41h2q17 34 38.5 65t47.5 54t56.5 36.5t65.5 13.5q70 0 94.5 -46t10.5 -119z" />
<glyph unicode="n" horiz-adv-x="559" d="M449 0h-126l60 312q9 46 1.5 66t-31.5 20q-25 0 -53 -26t-53.5 -66.5t-45 -88.5t-27.5 -91l-24 -126h-125l50 260q3 17 9.5 50l13 69l12 68.5l8.5 49.5h123q-5 -23 -15 -59t-30 -95l2 -1q17 33 38.5 63.5t47.5 53t56.5 36t66.5 13.5t59.5 -12t36.5 -34t15.5 -52.5 t-4.5 -66.5z" />
<glyph unicode="o" horiz-adv-x="545" d="M393 310q0 43 -19 65.5t-63 22.5q-35 0 -62.5 -19t-47 -49t-29.5 -67.5t-10 -74.5q0 -41 18 -64.5t62 -23.5q33 0 61 17t48 46t31 67t11 80zM525 326q0 -77 -25 -139t-66.5 -106t-96 -67.5t-112.5 -23.5q-104 0 -149 47t-45 131q0 78 24.5 140.5t65.5 107t95 68t114 23.5 q53 0 90 -13.5t60.5 -37.5t34 -57.5t10.5 -72.5z" />
<glyph unicode="p" horiz-adv-x="542" d="M393 329q0 37 -10 53t-28 16q-27 0 -55.5 -27t-53.5 -67.5t-44 -86.5t-26 -85l-6 -32q12 -4 27 -6.5t29 -2.5q43 0 74.5 22.5t52 57.5t30.5 77t10 81zM522 353q0 -71 -19 -136t-58.5 -115.5t-99.5 -80.5t-142 -30q-14 0 -26 1t-28 3l-44 -236h-125l95 500q3 17 9.5 50 l13 69l12 69l8.5 50h123q-3 -15 -7 -30l-9 -33.5t-12.5 -41l-16.5 -51.5l2 -1q18 37 40.5 67.5t48.5 53t55.5 35t62.5 12.5q57 0 87 -37.5t30 -117.5z" />
<glyph unicode="q" horiz-adv-x="542" d="M383 399q-12 3 -25.5 5t-30.5 2q-43 0 -74.5 -22.5t-52.5 -57.5t-31 -77t-10 -81q0 -37 9.5 -53t28.5 -16q27 0 55.5 27t53.5 67.5t44 87.5t27 86l6 32v0zM386 -241h-125l39 205q4 23 9 44.5t12 44.5t15.5 48.5t20.5 56.5h-2q-15 -27 -35.5 -57t-46.5 -55t-57.5 -41 t-68.5 -16q-57 0 -87 37.5t-30 117.5q0 70 19 135.5t58.5 116t99.5 80.5t142 30q45 0 89.5 -4t86.5 -12z" />
<glyph unicode="r" horiz-adv-x="351" d="M364 384q-27 9 -56.5 -9.5t-56 -57t-47.5 -92.5t-33 -117l-21 -108h-125l50 260q3 17 9.5 50l13 69l12 68.5l8.5 49.5h121q-5 -29 -15 -64t-28 -86h2q20 39 40.5 71t43.5 53.5t50 31t59 4.5z" />
<glyph unicode="s" horiz-adv-x="377" d="M338 402q-17 5 -33.5 7.5t-33.5 2.5q-39 0 -58 -14.5t-19 -38.5q0 -23 20 -41.5l44.5 -40t44.5 -49.5t20 -69q0 -31 -13.5 -61.5t-41.5 -54.5t-71 -38.5t-101 -14.5q-50 0 -87 9l23 107q17 -7 37 -11t39 -4q38 0 60.5 14.5t22.5 41.5q0 25 -20 43l-44 38t-44 47t-20 71 q0 34 13.5 63.5t40 51t66.5 34t94 12.5q49 0 84 -7z" />
<glyph unicode="t" horiz-adv-x="367" d="M365 398h-117l-42 -224q-8 -45 -0.5 -60.5t38.5 -15.5q19 0 33.5 2t28.5 5l-12 -102q-25 -6 -52 -9.5t-50 -3.5q-81 0 -106 40t-8 130l45 238h-85l20 99h84l29 153l130 26l-34 -179h118z" />
<glyph unicode="u" horiz-adv-x="558" d="M493 237q-3 -17 -9.5 -50l-13 -69l-12 -68.5l-8.5 -49.5h-122q4 23 14 59t30 95l-2 1q-17 -33 -38.5 -63.5t-47.5 -53t-56.5 -36t-66.5 -13.5t-60 12t-36.5 34t-15 52.5t4.5 66.5l66 343h125l-60 -312q-8 -46 -1 -66t31 -20q25 0 53 26t53.5 66.5t45 88t27.5 91.5l24 126 h125z" />
<glyph unicode="v" horiz-adv-x="492" d="M273 0h-132l-85 497h133l33 -216q5 -29 7.5 -59t4.5 -59h2l175 356l122 -37z" />
<glyph unicode="w" horiz-adv-x="781" d="M578 0h-141l-27 214q-3 26 -5 53t-2 59h-1l-76.5 -163l-79.5 -163h-129l-53 497h131l16 -188q3 -37 5.5 -73.5t3.5 -72.5h1l77.5 167.5l80.5 166.5h121l24 -188q5 -41 7.5 -78t3.5 -69h1l79 178.5l82 177.5l121 -35z" />
<glyph unicode="x" horiz-adv-x="523" d="M347 242l117 -242h-147l-69 164l-169 -194l-104 62l214 227l-113 238h140l70 -163l166 192l101 -60z" />
<glyph unicode="y" horiz-adv-x="512" d="M544 484q-54 -124 -102.5 -223t-94 -177t-89.5 -137t-88 -103q-50 -49 -96.5 -71t-95.5 -22q-40 0 -74 8l21 110q27 -10 61 -10q24 0 48.5 10.5t44.5 30.5q23 23 34.5 52.5t11.5 75.5q0 107 -21.5 226.5t-55.5 242.5h140q10 -41 19.5 -87t16 -92.5t10.5 -91.5t4 -84 q0 -20 -5 -42h2q50 92 95.5 192.5t94.5 225.5l119 -34v0z" />
<glyph unicode="z" horiz-adv-x="437" d="M421 406l-235 -290q16 1 47 1h137l-22 -117h-346l17 91l239 294q-14 -1 -39.5 -1.5t-60.5 -0.5h-78l22 114h337z" />
<glyph unicode="{" horiz-adv-x="355" d="M411 676q-24 0 -41 -5t-29 -18t-20.5 -36t-15.5 -59l-16 -86q-8 -41 -20 -70t-27.5 -48t-34 -28.5t-39.5 -12.5v-2q38 -6 56.5 -43.5t2.5 -116.5l-26 -134q-7 -36 -7.5 -59.5t6.5 -36.5t22 -18t39 -5l-20 -103h-20q-96 0 -127.5 55t-8.5 168l26 135q13 63 -8.5 86 t-68.5 26l19 96q25 1 44.5 6.5t34 17.5t24.5 32t16 52l16 87q20 109 71 165t149 56h22z" />
<glyph unicode="|" horiz-adv-x="282" d="M100 -241h-99l190 1000h100z" />
<glyph unicode="}" horiz-adv-x="355" d="M340 265q-26 -2 -45.5 -7.5t-34 -18t-24.5 -33.5t-16 -53l-26 -134q-11 -59 -29 -101t-44.5 -69t-62.5 -40t-84 -13h-21l19 102q24 0 41 5t29 18.5t20 37t15 59.5l26 133q16 83 48 120t74 42v2q-20 3 -34.5 13t-23 28.5t-9.5 47t7 68.5l17 86q7 36 7 59t-7 36t-21.5 18 t-38.5 5l19 101h20q97 0 128 -55t9 -166l-18 -87q-6 -32 -3.5 -52t12.5 -32t27.5 -17.5t41.5 -6.5z" />
<glyph unicode="~" d="M571 584q-4 -87 -48 -132.5t-114 -45.5q-28 0 -48 7.5t-34.5 19.5t-24.5 25l-19.5 25t-20 19.5t-24.5 7.5q-25 0 -38.5 -21t-18.5 -59h-95q5 86 48.5 132t113.5 46q43 0 67 -16.5t40 -36l29.5 -36t34.5 -16.5q25 0 38.5 21t18.5 60h95v0z" />
<glyph unicode="&#xa1;" horiz-adv-x="315" d="M139 -211h-146l118 520h107zM266 437q0 -35 -24 -58t-58 -23q-33 0 -53 21.5t-20 50.5q0 35 24 57.5t57 22.5q34 0 54 -21t20 -50z" />
<glyph unicode="&#xa2;" horiz-adv-x="445" d="M369 56q-20 -8 -47.5 -14.5t-52.5 -8.5l-20 -100h-94l20 100q-36 5 -62.5 20t-44.5 37.5t-26.5 51.5t-8.5 62q0 57 16 107t46 89.5t73.5 66.5t97.5 37l18 91h94l-17 -84q21 -2 42.5 -6t42.5 -11l-28 -107q-17 9 -42.5 15.5t-51.5 6.5q-37 0 -67 -14.5t-50 -38.5 t-30.5 -55t-10.5 -64q0 -23 6 -41t18.5 -31t31.5 -20t46 -7q28 0 54.5 6.5t50.5 18.5l-4 -107v0z" />
<glyph unicode="&#xa3;" horiz-adv-x="467" d="M404 399l-19 -98h-121q-4 -68 -26.5 -114t-70.5 -82q33 6 87 6h167l-21 -111h-402l17 89q32 21 54 40t36.5 43t22.5 55t11 74h-95l19 98h84q1 29 3.5 59.5t9.5 60t20.5 57.5t36.5 51q60 60 167 60q27 0 54.5 -3t53.5 -10l-33 -108q-17 7 -38.5 11.5t-38.5 4.5 q-25 0 -42 -6.5t-30 -19.5q-12 -12 -19 -29.5t-11 -38.5t-5.5 -43.5t-2.5 -45.5h132z" />
<glyph unicode="&#xa4;" d="M385 367q0 30 -16 48t-52 18q-26 0 -47 -11.5t-35.5 -30.5t-22 -43.5t-7.5 -49.5q0 -31 15 -51t50 -20q29 0 50.5 13.5t36 34t21.5 45t7 47.5zM486 448q6 -11 9 -26.5t3 -33.5q0 -46 -14.5 -89t-49.5 -85l60 -98l-109 -69l-57 103q-40 -16 -77 -16q-17 0 -30 2.5t-24 6.5 l-87 -95l-88 73l85 86q-16 26 -16 72q0 45 15.5 89.5t51.5 82.5l-55 92l108 67l53 -97q36 13 74 13q17 0 32.5 -2.5t29.5 -8.5l89 96l85 -74z" />
<glyph unicode="&#xa5;" horiz-adv-x="589" d="M403 309h122l-15 -81h-152l-11 -58h152l-16 -83h-152l-16 -87h-127l16 87h-151l16 83h151l12 58h-153l16 81h122l-109 366h135l53 -184q8 -31 14 -59t11 -54h1q17 31 36.5 62.5t41.5 63.5l118 171h137z" />
<glyph unicode="&#xa6;" horiz-adv-x="282" d="M100 -241h-99l72 378h99zM221 391h-99l69 368h100z" />
<glyph unicode="&#xa7;" horiz-adv-x="519" d="M339 250q0 18 -7 35t-19.5 35t-31 38.5l-41.5 46.5q-25 -17 -36 -39t-11 -47q0 -34 26.5 -68t72.5 -84q25 17 36 39t11 44zM457 624q-34 10 -68 10q-28 0 -46 -7.5t-28.5 -18.5t-14.5 -25t-4 -26q0 -27 24.5 -53.5l54.5 -58.5t54.5 -74t24.5 -99q0 -51 -28 -96.5 t-75 -75.5q9 -14 14.5 -33t5.5 -40q0 -37 -16 -72t-46.5 -62t-76.5 -43.5t-106 -16.5q-25 0 -48.5 2.5t-43.5 7.5l27 108q20 -6 38 -9.5t36 -3.5q30 0 49 8t30.5 20t16 26t4.5 25q0 19 -11.5 37.5t-29.5 38l-38 40.5t-38 45t-29.5 53t-11.5 64q0 54 27 99t77 79 q-11 20 -16.5 38t-5.5 40q0 27 12 59.5t40 61t73.5 47.5t111.5 19q23 0 45 -2t42 -6z" />
<glyph unicode="&#xa8;" horiz-adv-x="487" d="M215 651q0 -31 -21 -51.5t-50 -20.5t-48 20t-19 47q0 31 21 51t50 20t48 -19.5t19 -46.5zM417 651q0 -31 -21 -51.5t-50 -20.5t-48 20t-19 48q0 30 21.5 50t50.5 20t47.5 -19.5t18.5 -46.5z" />
<glyph unicode="&#xa9;" horiz-adv-x="747" d="M488 413q-21 16 -59 16q-26 0 -44 -12t-29 -30.5t-16.5 -41t-5.5 -44.5q0 -56 54 -56q17 0 36 3t36 11l3 -82q-24 -11 -50 -15.5t-50 -4.5q-64 0 -98.5 34t-34.5 95q0 44 14 85t40 72.5t64 50t85 18.5q29 0 49.5 -4t35.5 -11zM639 346q0 48 -18 91t-49.5 75t-74.5 50.5 t-92 18.5q-51 0 -97.5 -19.5t-81.5 -54.5t-56 -82.5t-21 -103.5q0 -48 18 -91t50 -75t74.5 -50.5t92.5 -18.5q51 0 97 19.5t81 54.5t56 82.5t21 103.5zM737 352q0 -78 -29.5 -144t-79 -114t-114 -75t-135.5 -27q-70 0 -130 25.5t-103.5 69t-68.5 102.5t-25 127q0 76 29 142 t78.5 114t114.5 75.5t136 27.5q69 0 128.5 -25t104 -69t69.5 -103t25 -126z" />
<glyph unicode="&#xaa;" horiz-adv-x="402" d="M315 597q-22 5 -38 5q-26 0 -45.5 -13.5t-33.5 -35t-21 -48.5t-7 -53q0 -24 6 -34.5t19 -10.5q17 0 35.5 14.5t35 38.5t28.5 54t17 61l4 22v0zM357 176h-314l19 99h313zM429 673l-17.5 -91l-18.5 -94.5t-16.5 -89t-11.5 -73.5h-98q4 18 11 40.5t16 48.5h-1 q-26 -47 -60.5 -72t-76.5 -25q-90 0 -90 112q0 51 14.5 97t43.5 81t72 56t100 21q32 0 65.5 -2.5t67.5 -8.5z" />
<glyph unicode="&#xab;" horiz-adv-x="520" d="M176 293l60 -150l-104 -45l-78 201l141 190l93 -49zM391 293l69 -144l-103 -46l-88 195l149 186l90 -49z" />
<glyph unicode="&#xac;" d="M464 95h-113l28 149h-337l21 107h336h114z" />
<glyph unicode="&#xad;" horiz-adv-x="330" d="M286 226h-242l20 103h242z" />
<glyph unicode="&#x2010;" horiz-adv-x="330" d="M286 226h-242l20 103h242z" />
<glyph unicode="&#xae;" horiz-adv-x="553" d="M366 582q0 17 -23 17h-17l-9 -51h10q18 0 28.5 9.5t10.5 24.5zM433 594q0 -55 -58 -75q7 -12 12 -29l20 -68h-69l-21 85h-9l-16 -85h-58l42 223h58h28q38 0 54.5 -13.5t16.5 -37.5zM487 540q0 30 -11 57t-30.5 48t-46 33t-57.5 12q-32 0 -61 -12.5t-51.5 -35t-35.5 -53 t-13 -66.5q0 -31 11 -58.5t30.5 -48.5t46 -33t57.5 -12t60.5 13t51.5 35.5t35.5 53.5t13.5 67zM565 543q0 -53 -20.5 -97.5t-54 -77t-77.5 -50.5t-91 -18t-87 16.5t-69 45.5t-46 68.5t-17 85.5q0 54 20 99t53.5 77.5t77.5 50.5t91 18q46 0 86.5 -16.5t70 -45.5t46.5 -69 t17 -87z" />
<glyph unicode="&#xaf;" horiz-adv-x="395" d="M365 600h-264l17 92h264z" />
<glyph unicode="&#x2c9;" horiz-adv-x="395" d="M365 600h-264l17 92h264z" />
<glyph unicode="&#xb0;" horiz-adv-x="380" d="M317 604q0 9 -2.5 18.5t-8.5 17.5t-15.5 13t-23.5 5q-24 0 -41.5 -17t-17.5 -47q0 -25 13.5 -40t38.5 -15q24 0 40.5 17.5t16.5 47.5zM412 612q0 -39 -14.5 -68t-37.5 -48t-52 -28.5t-58 -9.5q-68 0 -102.5 35.5t-34.5 91.5q0 38 14.5 66.5t37.5 48t51.5 29t56.5 9.5 q38 0 64.5 -10.5t43 -28t24 -40t7.5 -47.5z" />
<glyph unicode="&#xb1;" d="M464 0h-465l21 107h464zM533 346h-175l-34 -183h-122l35 183h-175l19 106h175l36 182h121l-35 -182h175z" />
<glyph unicode="&#xb2;" horiz-adv-x="346" d="M348 676q0 -21 -6 -40.5t-18.5 -39t-32 -39.5t-46.5 -42l-52 -42q26 2 57.5 2h72.5l-20 -105h-284l18 94l85 67q25 20 42.5 35.5t28.5 28t15.5 23t4.5 21.5q0 20 -9.5 29.5t-32.5 9.5q-20 0 -40 -5.5t-38 -14.5v101q27 10 59 16.5t65 6.5q34 0 58.5 -8t41 -22t24 -33.5 t7.5 -42.5v0z" />
<glyph unicode="&#xb3;" horiz-adv-x="324" d="M334 691q0 -34 -20.5 -61.5t-61.5 -45.5q25 -6 39.5 -26t14.5 -49q0 -30 -13.5 -56.5t-39 -47t-63.5 -32.5t-88 -12q-23 0 -45.5 2.5t-40.5 6.5l27 85q14 -5 30.5 -7.5t33.5 -2.5q33 0 53.5 15.5t20.5 39.5q0 21 -26.5 32t-88.5 1l15 76q34 0 58.5 5.5t40 13.5t23 18.5 t7.5 21.5q0 16 -9.5 23.5t-30.5 7.5q-18 0 -38 -4.5t-40 -11.5v83q28 8 58.5 12t55.5 4q69 0 98.5 -24.5t29.5 -66.5v0z" />
<glyph unicode="&#xb4;" horiz-adv-x="396" d="M140 560l-42 70l179 124l52 -87z" />
<glyph unicode="&#xb5;" horiz-adv-x="572" d="M513 -3q-14 -3 -29 -4.5t-27 -1.5q-51 0 -74 18.5t-23 60.5q0 15 3.5 35.5t13.5 48.5h-1q-17 -35 -36.5 -64.5t-42 -51.5t-46 -34t-47.5 -12q-57 0 -66 47q-1 -17 -1 -35t-2 -32q-8 -50 -12 -101t-3 -112h-126q3 83 12.5 153.5t22.5 136t28 129t28 132.5l35 187h125 l-53 -279q-7 -35 -8.5 -58t2 -36.5t11.5 -19t20 -5.5q24 0 52 26t53 66.5t44.5 88t27.5 91.5l24 126h125l-53 -281q-6 -31 -8.5 -52.5t-2.5 -34.5q0 -18 5.5 -25t19.5 -7h7q4 0 10 2l-8 -102v0z" />
<glyph unicode="&#x3bc;" horiz-adv-x="572" d="M513 -3q-14 -3 -29 -4.5t-27 -1.5q-51 0 -74 18.5t-23 60.5q0 15 3.5 35.5t13.5 48.5h-1q-17 -35 -36.5 -64.5t-42 -51.5t-46 -34t-47.5 -12q-57 0 -66 47q-1 -17 -1 -35t-2 -32q-8 -50 -12 -101t-3 -112h-126q3 83 12.5 153.5t22.5 136t28 129t28 132.5l35 187h125 l-53 -279q-7 -35 -8.5 -58t2 -36.5t11.5 -19t20 -5.5q24 0 52 26t53 66.5t44.5 88t27.5 91.5l24 126h125l-53 -281q-6 -31 -8.5 -52.5t-2.5 -34.5q0 -18 5.5 -25t19.5 -7h7q4 0 10 2l-8 -102v0z" />
<glyph unicode="&#xb6;" horiz-adv-x="583" d="M288 231q-50 0 -87 12.5t-61 36t-36 56.5t-12 73q0 51 18.5 98.5t54.5 85t88 60t119 22.5zM600 573h-64l-128 -669h-106h-68l19 102h68l128 669h107h63z" />
<glyph unicode="&#xb7;" horiz-adv-x="269" d="M232 300q0 -18 -7 -33.5t-19 -27t-28 -18t-33 -6.5q-35 0 -57.5 24t-22.5 57q0 18 7 33t19 26.5t27.5 18t32.5 6.5t32 -6.5t26 -17.5t17 -25.5t6 -30.5z" />
<glyph unicode="&#x2219;" horiz-adv-x="269" d="M232 300q0 -18 -7 -33.5t-19 -27t-28 -18t-33 -6.5q-35 0 -57.5 24t-22.5 57q0 18 7 33t19 26.5t27.5 18t32.5 6.5t32 -6.5t26 -17.5t17 -25.5t6 -30.5z" />
<glyph unicode="&#xb8;" horiz-adv-x="339" d="M170 -40q29 -54 15 -102t-62 -92h-101q43 44 55 80.5t-15 81.5l108 32v0z" />
<glyph unicode="&#xb9;" horiz-adv-x="285" d="M214 370h-124l57 294l-85 -33v102l125 42h106z" />
<glyph unicode="&#xba;" horiz-adv-x="417" d="M332 540q0 24 -10.5 40t-39.5 16q-26 0 -44 -13.5t-29 -33.5t-16 -43.5t-5 -42.5q0 -26 11.5 -41.5t37.5 -15.5q22 0 39.5 11.5t30 30t19 42.5t6.5 50zM352 176h-307l18 99h308zM437 554q0 -56 -17.5 -100t-47.5 -74.5t-69 -46.5t-82 -16q-71 0 -104.5 34.5t-33.5 94.5 q0 49 15 93t42.5 76.5t67 51.5t88.5 19q40 0 67 -10.5t43.5 -28.5t23.5 -42t7 -51z" />
<glyph unicode="&#xbb;" horiz-adv-x="520" d="M134 103l-90 49l118 143l-69 144l103 45l88 -195zM358 99l-93 48l112 148l-61 149l105 45l77 -201z" />
<glyph unicode="&#xbc;" horiz-adv-x="700" d="M102 -34l-79 70l586 665l79 -71zM131 351l44 232l-63 -23v82l99 33h89l-63 -324h-106zM591 54l-10 -54h-99l11 54h-160l7 66l155 204h50h99l-38 -192h45l-15 -78h-45zM533 257h-2l-98 -127q8 0 18 0.5l19.5 1t19.5 0.5h18z" />
<glyph unicode="&#xbd;" horiz-adv-x="712" d="M102 -34l-79 70l586 665l79 -71zM131 351l44 232l-63 -23v82l99 33h89l-63 -324h-106zM385 0l13 73l62 49q40 28 62 53t26 44q3 19 -6 29t-33 10q-14 0 -31.5 -5t-32.5 -12l2 70q23 8 52 14.5t59 6.5q32 0 53.5 -7.5t33.5 -20.5t15 -31t-1 -38q-5 -31 -29 -59.5 t-65 -60.5l-40 -33q22 2 51 2.5t64 0.5l-17 -85h-238z" />
<glyph unicode="&#xbe;" horiz-adv-x="714" d="M119 -34l-79 70l586 665l79 -71zM315 453q-5 -24 -17.5 -44.5t-34.5 -34.5t-52 -22t-69 -8q-19 0 -40.5 2.5t-37.5 5.5l24 70q13 -4 26.5 -6.5t30.5 -2.5q26 0 43 10.5t20 28.5q2 9 -1.5 16.5t-15 13t-32 6t-53.5 -3.5l12 61q57 0 83.5 11t30.5 33q3 14 -6 21t-31 7 q-15 0 -33.5 -4t-35.5 -11l3 67q23 8 52 12.5t58 4.5q32 0 53 -6.5t32.5 -18t15 -26.5t0.5 -33q-6 -28 -24.5 -46.5t-45.5 -29.5q25 -6 37.5 -26.5t7.5 -46.5v0zM605 54l-10 -54h-99l11 54h-160l7 66l155 204h50h99l-38 -192h45l-15 -78h-45zM547 257h-2l-98 -127 q8 0 18 0.5l19.5 1t19.5 0.5h18z" />
<glyph unicode="&#xbf;" horiz-adv-x="442" d="M333 309q8 -50 -3.5 -85.5t-32.5 -62.5t-47.5 -47.5l-50.5 -39.5t-40 -39.5t-16 -46.5q0 -21 13 -37t36 -27t54.5 -18t67.5 -10l-38 -116q-69 4 -120.5 20t-85.5 40.5t-50.5 56.5t-16.5 68q0 45 17 77t41.5 57t53 46t51.5 44.5t36 51.5t8 68h123v0zM370 437 q0 -35 -24.5 -58t-57.5 -23t-53 21.5t-20 50.5q0 35 24 57.5t57 22.5q34 0 54 -21t20 -50z" />
<glyph unicode="&#xc0;" horiz-adv-x="614" d="M433 0l-19 138h-251l-72 -138h-133l357 675h150l105 -675h-137zM372 441q-3 24 -5.5 47.5t-3.5 46.5h-2q-8 -22 -19 -45.5l-23 -47.5l-105 -201h187zM449 716l-209 53l40 92l197 -75z" />
<glyph unicode="&#xc1;" horiz-adv-x="614" d="M433 0l-19 138h-251l-72 -138h-133l357 675h150l105 -675h-137zM372 441q-3 24 -5.5 47.5t-3.5 46.5h-2q-8 -22 -19 -45.5l-23 -47.5l-105 -201h187zM323 716l-14 70l212 75l19 -92z" />
<glyph unicode="&#xc2;" horiz-adv-x="614" d="M433 0l-19 138h-251l-72 -138h-133l357 675h150l105 -675h-137zM372 441q-3 24 -5.5 47.5t-3.5 46.5h-2q-8 -22 -19 -45.5l-23 -47.5l-105 -201h187zM525 715l-125 60l-141 -60l-24 62l173 87l152 -85z" />
<glyph unicode="&#xc3;" horiz-adv-x="614" d="M433 0l-19 138h-251l-72 -138h-133l357 675h150l105 -675h-137zM372 441q-3 24 -5.5 47.5t-3.5 46.5h-2q-8 -22 -19 -45.5l-23 -47.5l-105 -201h187zM586 810q-24 -40 -56 -61t-71 -21q-25 0 -42 7.5t-30 16l-24.5 16t-25.5 7.5q-34 0 -59 -43l-61 44q24 40 55 61t71 21 q25 0 42 -7.5t30.5 -16l25 -16t25.5 -7.5q32 0 59 42l61 -43v0z" />
<glyph unicode="&#xc4;" horiz-adv-x="614" d="M433 0l-19 138h-251l-72 -138h-133l357 675h150l105 -675h-137zM372 441q-3 24 -5.5 47.5t-3.5 46.5h-2q-8 -22 -19 -45.5l-23 -47.5l-105 -201h187zM361 787q0 -30 -20.5 -49t-47.5 -19t-45 18t-18 44q0 30 20 50t47 20q28 0 46 -19t18 -45zM570 787q0 -30 -20 -49 t-47 -19t-45 18t-18 44q0 30 20 50t47 20t45 -19t18 -45z" />
<glyph unicode="&#xc5;" horiz-adv-x="614" d="M433 0l-19 138h-251l-72 -138h-133l357 675h150l105 -675h-137zM372 441q-3 24 -5.5 47.5t-3.5 46.5h-2q-8 -22 -19 -45.5l-23 -47.5l-105 -201h187zM458 826q0 19 -12.5 33t-32.5 14q-21 0 -36 -15.5t-15 -36.5q0 -20 13 -33.5t33 -13.5q21 0 35.5 15t14.5 37zM526 829 q0 -26 -10 -47.5t-26.5 -37t-38.5 -24.5t-46 -9t-44 8t-34.5 22.5t-23 33.5t-8.5 42q0 26 10 48t26.5 37.5t38.5 24t46 8.5t44 -8t34.5 -22.5t23 -34t8.5 -41.5z" />
<glyph unicode="&#xc6;" horiz-adv-x="763" d="M422 567l-41 -70t-50 -78l-117 -171h148l61 319h-1zM773 566h-228l-31 -166h220l-21 -106h-219l-35 -183h235l-21 -111h-235h-124l29 145h-192l-96 -145h-137l447 675v0h78h123h228z" />
<glyph unicode="&#xc7;" horiz-adv-x="549" d="M552 543q-61 22 -121 22q-67 0 -112.5 -30t-73.5 -76t-40.5 -101.5t-12.5 -105.5q0 -32 7 -58.5t23.5 -45t44.5 -28.5t69 -10q38 0 72.5 7.5t64.5 20.5l-1 -118q-38 -13 -85 -20.5t-89 -7.5q-77 0 -126 21.5t-76.5 55t-38 75.5t-10.5 84q0 86 25 167.5t75 145t124.5 102 t172.5 38.5q42 0 77.5 -5.5t65.5 -13.5zM306 -40q29 -54 15 -102t-62 -92h-101q43 44 55 80.5t-15 81.5l108 32v0z" />
<glyph unicode="&#xc8;" horiz-adv-x="482" d="M493 566h-232l-32 -166h221l-21 -106h-220l-34 -183h231l-21 -111h-231h-128l128 675h128h231zM400 716l-209 53l40 92l197 -75z" />
<glyph unicode="&#xc9;" horiz-adv-x="482" d="M493 566h-232l-32 -166h221l-21 -106h-220l-34 -183h231l-21 -111h-231h-128l128 675h128h231zM267 716l-14 70l212 75l19 -92z" />
<glyph unicode="&#xca;" horiz-adv-x="482" d="M493 566h-232l-32 -166h221l-21 -106h-220l-34 -183h231l-21 -111h-231h-128l128 675h128h231zM471 715l-125 60l-141 -60l-24 62l173 87l152 -85z" />
<glyph unicode="&#xcb;" horiz-adv-x="482" d="M493 566h-232l-32 -166h221l-21 -106h-220l-34 -183h231l-21 -111h-231h-128l128 675h128h231zM304 787q0 -30 -20.5 -49t-47.5 -19t-45 18t-18 44q0 30 20 50t47 20q28 0 46 -19t18 -45zM513 787q0 -30 -20 -49t-47 -19t-45 18t-18 44q0 30 20 50t47 20t45 -19t18 -45z " />
<glyph unicode="&#xcc;" horiz-adv-x="265" d="M154 0h-128l128 675h128zM287 716l-209 53l40 92l197 -75z" />
<glyph unicode="&#xcd;" horiz-adv-x="265" d="M154 0h-128l128 675h128zM155 716l-14 70l212 75l19 -92z" />
<glyph unicode="&#xce;" horiz-adv-x="265" d="M154 0h-128l128 675h128zM358 715l-125 60l-141 -60l-24 62l173 87l152 -85z" />
<glyph unicode="&#xcf;" horiz-adv-x="265" d="M154 0h-128l128 675h128zM192 787q0 -30 -20.5 -49t-47.5 -19t-45 18t-18 44q0 30 20 50t47 20q28 0 46 -19t18 -45zM401 787q0 -30 -20 -49t-47 -19t-45 18t-18 44q0 30 20 50t47 20t45 -19t18 -45z" />
<glyph unicode="&#xd0;" horiz-adv-x="662" d="M520 422q0 33 -8 60.5t-27.5 47t-51.5 30t-80 10.5q-52 0 -83 -3l-34 -175h120l-19 -98h-120l-34 -182q14 -2 31 -3.5t31 -1.5q76 0 129 31t85 78t46.5 102t14.5 104zM659 435q0 -85 -28 -164t-81.5 -140t-134.5 -98t-190 -37q-63 0 -105.5 1.5t-85.5 3.5l56 293h-74 l19 98h74l53 282q55 2 128 4q29 1 83 1q141 0 212 -59.5t74 -184.5z" />
<glyph unicode="&#xd1;" horiz-adv-x="670" d="M558 0h-150l-126 337l-25 75.5t-20 71.5q-6 -48 -13.5 -95t-17.5 -98l-55 -291h-125l128 675h151l123 -319q15 -40 27 -81l23 -79q6 47 14.5 99.5t17.5 100.5l52 279h125zM628 810q-24 -40 -56 -61t-71 -21q-25 0 -42 7.5t-30 16l-24.5 16t-25.5 7.5q-34 0 -59 -43 l-61 44q24 40 55 61t71 21q25 0 42 -7.5t30.5 -16l25 -16t25.5 -7.5q32 0 59 42l61 -43v0z" />
<glyph unicode="&#xd2;" horiz-adv-x="689" d="M551 424q0 66 -32 105.5t-101 39.5q-54 0 -98 -26t-74.5 -69.5t-47.5 -100t-17 -116.5q0 -72 33.5 -111t97.5 -39q51 0 95 25.5t76 68.5t50 100.5t18 122.5zM688 439q0 -98 -31 -180.5t-85 -142.5t-125.5 -93.5t-152.5 -33.5q-128 0 -189 65.5t-61 180.5q0 91 30 173 t83.5 144t125.5 98t156 36q123 0 186 -64.5t63 -182.5zM507 716l-209 53l40 92l197 -75z" />
<glyph unicode="&#xd3;" horiz-adv-x="689" d="M551 424q0 66 -32 105.5t-101 39.5q-54 0 -98 -26t-74.5 -69.5t-47.5 -100t-17 -116.5q0 -72 33.5 -111t97.5 -39q51 0 95 25.5t76 68.5t50 100.5t18 122.5zM688 439q0 -98 -31 -180.5t-85 -142.5t-125.5 -93.5t-152.5 -33.5q-128 0 -189 65.5t-61 180.5q0 91 30 173 t83.5 144t125.5 98t156 36q123 0 186 -64.5t63 -182.5zM376 716l-14 70l212 75l19 -92z" />
<glyph unicode="&#xd4;" horiz-adv-x="689" d="M551 424q0 66 -32 105.5t-101 39.5q-54 0 -98 -26t-74.5 -69.5t-47.5 -100t-17 -116.5q0 -72 33.5 -111t97.5 -39q51 0 95 25.5t76 68.5t50 100.5t18 122.5zM688 439q0 -98 -31 -180.5t-85 -142.5t-125.5 -93.5t-152.5 -33.5q-128 0 -189 65.5t-61 180.5q0 91 30 173 t83.5 144t125.5 98t156 36q123 0 186 -64.5t63 -182.5zM577 715l-125 60l-141 -60l-24 62l173 87l152 -85z" />
<glyph unicode="&#xd5;" horiz-adv-x="689" d="M551 424q0 66 -32 105.5t-101 39.5q-54 0 -98 -26t-74.5 -69.5t-47.5 -100t-17 -116.5q0 -72 33.5 -111t97.5 -39q51 0 95 25.5t76 68.5t50 100.5t18 122.5zM688 439q0 -98 -31 -180.5t-85 -142.5t-125.5 -93.5t-152.5 -33.5q-128 0 -189 65.5t-61 180.5q0 91 30 173 t83.5 144t125.5 98t156 36q123 0 186 -64.5t63 -182.5zM641 810q-24 -40 -56 -61t-71 -21q-25 0 -42 7.5t-30 16l-24.5 16t-25.5 7.5q-34 0 -59 -43l-61 44q24 40 55 61t71 21q25 0 42 -7.5t30.5 -16l25 -16t25.5 -7.5q32 0 59 42l61 -43v0z" />
<glyph unicode="&#xd6;" horiz-adv-x="689" d="M551 424q0 66 -32 105.5t-101 39.5q-54 0 -98 -26t-74.5 -69.5t-47.5 -100t-17 -116.5q0 -72 33.5 -111t97.5 -39q51 0 95 25.5t76 68.5t50 100.5t18 122.5zM688 439q0 -98 -31 -180.5t-85 -142.5t-125.5 -93.5t-152.5 -33.5q-128 0 -189 65.5t-61 180.5q0 91 30 173 t83.5 144t125.5 98t156 36q123 0 186 -64.5t63 -182.5zM416 787q0 -30 -20.5 -49t-47.5 -19t-45 18t-18 44q0 30 20 50t47 20q28 0 46 -19t18 -45zM625 787q0 -30 -20 -49t-47 -19t-45 18t-18 44q0 30 20 50t47 20t45 -19t18 -45z" />
<glyph unicode="&#xd7;" d="M362 295l126 -157l-86 -69l-125 155l-184 -155l-63 76l186 156l-126 156l86 69l124 -154l182 154l64 -76z" />
<glyph unicode="&#xd8;" horiz-adv-x="689" d="M433 570q-15 1 -25 0.5t-22 -2.5q-47 -8 -85.5 -36t-66 -71t-42.5 -96t-15 -110q0 -32 8 -57t25 -42l223 414v0zM555 426q0 33 -9 59t-28 43l-227 -421q27 -3 57 3q44 8 82 36t65.5 70t43.5 96t16 114zM688 439q0 -98 -31 -180.5t-85 -142.5t-125.5 -93.5t-152.5 -33.5 q-35 0 -63 6l-52 -99l-91 33l52 97q-49 31 -72.5 84t-23.5 125q0 92 29.5 174t82 143.5t124.5 97.5t157 36q15 0 28.5 -1t26.5 -4l49 93l90 -32l-48 -90q52 -29 78.5 -83t26.5 -130z" />
<glyph unicode="&#xd9;" horiz-adv-x="667" d="M602 248q-26 -134 -107 -196.5t-209 -62.5q-76 0 -123 20t-70.5 55t-27 82t6.5 101l81 428h128l-84 -438q-13 -69 10.5 -104.5t96.5 -35.5q75 0 116 37.5t58 124.5l80 416h126zM478 716l-209 53l40 92l197 -75z" />
<glyph unicode="&#xda;" horiz-adv-x="667" d="M602 248q-26 -134 -107 -196.5t-209 -62.5q-76 0 -123 20t-70.5 55t-27 82t6.5 101l81 428h128l-84 -438q-13 -69 10.5 -104.5t96.5 -35.5q75 0 116 37.5t58 124.5l80 416h126zM374 716l-14 70l212 75l19 -92z" />
<glyph unicode="&#xdb;" horiz-adv-x="667" d="M602 248q-26 -134 -107 -196.5t-209 -62.5q-76 0 -123 20t-70.5 55t-27 82t6.5 101l81 428h128l-84 -438q-13 -69 10.5 -104.5t96.5 -35.5q75 0 116 37.5t58 124.5l80 416h126zM557 715l-125 60l-141 -60l-24 62l173 87l152 -85z" />
<glyph unicode="&#xdc;" horiz-adv-x="667" d="M602 248q-26 -134 -107 -196.5t-209 -62.5q-76 0 -123 20t-70.5 55t-27 82t6.5 101l81 428h128l-84 -438q-13 -69 10.5 -104.5t96.5 -35.5q75 0 116 37.5t58 124.5l80 416h126zM391 787q0 -30 -20.5 -49t-47.5 -19t-45 18t-18 44q0 30 20 50t47 20q28 0 46 -19t18 -45z M600 787q0 -30 -20 -49t-47 -19t-45 18t-18 44q0 30 20 50t47 20t45 -19t18 -45z" />
<glyph unicode="&#xdd;" d="M339 239l-45 -239h-127l45 238l-124 437h134l51 -194q15 -61 24 -112h2q16 29 36 61l41 64l116 181h141zM320 716l-14 70l212 75l19 -92z" />
<glyph unicode="&#xde;" horiz-adv-x="532" d="M414 387q0 39 -25 64.5t-84 25.5q-14 0 -28.5 -1t-33.5 -3l-45 -239q23 -4 51 -4q39 0 69.5 12.5t51.5 34.5t32.5 50t11.5 60zM549 409q0 -59 -22.5 -110.5t-64 -90.5t-100 -61.5t-130.5 -22.5h-23.5t-31.5 2l-24 -126h-127l128 675h128l-18 -94q21 1 36.5 1.5t35.5 0.5 q106 0 159.5 -45.5t53.5 -128.5z" />
<glyph unicode="&#xdf;" horiz-adv-x="587" d="M566 604q0 -35 -11 -59.5t-26.5 -43t-35.5 -33t-36 -28.5t-27 -30t-11 -38q0 -25 17 -46.5t37 -44.5t37 -51.5t17 -67.5q0 -33 -14 -64t-42 -55t-70 -38.5t-97 -14.5q-26 0 -46.5 2t-39.5 5l22 107q36 -14 74 -14t59 16t21 45q0 27 -16.5 47.5l-36 43t-36 50t-16.5 66.5 q0 48 22.5 78t50 53t50 45.5t22.5 56.5q0 20 -15.5 33.5t-46.5 13.5q-47 0 -80 -33t-47 -105l-99 -519q-23 -124 -82.5 -177t-156.5 -53q-17 0 -36.5 2.5t-36.5 5.5l29 103q13 -4 26.5 -5t26.5 -1q22 0 38.5 6t29 20.5t21.5 38.5t16 61l98 512q23 126 95 184.5t174 58.5 q82 0 130 -35t48 -98z" />
<glyph unicode="&#xe0;" horiz-adv-x="542" d="M383 399q-12 3 -25.5 5t-30.5 2q-43 0 -74.5 -22.5t-52.5 -57.5t-31 -77t-10 -81q0 -37 9.5 -53t28.5 -16q27 0 55.5 27t53.5 67.5t44 87.5t27 86l6 32v0zM525 491l-30 -156l-24 -127l-20 -108.5l-17 -99.5h-124q7 29 18.5 67.5t28.5 90.5h-2q-15 -27 -35.5 -57 t-46.5 -55t-57.5 -41t-68.5 -16q-57 0 -87 37.5t-30 117.5q0 70 19 135.5t58.5 116t99.5 80.5t142 30q45 0 89.5 -3.5t86.5 -11.5zM405 560l-172 111l62 83l162 -126z" />
<glyph unicode="&#xe1;" horiz-adv-x="542" d="M383 399q-12 3 -25.5 5t-30.5 2q-43 0 -74.5 -22.5t-52.5 -57.5t-31 -77t-10 -81q0 -37 9.5 -53t28.5 -16q27 0 55.5 27t53.5 67.5t44 87.5t27 86l6 32v0zM525 491l-30 -156l-24 -127l-20 -108.5l-17 -99.5h-124q7 29 18.5 67.5t28.5 90.5h-2q-15 -27 -35.5 -57 t-46.5 -55t-57.5 -41t-68.5 -16q-57 0 -87 37.5t-30 117.5q0 70 19 135.5t58.5 116t99.5 80.5t142 30q45 0 89.5 -3.5t86.5 -11.5zM327 560l-42 70l179 124l52 -87z" />
<glyph unicode="&#xe2;" horiz-adv-x="542" d="M383 399q-12 3 -25.5 5t-30.5 2q-43 0 -74.5 -22.5t-52.5 -57.5t-31 -77t-10 -81q0 -37 9.5 -53t28.5 -16q27 0 55.5 27t53.5 67.5t44 87.5t27 86l6 32v0zM525 491l-30 -156l-24 -127l-20 -108.5l-17 -99.5h-124q7 29 18.5 67.5t28.5 90.5h-2q-15 -27 -35.5 -57 t-46.5 -55t-57.5 -41t-68.5 -16q-57 0 -87 37.5t-30 117.5q0 70 19 135.5t58.5 116t99.5 80.5t142 30q45 0 89.5 -3.5t86.5 -11.5zM454 560l-86 81l-116 -81l-42 58l174 136l126 -135z" />
<glyph unicode="&#xe3;" horiz-adv-x="542" d="M383 399q-12 3 -25.5 5t-30.5 2q-43 0 -74.5 -22.5t-52.5 -57.5t-31 -77t-10 -81q0 -37 9.5 -53t28.5 -16q27 0 55.5 27t53.5 67.5t44 87.5t27 86l6 32v0zM525 491l-30 -156l-24 -127l-20 -108.5l-17 -99.5h-124q7 29 18.5 67.5t28.5 90.5h-2q-15 -27 -35.5 -57 t-46.5 -55t-57.5 -41t-68.5 -16q-57 0 -87 37.5t-30 117.5q0 70 19 135.5t58.5 116t99.5 80.5t142 30q45 0 89.5 -3.5t86.5 -11.5zM543 669q-46 -89 -125 -89q-24 0 -40 8t-28.5 17l-24 17t-25.5 8q-33 0 -58 -45l-59 47q23 44 54.5 66.5t69.5 22.5q24 0 40.5 -8t29.5 -17 l24.5 -17t25.5 -8q31 0 57 45l59 -47v0z" />
<glyph unicode="&#xe4;" horiz-adv-x="542" d="M383 399q-12 3 -25.5 5t-30.5 2q-43 0 -74.5 -22.5t-52.5 -57.5t-31 -77t-10 -81q0 -37 9.5 -53t28.5 -16q27 0 55.5 27t53.5 67.5t44 87.5t27 86l6 32v0zM525 491l-30 -156l-24 -127l-20 -108.5l-17 -99.5h-124q7 29 18.5 67.5t28.5 90.5h-2q-15 -27 -35.5 -57 t-46.5 -55t-57.5 -41t-68.5 -16q-57 0 -87 37.5t-30 117.5q0 70 19 135.5t58.5 116t99.5 80.5t142 30q45 0 89.5 -3.5t86.5 -11.5zM326 651q0 -31 -21 -51.5t-50 -20.5t-48 20t-19 47q0 31 21 51t50 20t48 -19.5t19 -46.5zM528 651q0 -31 -21 -51.5t-50 -20.5t-48 20t-19 48 q0 30 21.5 50t50.5 20t47.5 -19.5t18.5 -46.5z" />
<glyph unicode="&#xe5;" horiz-adv-x="542" d="M383 399q-12 3 -25.5 5t-30.5 2q-43 0 -74.5 -22.5t-52.5 -57.5t-31 -77t-10 -81q0 -37 9.5 -53t28.5 -16q27 0 55.5 27t53.5 67.5t44 87.5t27 86l6 32v0zM525 491l-30 -156l-24 -127l-20 -108.5l-17 -99.5h-124q7 29 18.5 67.5t28.5 90.5h-2q-15 -27 -35.5 -57 t-46.5 -55t-57.5 -41t-68.5 -16q-57 0 -87 37.5t-30 117.5q0 70 19 135.5t58.5 116t99.5 80.5t142 30q45 0 89.5 -3.5t86.5 -11.5zM429 671q0 20 -13.5 35t-36.5 15t-39 -16.5t-16 -39.5q0 -21 14 -36t36 -15q23 0 39 16.5t16 40.5zM503 674q0 -28 -11 -51.5t-29 -40.5 t-42 -26.5t-50 -9.5t-48 8.5t-38.5 24t-25.5 36.5t-9 46q0 29 11 52.5t29 40.5t42 26t50 9t48 -9t38.5 -24.5t25.5 -36.5t9 -45z" />
<glyph unicode="&#xe6;" horiz-adv-x="762" d="M312 210q-39 -2 -71 -6t-55 -13.5t-35.5 -24.5t-12.5 -37q0 -18 12.5 -30t34.5 -12q25 0 46.5 10t38 27t27.5 39.5t15 46.5zM627 369q0 21 -14.5 33t-37.5 12q-24 0 -43.5 -10t-35 -27t-26.5 -39t-18 -46q39 2 71 6.5t55 13t36 22.5t13 35zM751 386q0 -39 -16.5 -70.5 t-53.5 -54.5t-97 -36.5t-147 -16.5q-3 -20 -3 -44q0 -43 20 -58.5t72 -15.5q35 0 72.5 8t72.5 22v-98q-42 -16 -89 -24t-97 -8q-75 0 -109.5 26.5t-47.5 71.5q-27 -42 -75.5 -70t-105.5 -28q-37 0 -62 9.5t-40.5 26t-22.5 37.5t-7 44q0 49 22.5 83.5t64 56.5t99 33.5 t127.5 13.5l6 26q9 42 -7 65t-70 23q-32 0 -71 -9t-74 -27v105q41 15 85.5 23t87.5 8q64 0 95.5 -17.5t46.5 -43.5q26 23 69.5 42t91.5 19q47 0 78.5 -10.5t50 -28t26.5 -39.5t8 -44z" />
<glyph unicode="&#xe7;" horiz-adv-x="404" d="M393 384q-33 15 -77 15q-39 0 -67.5 -19.5t-47.5 -50t-28 -67.5t-9 -72q0 -18 4 -34t14.5 -28t27 -19t42.5 -7q24 0 48 5t44 13l-8 -109q-26 -10 -57.5 -15.5t-63.5 -5.5q-50 0 -85 12t-57 34.5t-32 54.5t-10 71q0 71 20.5 134t58.5 110t92 74t122 27q27 0 51.5 -3.5 t47.5 -9.5zM214 -40q29 -54 15 -102t-62 -92h-101q43 44 55 80.5t-15 81.5l108 32v0z" />
<glyph unicode="&#xe8;" horiz-adv-x="485" d="M350 369q0 21 -13.5 32.5t-37.5 11.5t-44 -10.5t-35.5 -27.5t-26.5 -40t-18 -47q87 3 131 22t44 59zM474 386q0 -45 -21.5 -78t-62 -55.5t-98.5 -35t-131 -14.5q-1 -8 -2 -19.5t-1 -19.5q0 -43 19.5 -58.5t71.5 -15.5q36 0 72.5 8t71.5 22l2 -98q-43 -16 -90 -24t-97 -8 q-95 0 -135.5 42.5t-40.5 125.5q0 78 22 142.5t60.5 110t89.5 71t109 25.5q46 0 77 -10.5t49.5 -27.5t26.5 -39t8 -44zM372 560l-172 111l62 83l162 -126z" />
<glyph unicode="&#xe9;" horiz-adv-x="485" d="M350 369q0 21 -13.5 32.5t-37.5 11.5t-44 -10.5t-35.5 -27.5t-26.5 -40t-18 -47q87 3 131 22t44 59zM474 386q0 -45 -21.5 -78t-62 -55.5t-98.5 -35t-131 -14.5q-1 -8 -2 -19.5t-1 -19.5q0 -43 19.5 -58.5t71.5 -15.5q36 0 72.5 8t71.5 22l2 -98q-43 -16 -90 -24t-97 -8 q-95 0 -135.5 42.5t-40.5 125.5q0 78 22 142.5t60.5 110t89.5 71t109 25.5q46 0 77 -10.5t49.5 -27.5t26.5 -39t8 -44zM285 560l-42 70l179 124l52 -87z" />
<glyph unicode="&#xea;" horiz-adv-x="468" d="M350 369q0 21 -13.5 32.5t-37.5 11.5t-44 -10.5t-35.5 -27.5t-26.5 -40t-18 -47q87 3 131 22t44 59zM474 386q0 -45 -21.5 -78t-62 -55.5t-98.5 -35t-131 -14.5q-1 -8 -2 -19.5t-1 -19.5q0 -43 19.5 -58.5t71.5 -15.5q36 0 72.5 8t71.5 22l2 -98q-43 -16 -90 -24t-97 -8 q-95 0 -135.5 42.5t-40.5 125.5q0 78 22 142.5t60.5 110t89.5 71t109 25.5q46 0 77 -10.5t49.5 -27.5t26.5 -39t8 -44zM422 560l-86 81l-116 -81l-42 58l174 136l126 -135z" />
<glyph unicode="&#xeb;" horiz-adv-x="485" d="M350 369q0 21 -13.5 32.5t-37.5 11.5t-44 -10.5t-35.5 -27.5t-26.5 -40t-18 -47q87 3 131 22t44 59zM474 386q0 -45 -21.5 -78t-62 -55.5t-98.5 -35t-131 -14.5q-1 -8 -2 -19.5t-1 -19.5q0 -43 19.5 -58.5t71.5 -15.5q36 0 72.5 8t71.5 22l2 -98q-43 -16 -90 -24t-97 -8 q-95 0 -135.5 42.5t-40.5 125.5q0 78 22 142.5t60.5 110t89.5 71t109 25.5q46 0 77 -10.5t49.5 -27.5t26.5 -39t8 -44zM305 651q0 -31 -21 -51.5t-50 -20.5t-48 20t-19 47q0 31 21 51t50 20t48 -19.5t19 -46.5zM507 651q0 -31 -21 -51.5t-50 -20.5t-48 20t-19 48 q0 30 21.5 50t50.5 20t47.5 -19.5t18.5 -46.5z" />
<glyph unicode="&#xec;" horiz-adv-x="261" d="M150 0h-125l95 497h125zM215 549l-132 146l81 67l116 -158z" />
<glyph unicode="&#xed;" horiz-adv-x="261" d="M150 0h-125l95 497h125zM178 549l-58 62l145 151l71 -76z" />
<glyph unicode="&#xee;" horiz-adv-x="261" d="M150 0h-125l95 497h125zM281 560l-70 81l-98 -81l-43 57l158 137l110 -137z" />
<glyph unicode="&#xef;" horiz-adv-x="261" d="M150 0h-125l95 497h125zM189 651q0 -31 -21 -51.5t-50 -20.5t-48 20t-19 47q0 31 21.5 51t50.5 20t47.5 -19.5t18.5 -46.5zM371 651q0 -31 -21 -51.5t-50 -20.5t-48 20t-19 48q0 30 21.5 50t50.5 20t47.5 -19.5t18.5 -46.5z" />
<glyph unicode="&#xf0;" horiz-adv-x="547" d="M391 311q0 39 -20 63.5t-60 24.5q-35 0 -62.5 -17t-46.5 -45t-29.5 -64t-10.5 -74q0 -49 21.5 -74.5t59.5 -25.5q43 0 72 24.5t45.5 58t23.5 69.5t7 60zM455 631q38 -60 55 -123t17 -129q0 -93 -24.5 -165.5t-65.5 -122t-95 -75.5t-112 -26q-93 0 -146 43.5t-53 140.5 q0 71 22.5 131.5t61.5 105t91 69.5t111 25q26 0 47.5 -7t30.5 -24q-8 24 -16 41q-8 19 -17.5 36t-20.5 33l-102 -43l-38 63l91 38q-14 15 -29 28l-31 27l122 53l30 -29t26 -29l99 41l38 -63z" />
<glyph unicode="&#xf1;" horiz-adv-x="559" d="M449 0h-126l60 312q9 46 1.5 66t-31.5 20q-25 0 -53 -26t-53.5 -66.5t-45 -88.5t-27.5 -91l-24 -126h-125l50 260q3 17 9.5 50l13 69l12 68.5l8.5 49.5h123q-5 -23 -15 -59t-30 -95l2 -1q17 33 38.5 63.5t47.5 53t56.5 36t66.5 13.5t59.5 -12t36.5 -34t15.5 -52.5 t-4.5 -66.5zM529 669q-46 -89 -125 -89q-24 0 -40 8t-28.5 17l-24 17t-25.5 8q-33 0 -58 -45l-59 47q23 44 54.5 66.5t69.5 22.5q24 0 40.5 -8t29.5 -17l24.5 -17t25.5 -8q31 0 57 45l59 -47v0z" />
<glyph unicode="&#xf2;" horiz-adv-x="545" d="M393 310q0 43 -19 65.5t-63 22.5q-35 0 -62.5 -19t-47 -49t-29.5 -67.5t-10 -74.5q0 -41 18 -64.5t62 -23.5q33 0 61 17t48 46t31 67t11 80zM525 326q0 -77 -25 -139t-66.5 -106t-96 -67.5t-112.5 -23.5q-104 0 -149 47t-45 131q0 78 24.5 140.5t65.5 107t95 68t114 23.5 q53 0 90 -13.5t60.5 -37.5t34 -57.5t10.5 -72.5zM385 560l-172 111l62 83l162 -126z" />
<glyph unicode="&#xf3;" horiz-adv-x="545" d="M393 310q0 43 -19 65.5t-63 22.5q-35 0 -62.5 -19t-47 -49t-29.5 -67.5t-10 -74.5q0 -41 18 -64.5t62 -23.5q33 0 61 17t48 46t31 67t11 80zM525 326q0 -77 -25 -139t-66.5 -106t-96 -67.5t-112.5 -23.5q-104 0 -149 47t-45 131q0 78 24.5 140.5t65.5 107t95 68t114 23.5 q53 0 90 -13.5t60.5 -37.5t34 -57.5t10.5 -72.5zM310 560l-42 70l179 124l52 -87z" />
<glyph unicode="&#xf4;" horiz-adv-x="545" d="M393 310q0 43 -19 65.5t-63 22.5q-35 0 -62.5 -19t-47 -49t-29.5 -67.5t-10 -74.5q0 -41 18 -64.5t62 -23.5q33 0 61 17t48 46t31 67t11 80zM525 326q0 -77 -25 -139t-66.5 -106t-96 -67.5t-112.5 -23.5q-104 0 -149 47t-45 131q0 78 24.5 140.5t65.5 107t95 68t114 23.5 q53 0 90 -13.5t60.5 -37.5t34 -57.5t10.5 -72.5zM448 560l-86 81l-116 -81l-42 58l174 136l126 -135z" />
<glyph unicode="&#xf5;" horiz-adv-x="545" d="M393 310q0 43 -19 65.5t-63 22.5q-35 0 -62.5 -19t-47 -49t-29.5 -67.5t-10 -74.5q0 -41 18 -64.5t62 -23.5q33 0 61 17t48 46t31 67t11 80zM525 326q0 -77 -25 -139t-66.5 -106t-96 -67.5t-112.5 -23.5q-104 0 -149 47t-45 131q0 78 24.5 140.5t65.5 107t95 68t114 23.5 q53 0 90 -13.5t60.5 -37.5t34 -57.5t10.5 -72.5zM532 669q-46 -89 -125 -89q-24 0 -40 8t-28.5 17l-24 17t-25.5 8q-33 0 -58 -45l-59 47q23 44 54.5 66.5t69.5 22.5q24 0 40.5 -8t29.5 -17l24.5 -17t25.5 -8q31 0 57 45l59 -47v0z" />
<glyph unicode="&#xf6;" horiz-adv-x="545" d="M393 310q0 43 -19 65.5t-63 22.5q-35 0 -62.5 -19t-47 -49t-29.5 -67.5t-10 -74.5q0 -41 18 -64.5t62 -23.5q33 0 61 17t48 46t31 67t11 80zM525 326q0 -77 -25 -139t-66.5 -106t-96 -67.5t-112.5 -23.5q-104 0 -149 47t-45 131q0 78 24.5 140.5t65.5 107t95 68t114 23.5 q53 0 90 -13.5t60.5 -37.5t34 -57.5t10.5 -72.5zM322 651q0 -31 -21 -51.5t-50 -20.5t-48 20t-19 47q0 31 21 51t50 20t48 -19.5t19 -46.5zM524 651q0 -31 -21 -51.5t-50 -20.5t-48 20t-19 48q0 30 21.5 50t50.5 20t47.5 -19.5t18.5 -46.5z" />
<glyph unicode="&#xf7;" d="M326 100q0 -17 -6.5 -32t-17.5 -26t-25.5 -17t-30.5 -6q-32 0 -53.5 22.5t-21.5 52.5q0 17 6.5 32t17.5 26t25.5 17t30.5 6q32 0 53.5 -22.5t21.5 -52.5zM514 244h-472l21 107h471zM404 501q0 -17 -6.5 -32t-18 -26t-26 -17t-30.5 -6q-32 0 -53.5 22.5t-21.5 53.5 q0 17 6.5 31.5t17.5 25.5t25.5 17.5t30.5 6.5q32 0 54 -23t22 -53z" />
<glyph unicode="&#xf8;" horiz-adv-x="545" d="M525 326q0 -77 -25 -139t-66.5 -106t-95.5 -67.5t-112 -23.5q-15 0 -28.5 1.5t-25.5 3.5l-57 -101l-69 33l53 93q-35 22 -51.5 59.5t-16.5 88.5q0 73 22 135.5t61.5 107.5t94.5 70.5t121 25.5q24 0 45 -3l58 103l68 -32l-54 -94q42 -24 60 -63.5t18 -91.5zM406 312 q0 22 -6 37t-16 27l-160 -284q18 -3 37 -2q33 4 59.5 25.5t45.5 53t29.5 69t10.5 74.5zM323 407q-15 1 -30 0q-30 -3 -56 -22t-45.5 -48.5t-30.5 -67t-11 -77.5q0 -37 16 -62z" />
<glyph unicode="&#xf9;" horiz-adv-x="558" d="M493 237q-3 -17 -9.5 -50l-13 -69l-12 -68.5l-8.5 -49.5h-122q4 23 14 59t30 95l-2 1q-17 -33 -38.5 -63.5t-47.5 -53t-56.5 -36t-66.5 -13.5t-60 12t-36.5 34t-15 52.5t4.5 66.5l66 343h125l-60 -312q-8 -46 -1 -66t31 -20q25 0 53 26t53.5 66.5t45 88t27.5 91.5l24 126 h125zM373 560l-172 111l62 83l162 -126z" />
<glyph unicode="&#xfa;" horiz-adv-x="558" d="M493 237q-3 -17 -9.5 -50l-13 -69l-12 -68.5l-8.5 -49.5h-122q4 23 14 59t30 95l-2 1q-17 -33 -38.5 -63.5t-47.5 -53t-56.5 -36t-66.5 -13.5t-60 12t-36.5 34t-15 52.5t4.5 66.5l66 343h125l-60 -312q-8 -46 -1 -66t31 -20q25 0 53 26t53.5 66.5t45 88t27.5 91.5l24 126 h125zM314 560l-42 70l179 124l52 -87z" />
<glyph unicode="&#xfb;" horiz-adv-x="558" d="M493 237q-3 -17 -9.5 -50l-13 -69l-12 -68.5l-8.5 -49.5h-122q4 23 14 59t30 95l-2 1q-17 -33 -38.5 -63.5t-47.5 -53t-56.5 -36t-66.5 -13.5t-60 12t-36.5 34t-15 52.5t4.5 66.5l66 343h125l-60 -312q-8 -46 -1 -66t31 -20q25 0 53 26t53.5 66.5t45 88t27.5 91.5l24 126 h125zM443 560l-86 81l-116 -81l-42 58l174 136l126 -135z" />
<glyph unicode="&#xfc;" horiz-adv-x="558" d="M493 237q-3 -17 -9.5 -50l-13 -69l-12 -68.5l-8.5 -49.5h-122q4 23 14 59t30 95l-2 1q-17 -33 -38.5 -63.5t-47.5 -53t-56.5 -36t-66.5 -13.5t-60 12t-36.5 34t-15 52.5t4.5 66.5l66 343h125l-60 -312q-8 -46 -1 -66t31 -20q25 0 53 26t53.5 66.5t45 88t27.5 91.5l24 126 h125zM318 651q0 -31 -21 -51.5t-50 -20.5t-48 20t-19 47q0 31 21 51t50 20t48 -19.5t19 -46.5zM520 651q0 -31 -21 -51.5t-50 -20.5t-48 20t-19 48q0 30 21.5 50t50.5 20t47.5 -19.5t18.5 -46.5z" />
<glyph unicode="&#xfd;" horiz-adv-x="512" d="M544 484q-54 -124 -102.5 -223t-94 -177t-89.5 -137t-88 -103q-50 -49 -96.5 -71t-95.5 -22q-40 0 -74 8l21 110q27 -10 61 -10q24 0 48.5 10.5t44.5 30.5q23 23 34.5 52.5t11.5 75.5q0 107 -21.5 226.5t-55.5 242.5h140q10 -41 19.5 -87t16 -92.5t10.5 -91.5t4 -84 q0 -20 -5 -42h2q50 92 95.5 192.5t94.5 225.5l119 -34v0zM282 560l-42 70l179 124l52 -87z" />
<glyph unicode="&#xfe;" horiz-adv-x="542" d="M393 329q0 37 -10 53t-28 16q-27 0 -55.5 -27t-53.5 -67.5t-44 -86.5t-26 -85l-6 -32q12 -4 27 -6.5t29 -2.5q43 0 74.5 22.5t52 57.5t30.5 77t10 81zM522 353q0 -71 -19 -136t-58.5 -115.5t-99.5 -80.5t-142 -30q-14 0 -26 1t-28 3l-44 -236h-125l185 971h127l-32 -165 q-5 -28 -10.5 -53t-13 -50.5t-17 -54t-22.5 -62.5l3 -1q18 35 40.5 65t48.5 52t55.5 34.5t62.5 12.5q57 0 86 -37.5t29 -117.5z" />
<glyph unicode="&#xff;" horiz-adv-x="512" d="M544 484q-54 -124 -102.5 -223t-94 -177t-89.5 -137t-88 -103q-50 -49 -96.5 -71t-95.5 -22q-40 0 -74 8l21 110q27 -10 61 -10q24 0 48.5 10.5t44.5 30.5q23 23 34.5 52.5t11.5 75.5q0 107 -21.5 226.5t-55.5 242.5h140q10 -41 19.5 -87t16 -92.5t10.5 -91.5t4 -84 q0 -20 -5 -42h2q50 92 95.5 192.5t94.5 225.5l119 -34v0zM286 651q0 -31 -21 -51.5t-50 -20.5t-48 20t-19 47q0 31 21 51t50 20t48 -19.5t19 -46.5zM488 651q0 -31 -21 -51.5t-50 -20.5t-48 20t-19 48q0 30 21.5 50t50.5 20t47.5 -19.5t18.5 -46.5z" />
<glyph unicode="&#x100;" horiz-adv-x="614" d="M433 0l-19 138h-251l-72 -138h-133l357 675h150l105 -675h-137zM372 441q-3 24 -5.5 47.5t-3.5 46.5h-2q-8 -22 -19 -45.5l-23 -47.5l-105 -201h187zM537 741h-290l15 81h291z" />
<glyph unicode="&#x101;" horiz-adv-x="542" d="M383 399q-12 3 -25.5 5t-30.5 2q-43 0 -74.5 -22.5t-52.5 -57.5t-31 -77t-10 -81q0 -37 9.5 -53t28.5 -16q27 0 55.5 27t53.5 67.5t44 87.5t27 86l6 32v0zM525 491l-30 -156l-24 -127l-20 -108.5l-17 -99.5h-124q7 29 18.5 67.5t28.5 90.5h-2q-15 -27 -35.5 -57 t-46.5 -55t-57.5 -41t-68.5 -16q-57 0 -87 37.5t-30 117.5q0 70 19 135.5t58.5 116t99.5 80.5t142 30q45 0 89.5 -3.5t86.5 -11.5zM480 600h-264l17 92h264z" />
<glyph unicode="&#x102;" horiz-adv-x="614" d="M433 0l-19 138h-251l-72 -138h-133l357 675h150l105 -675h-137zM372 441q-3 24 -5.5 47.5t-3.5 46.5h-2q-8 -22 -19 -45.5l-23 -47.5l-105 -201h187zM555 859q-5 -27 -17.5 -51.5t-32.5 -43.5t-49 -30t-66 -11q-35 0 -59.5 11t-38.5 30t-18.5 43.5t0.5 51.5h74 q-5 -24 9.5 -41t44.5 -17q31 0 49.5 16t23.5 42h80v0z" />
<glyph unicode="&#x103;" horiz-adv-x="542" d="M383 399q-12 3 -25.5 5t-30.5 2q-43 0 -74.5 -22.5t-52.5 -57.5t-31 -77t-10 -81q0 -37 9.5 -53t28.5 -16q27 0 55.5 27t53.5 67.5t44 87.5t27 86l6 32v0zM525 491l-30 -156l-24 -127l-20 -108.5l-17 -99.5h-124q7 29 18.5 67.5t28.5 90.5h-2q-15 -27 -35.5 -57 t-46.5 -55t-57.5 -41t-68.5 -16q-57 0 -87 37.5t-30 117.5q0 70 19 135.5t58.5 116t99.5 80.5t142 30q45 0 89.5 -3.5t86.5 -11.5zM508 724q-4 -30 -15.5 -58t-31 -49t-47.5 -33.5t-64 -12.5t-59.5 13t-37 34t-17 48.5t0.5 57.5h83q-4 -26 6 -42.5t36 -16.5q23 0 39 15 t21 44h86v0z" />
<glyph unicode="&#x104;" horiz-adv-x="614" d="M372 441q-4 28 -6 50t-3 44h-2q-9 -22 -20.5 -47.5t-21.5 -45.5l-104 -201h186zM413 138h-250l-72 -138h-133l357 675h150l105 -675q-51 -16 -78 -46t-27 -56q0 -25 31 -25q13 0 27 7t28 22l44 -59q-29 -32 -65.5 -49.5t-79.5 -17.5q-57 0 -81.5 26t-24.5 61 q0 38 26 75.5t63 61.5z" />
<glyph unicode="&#x105;" horiz-adv-x="542" d="M525 491l-30 -156l-24 -127l-20 -108.5l-17 -99.5q-48 -20 -72 -48t-24 -54q0 -25 31 -25q13 0 27 7t28 22l44 -59q-29 -32 -65.5 -49.5t-79.5 -17.5q-57 0 -81.5 26t-24.5 61q0 36 24 72.5t71 68.5q12 54 45 154h-2q-15 -28 -35.5 -58t-46.5 -54.5t-57.5 -40.5 t-68.5 -16q-58 0 -87.5 37.5t-29.5 117.5q0 70 19 135.5t58.5 116t99.5 80.5t142 30q45 0 89.5 -3.5t86.5 -11.5zM197 99q27 0 55.5 27t53.5 67.5t43.5 87.5t26.5 86l7 32q-12 3 -25.5 5t-30.5 2q-43 0 -74.5 -22.5t-52.5 -57.5t-31 -77t-10 -81q0 -36 10 -52.5t28 -16.5z " />
<glyph unicode="&#x106;" horiz-adv-x="549" d="M552 543q-61 22 -121 22q-67 0 -112.5 -30t-73.5 -76t-40.5 -101.5t-12.5 -105.5q0 -32 7 -58.5t23.5 -45t44.5 -28.5t69 -10q38 0 72.5 7.5t64.5 20.5l-1 -118q-38 -13 -85 -20.5t-89 -7.5q-77 0 -126 21.5t-76.5 55t-38 75.5t-10.5 84q0 86 25 167.5t75 145t124.5 102 t172.5 38.5q42 0 77.5 -5.5t65.5 -13.5zM363 716l-14 70l212 75l19 -92z" />
<glyph unicode="&#x107;" horiz-adv-x="404" d="M393 384q-33 15 -77 15q-39 0 -67.5 -19.5t-47.5 -50t-28 -67.5t-9 -72q0 -18 4 -34t14.5 -28t27 -19t42.5 -7q24 0 48 5t44 13l-8 -109q-26 -10 -57.5 -15.5t-63.5 -5.5q-50 0 -85 12t-57 34.5t-32 54.5t-10 71q0 71 20.5 134t58.5 110t92 74t122 27q27 0 51.5 -3.5 t47.5 -9.5zM280 560l-42 70l179 124l52 -87z" />
<glyph unicode="&#x10c;" horiz-adv-x="549" d="M552 543q-61 22 -121 22q-67 0 -112.5 -30t-73.5 -76t-40.5 -101.5t-12.5 -105.5q0 -32 7 -58.5t23.5 -45t44.5 -28.5t69 -10q38 0 72.5 7.5t64.5 20.5l-1 -118q-38 -13 -85 -20.5t-89 -7.5q-77 0 -126 21.5t-76.5 55t-38 75.5t-10.5 84q0 86 25 167.5t75 145t124.5 102 t172.5 38.5q42 0 77.5 -5.5t65.5 -13.5zM426 715l-152 86l35 63l126 -59l140 59l24 -62z" />
<glyph unicode="&#x10d;" horiz-adv-x="404" d="M393 384q-33 15 -77 15q-39 0 -67.5 -19.5t-47.5 -50t-28 -67.5t-9 -72q0 -18 4 -34t14.5 -28t27 -19t42.5 -7q24 0 48 5t44 13l-8 -109q-26 -10 -57.5 -15.5t-63.5 -5.5q-50 0 -85 12t-57 34.5t-32 54.5t-10 71q0 71 20.5 134t58.5 110t92 74t122 27q27 0 51.5 -3.5 t47.5 -9.5zM309 560l-126 134l55 60l87 -82l116 82l42 -59z" />
<glyph unicode="&#x10e;" horiz-adv-x="654" d="M512 422q0 33 -8 60.5t-27.5 47t-51.5 30t-80 10.5q-53 0 -84 -3l-86 -455q13 -2 30 -3.5t31 -1.5q76 0 129 31t85.5 78t47 102t14.5 104zM651 435q0 -85 -27 -164t-81 -140t-135.5 -98t-190.5 -37q-59 0 -104 1.5t-87 3.5l128 673q19 1 44 1.5t53 1.5t57 1.5t57 0.5 q144 0 215 -62.5t71 -181.5zM382 715l-152 86l35 63l126 -59l140 59l24 -62z" />
<glyph unicode="&#x10f;" horiz-adv-x="594" d="M383 399q-12 3 -25.5 5t-30.5 2q-43 0 -74.5 -22.5t-52.5 -57.5t-31 -77t-10 -81q0 -37 9.5 -53t28.5 -16q27 0 55.5 27t53.5 67.5t44 87.5t27 86l6 32v0zM466 179q-3 -13 -7.5 -37.5l-9 -51.5l-9 -52t-6.5 -38h-123q5 29 17 67.5l29 90.5h-2q-15 -27 -35.5 -57 t-46.5 -55t-57.5 -41t-68.5 -16q-57 0 -87 37.5t-30 117.5q0 70 19 135.5t58.5 116t99.5 80.5t142 30q13 0 25 -1t28 -3l43 228h126zM751 754l-88 -201l-80 18l71 205z" />
<glyph unicode="&#x110;" horiz-adv-x="659" d="M520 422q0 33 -8 60.5t-27.5 47t-51.5 30t-80 10.5q-52 0 -83 -3l-34 -175h120l-19 -98h-120l-34 -182q14 -2 31 -3.5t31 -1.5q76 0 129 31t85 78t46.5 102t14.5 104zM659 435q0 -85 -28 -164t-81.5 -140t-134.5 -98t-190 -37q-63 0 -105.5 1.5t-85.5 3.5l56 293h-74 l19 98h74l53 282q55 2 128 4q29 1 83 1q141 0 212 -59.5t74 -184.5z" />
<glyph unicode="&#x111;" horiz-adv-x="542" d="M383 399q-12 3 -25.5 5t-30.5 2q-43 0 -74.5 -22.5t-52.5 -57.5t-31 -77t-10 -81q0 -36 10 -52.5t28 -16.5q27 0 55.5 27t53.5 67.5t43.5 87.5t26.5 86l7 32v0zM600 582h-58l-76 -403l-16 -88.5l-16 -90.5h-123q5 29 17 67.5l29 90.5h-2q-15 -28 -35.5 -58t-46.5 -54.5 t-57.5 -40.5t-68.5 -16q-58 0 -87.5 37.5t-29.5 117.5q0 70 19 135.5t58.5 116t99.5 80.5t142 30q13 0 25 -1t28 -3l15 80h-120l17 81h118l13 67h126l-13 -67h59z" />
<glyph unicode="&#x112;" horiz-adv-x="482" d="M493 566h-232l-32 -166h221l-21 -106h-220l-34 -183h231l-21 -111h-231h-128l128 675h128h231zM486 741h-290l15 81h291z" />
<glyph unicode="&#x113;" horiz-adv-x="485" d="M350 369q0 21 -13.5 32.5t-37.5 11.5t-44 -10.5t-35.5 -27.5t-26.5 -40t-18 -47q87 3 131 22t44 59zM474 386q0 -45 -21.5 -78t-62 -55.5t-98.5 -35t-131 -14.5q-1 -8 -2 -19.5t-1 -19.5q0 -43 19.5 -58.5t71.5 -15.5q36 0 72.5 8t71.5 22l2 -98q-43 -16 -90 -24t-97 -8 q-95 0 -135.5 42.5t-40.5 125.5q0 78 22 142.5t60.5 110t89.5 71t109 25.5q46 0 77 -10.5t49.5 -27.5t26.5 -39t8 -44zM457 600h-264l17 92h264z" />
<glyph unicode="&#x116;" horiz-adv-x="482" d="M493 566h-232l-32 -166h221l-21 -106h-220l-34 -183h231l-21 -111h-231h-128l128 675h128h231zM417 791q0 -32 -22.5 -53t-51.5 -21t-47.5 19.5t-18.5 44.5q0 32 22.5 53t51.5 21t47.5 -19.5t18.5 -44.5z" />
<glyph unicode="&#x117;" horiz-adv-x="485" d="M350 369q0 21 -13.5 32.5t-37.5 11.5t-44 -10.5t-35.5 -27.5t-26.5 -40t-18 -47q87 3 131 22t44 59zM474 386q0 -45 -21.5 -78t-62 -55.5t-98.5 -35t-131 -14.5q-1 -8 -2 -19.5t-1 -19.5q0 -43 19.5 -58.5t71.5 -15.5q36 0 72.5 8t71.5 22l2 -98q-43 -16 -90 -24t-97 -8 q-95 0 -135.5 42.5t-40.5 125.5q0 78 22 142.5t60.5 110t89.5 71t109 25.5q46 0 77 -10.5t49.5 -27.5t26.5 -39t8 -44zM416 655q0 -37 -25 -60.5t-58 -23.5q-34 0 -54.5 22t-20.5 51q0 18 7 33t18.5 26t26.5 17t32 6q33 0 53.5 -21.5t20.5 -49.5z" />
<glyph unicode="&#x118;" horiz-adv-x="482" d="M412 -157q-29 -32 -65.5 -49.5t-80.5 -17.5q-56 0 -80.5 26t-24.5 61q0 37 25 74t65 63h-225l128 675h359l-20 -109h-232l-32 -166h221l-20 -106h-221l-34 -182h231l-20 -110q-51 -19 -77.5 -48.5t-26.5 -55.5q0 -25 30 -25q14 0 28 7t27 22l45 -59v0z" />
<glyph unicode="&#x119;" horiz-adv-x="485" d="M350 369q0 21 -13.5 32.5t-37.5 11.5t-44 -10.5t-35.5 -27.5t-26.5 -40t-18 -47q87 3 131 22t44 59zM474 386q0 -45 -22 -77.5t-63 -54t-99.5 -34.5t-128.5 -17q-1 -8 -2 -18t-1 -21q0 -41 18 -57t73 -16q36 0 72.5 7.5t71.5 21.5l2 -97q-27 -9 -52 -23.5t-44 -31 t-30.5 -35t-11.5 -35.5q2 -25 31 -25q15 0 28 7t27 22l44 -59q-29 -32 -65 -49.5t-80 -17.5q-55 0 -80.5 25t-25.5 62q0 31 20 65.5t58 63.5q-13 -1 -14.5 -1h-3.5q-89 1 -126.5 44.5t-37.5 122.5q0 78 22 142.5t60.5 110t89.5 71t109 25.5q46 0 77 -10.5t49.5 -27.5 t26.5 -39t8 -44z" />
<glyph unicode="&#x11a;" horiz-adv-x="482" d="M493 566h-232l-32 -166h221l-21 -106h-220l-34 -183h231l-21 -111h-231h-128l128 675h128h231zM341 715l-152 86l35 63l126 -59l140 59l24 -62z" />
<glyph unicode="&#x11b;" horiz-adv-x="485" d="M350 369q0 21 -13.5 32.5t-37.5 11.5t-44 -10.5t-35.5 -27.5t-26.5 -40t-18 -47q87 3 131 22t44 59zM474 386q0 -45 -21.5 -78t-62 -55.5t-98.5 -35t-131 -14.5q-1 -8 -2 -19.5t-1 -19.5q0 -43 19.5 -58.5t71.5 -15.5q36 0 72.5 8t71.5 22l2 -98q-43 -16 -90 -24t-97 -8 q-95 0 -135.5 42.5t-40.5 125.5q0 78 22 142.5t60.5 110t89.5 71t109 25.5q46 0 77 -10.5t49.5 -27.5t26.5 -39t8 -44zM322 560l-126 134l55 60l87 -82l116 82l42 -59z" />
<glyph unicode="&#x11e;" horiz-adv-x="661" d="M633 535q-39 17 -83 25.5t-84 8.5q-66 0 -118 -25t-88 -67t-55 -97t-19 -116q0 -31 9 -59.5t28.5 -50t51 -34.5t77.5 -13q26 0 50 3.5t46 9.5l45 234h127l-62 -324q-53 -20 -113 -30t-116 -10q-72 0 -125 19t-87.5 53t-51.5 81.5t-17 104.5q0 94 32 174t89.5 138.5 t136.5 91.5t172 33q51 0 99.5 -6.5t93.5 -20.5zM635 859q-5 -27 -17.5 -51.5t-32.5 -43.5t-49 -30t-66 -11q-35 0 -59.5 11t-38.5 30t-18.5 43.5t0.5 51.5h74q-5 -24 9.5 -41t44.5 -17q31 0 49.5 16t23.5 42h80v0z" />
<glyph unicode="&#x11f;" horiz-adv-x="533" d="M383 399q-12 3 -25.5 5t-30.5 2q-43 0 -74.5 -22.5t-52.5 -57.5t-31 -77t-10 -81q0 -37 9.5 -53t28.5 -16q27 0 55.5 27t53.5 67.5t44 87.5t27 86l6 32v0zM425 -31q-10 -51 -32 -92t-58.5 -69t-90 -43t-126.5 -15q-42 0 -78.5 5.5t-65.5 15.5l29 117q30 -14 66 -21.5 t71 -7.5q71 0 111.5 29t53.5 96q4 21 8.5 39.5t10.5 38l13.5 42t18.5 51.5l-2 1q-15 -27 -35 -56t-46 -54t-57.5 -41t-68.5 -16q-57 0 -87 37.5t-30 117.5q0 70 19 135.5t58.5 116t99.5 80.5t142 30q45 0 89.5 -3.5t86.5 -11.5zM502 724q-4 -30 -15.5 -58t-31 -49 t-47.5 -33.5t-64 -12.5t-59.5 13t-37 34t-17 48.5t0.5 57.5h83q-4 -26 6 -42.5t36 -16.5q23 0 39 15t21 44h86v0z" />
<glyph unicode="&#x122;" horiz-adv-x="661" d="M633 535q-39 17 -83 25.5t-84 8.5q-66 0 -118 -25t-88 -67t-55 -97t-19 -116q0 -31 9 -59.5t28.5 -50t51 -34.5t77.5 -13q26 0 50 3.5t46 9.5l45 234h127l-62 -324q-53 -20 -113 -30t-116 -10q-72 0 -125 19t-87.5 53t-51.5 81.5t-17 104.5q0 94 32 174t89.5 138.5 t136.5 91.5t172 33q51 0 99.5 -6.5t93.5 -20.5zM319 -47q32 0 48 -25.5t7.5 -58.5t-45 -65t-109.5 -45l-15 49q42 16 53 36t5 40q-6 27 9 48t47 21z" />
<glyph unicode="&#x123;" horiz-adv-x="539" d="M383 399q-12 3 -25.5 5t-30.5 2q-43 0 -74.5 -22.5t-52.5 -57.5t-31 -77t-10 -81q0 -37 9.5 -53t28.5 -16q27 0 55.5 27t53.5 67.5t44 87.5t27 86l6 32v0zM425 -31q-10 -51 -32 -92t-58.5 -69t-90 -43t-126.5 -15q-42 0 -78.5 5.5t-65.5 15.5l29 117q30 -14 66 -21.5 t71 -7.5q71 0 111.5 29t53.5 96q4 21 8.5 39.5t10.5 38l13.5 42t18.5 51.5l-2 1q-15 -27 -35 -56t-46 -54t-57.5 -41t-68.5 -16q-57 0 -87 37.5t-30 117.5q0 70 19 135.5t58.5 116t99.5 80.5t142 30q45 0 89.5 -3.5t86.5 -11.5zM454 706q-43 -15 -53.5 -35.5t-5.5 -40.5 q6 -27 -9 -48t-46 -21q-21 0 -36 12t-20 30.5t0 41.5t23 44.5t50 39t81 26.5l16 -49v0z" />
<glyph unicode="&#x12a;" horiz-adv-x="265" d="M154 0h-128l128 675h128zM370 741h-290l15 81h291z" />
<glyph unicode="&#x12b;" horiz-adv-x="261" d="M150 0h-125l95 497h125zM77 600l18 92h250l-18 -92h-250z" />
<glyph unicode="&#x12e;" horiz-adv-x="265" d="M154 0q-22 -8 -40 -20t-31 -26t-20 -28.5t-7 -27.5q0 -25 30 -25q14 0 28 7t27 22l45 -59q-29 -32 -65.5 -49.5t-80.5 -17.5q-56 0 -80.5 26t-24.5 61q0 21 8 41t20.5 38t29 33t33.5 26l128 674h128z" />
<glyph unicode="&#x12f;" horiz-adv-x="261" d="M54 -102q0 -25 30 -25q14 0 28 7t27 22l45 -59q-29 -32 -65.5 -49.5t-80.5 -17.5q-56 0 -80.5 26t-24.5 61t23.5 71t69.5 68l94 495h125l-95 -497q-20 -8 -37.5 -20t-30.5 -25.5t-20.5 -28.5t-7.5 -28zM291 654q0 -36 -25.5 -59.5t-58.5 -23.5t-54 22t-21 51q0 18 7 33 t18.5 26t26.5 17t32 6q33 0 54 -21.5t21 -50.5z" />
<glyph unicode="&#x130;" horiz-adv-x="265" d="M154 0h-128l128 675h128zM306 791q0 -32 -22.5 -53t-51.5 -21t-47.5 19.5t-18.5 44.5q0 32 22.5 53t51.5 21t47.5 -19.5t18.5 -44.5z" />
<glyph unicode="&#x131;" horiz-adv-x="262" d="M150 0h-125l95 497h125z" />
<glyph unicode="&#x136;" horiz-adv-x="573" d="M344 339l169 -339h-159l-139 324l-62 -324h-127l128 675h128l-58 -306l252 306h164zM243 -47q32 0 48 -25.5t7.5 -58.5t-45 -65t-109.5 -45l-15 49q42 16 53 36t5 40q-6 27 9 48t47 21z" />
<glyph unicode="&#x137;" horiz-adv-x="503" d="M322 270l132 -270h-151l-104 252l-49 -252h-125l139 730h125l-82 -433l215 229l98 -65zM221 -47q32 0 48 -25.5t7.5 -58.5t-45 -65t-109.5 -45l-15 49q42 16 53 36t5 40q-6 27 9 48t47 21z" />
<glyph unicode="&#x139;" horiz-adv-x="420" d="M368 0h-342l128 675h128l-107 -561h215zM210 716l-14 70l212 75l19 -92z" />
<glyph unicode="&#x13a;" horiz-adv-x="261" d="M150 0h-125l139 730h125zM200 771l-14 70l212 75l19 -92z" />
<glyph unicode="&#x13b;" horiz-adv-x="420" d="M368 0h-342l128 675h128l-107 -561h215zM187 -47q32 0 48 -25.5t7.5 -58.5t-45 -65t-109.5 -45l-15 49q42 16 53 36t5 40q-6 27 9 48t47 21z" />
<glyph unicode="&#x13c;" horiz-adv-x="261" d="M150 0h-125l139 730h125zM76 -47q32 0 48 -25.5t7.5 -58.5t-45 -65t-109.5 -45l-15 49q42 16 53 36t5 40q-6 27 9 48t47 21z" />
<glyph unicode="&#x13d;" horiz-adv-x="426" d="M368 0h-342l128 675h128l-107 -561h215zM532 763l-133 -175l-69 40l116 183z" />
<glyph unicode="&#x13e;" horiz-adv-x="313" d="M150 0h-125l139 730h125zM469 754l-88 -201l-80 18l71 205z" />
<glyph unicode="&#x141;" horiz-adv-x="428" d="M374 0h-214h-128l58 308l-60 -22l-19 99l102 39l47 251h127l-37 -196l98 37l19 -99l-139 -53l-47 -250h215z" />
<glyph unicode="&#x142;" horiz-adv-x="294" d="M242 393l-74 -393h-124l60 326l-55 -29l-6 95l82 42l57 296h124l-43 -229l59 31l7 -95z" />
<glyph unicode="&#x143;" horiz-adv-x="670" d="M558 0h-150l-126 337l-25 75.5t-20 71.5q-6 -48 -13.5 -95t-17.5 -98l-55 -291h-125l128 675h151l123 -319q15 -40 27 -81l23 -79q6 47 14.5 99.5t17.5 100.5l52 279h125zM376 716l-14 70l212 75l19 -92z" />
<glyph unicode="&#x144;" horiz-adv-x="559" d="M449 0h-126l60 312q9 46 1.5 66t-31.5 20q-25 0 -53 -26t-53.5 -66.5t-45 -88.5t-27.5 -91l-24 -126h-125l50 260q3 17 9.5 50l13 69l12 68.5l8.5 49.5h123q-5 -23 -15 -59t-30 -95l2 -1q17 33 38.5 63.5t47.5 53t56.5 36t66.5 13.5t59.5 -12t36.5 -34t15.5 -52.5 t-4.5 -66.5zM289 560l-42 70l179 124l52 -87z" />
<glyph unicode="&#x145;" horiz-adv-x="670" d="M558 0h-150l-126 337l-25 75.5t-20 71.5q-6 -48 -13.5 -95t-17.5 -98l-55 -291h-125l128 675h151l123 -319q15 -40 27 -81l23 -79q6 47 14.5 99.5t17.5 100.5l52 279h125zM291 -47q32 0 48 -25.5t7.5 -58.5t-45 -65t-109.5 -45l-15 49q42 16 53 36t5 40q-6 27 9 48t47 21 z" />
<glyph unicode="&#x146;" horiz-adv-x="559" d="M449 0h-126l60 312q9 46 1.5 66t-31.5 20q-25 0 -53 -26t-53.5 -66.5t-45 -88.5t-27.5 -91l-24 -126h-125l50 260q3 17 9.5 50l13 69l12 68.5l8.5 49.5h123q-5 -23 -15 -59t-30 -95l2 -1q17 33 38.5 63.5t47.5 53t56.5 36t66.5 13.5t59.5 -12t36.5 -34t15.5 -52.5 t-4.5 -66.5zM229 -47q32 0 48 -25.5t7.5 -58.5t-45 -65t-109.5 -45l-15 49q42 16 53 36t5 40q-6 27 9 48t47 21z" />
<glyph unicode="&#x147;" horiz-adv-x="670" d="M558 0h-150l-126 337l-25 75.5t-20 71.5q-6 -48 -13.5 -95t-17.5 -98l-55 -291h-125l128 675h151l123 -319q15 -40 27 -81l23 -79q6 47 14.5 99.5t17.5 100.5l52 279h125zM430 715l-152 86l35 63l126 -59l140 59l24 -62z" />
<glyph unicode="&#x148;" horiz-adv-x="559" d="M449 0h-126l60 312q9 46 1.5 66t-31.5 20q-25 0 -53 -26t-53.5 -66.5t-45 -88.5t-27.5 -91l-24 -126h-125l50 260q3 17 9.5 50l13 69l12 68.5l8.5 49.5h123q-5 -23 -15 -59t-30 -95l2 -1q17 33 38.5 63.5t47.5 53t56.5 36t66.5 13.5t59.5 -12t36.5 -34t15.5 -52.5 t-4.5 -66.5zM330 560l-126 134l55 60l87 -82l116 82l42 -59z" />
<glyph unicode="&#x14c;" horiz-adv-x="689" d="M551 424q0 66 -32 105.5t-101 39.5q-54 0 -98 -26t-74.5 -69.5t-47.5 -100t-17 -116.5q0 -72 33.5 -111t97.5 -39q51 0 95 25.5t76 68.5t50 100.5t18 122.5zM688 439q0 -98 -31 -180.5t-85 -142.5t-125.5 -93.5t-152.5 -33.5q-128 0 -189 65.5t-61 180.5q0 91 30 173 t83.5 144t125.5 98t156 36q123 0 186 -64.5t63 -182.5zM590 741h-290l15 81h291z" />
<glyph unicode="&#x14d;" horiz-adv-x="545" d="M393 310q0 43 -19 65.5t-63 22.5q-35 0 -62.5 -19t-47 -49t-29.5 -67.5t-10 -74.5q0 -41 18 -64.5t62 -23.5q33 0 61 17t48 46t31 67t11 80zM525 326q0 -77 -25 -139t-66.5 -106t-96 -67.5t-112.5 -23.5q-104 0 -149 47t-45 131q0 78 24.5 140.5t65.5 107t95 68t114 23.5 q53 0 90 -13.5t60.5 -37.5t34 -57.5t10.5 -72.5zM483 600h-264l17 92h264z" />
<glyph unicode="&#x150;" horiz-adv-x="689" d="M551 424q0 66 -32 105.5t-101 39.5q-54 0 -98 -26t-74.5 -69.5t-47.5 -100t-17 -116.5q0 -72 33.5 -111t97.5 -39q51 0 95 25.5t76 68.5t50 100.5t18 122.5zM688 439q0 -98 -31 -180.5t-85 -142.5t-125.5 -93.5t-152.5 -33.5q-128 0 -189 65.5t-61 180.5q0 91 30 173 t83.5 144t125.5 98t156 36q123 0 186 -64.5t63 -182.5zM350 716l-35 59l166 113l46 -71zM561 715l-31 60l175 101l38 -76z" />
<glyph unicode="&#x151;" horiz-adv-x="545" d="M393 310q0 43 -19 65.5t-63 22.5q-35 0 -62.5 -19t-47 -49t-29.5 -67.5t-10 -74.5q0 -41 18 -64.5t62 -23.5q33 0 61 17t48 46t31 67t11 80zM525 326q0 -77 -25 -139t-66.5 -106t-96 -67.5t-112.5 -23.5q-104 0 -149 47t-45 131q0 78 24.5 140.5t65.5 107t95 68t114 23.5 q53 0 90 -13.5t60.5 -37.5t34 -57.5t10.5 -72.5zM273 560l-56 51l146 155l66 -62zM461 560l-54 51l158 147l62 -67z" />
<glyph unicode="&#x152;" horiz-adv-x="843" d="M491 556q-37 13 -73 13q-54 0 -98 -26t-74.5 -69.5t-47.5 -100t-17 -116.5q0 -72 32.5 -111t98.5 -39q52 0 98 16l81 433v0zM853 566h-232l-31 -166h220l-20 -106h-220l-35 -183h232l-22 -111h-347q-53 -11 -104 -11q-128 0 -189 65.5t-61 180.5q0 91 30 173t83.5 144 t125.5 98t156 36q29 0 53.5 -3t47.5 -8h334z" />
<glyph unicode="&#x153;" horiz-adv-x="828" d="M393 310q0 43 -19 65.5t-63 22.5q-35 0 -62.5 -19t-47 -49t-29.5 -67.5t-10 -74.5q0 -41 18 -64.5t62 -23.5q33 0 61 17t48 46t31 67t11 80zM694 369q0 21 -13.5 32.5t-37.5 11.5t-44 -10.5t-35.5 -27.5t-26.5 -40t-18 -47q87 3 131 22t44 59zM818 386q0 -45 -21.5 -78 t-62 -55.5t-98.5 -35t-131 -14.5q-1 -8 -2 -19.5t-1 -19.5q0 -43 19.5 -58.5t71.5 -15.5q36 0 73 8t71 22l2 -98q-42 -16 -89.5 -24t-97.5 -8q-60 0 -96 18t-50 58q-35 -36 -82 -56t-98 -20q-104 0 -149.5 47t-45.5 131q0 78 24.5 140.5t65.5 107t95 68t114 23.5 q59 0 98 -19.5t59 -55.5q32 35 73 55t97 20q46 0 77 -10.5t50 -27.5t26.5 -39t7.5 -44z" />
<glyph unicode="&#x154;" horiz-adv-x="555" d="M417 501q0 35 -23 53.5t-74 18.5q-18 0 -33 -0.5t-25 -2.5l-37 -195q7 -1 18.5 -1.5t25.5 -0.5q32 0 59.5 9.5t47 26t30.5 40t11 52.5zM553 525q0 -45 -15.5 -82.5t-43 -67t-65 -49.5t-82.5 -30l18 -36.5l18 -37.5l110 -222h-150l-126 279h-10l-53 -279h-128l128 675 q40 2 86.5 3t100.5 1q111 0 161.5 -40t50.5 -114zM272 716l-14 70l212 75l19 -92z" />
<glyph unicode="&#x155;" horiz-adv-x="351" d="M364 384q-27 9 -56.5 -9.5t-56 -57t-47.5 -92.5t-33 -117l-21 -108h-125l50 260q3 17 9.5 50l13 69l12 68.5l8.5 49.5h121q-5 -29 -15 -64t-28 -86h2q20 39 40.5 71t43.5 53.5t50 31t59 4.5zM228 560l-42 70l179 124l52 -87z" />
<glyph unicode="&#x156;" horiz-adv-x="555" d="M417 501q0 35 -23 53.5t-74 18.5q-18 0 -33 -0.5t-25 -2.5l-37 -195q7 -1 18.5 -1.5t25.5 -0.5q32 0 59.5 9.5t47 26t30.5 40t11 52.5zM553 525q0 -45 -15.5 -82.5t-43 -67t-65 -49.5t-82.5 -30l18 -36.5l18 -37.5l110 -222h-150l-126 279h-10l-53 -279h-128l128 675 q40 2 86.5 3t100.5 1q111 0 161.5 -40t50.5 -114zM234 -47q32 0 48 -25.5t7.5 -58.5t-45 -65t-109.5 -45l-15 49q42 16 53 36t5 40q-6 27 9 48t47 21z" />
<glyph unicode="&#x157;" horiz-adv-x="351" d="M364 384q-27 9 -56.5 -9.5t-56 -57t-47.5 -92.5t-33 -117l-21 -108h-125l50 260q3 17 9.5 50l13 69l12 68.5l8.5 49.5h121q-5 -29 -15 -64t-28 -86h2q20 39 40.5 71t43.5 53.5t50 31t59 4.5zM79 -47q32 0 48 -25.5t7.5 -58.5t-45 -65t-109.5 -45l-15 49q42 16 53 36t5 40 q-6 27 9 48t47 21z" />
<glyph unicode="&#x158;" horiz-adv-x="555" d="M417 501q0 35 -23 53.5t-74 18.5q-18 0 -33 -0.5t-25 -2.5l-37 -195q7 -1 18.5 -1.5t25.5 -0.5q32 0 59.5 9.5t47 26t30.5 40t11 52.5zM553 525q0 -45 -15.5 -82.5t-43 -67t-65 -49.5t-82.5 -30l18 -36.5l18 -37.5l110 -222h-150l-126 279h-10l-53 -279h-128l128 675 q40 2 86.5 3t100.5 1q111 0 161.5 -40t50.5 -114zM344 715l-152 86l35 63l126 -59l140 59l24 -62z" />
<glyph unicode="&#x159;" horiz-adv-x="351" d="M364 384q-27 9 -56.5 -9.5t-56 -57t-47.5 -92.5t-33 -117l-21 -108h-125l50 260q3 17 9.5 50l13 69l12 68.5l8.5 49.5h121q-5 -29 -15 -64t-28 -86h2q20 39 40.5 71t43.5 53.5t50 31t59 4.5zM259 560l-126 134l55 60l87 -82l116 82l42 -59z" />
<glyph unicode="&#x15a;" horiz-adv-x="460" d="M441 562q-24 8 -49 12t-46 4q-32 0 -55 -7.5t-38 -19.5t-22 -28t-7 -33q0 -25 14.5 -44t36.5 -35t46.5 -32t47 -37.5t36.5 -50t14 -68.5q0 -49 -20.5 -91.5t-58 -74t-89 -50t-113.5 -18.5q-32 0 -64 3.5t-58 11.5l23 123q24 -11 52.5 -17.5t55.5 -6.5q65 0 98.5 26 t33.5 72q0 22 -13.5 40.5t-35.5 33.5l-48 32t-47.5 37.5t-35 49.5t-13.5 66q0 46 17 87t50 72t83 49t116 18q29 0 55.5 -2t55.5 -7zM260 716l-14 70l212 75l19 -92z" />
<glyph unicode="&#x15b;" horiz-adv-x="377" d="M338 402q-17 5 -33.5 7.5t-33.5 2.5q-39 0 -58 -14.5t-19 -38.5q0 -23 20 -41.5l44.5 -40t44.5 -49.5t20 -69q0 -31 -13.5 -61.5t-41.5 -54.5t-71 -38.5t-101 -14.5q-50 0 -87 9l23 107q17 -7 37 -11t39 -4q38 0 60.5 14.5t22.5 41.5q0 25 -20 43l-44 38t-44 47t-20 71 q0 34 13.5 63.5t40 51t66.5 34t94 12.5q49 0 84 -7zM206 560l-42 70l179 124l52 -87z" />
<glyph unicode="&#x15e;" horiz-adv-x="460" d="M441 562q-24 8 -49 12t-46 4q-32 0 -55 -7.5t-38 -19.5t-22 -28t-7 -33q0 -25 14.5 -44t36.5 -35t46.5 -32t47 -37.5t36.5 -50t14 -68.5q0 -49 -20.5 -91.5t-58 -74t-89 -50t-113.5 -18.5q-32 0 -64 3.5t-58 11.5l23 123q24 -11 52.5 -17.5t55.5 -6.5q65 0 98.5 26 t33.5 72q0 22 -13.5 40.5t-35.5 33.5l-48 32t-47.5 37.5t-35 49.5t-13.5 66q0 46 17 87t50 72t83 49t116 18q29 0 55.5 -2t55.5 -7zM222 -40q29 -54 15 -102t-62 -92h-101q43 44 55 80.5t-15 81.5l108 32v0z" />
<glyph unicode="&#x15f;" horiz-adv-x="377" d="M338 402q-17 5 -33.5 7.5t-33.5 2.5q-39 0 -58 -14.5t-19 -38.5q0 -23 20 -41.5l44.5 -40t44.5 -49.5t20 -69q0 -31 -13.5 -61.5t-41.5 -54.5t-71 -38.5t-101 -14.5q-50 0 -87 9l23 107q17 -7 37 -11t39 -4q38 0 60.5 14.5t22.5 41.5q0 25 -20 43l-44 38t-44 47t-20 71 q0 34 13.5 63.5t40 51t66.5 34t94 12.5q49 0 84 -7zM177 -40q29 -54 15 -102t-62 -92h-101q43 44 55 80.5t-15 81.5l108 32v0z" />
<glyph unicode="&#x160;" horiz-adv-x="460" d="M441 562q-24 8 -49 12t-46 4q-32 0 -55 -7.5t-38 -19.5t-22 -28t-7 -33q0 -25 14.5 -44t36.5 -35t46.5 -32t47 -37.5t36.5 -50t14 -68.5q0 -49 -20.5 -91.5t-58 -74t-89 -50t-113.5 -18.5q-32 0 -64 3.5t-58 11.5l23 123q24 -11 52.5 -17.5t55.5 -6.5q65 0 98.5 26 t33.5 72q0 22 -13.5 40.5t-35.5 33.5l-48 32t-47.5 37.5t-35 49.5t-13.5 66q0 46 17 87t50 72t83 49t116 18q29 0 55.5 -2t55.5 -7zM325 715l-152 86l35 63l126 -59l140 59l24 -62z" />
<glyph unicode="&#x161;" horiz-adv-x="377" d="M338 402q-17 5 -33.5 7.5t-33.5 2.5q-39 0 -58 -14.5t-19 -38.5q0 -23 20 -41.5l44.5 -40t44.5 -49.5t20 -69q0 -31 -13.5 -61.5t-41.5 -54.5t-71 -38.5t-101 -14.5q-50 0 -87 9l23 107q17 -7 37 -11t39 -4q38 0 60.5 14.5t22.5 41.5q0 25 -20 43l-44 38t-44 47t-20 71 q0 34 13.5 63.5t40 51t66.5 34t94 12.5q49 0 84 -7zM245 560l-126 134l55 60l87 -82l116 82l42 -59z" />
<glyph unicode="&#x162;" horiz-adv-x="500" d="M550 564h-171l-107 -564h-128l107 564h-171l21 111h171h128h170zM198 -47q32 0 48 -25.5t7.5 -58.5t-45 -65t-109.5 -45l-15 49q42 16 53 36t5 40q-6 27 9 48t47 21z" />
<glyph unicode="&#x21a;" horiz-adv-x="500" d="M550 564h-171l-107 -564h-128l107 564h-171l21 111h171h128h170zM198 -47q32 0 48 -25.5t7.5 -58.5t-45 -65t-109.5 -45l-15 49q42 16 53 36t5 40q-6 27 9 48t47 21z" />
<glyph unicode="&#x163;" horiz-adv-x="367" d="M365 398h-117l-42 -224q-8 -45 -0.5 -60.5t38.5 -15.5q19 0 33.5 2t28.5 5l-12 -102q-25 -6 -52 -9.5t-50 -3.5q-81 0 -106 40t-8 130l45 238h-85l20 99h84l29 153l130 26l-34 -179h118zM170 -47q32 0 48 -25.5t7.5 -58.5t-45 -65t-109.5 -45l-15 49q42 16 53 36t5 40 q-6 27 9 48t47 21z" />
<glyph unicode="&#x21b;" horiz-adv-x="367" d="M365 398h-117l-42 -224q-8 -45 -0.5 -60.5t38.5 -15.5q19 0 33.5 2t28.5 5l-12 -102q-25 -6 -52 -9.5t-50 -3.5q-81 0 -106 40t-8 130l45 238h-85l20 99h84l29 153l130 26l-34 -179h118zM170 -47q32 0 48 -25.5t7.5 -58.5t-45 -65t-109.5 -45l-15 49q42 16 53 36t5 40 q-6 27 9 48t47 21z" />
<glyph unicode="&#x164;" horiz-adv-x="500" d="M550 564h-171l-107 -564h-128l107 564h-171l21 111h171h128h170zM338 715l-152 86l35 63l126 -59l140 59l24 -62z" />
<glyph unicode="&#x165;" horiz-adv-x="372" d="M365 398h-117l-42 -224q-8 -45 -0.5 -60.5t38.5 -15.5q19 0 33.5 2t28.5 5l-12 -102q-25 -6 -52 -9.5t-50 -3.5q-81 0 -106 40t-8 130l45 238h-85l20 99h84l29 153l130 26l-34 -179h118zM496 754l-88 -201l-80 18l71 205z" />
<glyph unicode="&#x16a;" horiz-adv-x="667" d="M602 248q-26 -134 -107 -196.5t-209 -62.5q-76 0 -123 20t-70.5 55t-27 82t6.5 101l81 428h128l-84 -438q-13 -69 10.5 -104.5t96.5 -35.5q75 0 116 37.5t58 124.5l80 416h126zM570 741h-290l15 81h291z" />
<glyph unicode="&#x16b;" horiz-adv-x="558" d="M493 237q-3 -17 -9.5 -50l-13 -69l-12 -68.5l-8.5 -49.5h-122q4 23 14 59t30 95l-2 1q-17 -33 -38.5 -63.5t-47.5 -53t-56.5 -36t-66.5 -13.5t-60 12t-36.5 34t-15 52.5t4.5 66.5l66 343h125l-60 -312q-8 -46 -1 -66t31 -20q25 0 53 26t53.5 66.5t45 88t27.5 91.5l24 126 h125zM479 600h-264l17 92h264z" />
<glyph unicode="&#x16e;" horiz-adv-x="667" d="M602 248q-26 -134 -107 -196.5t-209 -62.5q-76 0 -123 20t-70.5 55t-27 82t6.5 101l81 428h128l-84 -438q-13 -69 10.5 -104.5t96.5 -35.5q75 0 116 37.5t58 124.5l80 416h126zM471 782q0 19 -12.5 33t-32.5 14q-21 0 -36 -15.5t-15 -36.5q0 -20 13 -33.5t33 -13.5 q21 0 35.5 15t14.5 37zM539 785q0 -26 -10 -47.5t-26.5 -37t-38.5 -24.5t-46 -9t-44 8t-34.5 22.5t-23 33.5t-8.5 42q0 26 10 48t26.5 37.5t38.5 24t46 8.5t44 -8t34.5 -22.5t23 -34t8.5 -41.5z" />
<glyph unicode="&#x16f;" horiz-adv-x="558" d="M493 237q-3 -17 -9.5 -50l-13 -69l-12 -68.5l-8.5 -49.5h-122q4 23 14 59t30 95l-2 1q-17 -33 -38.5 -63.5t-47.5 -53t-56.5 -36t-66.5 -13.5t-60 12t-36.5 34t-15 52.5t4.5 66.5l66 343h125l-60 -312q-8 -46 -1 -66t31 -20q25 0 53 26t53.5 66.5t45 88t27.5 91.5l24 126 h125zM404 668q0 20 -13.5 35t-36.5 15t-39 -16.5t-16 -39.5q0 -21 14 -36t36 -15q23 0 39 16.5t16 40.5zM478 671q0 -28 -11 -51.5t-29 -40.5t-42 -26.5t-50 -9.5t-48 8.5t-38.5 24t-25.5 36.5t-9 46q0 29 11 52.5t29 40.5t42 26t50 9t48 -9t38.5 -24.5t25.5 -36.5t9 -45z " />
<glyph unicode="&#x170;" horiz-adv-x="667" d="M602 248q-26 -134 -107 -196.5t-209 -62.5q-76 0 -123 20t-70.5 55t-27 82t6.5 101l81 428h128l-84 -438q-13 -69 10.5 -104.5t96.5 -35.5q75 0 116 37.5t58 124.5l80 416h126zM314 716l-35 59l166 113l46 -71zM525 715l-31 60l175 101l38 -76z" />
<glyph unicode="&#x171;" horiz-adv-x="558" d="M493 237q-3 -17 -9.5 -50l-13 -69l-12 -68.5l-8.5 -49.5h-122q4 23 14 59t30 95l-2 1q-17 -33 -38.5 -63.5t-47.5 -53t-56.5 -36t-66.5 -13.5t-60 12t-36.5 34t-15 52.5t4.5 66.5l66 343h125l-60 -312q-8 -46 -1 -66t31 -20q25 0 53 26t53.5 66.5t45 88t27.5 91.5l24 126 h125zM258 560l-56 51l146 155l66 -62zM446 560l-54 51l158 147l62 -67z" />
<glyph unicode="&#x172;" horiz-adv-x="667" d="M602 248q-18 -94 -63 -151.5t-112 -82.5l-35 -16t-34 -21q-20 -16 -35 -37t-15 -42q0 -25 30 -25q13 0 27.5 7t27.5 22l44 -59q-29 -32 -65 -49.5t-80 -17.5q-57 0 -81.5 26t-24.5 61q0 33 21.5 68t57.5 61h-12q-63 3 -103 23.5t-61 54t-24 79t7 98.5l81 428h128 l-84 -438q-14 -69 10.5 -104.5t96.5 -35.5q75 0 116.5 37.5t57.5 124.5l80 416h126z" />
<glyph unicode="&#x173;" horiz-adv-x="558" d="M355 -102q0 -25 30 -25q13 0 27.5 7t27.5 22l44 -59q-29 -32 -65 -49.5t-80 -17.5q-57 0 -81.5 26t-24.5 61q0 36 24.5 72.5t71.5 68.5q4 23 13.5 58t29.5 92h-2q-17 -33 -38.5 -63t-47.5 -52.5t-56.5 -36t-66.5 -13.5t-60 12t-36.5 34t-15 52.5t4.5 66.5l66 343h125 l-60 -312q-8 -46 -1 -66t31 -20q25 0 53 26t53.5 66.5t45 88t27.5 91.5l24 126h125l-50 -260q-17 -87 -27 -145t-15 -92q-48 -20 -72 -48t-24 -54z" />
<glyph unicode="&#x178;" d="M339 239l-45 -239h-127l45 238l-124 437h134l51 -194q15 -61 24 -112h2q16 29 36 61l41 64l116 181h141zM333 787q0 -30 -20.5 -49t-47.5 -19t-45 18t-18 44q0 30 20 50t47 20q28 0 46 -19t18 -45zM542 787q0 -30 -20 -49t-47 -19t-45 18t-18 44q0 30 20 50t47 20t45 -19 t18 -45z" />
<glyph unicode="&#x179;" horiz-adv-x="520" d="M539 571l-318 -406l-18.5 -23.5t-20.5 -23.5q12 2 47 2h228l-23 -120h-433l19 100l303 396q13 17 26.5 32.5l28.5 31.5q-18 -1 -43.5 -1.5t-74.5 -0.5h-144l21 117h421zM290 716l-14 70l212 75l19 -92z" />
<glyph unicode="&#x17a;" horiz-adv-x="437" d="M421 406l-235 -290q16 1 47 1h137l-22 -117h-346l17 91l239 294q-14 -1 -39.5 -1.5t-60.5 -0.5h-78l22 114h337zM239 560l-42 70l179 124l52 -87z" />
<glyph unicode="&#x17b;" horiz-adv-x="520" d="M539 571l-318 -406l-18.5 -23.5t-20.5 -23.5q12 2 47 2h228l-23 -120h-433l19 100l303 396q13 17 26.5 32.5l28.5 31.5q-18 -1 -43.5 -1.5t-74.5 -0.5h-144l21 117h421zM428 791q0 -32 -22.5 -53t-51.5 -21t-47.5 19.5t-18.5 44.5q0 32 22.5 53t51.5 21t47.5 -19.5 t18.5 -44.5z" />
<glyph unicode="&#x17c;" horiz-adv-x="437" d="M421 406l-235 -290q16 1 47 1h137l-22 -117h-346l17 91l239 294q-14 -1 -39.5 -1.5t-60.5 -0.5h-78l22 114h337zM367 655q0 -37 -25 -60.5t-58 -23.5q-34 0 -54.5 22t-20.5 51q0 18 7 33t18.5 26t26.5 17t32 6q33 0 53.5 -21.5t20.5 -49.5z" />
<glyph unicode="&#x17d;" horiz-adv-x="520" d="M539 571l-318 -406l-18.5 -23.5t-20.5 -23.5q12 2 47 2h228l-23 -120h-433l19 100l303 396q13 17 26.5 32.5l28.5 31.5q-18 -1 -43.5 -1.5t-74.5 -0.5h-144l21 117h421zM357 715l-152 86l35 63l126 -59l140 59l24 -62z" />
<glyph unicode="&#x17e;" horiz-adv-x="437" d="M421 406l-235 -290q16 1 47 1h137l-22 -117h-346l17 91l239 294q-14 -1 -39.5 -1.5t-60.5 -0.5h-78l22 114h337zM280 560l-126 134l55 60l87 -82l116 82l42 -59z" />
<glyph unicode="&#x192;" horiz-adv-x="445" d="M202 97q-19 -72 -43.5 -122t-56.5 -81t-72 -45t-91 -14q-17 0 -35.5 2t-34.5 7l36 111q11 -5 26 -9t32 -4q20 0 35.5 6.5t28.5 22t24 41.5t21 65l66 247h-111l19 98h118l26 96q31 114 90 168t155 54q17 0 35.5 -1.5t35.5 -5.5l-31 -105q-26 8 -56 8q-38 0 -62 -23.5 t-41 -86.5l-27 -104h142l-19 -98h-148z" />
<glyph unicode="&#x218;" horiz-adv-x="460" d="M441 562q-24 8 -49 12t-46 4q-32 0 -55 -7.5t-38 -19.5t-22 -28t-7 -33q0 -25 14.5 -44t36.5 -35t46.5 -32t47 -37.5t36.5 -50t14 -68.5q0 -49 -20.5 -91.5t-58 -74t-89 -50t-113.5 -18.5q-32 0 -64 3.5t-58 11.5l23 123q24 -11 52.5 -17.5t55.5 -6.5q65 0 98.5 26 t33.5 72q0 22 -13.5 40.5t-35.5 33.5l-48 32t-47.5 37.5t-35 49.5t-13.5 66q0 46 17 87t50 72t83 49t116 18q29 0 55.5 -2t55.5 -7zM181 -47q32 0 48 -25.5t7.5 -58.5t-45 -65t-109.5 -45l-15 49q42 16 53 36t5 40q-6 27 9 48t47 21z" />
<glyph unicode="&#x219;" horiz-adv-x="377" d="M338 402q-17 5 -33.5 7.5t-33.5 2.5q-39 0 -58 -14.5t-19 -38.5q0 -23 20 -41.5l44.5 -40t44.5 -49.5t20 -69q0 -31 -13.5 -61.5t-41.5 -54.5t-71 -38.5t-101 -14.5q-50 0 -87 9l23 107q17 -7 37 -11t39 -4q38 0 60.5 14.5t22.5 41.5q0 25 -20 43l-44 38t-44 47t-20 71 q0 34 13.5 63.5t40 51t66.5 34t94 12.5q49 0 84 -7zM144 -47q32 0 48 -25.5t7.5 -58.5t-45 -65t-109.5 -45l-15 49q42 16 53 36t5 40q-6 27 9 48t47 21z" />
<glyph unicode="&#x2c6;" horiz-adv-x="426" d="M321 560l-86 81l-116 -81l-42 58l174 136l126 -135z" />
<glyph unicode="&#x2c7;" horiz-adv-x="448" d="M215 560l-126 134l55 60l87 -82l116 82l42 -59z" />
<glyph unicode="&#x2d8;" horiz-adv-x="374" d="M396 724q-4 -30 -15.5 -58t-31 -49t-47.5 -33.5t-64 -12.5t-59.5 13t-37 34t-17 48.5t0.5 57.5h83q-4 -26 6 -42.5t36 -16.5q23 0 39 15t21 44h86v0z" />
<glyph unicode="&#x2d9;" horiz-adv-x="299" d="M298 655q0 -37 -25 -60.5t-58 -23.5q-34 0 -54.5 22t-20.5 51q0 18 7 33t18.5 26t26.5 17t32 6q33 0 53.5 -21.5t20.5 -49.5z" />
<glyph unicode="&#x2da;" horiz-adv-x="396" d="M308 668q0 20 -13.5 35t-36.5 15t-39 -16.5t-16 -39.5q0 -21 14 -36t36 -15q23 0 39 16.5t16 40.5zM382 671q0 -28 -11 -51.5t-29 -40.5t-42 -26.5t-50 -9.5t-48 8.5t-38.5 24t-25.5 36.5t-9 46q0 29 11 52.5t29 40.5t42 26t50 9t48 -9t38.5 -24.5t25.5 -36.5t9 -45z" />
<glyph unicode="&#x2db;" horiz-adv-x="423" d="M150 0q-48 -20 -72 -48t-24 -54q0 -25 30 -25q14 0 28 7t27 22l45 -59q-29 -32 -65.5 -49.5t-80.5 -17.5q-56 0 -80.5 26t-24.5 61q0 36 24.5 73t71.5 69z" />
<glyph unicode="&#x2dc;" horiz-adv-x="460" d="M432 669q-46 -89 -125 -89q-24 0 -40 8t-28.5 17l-24 17t-25.5 8q-33 0 -58 -45l-59 47q23 44 54.5 66.5t69.5 22.5q24 0 40.5 -8t29.5 -17l24.5 -17t25.5 -8q31 0 57 45l59 -47v0z" />
<glyph unicode="&#x2dd;" horiz-adv-x="487" d="M142 560l-56 51l146 155l66 -62zM330 560l-54 51l158 147l62 -67z" />
<glyph unicode="&#x312;" horiz-adv-x="171" d="M391 706q-43 -15 -53.5 -35.5t-5.5 -40.5q6 -27 -9 -48t-46 -21q-21 0 -36 12t-20 30.5t0 41.5t23 44.5t50 39t81 26.5l16 -49v0z" />
<glyph unicode="&#x315;" horiz-adv-x="357" d="M336 754l-88 -201l-80 18l71 205z" />
<glyph unicode="&#x326;" horiz-adv-x="200" d="M152 -47q32 0 48 -25.5t7.5 -58.5t-45 -65t-109.5 -45l-15 49q42 16 53 36t5 40q-6 27 9 48t47 21z" />
<glyph unicode="&#x394;" horiz-adv-x="602" d="M368 450q-3 23 -5 47.5t-2 51.5h-2q-10 -27 -21.5 -52.5t-23.5 -49.5l-172 -330h274zM-16 0l19 98l304 577h157l88 -577l-18 -98h-550z" />
<glyph unicode="&#x2206;" horiz-adv-x="602" d="M368 450q-3 23 -5 47.5t-2 51.5h-2q-10 -27 -21.5 -52.5t-23.5 -49.5l-172 -330h274zM-16 0l19 98l304 577h157l88 -577l-18 -98h-550z" />
<glyph unicode="&#x3a9;" horiz-adv-x="699" d="M362 0l20 103q43 30 75 67t53 79t31 87.5t10 91.5q0 68 -31.5 105t-100.5 37q-56 0 -98.5 -29t-71 -73.5t-42.5 -98t-14 -101.5q0 -51 18 -89.5t60 -75.5l-19 -103h-259l21 105h125q-37 29 -58.5 71.5t-21.5 103.5q0 64 24 135.5t71.5 131.5t119 99.5t167.5 39.5 q55 0 101 -14t79 -43.5t51 -74t18 -105.5q0 -52 -11.5 -102t-33.5 -95t-54.5 -82.5t-74.5 -64.5h124l-21 -105h-257z" />
<glyph unicode="&#x2126;" horiz-adv-x="699" d="M362 0l20 103q43 30 75 67t53 79t31 87.5t10 91.5q0 68 -31.5 105t-100.5 37q-56 0 -98.5 -29t-71 -73.5t-42.5 -98t-14 -101.5q0 -51 18 -89.5t60 -75.5l-19 -103h-259l21 105h125q-37 29 -58.5 71.5t-21.5 103.5q0 64 24 135.5t71.5 131.5t119 99.5t167.5 39.5 q55 0 101 -14t79 -43.5t51 -74t18 -105.5q0 -52 -11.5 -102t-33.5 -95t-54.5 -82.5t-74.5 -64.5h124l-21 -105h-257z" />
<glyph unicode="&#x3c0;" horiz-adv-x="617" d="M516 392q-15 -79 -22 -137t-7 -93q0 -38 9 -51.5t25 -13.5q7 0 15 1t17 3l-7 -102q-14 -4 -32.5 -6t-36.5 -2q-65 0 -92.5 32t-27.5 109q0 43 9 109t24 151h-126q-17 -99 -49.5 -203.5t-85.5 -204.5l-124 32q27 49 48.5 96t39 93t30 92t21.5 95h-103l22 105h577l-21 -105 h-103z" />
<glyph unicode="&#x2000;" horiz-adv-x="490" />
<glyph unicode="&#x2001;" horiz-adv-x="980" />
<glyph unicode="&#x2002;" horiz-adv-x="490" />
<glyph unicode="&#x2003;" horiz-adv-x="980" />
<glyph unicode="&#x2004;" horiz-adv-x="326" />
<glyph unicode="&#x2005;" horiz-adv-x="245" />
<glyph unicode="&#x2006;" horiz-adv-x="163" />
<glyph unicode="&#x2007;" horiz-adv-x="163" />
<glyph unicode="&#x2008;" horiz-adv-x="122" />
<glyph unicode="&#x2009;" horiz-adv-x="196" />
<glyph unicode="&#x200a;" horiz-adv-x="54" />
<glyph unicode="&#x2011;" horiz-adv-x="330" d="M286 226h-242l20 103h242z" />
<glyph unicode="&#x2012;" horiz-adv-x="330" d="M286 226h-242l20 103h242z" />
<glyph unicode="&#x2013;" d="M553 242h-550l21 111h550z" />
<glyph unicode="&#x2014;" horiz-adv-x="1000" d="M892 242h-779l22 111h778z" />
<glyph unicode="&#x2018;" horiz-adv-x="261" d="M315 699q-61 -50 -74 -85t7 -65q11 -17 11 -38q0 -20 -9 -38t-27 -30t-42 -12q-23 0 -42 12.5t-29 34.5t-8 52.5t19.5 66.5t53 75.5t94.5 80.5l46 -54v0z" />
<glyph unicode="&#x2019;" horiz-adv-x="261" d="M215 742q23 0 42 -12.5t29 -34.5t8 -52.5t-19.5 -66t-53.5 -75t-94 -80.5l-46 53q30 25 48 46.5t25.5 39.5t5.5 34t-12 31q-11 17 -11 37q0 21 9 38.5t27 29.5t42 12z" />
<glyph unicode="&#x201a;" horiz-adv-x="261" d="M102 149q35 0 58.5 -27.5t20 -72.5t-41.5 -102.5t-125 -118.5l-46 53q30 25 48 46t25.5 39t5.5 34t-12 31q-11 17 -11 37q0 21 9 39t27 30t42 12z" />
<glyph unicode="&#x201c;" horiz-adv-x="475" d="M315 702q-30 -26 -48 -47t-25.5 -39t-5.5 -34t12 -31q11 -17 11 -38q0 -20 -9 -37.5t-27 -29.5t-42 -12q-35 0 -58.5 27.5t-20.5 72.5t41 102.5t126 118.5l46 -53v0zM536 702q-30 -26 -48 -47t-25.5 -39t-5.5 -34t12 -31q11 -17 11 -38q0 -20 -9 -37.5t-27 -29.5t-42 -12 q-35 0 -58.5 27.5t-20 72.5t41.5 102.5t125 118.5l46 -53v0z" />
<glyph unicode="&#x201d;" horiz-adv-x="475" d="M215 747q35 0 58.5 -27.5t20.5 -72.5t-41 -102.5t-126 -118.5l-46 53q30 25 48 46t25.5 39t5.5 34t-12 31q-11 18 -11 38q0 21 9 38.5t27 29.5t42 12zM436 747q35 0 58.5 -27.5t20 -72.5t-41.5 -102.5t-125 -118.5l-46 53q30 25 48 46t25.5 39t5.5 34t-12 31 q-11 18 -11 38q0 21 9 38.5t27 29.5t42 12z" />
<glyph unicode="&#x201e;" horiz-adv-x="475" d="M102 149q35 0 58.5 -27.5t20 -72.5t-41.5 -102.5t-125 -118.5l-46 53q30 25 48 46t25.5 39t5.5 34t-12 31q-11 17 -11 37q0 21 9 39t27 30t42 12zM323 149q35 0 58.5 -27.5t20.5 -72.5t-41 -102.5t-126 -118.5l-46 53q30 25 48 46t25.5 39t5.5 34t-12 31q-11 17 -11 37 q0 21 9 39t27 30t42 12z" />
<glyph unicode="&#x2020;" horiz-adv-x="448" d="M466 533h-131l3 -88l-71 -255h-98l26 255l37 88h-132l19 99h132l4 136h145l-47 -136h132z" />
<glyph unicode="&#x2021;" horiz-adv-x="448" d="M469 548h-130l3 -82l-35 -81h129l-18 -98h-130l-2 -122h-146l44 122h-131l19 98h130l-4 81l36 82h-131l19 98h130l3 122h145l-43 -122h131z" />
<glyph unicode="&#x2022;" horiz-adv-x="423" d="M372 301q0 -32 -12 -59.5t-32.5 -48t-47.5 -32.5t-58 -12q-30 0 -56.5 11.5t-46 31t-30.5 45.5t-11 56q0 31 11.5 59t32 48.5t47.5 32.5t58 12t57.5 -11.5t46 -31t30.5 -45.5t11 -56z" />
<glyph unicode="&#x2026;" horiz-adv-x="709" d="M174 70q0 -35 -23.5 -58t-55.5 -23t-53.5 22.5t-21.5 52.5q0 35 23.5 58t55.5 23t53.5 -22.5t21.5 -52.5zM402 70q0 -35 -23.5 -58t-55.5 -23t-53 22.5t-21 52.5q0 35 23.5 58t55.5 23t53 -22.5t21 -52.5zM631 70q0 -35 -23.5 -58t-55.5 -23t-53 22.5t-21 52.5 q0 35 23.5 58t55.5 23t53 -22.5t21 -52.5z" />
<glyph unicode="&#x202f;" horiz-adv-x="196" />
<glyph unicode="&#x2030;" horiz-adv-x="1035" d="M981 189q0 -45 -14.5 -81.5t-38.5 -63t-55.5 -41t-65.5 -14.5q-57 0 -88 28t-31 86q0 43 14 79.5t38 63.5t55 42t65 15q55 0 88 -27t33 -87zM386 573q0 -45 -14.5 -82t-38.5 -63.5t-55.5 -41t-65.5 -14.5q-57 0 -88 28.5t-31 86.5q0 43 14 79.5t38 63t55 41.5t65 15 q55 0 88 -26.5t33 -86.5zM90 -20l-64 62l634 652l63 -63zM659 189q0 -45 -14.5 -81.5t-38.5 -63t-55.5 -41t-65.5 -14.5q-57 0 -88 28t-31 86q0 43 14 79.5t38 63.5t55 42t66 15q54 0 87 -27t33 -87zM889 181q0 42 -37 42q-19 0 -32.5 -11.5t-22.5 -28t-13.5 -36.5t-4.5 -36 q0 -23 10 -32.5t27 -9.5q19 0 33 11t23 27.5t13 36t4 37.5zM294 564q0 42 -37 42q-19 0 -32.5 -11t-22.5 -28t-13.5 -36.5t-4.5 -36.5q0 -23 10 -32.5t27 -9.5q19 0 33 11t23 27.5t13 36.5t4 37zM567 181q0 42 -36 42q-19 0 -33 -11.5t-23 -28t-13.5 -36.5t-4.5 -36 q0 -23 10 -32.5t27 -9.5q19 0 33 11t23 27.5t13 36t4 37.5z" />
<glyph unicode="&#x2039;" horiz-adv-x="306" d="M174 293l64 -147l-103 -46l-82 199l146 188l91 -49z" />
<glyph unicode="&#x203a;" horiz-adv-x="306" d="M135 100l-91 49l116 145l-63 147l103 46l81 -199z" />
<glyph unicode="&#x2044;" horiz-adv-x="197" d="M-244 -150l-67 54l810 905l66 -55z" />
<glyph unicode="&#x2215;" horiz-adv-x="197" d="M-244 -150l-67 54l810 905l66 -55z" />
<glyph unicode="&#x205f;" horiz-adv-x="245" />
<glyph unicode="&#x20ac;" horiz-adv-x="580" d="M249 373q-5 -17 -8.5 -38t-5.5 -38h201l-14 -77h-192q-1 -61 27 -93t100 -32q32 0 70.5 11t72.5 31l24 -96q-41 -23 -90.5 -37.5t-106.5 -14.5q-118 0 -178 55t-58 176h-79l15 77h70q2 18 6 38.5t9 37.5h-71l15 77h80q43 109 125 172.5t207 63.5q48 0 89 -10.5t66 -25.5 l-44 -103q-22 14 -54.5 23.5t-70.5 9.5q-66 0 -109 -35t-68 -95h188l-14 -77h-202v0z" />
<glyph unicode="&#x2122;" horiz-adv-x="676" d="M319 598h-64l-39 -204h-89l39 204h-67l15 77h220zM673 394h-93l6 121l3 47l-17 -43l-56 -125h-82l-9 128v40l-10 -36l-42 -132h-84l96 281h107l10 -123l1 -41l13 39l58 125h107z" />
<glyph unicode="&#x2202;" horiz-adv-x="621" d="M587 458q0 -52 -10 -105t-29.5 -103t-47 -94.5t-62.5 -77.5q-40 -39 -91 -62t-108 -23q-47 0 -81.5 13.5t-57.5 37.5t-34.5 56t-11.5 69q0 59 21 110t58 89t86.5 60t106.5 22q44 0 77.5 -16.5t48.5 -44.5q0 14 3.5 36.5t1.5 53.5q-7 68 -53.5 110t-125.5 42l37 107 q65 -2 116 -23t85.5 -58.5t52.5 -88t18 -110.5zM406 257q0 35 -21.5 60t-69.5 25q-31 0 -56 -13t-43 -34t-27.5 -48t-9.5 -55q0 -42 21.5 -65.5t63.5 -23.5q33 0 59.5 14t44.5 36t28 49.5t10 54.5z" />
<glyph unicode="&#x220f;" horiz-adv-x="808" d="M804 622h-94l-166 -863h-117l166 863h-263l-166 -863h-118l166 863h-95l20 108h688z" />
<glyph unicode="&#x2211;" horiz-adv-x="635" d="M609 622h-334l197 -377l-344 -374h353l-22 -112h-352h-159l19 99l360 396l-196 376l20 100h145h334z" />
<glyph unicode="&#x2212;" d="M514 242h-472l21 111h472z" />
<glyph unicode="&#x221a;" horiz-adv-x="609" d="M324 0h-146l-57 401h-84l18 96h186l29 -258q3 -23 5 -47.5t3 -49.5h1l19 47.5l19 44.5l238 524h139z" />
<glyph unicode="&#x221e;" horiz-adv-x="979" d="M394 301q-34 29 -65.5 50t-60.5 21q-41 0 -67.5 -25.5t-26.5 -62.5q0 -24 15 -41t47 -17q29 0 69.5 22t88.5 53zM819 317q0 22 -15.5 38.5t-47.5 16.5q-30 0 -70.5 -22.5t-88.5 -53.5q34 -29 65 -49.5t61 -20.5q42 0 69 26t27 65zM942 337q0 -43 -16 -83t-46.5 -71 t-74.5 -49.5t-100 -18.5q-29 0 -57.5 8.5t-55.5 23.5t-53.5 34t-51.5 40q-32 -21 -65.5 -40t-67 -33.5t-67 -23.5t-65.5 -9q-89 0 -129.5 41.5t-40.5 104.5q0 51 19.5 92.5t52 70t73.5 44t84 15.5q31 0 60.5 -9t58 -24t55 -35l52.5 -41l67.5 41t68 35t66.5 24t63 9 q45 0 77.5 -12t53 -32t30 -46.5t9.5 -55.5z" />
<glyph unicode="&#x222b;" horiz-adv-x="338" d="M431 863q-19 7 -44 7q-15 0 -26.5 -5t-21.5 -19t-18 -39.5t-16 -65.5t-18 -100.5l-21.5 -132l-23.5 -150l-24.5 -153l-24 -141.5l-20.5 -116q-14 -72 -33.5 -122.5t-46 -83t-60 -47t-74.5 -14.5q-13 0 -27 1.5t-26 4.5l21 110q19 -6 40 -6q16 0 28 5t22 19t18.5 40 t16.5 67l17.5 98.5l22 130.5l23.5 149l24.5 153l23.5 142.5t21 117.5q14 73 35 124t49 82.5t61.5 46t73.5 14.5q11 0 24.5 -2t25.5 -5z" />
<glyph unicode="&#x2248;" d="M506 176q-29 -26 -68 -44t-76 -18q-34 0 -58 9t-44 20t-39.5 20t-45.5 9q-28 0 -53.5 -13t-47.5 -30l-42 86q26 23 63 43.5t79 20.5q34 0 57 -9t43 -20.5t41.5 -20.5t51.5 -9q24 0 49 10t49 31l41 -85v0zM543 375q-28 -27 -64.5 -45.5t-78.5 -18.5q-32 0 -54 9t-42.5 20 t-41.5 20t-49 9t-54 -12.5t-48 -29.5l-41 85q29 26 68.5 45t79.5 19q33 0 57.5 -9t45 -20.5t40 -20.5t42.5 -9q25 0 50 12t48 32l42 -86v0z" />
<glyph unicode="&#x2260;" d="M525 341h-153l-52 -88h188l-19 -103h-228l-71 -121h-117l71 121h-112l19 103h153l51 88h-187l19 103h228l72 121h116l-71 -121h112z" />
<glyph unicode="&#x2264;" d="M436 0h-409l21 107h408zM255 401l214 -173l-90 -83l-292 264l371 250l70 -89z" />
<glyph unicode="&#x2265;" d="M436 0h-409l21 107h408zM155 145l-71 88l274 169l-215 174l90 83l293 -264z" />
<glyph unicode="&#x25ca;" horiz-adv-x="613" d="M367 544l-182 -203l110 -212l185 204zM307 -9h-78l-181 348l310 345h78l181 -348z" />
<glyph unicode="&#xe000;" horiz-adv-x="525" d="M0 525h525v-525h-525v525z" />
<glyph unicode="&#xe080;" horiz-adv-x="865" d="M716 329q0 36 -10 52.5t-28 16.5q-27 0 -55.5 -27t-53.5 -67.5t-43.5 -86.5t-26.5 -85l-7 -34q13 -3 26 -5t30 -2q43 0 74.5 22.5t52.5 57.5t31 77t10 81zM845 353q0 -70 -19 -135.5t-58.5 -116t-99.5 -80.5t-142 -30q-95 0 -176 18l118 620q-17 3 -34.5 4.5t-32.5 1.5 q-104 0 -122 -95l-9 -43h107l-20 -99h-106l-79 -416q-23 -121 -81.5 -175.5t-152.5 -54.5q-21 0 -43.5 2t-43.5 7l30 105q14 -4 29.5 -6t29.5 -2q21 0 37.5 5.5t29.5 20t23 38.5t17 61l79 415h-85l20 99h84l10 52q18 94 84.5 142t179.5 48q48 0 97 -4.5t95 -12.5l-39 -204 q-3 -17 -7.5 -35t-11 -39l-15 -46.5t-20.5 -58.5h2q19 37 41.5 68t48.5 53.5t55.5 35t62.5 12.5q57 0 87 -37.5t30 -117.5z" />
<glyph unicode="&#xe081;" horiz-adv-x="882" d="M771 0h-125l60 312q8 46 1 66t-31 20q-25 0 -53 -26t-53.5 -66.5t-45 -88t-27.5 -91.5l-24 -126h-125l120 629q-17 3 -34.5 4.5t-32.5 1.5q-104 0 -122 -95l-9 -43h107l-20 -99h-106l-79 -416q-23 -121 -81.5 -175.5t-152.5 -54.5q-21 0 -43.5 2t-43.5 7l30 105 q14 -4 29.5 -6t29.5 -2q21 0 37.5 5.5t29.5 20t23 38.5t17 61l79 415h-85l20 99h84l10 52q18 94 84.5 142t179.5 48q48 0 97 -4.5t95 -12.5l-38 -202q-7 -33 -19 -74t-35 -103h2q17 33 38.5 63t47.5 52.5t56.5 36t66.5 13.5t60 -12t36.5 -34t15 -52.5t-4.5 -66.5z" />
<glyph unicode="&#xe082;" horiz-adv-x="595" d="M537 615q-25 8 -56 13.5t-58 5.5q-68 0 -103 -28t-45 -83l-5 -26h312l-103 -539q-9 -49 -26.5 -87t-44.5 -64.5t-65.5 -40.5t-91.5 -14q-37 0 -67 8l26 109q13 -5 28 -8t27 -3q20 0 34.5 5.5t25 19t18 35t13.5 54.5l81 426h-186l-79 -416q-23 -121 -81.5 -175.5 t-152.5 -54.5q-21 0 -43.5 2t-43.5 7l30 105q14 -4 29.5 -6t29.5 -2q21 0 37.5 5.5t29.5 20t23 38.5t17 61l79 415h-85l20 99h85l2 18q36 224 281 224q45 0 80 -5t71 -13z" />
<glyph unicode="&#xe083;" horiz-adv-x="829" d="M645 265l132 -265h-152l-104 250l-48 -250h-125l120 629q-17 3 -35 4.5t-33 1.5q-103 0 -122 -95l-8 -43h106l-20 -99h-106l-78 -416q-23 -120 -82.5 -175t-151.5 -55q-22 0 -44.5 2t-42.5 7l29 105q14 -4 30 -6t29 -2q21 0 38 5.5t30 20t23 38.5t17 61l79 415h-85l20 99 h84l9 52q18 94 84.5 142t179.5 48q48 0 97 -4.5t95 -12.5l-81 -428l216 232l98 -65z" />
<glyph unicode="&#xe084;" horiz-adv-x="645" d="M250 398l-78 -416q-12 -61 -34 -103q17 -8 39.5 -12t42.5 -4q54 0 83.5 26.5t41.5 91.5l79 417h-174zM478 614q-20 8 -39 11.5t-36 3.5q-57 0 -88.5 -26.5t-39.5 -75.5l-5 -30h173l7 37q4 24 11 43.5t17 36.5zM735 626q-14 4 -30 6t-30 2q-44 0 -67 -23.5t-34 -80.5 l-6 -33h114l-20 -99h-113l-77 -409q-12 -64 -35.5 -108t-57 -71.5t-77.5 -39.5t-98 -12q-38 0 -74 7t-68 20q-28 -18 -57.5 -25.5t-66.5 -7.5q-21 0 -43.5 2t-43.5 7l30 105q14 -4 29.5 -6t29.5 -2q21 0 37.5 5.5t29.5 20t23 38.5t17 61l78 415h-85l20 99h85l6 35 q17 99 82.5 150t178.5 51q38 0 74.5 -6t68.5 -18q50 29 128 29q20 0 40.5 -1.5t40.5 -6.5z" />
<glyph unicode="&#xe085;" horiz-adv-x="583" d="M537 614q-26 8 -57 13.5t-58 5.5q-67 0 -102 -27.5t-46 -82.5l-4 -26h297l-95 -497h-124l75 398h-173l-78 -416q-23 -121 -81.5 -175.5t-152.5 -54.5q-21 0 -43.5 2t-43.5 7l30 105q14 -4 29.5 -6t29.5 -2q21 0 37.5 5.5t29.5 20t23 38.5t17 61l79 415h-85l20 99h84l3 18 q17 109 84.5 166t195.5 57q45 0 80 -5t71 -14z" />
<glyph unicode="&#xe086;" horiz-adv-x="582" d="M473 0h-125l120 628q-17 3 -35 4.5t-33 1.5q-52 0 -82.5 -22.5t-39.5 -71.5l-8 -43h106l-20 -99h-106l-78 -416q-23 -121 -81.5 -175.5t-152.5 -54.5q-21 0 -43.5 2t-43.5 7l30 105q14 -4 29.5 -6t29.5 -2q21 0 37.5 5.5t29.5 20t23 38.5t17 61l79 415h-85l20 99h84l9 52 q18 94 84.5 141.5t179.5 47.5q48 0 97 -4.5t95 -12.5z" />
<glyph unicode="&#xe087;" horiz-adv-x="881" d="M250 398l-78 -416q-12 -61 -34 -103q17 -8 39.5 -12t42.5 -4q54 0 83.5 26.5t41.5 91.5l79 417h-174zM483 612q-21 9 -42 13t-38 4q-57 0 -88.5 -26.5t-39.5 -75.5l-5 -30h172l4 21q11 58 37 94zM835 615q-26 8 -57 13.5t-58 5.5q-66 0 -101.5 -27t-46.5 -86l-4 -24h297 l-95 -497h-125l76 398h-172l-77 -409q-12 -64 -35.5 -108t-57 -71.5t-77.5 -39.5t-98 -12q-38 0 -74 7t-68 20q-28 -18 -57.5 -25.5t-66.5 -7.5q-21 0 -43.5 2t-43.5 7l30 105q14 -4 29.5 -6t29.5 -2q21 0 37.5 5.5t29.5 20t23 38.5t17 61l78 415h-85l20 99h85l6 35 q17 99 82.5 150t178.5 51q39 0 79.5 -7t75.5 -21q62 34 159 34q45 0 80 -5t71 -13z" />
<glyph unicode="&#xe088;" horiz-adv-x="882" d="M251 398l-79 -416q-12 -61 -34 -103q17 -8 39.5 -12t42.5 -4q54 0 83.5 26.5t41.5 91.5l79 417h-173zM478 614q-20 8 -39 11.5t-36 3.5q-57 0 -88 -26.5t-39 -75.5l-6 -30h173l10 52q8 39 25 65zM771 0h-124l119 629q-17 3 -34.5 4.5t-32.5 1.5q-104 0 -123 -95l-7 -43 h113l-19 -99h-114l-77 -409q-12 -64 -35.5 -108t-57 -71.5t-77.5 -39.5t-98 -12q-38 0 -74 7t-68 20q-28 -18 -57.5 -25.5t-66.5 -7.5q-21 0 -43.5 2t-43.5 7l30 105q14 -4 29.5 -6t29.5 -2q21 0 37.5 5.5t29.5 20t23 38.5t17 61l79 415h-85l20 99h84l6 35q18 99 83.5 150 t178.5 51q38 0 78 -7.5t72 -19.5q60 33 154 33q48 0 97 -4.5t95 -12.5z" />
<glyph unicode="&#xe0a0;" horiz-adv-x="437" d="M434 715l-125 60l-141 -60l-24 62l173 87l152 -85z" />
<glyph unicode="&#xe0a1;" horiz-adv-x="380" d="M310 782q0 19 -12.5 33t-32.5 14q-21 0 -36 -15.5t-15 -36.5q0 -20 13 -33.5t33 -13.5q21 0 35.5 15t14.5 37zM378 785q0 -26 -10 -47.5t-26.5 -37t-38.5 -24.5t-46 -9t-44 8t-34.5 22.5t-23 33.5t-8.5 42q0 26 10 48t26.5 37.5t38.5 24t46 8.5t44 -8t34.5 -22.5t23 -34 t8.5 -41.5z" />
<glyph unicode="&#xe0a2;" horiz-adv-x="449" d="M498 810q-24 -40 -56 -61t-71 -21q-25 0 -42 7.5t-30 16l-24.5 16t-25.5 7.5q-34 0 -59 -43l-61 44q24 40 55 61t71 21q25 0 42 -7.5t30.5 -16l25 -16t25.5 -7.5q32 0 59 42l61 -43v0z" />
<glyph unicode="&#xe0a3;" horiz-adv-x="380" d="M464 859q-5 -27 -17.5 -51.5t-32.5 -43.5t-49 -30t-66 -11q-35 0 -59.5 11t-38.5 30t-18.5 43.5t0.5 51.5h74q-5 -24 9.5 -41t44.5 -17q31 0 49.5 16t23.5 42h80v0z" />
<glyph unicode="&#xe0a4;" horiz-adv-x="330" d="M379 791q0 -32 -22.5 -53t-51.5 -21t-47.5 19.5t-18.5 44.5q0 32 22.5 53t51.5 21t47.5 -19.5t18.5 -44.5z" />
<glyph unicode="&#xe0a5;" horiz-adv-x="401" d="M190 651q0 -31 -21 -51.5t-50 -20.5t-48 20t-19 47q0 31 21.5 51t50.5 20t47.5 -19.5t18.5 -46.5zM372 651q0 -31 -21 -51.5t-50 -20.5t-48 20t-19 48q0 30 21.5 50t50.5 20t47.5 -19.5t18.5 -46.5z" />
<glyph unicode="&#xe0a6;" horiz-adv-x="261" d="M215 549l-132 146l81 67l116 -158z" />
<glyph unicode="&#xe0a7;" horiz-adv-x="261" d="M178 549l-58 62l145 151l71 -76z" />
<glyph unicode="&#xe0a8;" horiz-adv-x="261" d="M281 560l-70 81l-98 -81l-43 57l158 137l110 -137z" />
<glyph unicode="&#xe0a9;" horiz-adv-x="261" d="M370 667q-23 -42 -51 -64.5t-66 -22.5q-17 0 -30 7t-24 16t-21 16t-20 7q-31 0 -52 -41l-52 46q44 86 115 86q18 0 31.5 -7t24 -16t19.5 -16t20 -7q17 0 30 11.5t24 31.5l52 -47v0z" />
<glyph unicode="&#xe0aa;" horiz-adv-x="261" d="M77 600l18 92h250l-18 -92h-250z" />
<glyph unicode="&#xe0ab;" horiz-adv-x="261" d="M351 720q-14 -73 -51.5 -113t-99.5 -40t-88.5 40.5t-12.5 112.5h80q-5 -25 3.5 -43t30.5 -18q21 0 36.5 16t20.5 45h81z" />
<glyph unicode="&#xe0ac;" horiz-adv-x="534" d="M275 787q0 -30 -20.5 -49t-47.5 -19t-45 18t-18 44q0 30 20 50t47 20q28 0 46 -19t18 -45zM470 787q0 -30 -20 -49t-47 -19t-45 18t-18 44q0 30 20 50t47 20t45 -19t18 -45z" />
<glyph unicode="&#xe0ae;" horiz-adv-x="331" d="M357 763l-133 -175l-69 40l116 183z" />
<glyph unicode="&#xea0a;" horiz-adv-x="690" d="M490 65q19 -1 35.5 -5.5t35 -9t40.5 -7t52 1.5l-21 -111q-38 -5 -66.5 -3.5t-52 8t-43.5 15t-42.5 16.5t-49.5 13.5t-63 5.5h-21q-128 0 -189 65.5t-61 180.5q0 92 29.5 174t82 143.5t124.5 97.5t157 36q124 0 187.5 -64.5t63.5 -182.5q0 -63 -15 -121.5t-41 -107.5 t-62.5 -86.5t-79.5 -58.5zM551 424q0 66 -32.5 105.5t-101.5 39.5q-54 0 -97 -26t-74 -69.5t-47.5 -100t-16.5 -116.5q0 -72 33 -111t97 -39q51 0 95 25.5t76 68.5t50 100.5t18 122.5z" />
<glyph unicode="&#xea43;" horiz-adv-x="1316" d="M1127 660q12 -19 14.5 -41.5t-2 -46.5t-14.5 -48t-23 -46q-20 -34 -52.5 -63.5t-71.5 -44.5q16 10 30.5 21.5t26.5 26.5q18 16 36.5 35t26.5 45q16 20 21 41t7 42q3 29 -4.5 58t-34.5 43q7 9 13.5 8t11.5 -6t8.5 -12.5t6.5 -11.5zM1025 544q5 -15 1.5 -31t-8.5 -33 q-5 -8 -12.5 -15.5t-16.5 -9.5q-7 2 -10 6.5l-7 10.5l5 14q5 -2 3.5 -8t4.5 -8q5 -2 10 3l8 8q8 23 9 45t-7 42l-7 -3l-26 -20.5t-22 -24.5l-9 -4q-16 -14 -29 -29.5t-27 -26.5q-6 -1 -8 1.5t-2.5 6.5t-0.5 9t-1 8q2 4 2.5 9t-2.5 8q-5 1 -6.5 -3.5t-5.5 -6.5 q-8 -8 -15.5 -11.5t-18.5 -4.5q-11 3 -12.5 9t1.5 13.5t7 16.5t6 17q7 15 17.5 26.5t24.5 23.5q11 2 23 6t18 -8l3 -6q-9 -17 -14 -35.5t-11 -36.5q0 -3 1 -6.5t5 -3.5q11 0 15.5 9t12.5 15q25 19 47.5 38.5l44.5 39.5q6 -2 7 -7.5t0.5 -11.5l-1 -12.5t1.5 -10.5q4 -3 1 -8z M921 676q-4 -5 -11.5 -10t-14.5 -4q-2 3 -3.5 7t-7.5 -1q-33 -23 -64.5 -48.5t-48.5 -59.5q-8 -20 -13.5 -42t-7 -43t3.5 -39.5t19 -31.5q8 -8 20.5 -6.5t23.5 0.5q7 4 12.5 8.5t12.5 8.5q-1 -9 -9.5 -13t-16.5 -10q-16 -6 -32.5 -2.5t-26.5 14.5q-18 21 -18 46q-4 2 -3.5 5 t2 6t2.5 6t-2 5q3 3 2.5 6.5t-1 7.5t0 7.5t3.5 8.5q5 30 19.5 55.5t34.5 48t44.5 42t49.5 36.5q4 0 9.5 1.5t10 1.5t8 -2t2.5 -9zM705 498q-10 -17 -27.5 -29.5t-36.5 -12.5q-20 0 -36 7.5t-21 24.5q-5 11 -3 23.5t7 26.5q3 9 10.5 15t9.5 15q33 24 66 12q3 -3 6.5 -4.5 t1.5 -7.5q-4 -4 -7 0t-8 4q-13 4 -26.5 -0.5t-25.5 -15.5q-10 -12 -17 -26.5t-4 -28.5q16 -30 47 -34q10 4 20.5 4t19.5 10q7 4 12 12.5t12 4.5zM547 470q-8 -12 -14 -24.5t-17 -23.5q-7 -3 -12 0.5t-7 9.5q-4 17 -3 36.5t8 38.5q-1 1 1 8l4.5 16t4 18t-0.5 13 q-9 -15 -13 -31t-7.5 -31.5t-9.5 -30t-20 -27.5q-2 -2 -8 -3.5t-12 1.5t-10 11.5t-3 28.5q6 19 10.5 36.5t10.5 35.5q3 7 1 14.5t7 13.5q8 4 12 -4q-2 -15 -7 -31.5t-9 -32t-6 -29t1 -23.5q6 -5 10 -2t7 9t5 12.5t5 8.5q8 20 11 42t13 42q3 3 6 7.5t6 8t6.5 5t8.5 -2.5 q3 -20 0 -38.5t-7.5 -37.5t-8 -38t-1.5 -38q1 -3 4 -4t7 3l3 5.5l6.5 11.5t8 11t9.5 5zM387 440q-2 -2 -4.5 -4t-10.5 -4t-24.5 -4.5t-46.5 -4.5q-35 -3 -66.5 -8.5t-64.5 -16.5q-8 -11 -15.5 -8t-12.5 6q0 9 8.5 12.5t11.5 11.5q8 12 15 24l14 24q-1 6 4 13t10 13 l60.5 102.5t52.5 105.5q0 6 1 11.5t6 9.5q7 2 8 -2t3 -7q-14 -39 -34 -75l-41.5 -71.5l-43 -71.5t-38.5 -74l1 -2q38 6 74.5 13t76.5 8q11 -2 26 -2t28 5zM724 209q-18 -3 -36 -8l-35.5 -10t-35 -8.5t-35.5 -1.5q-4 -3 -7 -11t-3.5 -16t3 -13t12.5 -2q4 4 6.5 11.5t9.5 9.5 q3 -9 -2 -17.5t-12 -15.5q-3 -2 -10.5 -2.5t-13.5 4t-8.5 15.5t3.5 32q-2 3 -3.5 6t1.5 8q13 8 16 20.5t8 25.5q-2 1 -1.5 2t-1.5 2q-20 -11 -31.5 -29t-28.5 -32q-1 -7 -6 -12.5t-10.5 -11t-10 -11.5t-4.5 -14q-3 -3 -4.5 -8t-3 -9.5t-4 -8t-9.5 -4.5q-9 2 -11 7.5t-1 12 t3.5 13.5t3.5 13q0 19 7 35t8 33q-10 -5 -14.5 -14t-12.5 -17q-6 -6 -12 -14t-12.5 -15t-14 -10.5t-17.5 -1.5q-8 17 2.5 36t23.5 36q6 5 12 11.5t12.5 11.5t13.5 7.5t15 -0.5q4 -3 10 0q13 21 22 44t15 46l11 8q6 -2 6.5 -5t-1.5 -7t-4.5 -8t-2.5 -8q-9 -28 -19.5 -55.5 t-18.5 -54.5q-4 -15 -10 -29t-4 -29q20 21 39 46t45 46q17 18 37 30q7 -6 12.5 -14.5t11.5 -13.5q-2 -9 -5 -20t-2 -20q28 6 53 10t52 12q3 -2 4.5 -5t-0.5 -8zM891 -34q-6 -6 -12.5 -8t-14 -3l-14.5 -2t-13 -5q-17 -2 -33 -6.5t-26 -21.5q-6 -10 -13.5 -19.5t-14.5 -19.5 t-11.5 -20.5t-4.5 -22.5q0 -9 9.5 -8.5t15.5 2.5q4 0 7 4.5t8 1.5q4 -3 -1 -6t-7 -7q-9 -5 -19 -7.5t-19 2.5q-6 8 -8.5 16.5t2.5 19.5q3 8 13 24t36 50q-7 4 -15 3t-16 -2.5t-16 -2.5t-15 2q5 6 13.5 9t15.5 5q14 3 28 2t24 12q9 11 9.5 22.5t4.5 23.5q-5 2 -4 6t2 6 q-3 11 -11 17t-18 8.5t-21 3t-21 0.5q-23 -2 -45 -17t-34 -35q-10 -16 -12 -32t2 -33q-4 -12 -1.5 -23t5.5 -21.5t3.5 -22.5t-8.5 -25q-6 -5 -13.5 -4t-12.5 3q-12 7 -11 22t-1 28q9 6 10 16.5t9 18.5q2 5 2.5 13t-5.5 11q-17 -2 -37 -2t-37 -12q-1 -11 -1.5 -22t-3.5 -22 t-8.5 -21t-16.5 -17q-12 -3 -23 4q-9 9 -5.5 21.5t6.5 24.5l20.5 31.5t29.5 22.5q6 -5 15.5 -3t17.5 4l48 1q5 5 6.5 12.5t4.5 13.5q15 29 41.5 51.5t58.5 24.5q17 2 32.5 1t29.5 -9q0 -5 2.5 -8t6 -5t6.5 -5t3 -8q6 -14 0 -33t-13 -35q23 0 45.5 4zM485 -54 q-5 -3 -8.5 -1.5t-7 3.5t-7.5 3.5t-9 -1.5q-15 -9 -18.5 -23.5t-14.5 -24.5q-4 -14 -10 -26.5t-8 -25.5q-3 -2 -6.5 -4t-8.5 0q-5 8 0 18t6 18q10 9 10 21.5t8 22.5q-2 5 0 12.5t1 12.5q-5 2 -8 -2t-7 1q4 10 17 18q8 0 10.5 -6t4.5 -12q4 1 8.5 5.5t9 8t9 4.5t8.5 -4z M365 8q-6 -5 -3 -8.5t0 -8.5q-8 -38 -12.5 -76t-14 -74.5t-27 -69.5t-51.5 -61q-35 -20 -74 -24.5t-73 5.5q-4 2 -7.5 5.5t-1.5 8.5q4 10 9.5 20t18.5 14l-10 -16t-8 -17q11 -8 26.5 -11t32.5 -2t34.5 6t31.5 12q15 5 25 14t17.5 20t13.5 22.5t13 22.5q13 35 21.5 75.5 t13.5 70.5q5 11 4.5 24t4.5 24q-1 5 -5.5 3.5t-6.5 -2.5q-9 -8 -14 -17.5t-14 -15.5q0 -8 -4.5 -12t-9.5 -7.5t-9.5 -7.5t-5.5 -11q-25 -23 -47 -46.5l-43 -47.5q-5 -6 -9 -12t-12 -5q-3 7 -2.5 14.5t3 15l5 15.5t2.5 16q8 17 15.5 35.5t23.5 34.5q14 25 35 48t48 38 q14 4 23.5 -2.5t18.5 -13.5q11 11 16 24q11 -4 8 -20zM891 575q-3 4 -6 -0.5t-6 -2.5q-25 -11 -36.5 -34t-15.5 -46q6 -2 12.5 4t12.5 4q4 7 11.5 14.5t13.5 15t8.5 16t-2.5 16.5q6 0 7 5.5t1 7.5zM586 203q5 1 5 2t2 3q4 5 7.5 13.5t-4.5 10.5zM461 230q-6 2 -13 -3 t-12 -11q-14 -14 -25.5 -30t-7.5 -33q5 -2 7.5 1t4.5 6q13 11 23.5 23t20.5 27zM630 -100q-6 -6 -9 -13t-5 -14q0 -8 1.5 -16.5t11.5 -10.5q8 13 7 28t-6 26zM526 -115q2 4 4.5 11t3.5 13.5t-0.5 11.5t-7.5 6l-18 -19l-8 -23t-2 -23q3 -3 8 -2.5t10.5 3.5t8.5 8.5t1 13.5z M327 -6q-1 11 -12.5 13t-20.5 -2q-13 -9 -25 -19t-23 -21q-8 -15 -17.5 -30l-18.5 -30t-15.5 -30.5t-7.5 -32.5q2 -1 3 0.5t3 3.5q17 18 35.5 35l36.5 35t34 37t28 41z" />
<glyph unicode="&#xeeee;" horiz-adv-x="175" d="M175 980v-1300h-175v1300h175z" />
<glyph unicode="&#xf000;" horiz-adv-x="960" d="M291 56q-2 -8 -9 -19t-15 -18q-4 -1 -8.5 -4t-9.5 0q-6 2 -3 7.5t5 10.5q0 2 2.5 10t7 18.5t10.5 20.5t14 16q7 1 11 1t7 2q2 -1 0 -7.5t-5 -14t-5.5 -14.5t-1.5 -9zM427 77q5 -14 -1 -29t-18 -26q-3 -4 -6.5 -4.5t-7.5 -2.5q-12 2 -11 13t0 20q4 8 6 16.5t8 15.5 q8 4 12 11t12 7l3 -3q-4 -7 -0.5 -10t3.5 -8zM265 181q-11 2 -24.5 1.5t-27.5 -1.5q-8 -1 -15.5 -2.5t-12.5 -5.5q-4 -16 -9.5 -32.5t-9.5 -32.5q-4 -26 -10 -54.5t-10 -55.5q4 0 8 1.5t7 -0.5q6 2 11 -0.5t12 0.5q4 16 6.5 31.5t6.5 31.5q3 5 8.5 7.5t10.5 4.5q4 2 7.5 0 t7.5 3l5 28q-2 5 -8 4.5t-12 -0.5q-4 -4 -8 -4q-7 2 -5.5 9.5t-0.5 12.5q-1 4 7 10q11 3 20.5 4.5t19.5 3.5l7 4q1 9 4.5 16.5t4.5 15.5zM322 34q-1 11 2 23.5l6 24.5t5 24t-2 21q-6 4 -12.5 6.5t-8.5 -2.5l-1 -6q-9 -2 -19 2t-19 -2q-13 -6 -17 -20q3 -3 0.5 -4l-6 -2.5 t-6.5 -4t-1 -8.5q-2 -4 -0.5 -7.5t-3.5 -7.5q-2 -4 -5 -12t-6 -10q-9 -8 -8.5 -20.5t4.5 -22.5q-2 -7 2.5 -11t9.5 -6q2 2 4.5 3t4.5 -1q8 -2 18.5 7.5t18.5 14.5q6 1 6.5 -1t-1 -5.5t-2.5 -7.5t1 -6q4 -2 5.5 -3t6.5 -1q5 2 9 2.5t7 3.5l8 39v0zM446 30q14 17 14 35t1 38 q3 6 -8 11t-14 8q-2 2 -4 2t-4 -3q-11 1 -20 -4q-6 -3 -9 -8t-8 -7q-6 -4 -8 3q7 18 9 36.5t2 37.5l-1 7h-8q-9 -3 -9 -11t-4 -14q-6 -17 -8.5 -34t-8.5 -34q-2 -17 -6.5 -33t-6.5 -31q-2 -9 -4.5 -17.5t-3.5 -18.5q6 -4 15 -1t16 6q5 2 8 1t5.5 -4t4 -6t4.5 -5q8 0 13 1 q12 6 26.5 19.5t16.5 25.5zM566 123q-8 -1 -16.5 -2.5t-15.5 -10.5q-5 -4 -7.5 -11.5t-10.5 -5.5q-1 8 0.5 14.5t2.5 14.5q-3 2 -7 0t-8 0q-7 -4 -13 -13q-6 -29 -10.5 -55.5t-7.5 -55.5l3 -4q5 -4 11.5 -1.5t11.5 0.5q-2 11 2.5 20.5t2.5 20.5l10 22.5t15 21.5q6 5 13 6.5 t15 6.5q2 8 6 16t3 16zM595 15q4 20 7 39l6 37l4 13.5t1 12.5q-6 5 -13 2t-15 -2q-9 -11 -10 -24t-4 -26q-3 -5 -4.5 -12t-4.5 -14q1 -10 -3 -22t1 -22q15 0 32 5q2 3 2 6q0 4 1 7zM625 179q-2 11 -9 15q-2 2 -5 2.5t-5 -2.5q-6 -6 -9.5 -15t0.5 -15q0 -5 6 -5.5t11 1.5 q11 6 11 19zM720 -10q-2 8 -4.5 16.5t-7.5 15.5q-4 11 -9.5 20.5t-4.5 22.5l-3.5 8.5t1.5 8.5q8 8 18.5 13t19.5 13l-6 17q-10 -1 -17.5 -4.5t-15.5 -5.5q-5 -2 -10 -6t-10 1q5 20 9 39.5t6 38.5l-1 3q-8 0 -13.5 2.5t-11.5 4.5q-4 -11 -7.5 -23.5t-4.5 -24.5 q-5 -8 -4.5 -19.5t-4.5 -19.5q-3 -15 -6 -27.5l-6 -24.5t-5.5 -24t-4.5 -27l-2 -7h24q4 1 6.5 -1t5.5 1l2 13.5t2 14.5q2 8 1.5 16.5t9.5 11.5q5 -2 4.5 -6.5t1.5 -8.5q-2 -7 1.5 -12t3.5 -11q8 -6 11.5 -16t11.5 -17q3 1 5.5 -1.5t7.5 -0.5q5 0 7 6zM428 539 q-1 11 -5.5 21.5t-16.5 12.5q-2 -5 -6.5 -3.5t-8.5 0.5q-6 3 -13.5 1t-12.5 -7q-13 -15 -7 -29t13 -27q1 -4 3.5 -3t6.5 0q8 -2 14.5 1.5t11.5 5.5q7 6 15.5 11t5.5 16zM767 -62q-22 2 -49 -2.5t-48 -1.5q-56 2 -109 -4t-108 0q-25 -4 -48.5 -1.5t-47.5 4.5q-29 2 -59.5 1.5 t-61.5 -0.5q-21 0 -50 -1.5t-50 -6.5q-4 -1 -9 -1q-4 0 -6 5q0 16 -1 32.5t4 32.5q2 20 1 40t2 40q-4 23 -0.5 44.5t-0.5 44.5q0 32 2.5 64.5t4.5 66.5q2 36 0.5 71.5t0.5 71.5q4 8 11.5 6.5t14.5 0.5q8 -5 18.5 -2.5t18.5 1.5q3 3 7.5 5.5t5.5 -4.5q2 -2 0.5 -6t2.5 -6 q-2 -14 -1.5 -38t2 -52t3.5 -57.5t3 -53.5q32 10 58.5 27.5t57.5 28.5q5 2 9.5 6t11.5 6q2 1 4 3t6 0q5 -2 4 -7t-1 -10q-10 -29 -5 -61q2 -5 6.5 -3t7.5 2q8 7 17 11.5t17 10.5l20 11.5t21 9.5l23.5 16t24.5 13l20 16q1 4 6 7q3 0 5.5 -2t5.5 -4q0 -14 3 -28.5t3 -28.5 q1 -3 3 -2.5t3 -1.5q4 -5 2 -10l-4 -10l2 -2q17 4 31.5 13t29 19t29 19t31.5 13q5 5 11 6.5t11 6.5q5 1 9 4.5t8.5 6.5t9.5 4.5t11 -3.5q2 0 4 -1t3 -3q-1 -4 0.5 -6.5t3.5 -5.5q-2 -8 0 -14.5t-2 -12.5q1 -13 0 -25t5 -23q-2 -7 2.5 -12.5t-0.5 -10.5q1 -8 0 -14.5t4 -12.5 q1 -5 1.5 -9.5t-2.5 -8.5q2 -11 2.5 -23t4.5 -23q-2 -4 -1 -8t1 -8q0 -38 5.5 -73.5t6.5 -73.5q0 -2 1.5 -4.5t-0.5 -4.5zM469 664q-13 -13 -30 -8l-7.5 11.5t-4.5 12.5q-5 10 -13 16t-18 9.5t-21 5.5t-21 5l-31 2q-3 -2 -6.5 -1t-6.5 -1q-17 -5 -31 -10t-27 -11 q-6 -8 -17 -13.5t-13 -16.5q-8 -15 -12 -34t-7 -36q4 -4 10 -2.5t12 0.5q21 2 42 2h44q2 -2 0 -7q-9 -6 -16 -0.5t-15 2.5q-9 1 -20 -0.5t-21 -0.5q-9 -2 -19 -2t-18 -5l-3 -4q-3 -19 -4 -31t-2 -32q0 -7 -2 -14t3 -14q13 -1 20.5 -0.5l14.5 1t14.5 1.5t20.5 1q3 2 6.5 1 t6.5 -2v-4l-4 -2q-11 2 -20.5 1.5t-19 -1.5t-20.5 -2t-26 0l-23 -2t-23 0q-16 -1 -33 -1t-31 4l-1 3q3 3 10 5q7 -4 17 -4.5t21 -2.5q8 1 14 0.5t12 3.5q2 26 9 46t12 47l-2 4q-15 1 -29 0t-27 5q0 5 3 5q14 -4 28 -4q15 0 29 1l1 3l10.5 34.5t13.5 31.5v3q26 26 57 42 t69 20q18 2 35.5 -2t32.5 -11q5 -2 10 -2t10 -2q17 -4 32.5 -12t25.5 -23q2 -2 0.5 -4.5t-1.5 -4.5zM453 559q0 -20 -12 -31q-11 -7 -21 -15.5t-23 -10.5q-7 2 -8 -3.5t-6 -1.5t-12 2t-13 -1q-6 0 -10.5 0.5t-9.5 2.5q-7 7 -13.5 15.5t0.5 20.5q7 20 26 30l23 10.5t25 2.5 q16 -1 32 -4t22 -17zM647 502q-12 0 -25.5 -0.5t-26.5 -4.5q-3 2 -6.5 2.5t-6.5 5.5q5 14 8 28t1 28q-2 3 -6.5 0.5t-8.5 -4.5q-14 -8 -28.5 -19.5t-17.5 -28.5q-11 -9 -20 -5q-5 7 -1 15t2 16l2 31q-3 3 -7.5 1.5t-9.5 0.5q-3 2 -7.5 1t-3.5 4q13 -1 26 1t26 0q3 -3 2.5 -7 t-1.5 -8t0 -7t5 -5q14 6 27.5 14.5t27.5 13.5q3 -2 6.5 -1.5t6.5 0.5q4 0 6.5 -1.5t3.5 -6.5q1 -11 -0.5 -21.5t-1.5 -21.5q0 -3 -0.5 -6.5t2.5 -5.5q9 -2 13 0q4 0 8 -1t9 -1q1 -1 -1 -5zM887 571q0 -4 -3 -4q-10 2 -20.5 0.5t-21.5 -2.5q-34 -2 -53.5 -3t-37.5 -4 q-8 -7 -8 -16t-5 -17q-2 -5 -0.5 -8t2.5 -7q1 -3 5 -4.5t8 -2.5q7 1 14 4t10 9q2 8 -6 12q-4 4 -10 3t-8 4q3 5 9.5 4t12.5 -1q10 -3 13 -16q-3 -16 -22 -27q-5 -2 -10 -2.5t-10 -2.5q-12 3 -24 8t-19 16q-2 12 2 22.5t6 21.5q-2 5 -5.5 4t-8.5 0l-33 -1q0 2 -1 2t-1 2 q4 2 7 2q4 0 8 1q8 -2 18.5 -1t19.5 1q4 3 4.5 7.5t1.5 9.5q3 7 5 16t8 14q5 3 7.5 -1t5.5 -6q4 -8 1 -17.5t0 -18.5q3 -6 9.5 -4t12.5 0q23 2 49 1.5t64 4.5q3 -2 4 -3z" />
<glyph unicode="&#xf639;" horiz-adv-x="576" d="M447 467q0 110 -79 110q-36 0 -64 -19.5t-49 -51.5t-35 -72t-23 -81t-13 -79t-4 -65q0 -110 81 -110q46 0 80.5 36.5t58 91.5t35.5 119.5t12 120.5zM579 466q0 -78 -19.5 -162t-60 -153.5t-103.5 -114.5t-150 -45q-98 0 -148 54.5t-50 164.5q0 88 22.5 173t64.5 152 t103.5 108t139.5 41q53 0 91 -15t62.5 -43.5t36 -69t11.5 -90.5z" />
<glyph unicode="&#xf63a;" horiz-adv-x="488" d="M488 531q0 -49 -16.5 -92.5t-43 -82t-59 -72.5t-64.5 -64l-101 -99l1 -1q50 2 105.5 2.5t123.5 0.5l-25 -123h-400l21 111l137 133q50 46 84 82.5t54.5 67t29.5 56.5t9 50q0 31 -20 49.5t-56 18.5q-35 0 -68 -10t-65 -29v117q38 17 84 28t89 11q90 0 135 -41.5t45 -112.5 z" />
<glyph unicode="&#xf63b;" horiz-adv-x="469" d="M458 527q-7 -53 -42 -95.5t-95 -64.5v-1q24 -6 44.5 -19.5t34.5 -34.5t19 -45.5t2 -51.5q-6 -48 -30.5 -89t-67 -73t-95.5 -47.5t-108 -15.5q-33 0 -60.5 3t-57.5 11l36 111q39 -14 89 -14q35 0 63.5 9t49.5 25t33 37.5t13 45.5q1 17 -7 33.5t-28 28t-56 16t-103 -3.5 l20 103q54 -1 92.5 8.5t64 25.5t38.5 37.5t14 43.5q2 26 -14.5 46.5t-60.5 20.5q-32 0 -61 -8t-54 -21l6 109q32 12 72.5 20t79.5 8q50 0 83.5 -12.5t54 -34t27.5 -50.5t4 -61z" />
<glyph unicode="&#xf63c;" horiz-adv-x="543" d="M370 555l-221 -294q16 1 39.5 1.5t47.5 0.5h79l56 292h-1zM513 148h-98l-29 -148h-123l29 148h-278l11 109l315 418h54h121l-79 -411h99z" />
<glyph unicode="&#xf63d;" horiz-adv-x="452" d="M457 554h-210l-25 -134q41 -1 77.5 -8.5t66 -27t46 -49t16.5 -70.5q0 -58 -24.5 -108t-70.5 -88.5t-107.5 -58t-127.5 -19.5q-33 0 -49 2.5t-47 8.5l31 113q17 -5 35 -8.5t51 -3.5q41 -1 73.5 11t54.5 31.5t32.5 42t10.5 49.5q0 31 -20 47.5t-44.5 23t-62 8.5t-80.5 -2 l69 361h118h209z" />
<glyph unicode="&#xf63e;" horiz-adv-x="566" d="M404 245q0 36 -20 58.5t-62 22.5q-26 0 -50.5 -10t-43 -28.5t-30 -45t-11.5 -58.5q0 -15 4 -30.5t13.5 -28t24 -20t35.5 -7.5q29 0 54.5 11t44.5 31t30 47t11 58zM537 567q-35 7 -77 7q-77 0 -135 -41t-94 -123q-3 -8 -6.5 -16t-6.5 -16v-1q28 26 65 40.5t81 14.5 t77 -12.5t54.5 -34.5t32 -50.5t10.5 -61.5q0 -66 -25 -118.5t-66 -89.5t-94.5 -56.5t-109.5 -19.5q-91 0 -138.5 51t-47.5 148q0 47 10 102t32 110.5t56 106.5t81 90.5t108.5 63t138.5 23.5q23 0 42.5 -1.5t32.5 -3.5z" />
<glyph unicode="&#xf63f;" horiz-adv-x="450" d="M494 565q-40 -63 -80 -134.5t-77 -145.5t-69.5 -147t-57.5 -138h-143q29 74 65 152.5t73.5 152t74 137.5t66.5 110q-13 0 -44 -0.5t-69.5 -1t-78.5 -0.5h-68l24 125h404z" />
<glyph unicode="&#xf640;" horiz-adv-x="546" d="M363 184q0 31 -20 55.5t-64 50.5q-55 -29 -86 -61t-31 -74q0 -28 20.5 -44.5t62.5 -16.5q23 0 44 7t37.5 19t26.5 28.5t10 35.5zM421 526q0 26 -19.5 43t-58.5 17q-50 0 -78 -26.5t-28 -63.5q0 -28 21.5 -49t52.5 -41q51 28 80.5 55.5t29.5 64.5zM554 543q0 -34 -13 -62 t-34 -51t-48.5 -41.5t-56.5 -35.5q44 -30 70 -66.5t26 -89.5q0 -47 -22.5 -85.5t-60 -66t-87.5 -42.5t-105 -15q-99 0 -147.5 42t-48.5 108q0 69 43.5 117.5t115.5 87.5q-42 30 -62.5 63.5t-20.5 78.5q0 39 18 76t51 65.5t80.5 45.5t107.5 17q50 0 86.5 -11.5t60.5 -31 t35.5 -46t11.5 -57.5z" />
<glyph unicode="&#xf641;" horiz-adv-x="569" d="M427 495q0 35 -21 58.5t-59 23.5q-29 0 -53.5 -13t-42 -34.5t-27 -48.5t-9.5 -56q0 -33 16.5 -55t58.5 -22q32 0 57.5 12t43 32.5t27 47t9.5 55.5zM564 489q0 -44 -8.5 -98t-28 -109.5t-52 -108t-81 -93.5t-113.5 -65.5t-151 -24.5q-29 0 -49.5 2t-37.5 4l22 117 q33 -11 81 -11q47 0 84 13.5t65 35t47.5 49.5t31.5 56q5 9 9 18.5t8 17.5v2q-26 -27 -63.5 -43t-79.5 -16q-43 0 -75 13.5t-52 36t-30 53t-10 63.5q0 58 21 110t59 91t90 61.5t115 22.5q98 0 148 -54t50 -143z" />
<glyph unicode="&#xf6c9;" horiz-adv-x="423" d="M229 716l-14 70l212 75l19 -92z" />
<glyph unicode="&#xf6ca;" horiz-adv-x="421" d="M298 715l-152 86l35 63l126 -59l140 59l24 -62z" />
<glyph unicode="&#xf6cb;" horiz-adv-x="437" d="M268 787q0 -30 -20.5 -49t-47.5 -19t-45 18t-18 44q0 30 20 50t47 20q28 0 46 -19t18 -45zM477 787q0 -30 -20 -49t-47 -19t-45 18t-18 44q0 30 20 50t47 20t45 -19t18 -45z" />
<glyph unicode="&#xf6ce;" horiz-adv-x="324" d="M366 716l-209 53l40 92l197 -75z" />
<glyph unicode="&#xf6cf;" horiz-adv-x="548" d="M210 716l-35 59l166 113l46 -71zM421 715l-31 60l175 101l38 -76z" />
<glyph unicode="&#xf6d0;" horiz-adv-x="421" d="M446 741h-290l15 81h291z" />
<glyph unicode="&#xf6dc;" horiz-adv-x="352" d="M240 0h-129l103 542l-120 -46v121l183 58h92z" />
<glyph unicode="&#xf8ff;" horiz-adv-x="1044" d="M166 366q-3 -31 0 -60l-150 -15q-6 44 0 89zM529 355q2 0 3.5 5t-0.5 5q2 -5 -3 -10zM527 357q5 0 2.5 2t0.5 2v1q-4 0 -2 -2t-1 -2v-1v0zM525 361q-3 -6 -2.5 -2t2.5 2zM524 357h1l1 5q-4 1 -4.5 -3.5t3.5 0.5zM520 355q-2 5 3 10q-2 0 -3.5 -5t0.5 -5zM517 358 q-2 -1 -1.5 1.5t2.5 1.5v1q-2 1 -3.5 -2.5t2.5 -2.5v1zM513 362l-1 -3q-1 -2 -1 0l1 3h-1l-1 -3q-1 -2 0 -2q2 0 3 2l1 3h-1zM509 358h-2l2 6h-1l-2 -6q0 -1 1 -1h2v1zM632 -20l-234 -61l23 -55h202l11 27l-4 10l-70 -18l-15 41l100 25zM632 64l-234 -60l13 -31l234 59z M400 138v-47l14 -34l230 59v22h-244zM561 329q-11 2 -20.5 2.5t-18.5 0.5q-8 0 -18 -0.5t-22 -2.5l15 -137h51l13 137v0zM449 192l-16 129q-14 -3 -22.5 -6.5t-15.5 -5.5q-8 -3 -12.5 6t-5 20.5t1.5 22.5t8 13q30 8 65 14t70 6q37 0 71.5 -6t65.5 -14q5 -2 7 -12.5t1 -22.5 t-5.5 -21t-12.5 -6q-14 6 -40 12l-13 -129h49q28 24 47 61t19 82q0 39 -15 74t-40.5 60.5t-60 40.5t-73.5 15t-73.5 -15t-60 -40.5t-40.5 -60.5t-15 -74q0 -42 17.5 -79.5t48.5 -63.5h50zM779 335q0 -51 -18.5 -95.5t-47.5 -75.5v-80l-16 -5l32 -76l-32 -8l32 -73l-33 -9 l10 -24l-31 -71h-57q-3 -20 -30.5 -34t-65.5 -14q-39 0 -66 14t-30 34h-57l-54 130l31 9l-32 75l35 10l-19 44v79q-29 33 -47 77t-18 93q0 54 20 100.5t55 81.5t82 55t100 20t99.5 -20t81.5 -55t55.5 -81.5t20.5 -100.5zM1028 379q2 -23 2.5 -44t-1.5 -43l-148 14q3 29 0 60 l147 13v0zM845 721q17 -14 32.5 -29.5t29.5 -32.5l-113 -93q-8 11 -20 22.5t-22 19.5zM552 685q-14 2 -30 2q-15 0 -29 -2l-15 145q22 2 44 2q23 0 44 -2l-14 -145v0zM136 660l30 32.5t32 29.5l96 -115q-11 -8 -22.5 -19.5t-19.5 -22.5l-116 95v0z" />
<glyph unicode="&#xfb00;" horiz-adv-x="645" d="M250 398l-78 -416q-12 -61 -34 -103q17 -8 39.5 -12t42.5 -4q54 0 83.5 26.5t41.5 91.5l79 417h-174zM478 614q-20 8 -39 11.5t-36 3.5q-57 0 -88.5 -26.5t-39.5 -75.5l-5 -30h173l7 37q4 24 11 43.5t17 36.5zM735 626q-14 4 -30 6t-30 2q-44 0 -67 -23.5t-34 -80.5 l-6 -33h114l-20 -99h-113l-77 -409q-12 -64 -35.5 -108t-57 -71.5t-77.5 -39.5t-98 -12q-38 0 -74 7t-68 20q-28 -18 -57.5 -25.5t-66.5 -7.5q-21 0 -43.5 2t-43.5 7l30 105q14 -4 29.5 -6t29.5 -2q21 0 37.5 5.5t29.5 20t23 38.5t17 61l78 415h-85l20 99h85l6 35 q17 99 82.5 150t178.5 51q38 0 74.5 -6t68.5 -18q50 29 128 29q20 0 40.5 -1.5t40.5 -6.5z" />
<glyph unicode="&#xfb01;" horiz-adv-x="583" d="M537 614q-26 8 -57 13.5t-58 5.5q-67 0 -102 -27.5t-46 -82.5l-4 -26h172h125l-95 -497h-124l75 398h-173l-78 -416q-23 -121 -81.5 -175.5t-152.5 -54.5q-21 0 -43.5 2t-43.5 7l30 105q14 -4 29.5 -6t29.5 -2q21 0 37.5 5.5t29.5 20t23 38.5t17 61l79 415h-85l20 99h84 l3 18q17 109 84.5 166t195.5 57q45 0 80 -5t71 -14z" />
<glyph unicode="&#xfb02;" horiz-adv-x="582" d="M473 0h-125l120 628q-17 3 -35 4.5t-33 1.5q-52 0 -82.5 -22.5t-39.5 -71.5l-8 -43h106l-20 -99h-106l-78 -416q-23 -121 -81.5 -175.5t-152.5 -54.5q-21 0 -43.5 2t-43.5 7l30 105q14 -4 29.5 -6t29.5 -2q21 0 37.5 5.5t29.5 20t23 38.5t17 61l79 415h-85l20 99h84l9 52 q18 94 84.5 141.5t179.5 47.5q48 0 97 -4.5t95 -12.5z" />
<glyph unicode="&#xfb03;" horiz-adv-x="881" d="M250 398l-78 -416q-12 -61 -34 -103q17 -8 39.5 -12t42.5 -4q54 0 83.5 26.5t41.5 91.5l79 417h-174zM483 612q-21 9 -42 13t-38 4q-57 0 -88.5 -26.5t-39.5 -75.5l-5 -30h172l4 21q11 58 37 94zM835 615q-26 8 -57 13.5t-58 5.5q-66 0 -101.5 -27t-46.5 -86l-4 -24h297 l-95 -497h-125l76 398h-172l-77 -409q-12 -64 -35.5 -108t-57 -71.5t-77.5 -39.5t-98 -12q-38 0 -74 7t-68 20q-28 -18 -57.5 -25.5t-66.5 -7.5q-21 0 -43.5 2t-43.5 7l30 105q14 -4 29.5 -6t29.5 -2q21 0 37.5 5.5t29.5 20t23 38.5t17 61l78 415h-85l20 99h85l6 35 q17 99 82.5 150t178.5 51q39 0 79.5 -7t75.5 -21q62 34 159 34q45 0 80 -5t71 -13z" />
<glyph unicode="&#xfb04;" horiz-adv-x="882" d="M251 398l-79 -416q-12 -61 -34 -103q17 -8 39.5 -12t42.5 -4q54 0 83.5 26.5t41.5 91.5l79 417h-173zM478 614q-20 8 -39 11.5t-36 3.5q-57 0 -88 -26.5t-39 -75.5l-6 -30h173l10 52q8 39 25 65zM771 0h-124l119 629q-17 3 -34.5 4.5t-32.5 1.5q-104 0 -123 -95l-7 -43 h113l-19 -99h-114l-77 -409q-12 -64 -35.5 -108t-57 -71.5t-77.5 -39.5t-98 -12q-38 0 -74 7t-68 20q-28 -18 -57.5 -25.5t-66.5 -7.5q-21 0 -43.5 2t-43.5 7l30 105q14 -4 29.5 -6t29.5 -2q21 0 37.5 5.5t29.5 20t23 38.5t17 61l79 415h-85l20 99h84l6 35q18 99 83.5 150 t178.5 51q38 0 78 -7.5t72 -19.5q60 33 154 33q48 0 97 -4.5t95 -12.5z" />
</font>
</defs>
</svg>
